<?xml version="1.0" encoding="UTF-8"?>
<svg id="Layer_2" data-name="Layer 2" xmlns="http://www.w3.org/2000/svg" xmlns:xlink="http://www.w3.org/1999/xlink" viewBox="0 0 226.45 226.45">
  <defs>
    <style>
      .cls-1 {
        opacity: .7;
      }

      .cls-2 {
        fill: url(#linear-gradient);
      }

      .cls-2, .cls-3, .cls-4, .cls-5 {
        stroke-width: 0px;
      }

      .cls-6 {
        opacity: .39;
      }

      .cls-3 {
        fill: url(#linear-gradient-2);
      }

      .cls-4 {
        fill: #4fccd5;
      }

      .cls-7 {
        opacity: .43;
      }

      .cls-5 {
        fill: #fff;
      }
    </style>
    <linearGradient id="linear-gradient" x1=".57" y1="112.9" x2="222.32" y2="113.54" gradientTransform="translate(0 0)" gradientUnits="userSpaceOnUse">
      <stop offset="0" stop-color="#36c5cf"/>
      <stop offset=".09" stop-color="#36adbc"/>
      <stop offset=".31" stop-color="#377d96"/>
      <stop offset=".52" stop-color="#385878"/>
      <stop offset=".7" stop-color="#383d62"/>
      <stop offset=".87" stop-color="#382c55"/>
      <stop offset="1" stop-color="#392751"/>
    </linearGradient>
    <linearGradient id="linear-gradient-2" x1="-412.3" y1="1234.76" x2="-190.55" y2="1235.4" gradientTransform="translate(-1110.94 454.73) rotate(-119.22)" gradientUnits="userSpaceOnUse">
      <stop offset="0" stop-color="#36c5cf" stop-opacity="0"/>
      <stop offset=".27" stop-color="rgba(55, 134, 157, .4)" stop-opacity=".4"/>
      <stop offset=".55" stop-color="rgba(56, 82, 115, .73)" stop-opacity=".73"/>
      <stop offset=".81" stop-color="rgba(56, 50, 89, .93)" stop-opacity=".93"/>
      <stop offset="1" stop-color="#392751"/>
    </linearGradient>
  </defs>
  <g id="Layer_17" data-name="Layer 17">
    <g id="Artwork_2" data-name="Artwork 2">
      <g>
        <g>
          <circle class="cls-2" cx="113.23" cy="113.23" r="113.21"/>
          <circle class="cls-3" cx="113.23" cy="113.23" r="113.21"/>
        </g>
        <g class="cls-7">
          <g class="cls-1">
            <g>
              <polygon class="cls-5" points="162.04 148.42 161.79 148.79 161.95 148.48 162.04 148.42"/>
              <polygon class="cls-5" points="162.43 147.75 162.32 148.15 162.09 147.99 162.43 147.75"/>
              <path class="cls-4" d="M95.55,118.81c-.1-.25.11-.4.02-.69.46-.36.72-.24,1,.06.1.44,0,.79-.28,1.02-.28.06-.63-.1-.74-.39Z"/>
              <path class="cls-4" d="M93.6,117.04c.18-.31.38-.07.57-.07.12.25.1.54-.01.84-.17.14-.43.1-.6-.03-.17-.12-.22-.39.04-.74Z"/>
              <path class="cls-4" d="M72.52,195.32c.16.16.15.53-.17.52l-.24-.07c-.09-.24.14-.57.41-.46Z"/>
              <polygon class="cls-4" points="111.74 152.51 111.66 152.46 111.79 152.28 111.86 152.33 111.74 152.51"/>
              <path class="cls-4" d="M72.93,193.66c.09-.03.12.05.16.12-.03.12-.23.33-.34.17.03-.12.02-.25.17-.29Z"/>
              <path class="cls-4" d="M113.99,150.27l.26.14c-.02.51-.52.71-.97.73.19-.22.25-.82.71-.87Z"/>
              <path class="cls-4" d="M77.5,193.59c.29.19.52.51.11.8-.31.05-.48.04-.69-.15-.05-.3.27-.6.58-.65Z"/>
              <path class="cls-4" d="M51.91,181.93l-.09.06c.46-.51,1.15-1.21,1.92-1.01.15.29-.21.48-.47.66-.45.38-1.06.18-1.46.53-.07-.09.21-.13.1-.24Z"/>
              <path class="cls-4" d="M124.85,96.82s-.18.06-.19.15l-.18-.43c-.66.07-.17-.64-.53-.76.14-.61.34-.83.96-1.16.62.03.57.19,1.17.24-.07.43,1.12.34.63,1,.24.45-.35.55-.28,1.01.03-.27-.34.03-.51.13l-.15.23c-.18-.34-.51-.18-.79-.03.16-.16-.08-.24-.14-.36Z"/>
              <path class="cls-4" d="M56.91,180.4c.2-.02.43-.14.61-.04.06.35-.47.54-.74.7h-.56c.13-.24.39-.49.69-.66Z"/>
              <path class="cls-4" d="M57.9,177.89c.09-.02.18.03.26-.02l.08.11c-.33.49-.86.41-1.3.63.17-.21.55-.67.97-.72Z"/>
              <path class="cls-5" d="M57.79,178.19c-.03-.08-.12.28-.27.14l.27-.14Z"/>
              <path class="cls-4" d="M57.6,176.81v.06s0-.06,0-.06l-.21.08c.09-.04.12-.14.21-.08Z"/>
              <path class="cls-4" d="M67.46,166.86c.07-.02.1.04.14.09h-.2c.06,0,.05-.06.05-.09Z"/>
              <path class="cls-4" d="M86.24,169.88c.18-.02.28.06.36.2-.06.21-.11.25-.33.26-.03-.18-.3-.32-.02-.46Z"/>
              <path class="cls-4" d="M83.91,160.09c.06-.1.2-.16.34-.13,0,.17.18.34.03.47-.22.18-.4-.16-.37-.34Z"/>
              <path class="cls-4" d="M81.03,155.79c.25-.05.63-.19.81.14.25.29.26.56-.02.79-.13.36-.46-.03-.65.05-.3-.32-.17-.63-.15-.98Z"/>
              <path class="cls-4" d="M83.52,158.94c.07-.05.11-.13.21-.1.1.12.16.23.13.37-.15.13-.48-.09-.35-.28Z"/>
              <path class="cls-4" d="M91.16,165.38c.13-.03.24-.13.41-.07.04.22.29.29.17.56-.33.34-.78-.1-.58-.49Z"/>
              <polygon class="cls-4" points="72.68 180.05 72.41 180.42 72.4 180.19 72.68 180.05"/>
              <path class="cls-4" d="M75.11,179.38c.3-.05.68-.22.76.16.05.74-.91.89-1.31,1.12l-.1.07c.05-.14-.18-.14-.15-.3-.37.44-.46-.27-.82.12.42-.57.94-.95,1.61-1.17Z"/>
              <path class="cls-4" d="M86.53,158.2c.1-.21.27.06.39.07.08.18-.11.35-.29.26-.12-.1-.1-.2-.1-.33Z"/>
              <path class="cls-4" d="M92.66,162.75c.15-.05.21.15.29.24.04.13-.15.18-.22.28-.26-.03-.35-.44-.07-.52Z"/>
              <path class="cls-4" d="M90.63,159.9c.19-.04.38.12.38.29-.13.07-.2.25-.36.11-.23-.13,0-.25-.02-.4Z"/>
              <path class="cls-4" d="M92.76,162.03c.3.03.54-.65.79-.07-.28.08-.27.61-.69.49-.02-.11-.15-.25-.1-.42Z"/>
              <path class="cls-4" d="M78.61,175.74c.19-.14.36-.27.31-.55-.12-.06-.35.04-.4-.17.97-.4,1.82-1.35,2.91-.88.18.18.17.42.12.65-.14.11-.41.36-.44.62-.54-.1-.72.81-1.34.75.09-.03.04-.15.08-.25-.41.03-.93.14-1.34.05l.1-.23Z"/>
              <path class="cls-4" d="M83.25,178.33c.59.58-.48.85-.78,1.07l-.81.05c.3-.57.85-1.18,1.59-1.12Z"/>
              <polygon class="cls-5" points="82.83 178.65 82.85 179.03 82.43 178.88 82.81 178.98 82.83 178.65"/>
              <path class="cls-4" d="M124.61,134.33l.34-.07c.51,1.02-.38,2.25-.99,3.03l-.52.47c-.16-1.16.31-2.65,1.17-3.43Z"/>
              <polygon class="cls-4" points="85.29 178.1 85.02 178.11 85.15 177.93 85.29 178.1"/>
              <path class="cls-4" d="M87.56,176.9c.13-.03.31,0,.48.02.16.15.07.43-.02.58-.36.45-.91.55-1.36.58v.11c-.03.11.07-.16.08-.25-.11-.19-.27.05-.39.1.21-.48.64-1.04,1.2-1.13Z"/>
              <path class="cls-5" d="M87.38,177.53h-.2c.03.29-.02-.03-.17.12.36-.04-.06-.23.38-.12Z"/>
              <path class="cls-4" d="M89.35,177.12c.12-.5.72-.94,1.22-1.05.24,0,.62.03.49.37-.22.38-.53.83-.99,1-.31-.2-.6.15-.89.23-.07-.19.62-.37.17-.54Z"/>
              <polygon class="cls-5" points="89.81 176.76 89.92 176.79 89.87 176.83 89.81 176.76"/>
              <path class="cls-4" d="M103.55,185.87c.17-.06.17.1.26.15.03.5-.6.79-.95,1-.3-.16-.27.35-.59.29.38-.49.56-1.21,1.28-1.44Z"/>
              <path class="cls-4" d="M74.87,141c.57.41.06.69-.07.99-.52.58-1.45.11-2.01.44h-.44c.86-.3,1.14-1.98,2.52-1.43Z"/>
              <path class="cls-4" d="M108.06,168.93c.11.02.23-.1.36-.05.16.11.38.28.22.63l-.66.67c-.07-.02-.04-.09-.07-.16l-.43.11c-.27-.5.26-.88.58-1.2Z"/>
              <polygon class="cls-5" points="102.89 173.81 102.69 174.07 102.72 173.96 102.89 173.81"/>
              <path class="cls-4" d="M113.7,163.8l-.03-.19c-.14-.02-.16.13-.25.19-.11-.5.22-.82.4-1.34.32-.13.65-.4,1.04-.18.34.18.14.53.19.8-.09.41-.72.35-.77.81l-.03-.1-.83.18c.09-.06.13-.23.27-.17Z"/>
              <polygon class="cls-4" points="83.03 144.78 82.77 144.85 82.94 144.69 83.03 144.78"/>
              <path class="cls-4" d="M84.46,146.01c.03-.17.1.3-.03.26h.52s-.55.15-.55.15c.03-.14.05-.27.07-.41Z"/>
              <path class="cls-4" d="M84.63,145.96c-.09-.13.1-.19.13-.26.18.05.33.01.46.2.06.12-.09.14-.12.21-.02-.12.04-.18,0-.32-.22-.09-.39.03-.43.12.03.07.08.05.14.08l-.1.2v-.23s-.09,0-.09,0Z"/>
              <path class="cls-4" d="M83.69,143.55h-.08s.08,0,.08,0l-.04.27c.12-.04.06-.16.04-.27Z"/>
              <path class="cls-4" d="M103.29,156.97c.57-.42.57-1.52,1.52-1.58.43.13.45.64.26.86-.39.56-1.15.49-1.67.82l-.11-.1Z"/>
              <path class="cls-4" d="M119.4,160.72c.24-.31.45-.77.88-.67.46.12.14.47.19.72-.12.32-.41.47-.62.68-.08-.09-.14-.2-.24-.08-.15-.34-.24-.2-.21-.65Z"/>
              <path class="cls-4" d="M96.77,148.11c.15-.15.4-.28.65-.17.26.19.29.39.2.55-.15.21-.36.48-.69.42-.42-.28-.13-.51-.16-.8Z"/>
              <path class="cls-4" d="M121.8,160.69c0-.31-.34-.03-.32-.15.02-.13.22-.12.26-.13l.12-.02c.07.25-.18.61-.43.64.08-.12.31-.1.37-.34Z"/>
              <path class="cls-4" d="M83.89,136.94c.02-.18.25-.14.5-.09.26.19.59.49.44.58-.16.05-.82-.08-.95-.49Z"/>
              <path class="cls-4" d="M90.17,141.36c-.08-.09-.14-.06-.2-.07-.21-.26.1-.17.19-.15.18-.42.21-1.01,1.06-.85.31.17.51.44.52.65l-.52.56-.02-.07c-.39.1-.65.2-1.14.15.03-.08.16-.11.1-.22Z"/>
              <path class="cls-4" d="M101.59,149.27c.09.12.22.1.34.14l-.07-.06.06-.08.07.06c-.06.03-.03.08-.01.11.23.03.39-.07.23-.29-.36.31-.48-.34-.77-.25.1-.28.37-.87.97-.57.19.15.25.41.26.58-.18.13-.24.45-.34.67.02-.03.08-.06.04-.14l-.07-.05-.27.25c-.04-.1-.25-.11-.23-.28l-.28.12c.02-.08.17-.11.1-.22Z"/>
              <path class="cls-4" d="M132.86,161.61c.39-.27.42.28.39.52-.08.73-.92,1.01-.94,1.63.07-.64.02-1.56.55-2.14Z"/>
              <path class="cls-5" d="M101.91,149.06c.06-.08.06.16,0,.13l-.07-.05.06-.08Z"/>
              <path class="cls-5" d="M101.82,148.75c.11.06.26.05.39.07l.07.15c.06-.03.12.04.19.09l-.36-.03c-.1-.15-.04-.27-.29-.29l.1.2c-.1-.05-.08-.13-.1-.2Z"/>
              <path class="cls-4" d="M141.05,116.93l-.39.15c-.15-.05.91-.97-.03-.97.65-.63.89-1.85,1.91-1.96,0-.1.15-.21.06-.32l-.35.2c.13-.58,0-1.39.58-1.81.15-.04.42-.11.5.1.64,1.21-1.49,1.93-.15,3.13.09.64-.27,1.55-.7,1.95l-.03.7c.09-.51-.47-.28-.63-.47l-.15.4-.15-.39-.51.29c.08-.2.29-.67.04-.99Z"/>
              <path class="cls-4" d="M124.99,156.1c.32-.27.42-.88.99-.76.52.2-.01.64.08,1-.08.27-.41.19-.45.52l-.02-.08c-.17-.06-.94-.18-.6-.68Z"/>
              <path class="cls-4" d="M94.05,141.2c-.06-.28.04-.42.32-.46.13.07.31.07.36.2.28.37-.15.42-.35.51.02-.12-.25-.15-.32-.25Z"/>
              <polygon class="cls-5" points="94.36 141.11 94.25 141.26 94.21 141.23 94.36 141.11"/>
              <path class="cls-4" d="M130.61,153.37c-.17.32-.21-.19-.34-.08.06-.3.11-.85.53-.93.43.12.15.39.26.66l-.39.54-.05-.18Z"/>
              <polygon class="cls-5" points="130.59 153.2 130.74 152.87 130.84 153.15 130.81 153.07 130.53 153.34 130.46 153.14 130.59 153.2"/>
              <path class="cls-4" d="M132.24,146.06c-.13-.3-.27-.87.07-1.21.13-.21.43-.52.74-.56.65.35.18,1.12.25,1.67l-.04-.09c-.32-.03-.38.36-.57.52-.11-.19-.32-.33-.45-.34Z"/>
              <path class="cls-4" d="M143.46,148.82c-.08-.07-.2.1-.28.12l-.06.18c.23-.76-.07-1.63.55-2.24.33-.11.6.5.5.91-.09.61-.43,1.04-.72,1.52v-.49Z"/>
              <path class="cls-4" d="M93.94,138.11c-.27-.18-.2-.53.02-.68.14-.11.38-.15.77-.01.38.15.51.38.58.58.01.2-.26.21-.1.43-.28-.2-.36-.13-.43-.05-.06.07-.09.11-.3-.06l-.17.02c0-.07-.23-.2-.38-.23Z"/>
              <path class="cls-4" d="M103.61,142.22l-.03-.07.05.02.05-.11.12.09-.27.1s.09,0,.08-.04Z"/>
              <path class="cls-4" d="M136.33,145.14l-.27-.08c.39-.37.2-1.61,1.03-1.65.62,0,.51.71.6,1.18-.3.13-.13.41-.2.65-.07.02-.08-.06-.13-.11-.17.44-.28.06-.53.44l-.04-.09-.26.3c.12-.49-.45-.14-.2-.63Z"/>
              <path class="cls-4" d="M103.98,141.24c.25.09.18.33.21.4l-.27.41-.14-.2c.31.24.33-.09.38-.12-.1-.06-.14-.19-.29-.22-.44-.04-.23.32-.28.43l-.04-.06-.2.23c.04-.35-.02-.9.64-.86Z"/>
              <path class="cls-4" d="M112.65,135.89c-.01-.06.06-.1.1-.12l.21.06-.18.16c-.06-.05-.07-.11-.14-.1Z"/>
              <path class="cls-4" d="M131.86,135.91c.05.05.1,0,.17-.02l.1.26c.08-.07-.25-.13-.4.06.14-.03.09-.21.14-.29Z"/>
              <path class="cls-4" d="M113.26,127.95l.02-.06.21.06c0,.13-.21.18-.23,0Z"/>
              <path class="cls-4" d="M113.52,127.56c-.14-.23,0,0,.04.08l.19-.08-.13-.36-.11.04.11-.04c-.03-.14-.21-.09-.29-.14-.17.16-.05.42.06.64l-.08.05c-.16-.37.03-.71.2-1.13.13-.1.29-.09.4-.06.23.49-.04.91-.33,1.26l-.06-.24Z"/>
              <polygon class="cls-5" points="113.91 127.2 113.83 127.24 113.72 127.05 113.91 127.2"/>
              <path class="cls-4" d="M136.58,122.47c.24-.32.62-.16.84.08-.05.23.14.45.09.68-.06-.02-.49-.2-.45.15.23-.19.28.25.24.45l-.08-.24c-.26.06-.18.31-.39.45l-.08-.24-.29.18c0-.49-.19-.99.12-1.51Z"/>
              <path class="cls-4" d="M121.07,123.61c.1-.59-.05-1.16.64-1.37.35.04.44.51.44.79l-.22.76-.04-.08-.38.2-.04-.08-.22.18c.07-.23-.04-.54-.18-.4Z"/>
              <path class="cls-5" d="M121.41,122.88c-.15.06-.12.28-.17.36-.07-.09-.07-.23-.07-.33.2-.22.44.06.6.08.12.24-.19.56-.11.73.02-.52-.46-.24-.25-.83Z"/>
              <path class="cls-4" d="M121.65,122.95c.02.07.03.15.09.13l.09.03-.05.16-.09-.03.03-.1-.25.09.18-.29Z"/>
              <path class="cls-4" d="M137.49,125.97c.1-.09.25.05.38.06.21.27.06.54-.03.84-.07-.19.11-.26-.08-.47l-.34.04c.09.12.13.31-.01.35-.08-.26-.17-.61.09-.82Z"/>
              <path class="cls-4" d="M119.71,119.82l.25-.06.08.45c0-.07-.02-.15-.08-.13l-.12.07.21.39c-.17.02-.13.2-.19.29l.07-.22-.12-.04.09-.08-.25-.25-.24.78c.09-.4,0-.86.31-1.18Z"/>
              <path class="cls-4" d="M157.01,91.23c-.44-.29-.3.39-.53.5-.11-.2.31-.42.02-.64-.19.09-.43.36-.35.65l-.02.07c-.17-.42.36-1.16-.19-1.52-.04.16-.33.25-.4.06.12-.55-.29-.86-.24-1.39l-.21.18c-.01-.44.23-.96.33-1.44-.61.21.15-.81-.33-.83.4-.17.68-.5.52-.75.44-.46,1.18-1.01,1.84-.84.43-.13.4.2.84.39l-.12.07c.15.07.24.34.44.18,0,.27.04.56.27.72.3.08.53.45.37.68.04.11.13.1.19.12-.04.16-.04.3.05.43.05.7-.13,1.44.24,2.23l-.06-.26-.28.06.36.68c-.25-.13-.38-.62-.71-.5-.24.18-.09.46-.12.69l-.09-.26c-.3.16.02.66-.31.91-.31-.5-.65-.25-.96.05l-.21.76c.1-.35,0-.82-.34-.99Z"/>
              <path class="cls-4" d="M123.22,117.01c0,.1.08.13.17.17.25-.05.26-.28.4-.44l-.18-.17c-.26.08.02.32-.28.31-.27-.27.19-.52.29-.79.48-.03.32.49.2.73,0,.38-.35.43-.53.64,0-.07-.23-.29-.07-.44Z"/>
              <path class="cls-4" d="M126.15,112.57c.28-.3.82-.47.98-.26.2,0,.22.22.3.28.19-.34.67-.62.98-.2.09,1.32-1.14,2-1.68,2.44l-.13-.28-.26.24c-.43-.74-.56-1.47-.2-2.22Z"/>
              <path class="cls-4" d="M144.44,61.67l-.03.15c-.02-.23-.21-.39-.34-.6-.11.07-.21.12-.21.28l.05.07c-.11-.08.09-.52-.3-.44l-.08.08c.21-.66-.38-.89-.18-1.48-.5-.59.29-1.08.33-1.52.24.07.38-.19.59-.28l1.27.21c.08.27.31.43.55.7.25-.34.65-.69,1.05-.75.76-.16.69.63,1.15.9-.23.28-.11.69-.01.99l.1.18c-.51-.38-.48.56-.67.88l-.04.22c-.1-.14-.03-.39-.24-.43l-.09.53c-.01-.1.01-.22-.1-.34l-.24.11c.05-.12-.07-.17-.12-.24-.09-.05-.17.07-.24.12l-.11-.28c-.22.15-.29.37-.58.21l-.26.72-.12-.25c-.14.07-.22.18-.22.34l.05.07-.19-.19-.16.51c-.23-.11-.2-.83-.61-.49Z"/>
              <path class="cls-4" d="M147.36,106.33l-.21.11c-.07-.53-.67-1.18-.31-2.03.15-.52.49-.73.87-1.18.83-.01,1.1.48,1.42,1.18-.28.34-.12,1.2-.34,1.63l.05.14-.12-.31-.68.96c-.14-.23-.5-.29-.68-.5Z"/>
              <polygon class="cls-5" points="132.82 114.11 132.76 114.08 132.84 113.88 132.9 113.9 132.82 114.11"/>
              <path class="cls-4" d="M132.48,109.37c.06.02.09.1.11.14-.08-.13-.42-.03-.31.18-.05-.12,0-.41.2-.33Z"/>
              <path class="cls-4" d="M133.75,106.97l-.11.03c-.03.09,0-.41-.27-.34-.18-.94,1.36-.66.82-1.71.57-.25.6-.98,1.3-.88.51.16.6.73.59,1.2l-.1.71c-.11-.07-.22.05-.22.15l-.11.29c-.33-.36-.3.36-.63.4l.03-.09c-.46-.11-.41.45-.83.49l-.18.2c-.22-.05-.18-.31-.3-.45Z"/>
              <path class="cls-4" d="M141.26,88.43c-.15.18.01-.39-.29-.15.09-.33-.28-.38-.28-.63l-.08.05c.36-.46-.64-.61.04-1.3-.32-.48.54-.54.48-.91.67-.31.95-.27,1.53.12.4.44.09.26.49.82l.14.3c-.52.02.41.54-.18.64-.04.25.11.46-.03.71-.04-.11-.13-.13-.19-.15-.2.11-.16.35-.23.49l-.2-.12-.25.33c0-.1-.09-.12-.19-.15l-.13.22c-.41.05-.19-.61-.64-.27Z"/>
              <polygon class="cls-5" points="144.81 88.69 144.72 89.23 144.75 88.91 144.81 88.69"/>
              <path class="cls-4" d="M158.45,79.13l-.22-.05c.16-.23-.16-.24-.23-.39.14-.45.2-1.11.66-1.14l.63.32c-.17.2.08.5.12.74-.24-.09-.19.4-.22.36l-.07-.09c-.14.28-.24.32-.52.52.1-.15,0-.3-.16-.28Z"/>
              <rect class="cls-5" x="158.7" y="78.86" width=".33" height=".06" transform="translate(45.3 215.15) rotate(-76.6)"/>
              <path class="cls-4" d="M175.51,80.87c.1-.44.6-.8.96-.39.19.29.1.67-.06.96-.28.37-1.19.12-.9-.57Z"/>
              <path class="cls-4" d="M153.33,67.42c-.22-.01-.15-.06-.42-.16-.04-.27-.04-.73.24-.91.28-.11.53-.06.74.15.16.33.05.24.11.59-.23.19-.36.52-.69.42l.02-.09Z"/>
              <path class="cls-4" d="M152.66,65.3c.16,0,.2.11.28.22-.05.12-.19.3-.35.16l.07-.38Z"/>
              <path class="cls-4" d="M163.2,75.71c-.15-.17-.15-.48-.05-.77.16,0,.34-.24.44.02.11.24.12.48.06.74-.13.04-.3.21-.37-.08l-.08.09Z"/>
              <path class="cls-5" d="M163.44,75.34l.08-.08c-.08-.19.24.4-.13.32-.23-.12-.02-.18.05-.24Z"/>
              <path class="cls-4" d="M169.97,67.9l-.23.38c.12-.3-.04-.5-.18-.74-.06-.01-.15-.03-.23.06.11-.23-.02-.39-.04-.61l-.31.12c.3-.83.02-2.35,1.26-2.72l1.14.38-.07.06c.51.34.45.86.83,1.25l.16.03-.35.36c.18.24-.14.08-.15.32l.18.71c-.13,0-.13-.13-.18-.21-.3.08-.12.33-.1.51-.22-.18-.53.11-1,.38.08.09.03.18,0,.28.03-.17-.11-.27-.15-.38h-.06s-.21.55-.21.55c-.23-.15.14-.72-.3-.73Z"/>
              <path class="cls-4" d="M159.26,64.08c-.12-.26-.21-.27-.42-.18l-.11.08c0,.14-.01-.27.15-.31-.09-.22-.48-.16-.29-.52-.17-.3-.36.07-.55.07.04-.4.43-.29.36-.74-.67-.52.37-1.01.09-1.45.01-.06.05-.45.32-.4.05-.13-.09-.19-.12-.25.22-.36.92-.34.93-.63.16-.2.37-.13.53-.31.03,0,.21.09.37-.07,0,0,.02-.03.03-.05,0,.03,0,.06.02.06.08.21.2.14.3.05.09-.17.12-.06.18-.08.03,0,.03,0,.07.01.02.03.06-.07.06.12,0,0,0,.02,0,.04.07.05.13.04.19,0,.03-.02.06-.08.08-.1h.05s.06-.02.08-.02c0,.02-.01.06-.02.04h-.02s-.03.07-.04.1c-.04.09-.06.19,0,.3.6-.53.42.54,1.08.41-.18.11-.06.36.09.41l.15.03c-.36.31.18.63.14.89.09.22-.66.69-.11,1.19.1.33-.9.22-.53.83l.18.27c-.32.15-.26-.49-.57-.2-.18.31.17.3.19.54-.09-.05-.57-.75-.81-.08l.05.59c-.17-.13-.32-.36-.53-.44-.42.06.02.59-.24.46-.06-.18-.05-.45-.31-.39l-.41.5c.05-.46-.61-.35-.63-.76Z"/>
              <path class="cls-4" d="M170.65,52.99s-.11.03-.1.1c-.29-.1-.46-.62-.89-.59.12-.52-.76-.59-.42-1.1,0-.26-.46-.21-.11-.48-.04-.1-.13-.13-.22-.15.36-.57.16-1.26.72-1.69.11-.34.61-.15.59-.59l.11.19c.37-.05.65-.61,1.03-.15l.4-.07c.15.33.46.5.87.7.11.22-.06.71.35.71-.29.39.28.46.39.72l-.19.12.19.27c-.12,0-.22-.12-.32,0-.08.34.09.57.26.84-.06-.01-.16,0-.2-.11-.29.13.08.34-.04.54l-.15-.04-.06.28-.07-.08c-.35.11-.11.46-.16.67-.12-.06-.21-.34-.4-.19l-.38.23c.08.05.06.14.04.23l-.41-.32c-.31.19.17.49-.06.66-.02-.61-.55-.26-.77-.69Z"/>
              <path class="cls-4" d="M149.66,52.92c.16,0,.29-.16.46-.06.27.22-.02.54-.2.6-.15-.32-.39-.12-.26-.54Z"/>
              <path class="cls-4" d="M137.96,46.44c-.02-.16.11-.2.23-.27.27-.06.34.31.4.48-.14.32-.12-.03-.35.24-.2-.11-.29-.26-.28-.46Z"/>
              <path class="cls-4" d="M165.82,48.52c.14-.16.09-.4.37-.47.1.12.38.18.36.41l-.05.22c-.19.12-.14-.49-.43-.1l.18.2c-.18-.07-.37-.06-.42-.26Z"/>
              <path class="cls-4" d="M155.21,44.95c-.15-.03-.35-.15-.55-.29-.23-.41-.13-.84-.02-1.3.54-.4.71-.71,1.27-.49.25-.24.29.43.54.03.05.21-.03.68.37.47-.2-.11-.17.45-.13.59l.12.03c-.02.09-.25.1-.19.28.33.24-.23.3-.14.58-.04-.11-.14-.1-.23-.12-.14.03-.09.24-.15.36l.05.08-.09-.18-.44.22-.12-.19-.14.19-.16-.26Z"/>
              <path class="cls-4" d="M157.54,43.93c-.1-.12.13-.59-.24-.61.09-.11-.01-.23-.09-.31l-.15-.03c.17-.03.11-.2.16-.29-.03-.14-.18-.08-.29-.13.14-.07.14-.19.28-.26l-.06-.31c.09.02.15-.1.25-.11-.17-.53.47-.54.64-.87.2-.31.68.15.86-.36.42.69,1.01-.04,1.54.74-.01.07,0,.16-.11.21.01.24.33.24.47.17-.04.16-.17.19-.29.27.54.32-.03.85.13,1.15-.27-.09-.11.33-.32.39l.12.19-.28-.16c.03.17-.19.28.05.5-.37.08-.81-.25-.83.27-.05-.21-.25-.19-.4-.26-.5.67-.91-.5-1.44-.16Z"/>
              <path class="cls-4" d="M163.45,37.36c-.22-.21-.44.12-.49.21-.07-.15-.18-.21-.34-.24-.17.03-.11.22-.16.3-.16-.17.26-.62-.16-.61l-.19.13-.07-.42-.33.17c.1-.19.05-.7-.33-.71l-.4.09c-.02-.07.06-.12.12-.14.01-.37-.67-.02-.38-.49-.48.05-.85-.41-1.13-.4.14-.25-.18-.24-.26-.36.03-.13.16-.17.16-.32-.4-.08.18-.24-.08-.42.14-.25.56-.4.36-.76.35.38.58-.22.86-.21.03-.57-.57-.02-.69-.44.41-.18.8.32.99-.38l-.18-.28c.15-.11.62-.09.39-.49l.48-.22-.02-.33c.1-.03.21.11.3-.04.05-.16-.07-.21-.12-.3.24.07.47.01.66-.21l-.05-.42.59.06c0-.87.46.16.6-.77.25.85.62-.26.73-.56.05.24-.01.6.17.62.39.34.27-.6.43-.84v.87c.18.2.45.03.64-.09v-.19c.2,0,.36,1.25.65.36-.04.13.02.2.07.34.23.28.35-.44.54-.43.05.21-.72,1.13-.12,1.39l.7-.06c-.2.22-.39.27-.58.41.08,1.26,1.39.46,1.26,1.86-.34-.08-.48.36-.48.61-.09.54.56.45.37,1.02-.28-.11-.5.07-.63.33-.13.24-.17.53-.11.71.07.31.43.26.44.52-.23.03-.53-.54-.89-.17l.13.47c-.12-.17-.43-.12-.6-.01l.09.35c-.15-.06-.28-.38-.43-.09l.04.43c-.16,0-.13-.3-.35-.21-.11.08-.4.23-.22.44.03.18-.28-.33-.49.07l-.06.3c-.13-.17-.16-.48-.52-.42l-.12.56c-.1-.13-.12-.37-.32-.34l-.25.46c-.05-.25.06-.61-.24-.7Z"/>
              <path class="cls-4" d="M139.28,74.83c.14-.32.02-.8.59-.85.39.13,1.16.43.71.93l.12.19-.47.34c-.21-.31-.53.19-.73-.18,0-.16.04-.44-.22-.43Z"/>
              <path class="cls-4" d="M140.59,73.23l-.05-.46.05.46Z"/>
              <polygon class="cls-4" points="140.46 71.83 140.55 72.45 140.46 72.43 140.51 72.6 140.36 72.57 140.46 71.83"/>
              <path class="cls-4" d="M139.97,70.89c.02.07-.05.08-.09.14-.04-.13-.02-.23-.09-.34l-.24.33c.01-.31-.18-.48-.39-.69l-.07.04c-.33-.55-.17-1.29.07-1.78.33-.31.89-.57.84-1.11.28-.1.12.37.36.14.24-.23.77-.18,1.15-.29.18.51.48.45.86.66.13.16.02.54.38.46l-.29.16c.1.31.44.19.64.3l-.39.3c.3.26.08.82.15,1.09-.5.24-.05.82.14,1.12-.31.09-.63-.65-1.09-.31.05.07.16.13.11.25-.42.29-.45-.58-.8-.18l.42.86c-.58-.58-.78-1.26-1.67-1.14Z"/>
              <path class="cls-4" d="M140.44,71.54l-.08-.34.08.34Z"/>
              <polygon class="cls-4" points="144.15 69.13 144.14 69.19 143.89 69.14 144.15 69.13"/>
            </g>
          </g>
        </g>
        <g class="cls-6">
          <g class="cls-1">
            <g>
              <polygon class="cls-5" points="29.08 44.84 29.24 44.66 29.13 44.82 29.08 44.84"/>
              <polygon class="cls-5" points="28.81 45.18 28.9 44.96 29.02 45.07 28.81 45.18"/>
              <path class="cls-4" d="M65.87,67.21c.05.13-.07.18-.03.32-.26.09-.41.02-.57-.13-.07-.18,0-.37.17-.44.16,0,.36.11.42.25Z"/>
              <path class="cls-4" d="M66.99,68.18c-.1.1-.21-.01-.32-.04-.07-.12-.07-.22,0-.33.2-.1.61.17.33.37Z"/>
              <path class="cls-4" d="M79.15,18.44c-.07-.12.01-.32.19-.26l.13.08c0,.15-.18.29-.32.18Z"/>
              <rect class="cls-4" x="58.37" y="45.69" width=".14" height=".05" transform="translate(-9.78 74.87) rotate(-61.17)"/>
              <path class="cls-4" d="M78.63,19.31c-.06,0-.06-.05-.08-.09.04-.07.18-.16.22-.05-.03.06-.05.14-.14.14Z"/>
              <path class="cls-4" d="M57.12,47.17l-.15-.08c.01-.32.31-.47.59-.5-.12.15-.16.53-.44.58Z"/>
              <path class="cls-4" d="M75.87,18.81c-.16-.14-.26-.34.03-.48.2,0,.3.02.41.15,0,.18-.24.33-.44.33Z"/>
              <path class="cls-4" d="M86.13,30.9h.03c-.18.08-.42.16-.62-.19-.02-.19.1-.15.19-.15.16-.02.31.28.45.26,0,.06-.07-.01-.05.07Z"/>
              <path class="cls-4" d="M49.63,78.03s.11-.04.11-.1l.12.25c.39-.07.12.39.33.45-.08.39-.18.54-.54.78-.37.01-.34-.09-.7-.1.03-.27-.67-.17-.4-.6-.16-.27.19-.36.14-.63-.01.17.2-.03.3-.1l.08-.15c.11.2.31.09.47-.02-.09.1.05.14.09.21Z"/>
              <path class="cls-4" d="M84.52,29.99c-.07-.05-.15-.06-.2-.16,0-.19.19-.13.29-.13l.18.17c-.06.07-.16.12-.27.11Z"/>
              <path class="cls-4" d="M84.09,30.94s-.06-.07-.08-.06l-.02-.08c.12-.15.29.03.44.05-.06.06-.2.18-.33.09Z"/>
              <path class="cls-5" d="M84.13,30.83s.05-.1.09,0h-.09Z"/>
              <path class="cls-4" d="M84.16,31.56v-.03s0,.03,0,.03l.07.02s-.04.03-.07-.02Z"/>
              <path class="cls-4" d="M81.52,34.45s-.05-.03-.07-.06l.08.02s-.01.03,0,.04Z"/>
              <path class="cls-4" d="M71.58,32.63c-.1.03-.16-.01-.22-.08.01-.12.03-.15.15-.18.04.1.2.16.07.26Z"/>
              <path class="cls-4" d="M74.11,37.92c-.02.06-.09.11-.17.1-.02-.1-.15-.18-.08-.26.1-.12.24.05.25.16Z"/>
              <path class="cls-4" d="M76.29,40.08c-.13.04-.32.16-.46-.02-.18-.14-.22-.29-.1-.44.02-.21.25-.02.35-.08.21.15.18.33.22.53Z"/>
              <path class="cls-4" d="M74.48,38.53s-.04.08-.1.07c-.07-.06-.12-.12-.13-.2.07-.08.28,0,.23.13Z"/>
              <path class="cls-4" d="M69.34,35.63c-.07.03-.12.1-.22.08-.05-.12-.2-.13-.17-.3.15-.23.46-.02.39.22Z"/>
              <polygon class="cls-4" points="78.02 26.98 78.14 26.81 78.15 26.94 78.02 26.98"/>
              <path class="cls-4" d="M76.81,27.16c-.16,0-.34.08-.41-.13-.06-.42.44-.44.64-.54l.05-.03c-.02.07.1.09.08.18.17-.22.24.18.41,0-.19.28-.44.46-.78.53Z"/>
              <path class="cls-4" d="M72.88,39.22c-.03.13-.16,0-.23,0-.07-.09.02-.21.13-.17.08.04.08.1.1.18Z"/>
              <path class="cls-4" d="M68.8,37.29c-.08.04-.14-.06-.2-.11-.04-.07.07-.12.09-.19.15-.01.26.22.11.29Z"/>
              <path class="cls-4" d="M70.33,38.7c-.1.05-.23-.03-.26-.12.07-.06.08-.17.19-.1.15.05.03.15.06.23Z"/>
              <path class="cls-4" d="M68.84,37.72c-.17.02-.23.44-.44.13.15-.08.07-.38.33-.36.03.06.12.13.11.23Z"/>
              <path class="cls-4" d="M75.2,29.07c-.09.08-.17.15-.12.31.07.03.19-.02.23.09-.48.22-.87.75-1.5.52-.11-.1-.14-.23-.13-.36.07-.07.19-.22.19-.36.31.05.34-.45.68-.43-.05.02,0,.08-.02.14.22-.02.49-.09.71-.04l-.03.13Z"/>
              <path class="cls-4" d="M72.44,27.68c-.38-.31.22-.49.37-.63l.45-.05c-.13.34-.39.7-.82.68Z"/>
              <polygon class="cls-5" points="72.65 27.48 72.61 27.27 72.87 27.34 72.64 27.3 72.65 27.48"/>
              <path class="cls-4" d="M49.86,56.23h-.21c-.21-.63.41-1.28.83-1.68l.34-.23c0,.7-.39,1.53-.96,1.92Z"/>
              <polygon class="cls-4" points="71.29 27.89 71.45 27.88 71.38 27.99 71.29 27.89"/>
              <path class="cls-4" d="M70.1,28.73c-.08.02-.18.02-.28.02-.11-.08-.08-.24-.04-.33.17-.28.48-.38.73-.43v-.06c0-.07-.04.1-.03.15.08.1.15-.05.21-.09-.08.3-.27.65-.59.73Z"/>
              <path class="cls-5" d="M70.15,28.36h.12c-.04-.18.01,0,.09-.1-.2.05.05.13-.2.1Z"/>
              <path class="cls-4" d="M69.05,28.73c-.02.3-.33.6-.61.71-.14.02-.36.04-.32-.17.09-.24.23-.53.48-.66.2.09.33-.13.49-.2.06.1-.32.27-.05.33Z"/>
              <polygon class="cls-5" points="68.82 28.98 68.75 28.97 68.77 28.94 68.82 28.98"/>
              <path class="cls-4" d="M59.84,25.09c-.09.05-.11-.04-.17-.06-.06-.3.29-.55.48-.72.19.06.14-.24.33-.24-.2.34-.23.79-.64,1.02Z"/>
              <path class="cls-4" d="M81.76,47.73c-.38-.17-.11-.39-.09-.57.2-.37.79-.2,1.05-.42l.24-.04c-.44.22-.33,1.19-1.2,1.02Z"/>
              <path class="cls-4" d="M59.14,35.56c-.07,0-.12.08-.2.07-.1-.04-.25-.12-.2-.34l.3-.46s.04.05.06.08l.24-.11c.22.26-.05.54-.2.76Z"/>
              <polygon class="cls-5" points="61.54 32.11 61.63 31.93 61.62 32 61.54 32.11"/>
              <path class="cls-4" d="M56.46,39.1l.04.11c.08,0,.08-.09.12-.13.12.28-.04.5-.08.81-.18.1-.34.28-.59.18-.22-.08-.13-.29-.19-.44.02-.23.38-.26.36-.53l.03.05.46-.18s-.05.14-.14.13Z"/>
              <polygon class="cls-4" points="76.55 46.57 76.7 46.49 76.61 46.61 76.55 46.57"/>
              <path class="cls-4" d="M75.57,46.04c0,.11-.09-.17,0-.16l-.32.08.32-.17v.26Z"/>
              <path class="cls-4" d="M75.47,46.09c.07.06-.05.13-.06.18-.11,0-.2.05-.3-.05-.05-.07.04-.1.05-.15.02.07-.01.12.02.2.14.02.23-.08.25-.14-.03-.04-.06-.02-.09-.02l.04-.14.02.14.06-.02Z"/>
              <path class="cls-4" d="M76.25,47.44h.05s-.05,0-.05,0v-.18c-.07.04-.02.11,0,.18Z"/>
              <path class="cls-4" d="M63.23,42.01c-.3.32-.2,1-.76,1.15-.27-.03-.32-.34-.23-.49.18-.39.63-.44.92-.7l.07.05Z"/>
              <path class="cls-4" d="M53.47,41.27c-.12.18-.21.44-.46.4-.27-.05-.12-.25-.16-.39.04-.18.21-.26.3-.4.05.05.1.11.14.03.12.18.16.11.18.36Z"/>
              <path class="cls-4" d="M67.86,46.67c-.1.13-.26.26-.42.23-.17-.09-.19-.22-.14-.34.1-.17.2-.37.41-.38.27.12.12.31.15.5Z"/>
              <path class="cls-4" d="M52.08,41.36c.02.17.2,0,.2.08,0,.07-.12.07-.14.08h-.07c-.06-.12.05-.32.2-.34-.04.07-.17.06-.19.19Z"/>
              <path class="cls-4" d="M76.37,52.09c-.04.17-.2.21-.38.24-.17-.09-.38-.24-.27-.37.12-.1.6-.2.65.12Z"/>
              <path class="cls-4" d="M72.2,50.22c.05.05.09.01.14,0,.13.15-.07.16-.14.17-.13.37-.18.86-.73.93-.2-.07-.32-.24-.33-.41l.36-.56v.05c.27-.17.45-.31.78-.39-.03.07-.11.12-.08.2Z"/>
              <path class="cls-4" d="M64.78,46.64c-.06-.07-.14-.03-.22-.05l.05.03-.03.06-.05-.03s.01-.05,0-.08c-.15,0-.24.1-.13.22.21-.26.31.16.49.06-.06.2-.19.64-.58.52-.12-.08-.16-.25-.18-.36.1-.12.13-.33.18-.49-.01.02-.05.05-.02.1l.05.03.16-.21c.03.06.16.04.15.15l.17-.12c-.01.06-.1.1-.05.16Z"/>
              <path class="cls-4" d="M45.76,40.78c-.2.11-.25-.15-.26-.26-.02-.35.45-.42.39-.74.03.32.11.74-.14,1Z"/>
              <path class="cls-5" d="M64.59,46.83c-.03.06-.04-.1-.01-.08l.04.03-.03.06Z"/>
              <path class="cls-5" d="M64.66,47.02c-.07-.02-.16,0-.24,0l-.05-.09s-.07,0-.12-.04l.22-.03c.07.09.04.18.19.16l-.07-.12c.07.02.05.08.07.12Z"/>
              <path class="cls-4" d="M39.3,66.66l.23-.11c.09.03-.52.64.04.6-.37.42-.48,1.18-1.08,1.29,0,.06-.08.14-.02.2l.2-.14c-.06.37.04.84-.28,1.12-.09.03-.24.08-.3-.03-.42-.7.83-1.24,0-1.91-.07-.39.12-.98.36-1.25v-.44c-.04.33.29.16.39.27l.08-.26.1.24.3-.21c-.04.13-.16.43,0,.63Z"/>
              <path class="cls-4" d="M50.55,43.84c-.17.13-.2.46-.53.37-.31-.12-.02-.34-.1-.53.03-.14.22-.09.23-.26l.02.04c.1.04.55.12.38.37Z"/>
              <path class="cls-4" d="M69.51,51.33c0,.24-.09.41-.28.52-.08-.03-.21.02-.23-.09-.15-.27.16-.43.31-.56-.03.12.16.07.2.14Z"/>
              <polygon class="cls-5" points="69.28 51.49 69.37 51.33 69.4 51.34 69.28 51.49"/>
              <path class="cls-4" d="M47.42,45.01c.1-.16.12.11.2.06-.04.15-.07.45-.31.46-.25-.09-.08-.21-.15-.36l.23-.26.03.1Z"/>
              <polygon class="cls-5" points="47.43 45.1 47.34 45.27 47.28 45.11 47.3 45.16 47.46 45.03 47.5 45.14 47.43 45.1"/>
              <path class="cls-4" d="M46.27,48.84c.06.18.11.5-.1.66-.09.11-.29.25-.47.25-.36-.25-.03-.64-.05-.95l.02.05c.19.04.24-.17.36-.24.05.11.17.21.25.22Z"/>
              <path class="cls-4" d="M39.89,46.38s.12-.03.16-.04l.04-.09c-.16.38-.04.88-.43,1.14-.19.03-.32-.32-.24-.54.09-.32.3-.51.49-.74l-.02.26Z"/>
              <path class="cls-4" d="M68.76,54.91c.12.19.01.51-.17.67-.12.11-.28.17-.51.08-.22-.1-.26-.29-.28-.46.03-.17.21-.21.15-.4.29.31.29-.33.47,0l.14-.07c-.03.09.09.19.2.18Z"/>
              <path class="cls-4" d="M63.07,52.38v.05s-.02-.01-.02-.01l-.04.08-.07-.06.18-.09s-.06,0-.05.03Z"/>
              <path class="cls-4" d="M43.83,49.01l.15.07c-.25.17-.23.87-.72.82-.36-.06-.25-.44-.26-.71.19-.05.1-.22.16-.34.04,0,.04.04.07.07.13-.23.17-.01.34-.19l.02.05.17-.14c-.1.26.25.12.08.36Z"/>
              <path class="cls-4" d="M62.73,53.11c-.14-.06-.07-.23-.09-.28l.21-.3.07.14c-.17-.16-.21.07-.25.1.06.04.07.14.15.15.27.02.18-.24.23-.32l.02.04.15-.18c-.06.27-.09.66-.49.65Z"/>
              <path class="cls-4" d="M57,56.28s-.05.06-.07.06l-.12-.05.12-.08s.03.07.07.07Z"/>
              <path class="cls-4" d="M45.74,54.69s-.06,0-.1,0l-.03-.16c-.06.04.14.1.24,0-.08,0-.07.12-.11.16Z"/>
              <path class="cls-4" d="M55.99,60.86v.03s-.13-.05-.13-.05c.01-.07.13-.08.13.02Z"/>
              <path class="cls-4" d="M55.81,61.06c.06.14,0,0-.02-.05l-.11.03.05.21h.07s-.07,0-.07,0c.01.08.12.07.16.1.11-.07.06-.23.01-.36l.05-.02c.07.22-.07.39-.19.61-.08.05-.17.03-.24,0-.11-.3.08-.51.27-.67v.14Z"/>
              <polygon class="cls-5" points="55.56 61.22 55.6 61.2 55.66 61.32 55.56 61.22"/>
              <path class="cls-4" d="M41.98,63c-.15.21-.37.11-.5-.04.04-.15-.07-.29-.04-.44.03.01.29.13.27-.1-.14.13-.16-.16-.13-.29l.04.16c.16-.04.12-.2.25-.3l.04.16.18-.12c-.02.32.09.65-.11.98Z"/>
              <path class="cls-4" d="M51.21,62.67c-.08.32,0,.64-.42.72-.21-.04-.24-.31-.24-.46l.16-.41.02.05.23-.08.02.05.14-.09c-.05.12,0,.3.09.23Z"/>
              <path class="cls-5" d="M50.98,63.05c.09-.02.08-.15.11-.19.04.06.03.13.03.19-.12.11-.26-.06-.35-.08-.06-.14.13-.3.09-.39-.03.28.26.16.12.47Z"/>
              <path class="cls-4" d="M50.84,62.99s-.01-.08-.05-.08l-.05-.02.03-.09.05.02-.02.05.15-.04-.12.15Z"/>
              <path class="cls-4" d="M41.55,60.69c-.07.06-.15-.04-.23-.04-.11-.18,0-.37.08-.57.03.13-.09.18.02.32l.21-.03c-.05-.08-.06-.21.03-.24.03.18.06.41-.12.55Z"/>
              <path class="cls-4" d="M51.92,64.79l-.15.02-.05-.25s0,.08.05.08l.07-.03-.12-.22c.1,0,.08-.1.12-.15l-.05.12.07.03-.05.04.14.15.16-.4c-.06.21-.02.45-.2.62Z"/>
              <path class="cls-4" d="M30.71,82.23c.27.16.17-.24.3-.31.07.12-.18.26,0,.38.11-.06.24-.22.19-.39v-.04c.12.25-.18.7.16.9.02-.09.19-.15.24-.04-.06.32.19.5.17.82l.12-.11c.01.26-.12.57-.17.86.35-.14-.07.48.22.48-.23.11-.39.31-.29.45-.25.28-.67.62-1.07.54-.25.08-.24-.11-.51-.21l.07-.04c-.09-.04-.15-.2-.27-.1,0-.16-.04-.33-.18-.42-.18-.04-.33-.25-.24-.39-.03-.07-.08-.06-.12-.07.02-.1.02-.18-.04-.25-.05-.41.04-.85-.2-1.31l.04.15.16-.04-.23-.4c.15.07.24.36.43.28.14-.11.05-.27.06-.41l.06.15c.18-.1-.02-.39.17-.54.2.29.39.13.56-.05l.11-.46c-.05.21.02.49.23.58Z"/>
              <path class="cls-4" d="M49.88,66.26c0-.06-.05-.08-.1-.09-.15.02-.15.16-.23.25l.11.1c.15-.04-.02-.18.16-.18.16.15-.1.29-.16.45-.28.02-.2-.28-.13-.41,0-.21.2-.24.3-.36,0,.04.14.17.05.25Z"/>
              <path class="cls-4" d="M48.24,68.81c-.16.18-.46.29-.56.17-.12,0-.14-.12-.19-.16-.1.2-.37.38-.57.14-.11-.77.61-1.2.92-1.45l.08.16.15-.14c.27.42.35.83.17,1.28Z"/>
              <path class="cls-4" d="M38.69,99.43l.02-.09c.01.13.13.23.2.35.06-.05.12-.07.12-.17l-.03-.04c.07.05-.05.31.18.26l.05-.05c-.13.39.23.53.11.88.3.35-.16.65-.18.91-.14-.04-.23.11-.35.17l-.75-.12c-.05-.16-.19-.26-.33-.41-.15.2-.38.41-.62.45-.45.1-.41-.37-.69-.53.14-.17.06-.41,0-.59l-.06-.11c.3.22.28-.33.39-.52l.02-.13c.06.08.02.23.14.25l.06-.31c0,.06,0,.13.06.2l.14-.07c-.03.07.04.1.07.14.05.03.1-.04.14-.07l.07.16c.13-.09.17-.22.34-.13l.15-.43.07.14c.08-.04.13-.11.13-.21l-.03-.04.11.11.09-.3c.14.06.12.49.36.29Z"/>
              <path class="cls-4" d="M35.97,73.27l.12-.07c.06.3.45.65.26,1.14-.07.3-.26.43-.47.69-.49.03-.67-.25-.88-.63.15-.2.02-.68.13-.93l-.04-.08.09.17.36-.57c.1.13.31.15.43.26Z"/>
              <polygon class="cls-5" points="44.26 68.08 44.29 68.09 44.25 68.22 44.22 68.2 44.26 68.08"/>
              <path class="cls-4" d="M44.62,70.88s-.06-.06-.07-.08c.05.07.25,0,.17-.12.04.07.02.24-.1.2Z"/>
              <path class="cls-4" d="M43.96,72.35l.06-.02c.02-.05.02.24.18.19.15.55-.77.45-.4,1.05-.32.17-.31.6-.73.58-.31-.07-.39-.41-.4-.68l.03-.42c.07.04.13-.04.12-.1l.05-.18c.21.2.16-.22.35-.27l-.02.05c.28.05.22-.28.46-.33l.09-.13c.13.02.12.17.2.25Z"/>
              <path class="cls-4" d="M40.1,83.53c.08-.11,0,.23.17.08-.05.2.18.22.18.37l.04-.03c-.2.28.39.34,0,.77.2.28-.31.33-.27.55-.39.2-.56.18-.91-.04-.25-.25-.06-.15-.31-.48l-.09-.18c.31-.02-.25-.31.09-.38.02-.15-.07-.27,0-.42.02.06.08.08.11.08.11-.07.09-.21.13-.3l.12.07.14-.2c0,.06.06.07.11.08l.07-.13c.24-.04.12.36.39.15Z"/>
              <polygon class="cls-5" points="37.99 83.45 38.03 83.13 38.02 83.32 37.99 83.45"/>
              <path class="cls-4" d="M30.12,89.36l.13.03c-.09.14.1.14.14.23-.07.26-.09.65-.36.68l-.38-.17c.09-.12-.06-.29-.09-.43.14.05.1-.24.12-.21l.04.05c.07-.16.13-.19.29-.31-.05.09,0,.18.1.16Z"/>
              <polygon class="cls-5" points="29.88 89.41 29.92 89.42 29.88 89.61 29.85 89.6 29.88 89.41"/>
              <path class="cls-4" d="M20,88.63c-.05.26-.34.47-.56.24-.12-.17-.07-.38.01-.55.15-.21.7-.09.54.31Z"/>
              <path class="cls-4" d="M33.37,96.12c.13,0,.09.04.25.09.03.16.04.43-.13.53-.16.07-.31.04-.44-.08-.1-.19-.03-.14-.07-.34.13-.11.2-.31.4-.25v.05Z"/>
              <path class="cls-4" d="M33.79,97.35c-.09,0-.12-.06-.17-.12.03-.07.11-.17.21-.1l-.04.22Z"/>
              <path class="cls-4" d="M27.39,91.43c.09.1.1.28.04.44-.09,0-.2.14-.26,0-.07-.14-.08-.27-.05-.43.08-.02.18-.13.22.04l.05-.05Z"/>
              <path class="cls-5" d="M27.26,91.64l-.05.05c.05.11-.15-.23.07-.19.14.07.02.11-.03.14Z"/>
              <path class="cls-4" d="M23.52,95.96l.13-.22c-.07.17.03.28.12.42.03,0,.09.02.14-.04-.06.13.02.22.03.34l.18-.07c-.16.47,0,1.33-.73,1.55l-.68-.21.04-.03c-.31-.19-.27-.48-.5-.7l-.09-.02.21-.2c-.11-.14.08-.05.09-.18l-.12-.4c.07,0,.08.07.11.12.18-.05.07-.19.05-.29.13.1.31-.07.58-.22-.05-.05-.02-.1,0-.16-.02.1.07.15.09.22h.04s.12-.31.12-.31c.14.08-.07.41.19.41Z"/>
              <path class="cls-4" d="M29.89,98.11c.07.15.12.16.25.1l.06-.05c0-.08,0,.16-.09.18.05.12.29.09.17.3.1.17.21-.04.33-.04-.02.23-.25.17-.21.43.4.3-.21.58-.04.84,0,.04-.02.26-.19.24-.03.07.06.11.07.15-.13.21-.54.2-.55.37-.09.12-.22.08-.31.18-.02,0-.14-.06-.24.06-.12-.33-.33.28-.38-.1-.12-.08-.2.11-.25.13,0-.09.13-.19.05-.32-.35.31-.25-.31-.64-.24.11-.06.03-.21-.05-.24h-.09c.21-.19-.11-.38-.09-.54-.06-.13.38-.4.05-.69-.06-.19.53-.13.31-.48l-.11-.16c.19-.09.16.28.34.12.11-.18-.1-.17-.11-.31.05.03.34.43.48.04l-.04-.34c.1.07.19.21.31.25.25-.04-.02-.34.14-.27.04.1.03.26.19.22l.24-.29c-.03.27.36.2.38.43Z"/>
              <path class="cls-4" d="M23.33,105.83s.06-.03.05-.07c.18.04.3.36.55.31-.05.33.48.32.3.65.01.16.28.1.09.29.03.06.08.07.14.08-.18.36-.03.77-.34,1.06-.05.21-.36.13-.32.39l-.08-.11c-.21.05-.35.4-.6.15l-.23.07c-.11-.19-.3-.28-.55-.37-.08-.13,0-.43-.25-.41.15-.25-.19-.26-.26-.41l.11-.08-.13-.15c.07,0,.14.06.19-.01.03-.21-.08-.35-.19-.5.04,0,.1,0,.12.06.17-.09-.06-.2,0-.33h.09s.02-.16.02-.16l.05.05c.2-.09.04-.29.06-.42.07.03.14.2.25.09l.21-.17c-.05-.03-.04-.08-.04-.14l.26.17c.17-.13-.13-.29,0-.41.04.38.34.13.49.38Z"/>
              <path class="cls-4" d="M35.73,104.74c-.09,0-.17.11-.27.06-.17-.12,0-.32.09-.36.1.19.24.05.18.31Z"/>
              <path class="cls-4" d="M42.96,107.99c.02.09-.06.12-.12.17-.16.05-.22-.16-.26-.26.07-.19.07.01.19-.16.12.05.19.14.19.25Z"/>
              <path class="cls-4" d="M26.41,108.27c-.07.11-.03.25-.19.3-.06-.07-.23-.09-.23-.22l.02-.13c.11-.08.11.29.26.03l-.12-.11c.11.03.22.01.26.13Z"/>
              <path class="cls-4" d="M32.86,109.78c.09.01.22.07.34.14.16.23.13.49.09.77-.3.26-.38.46-.72.36-.13.15-.2-.24-.32.01-.04-.12-.02-.4-.25-.26.13.05.07-.28.04-.36h-.07c0-.07.14-.08.1-.19-.21-.12.12-.19.04-.35.03.06.09.05.14.06.08-.03.04-.15.07-.22l-.03-.04.06.1.25-.16.08.1.07-.12.11.15Z"/>
              <path class="cls-4" d="M31.55,110.52c.07.07-.04.36.18.35-.04.07.02.13.07.18h.09c-.1.04-.06.14-.08.19.03.08.11.03.18.06-.08.05-.07.12-.15.17l.05.18c-.05,0-.08.07-.14.08.13.3-.25.35-.33.55-.1.19-.41-.05-.48.26-.29-.38-.59.08-.95-.35,0-.04,0-.1.05-.13-.02-.14-.21-.12-.29-.08.01-.09.09-.12.15-.17-.34-.16-.03-.5-.14-.67.17.04.05-.2.16-.25l-.08-.11.18.08c-.03-.1.1-.18-.06-.29.21-.07.49.1.48-.21.04.12.16.1.25.13.26-.42.57.25.86.02Z"/>
              <path class="cls-4" d="M28.43,114.65c.14.11.25-.09.28-.14.05.08.12.11.21.12.1-.03.05-.13.08-.18.1.09-.12.36.13.34l.1-.08.07.24.18-.11c-.05.11.01.4.24.39l.23-.07s-.03.07-.06.09c.01.21.39-.01.25.26.28-.04.52.19.69.17-.07.14.12.13.17.19,0,.07-.09.1-.08.18.24.03-.09.14.07.23-.07.14-.31.25-.18.43-.22-.19-.33.13-.5.13,0,.3.34,0,.42.22-.24.11-.49-.15-.57.22l.12.15c-.08.07-.36.05-.21.24l-.27.1.02.15c-.06.01-.13-.05-.17.02-.03.07.05.1.08.14-.14-.03-.28-.01-.38.09l.04.16-.35-.04c0,.29-.27-.07-.34.23-.15-.28-.36.06-.43.14-.03-.08,0-.19-.11-.2-.23-.12-.15.17-.25.24v-.27c-.11-.07-.27-.03-.38,0v.06c-.12-.01-.22-.39-.38-.14.02-.04-.01-.06-.04-.1-.14-.09-.2.11-.31.1-.03-.06.41-.3.04-.4h-.41s.33-.14.33-.14c-.09-.53-.83-.21-.81-.78.2.04.26-.18.26-.3.03-.26-.35-.21-.26-.49.34.1.47-.37.38-.55-.06-.16-.27-.13-.29-.26.13-.02.34.27.53.06l-.1-.24c.08.09.26.05.36-.01l-.07-.18c.09.03.18.19.26.03l-.05-.23c.1,0,.1.16.22.1.06-.05.22-.15.1-.26-.03-.1.18.17.29-.06l.02-.17c.09.09.12.26.33.21l.04-.32c.07.07.09.2.21.18l.12-.27c.04.14,0,.34.18.38Z"/>
              <path class="cls-4" d="M41.55,91.53c-.07.19,0,.47-.33.52-.23-.07-.69-.23-.44-.54l-.08-.11.27-.21c.13.18.31-.12.44.09,0,.09-.01.26.14.25Z"/>
              <path class="cls-4" d="M40.81,92.51l.04.27-.04-.27Z"/>
              <polygon class="cls-4" points="40.92 93.34 40.85 92.97 40.91 92.98 40.87 92.88 40.96 92.9 40.92 93.34"/>
              <path class="cls-4" d="M41.22,93.89s.03-.05.05-.08c.02.08.01.13.06.2l.13-.2c0,.19.11.28.24.4l.04-.03c.2.32.12.77-.02,1.06-.19.19-.52.35-.49.67-.17.06-.07-.22-.21-.08-.14.14-.46.12-.68.19-.11-.3-.29-.26-.51-.38-.08-.09-.01-.32-.23-.27l.17-.1c-.06-.18-.26-.11-.38-.17l.22-.18c-.18-.15-.06-.48-.1-.64.29-.15.02-.49-.1-.66.18-.06.38.38.65.16-.03-.04-.1-.07-.07-.14.24-.18.27.34.47.09l-.26-.5c.35.33.48.74,1.01.65Z"/>
              <path class="cls-4" d="M40.94,93.51l.06.2-.06-.2Z"/>
              <polygon class="cls-4" points="38.77 95 38.78 94.97 38.92 94.99 38.77 95"/>
            </g>
          </g>
        </g>
        <g class="cls-6">
          <g class="cls-1">
            <g>
              <polygon class="cls-5" points="186.77 156.88 186.84 156.81 186.79 156.87 186.77 156.88"/>
              <polygon class="cls-5" points="186.65 157 186.69 156.92 186.75 156.96 186.65 157"/>
              <path class="cls-4" d="M203.1,168.07c.02.07-.05.09-.03.17-.13.04-.19,0-.26-.08-.02-.1.03-.19.11-.23.08,0,.16.06.18.14Z"/>
              <path class="cls-4" d="M203.56,168.6c-.05.05-.1,0-.15-.02-.03-.06-.02-.12.02-.17.1-.05.28.1.13.2Z"/>
              <path class="cls-4" d="M204.82,141.95c-.06-.01-.12-.1-.04-.14l.06-.02c.06.04.06.15-.02.16Z"/>
              <polygon class="cls-4" points="200.1 157.46 200.12 157.47 200.09 157.53 200.07 157.52 200.1 157.46"/>
              <path class="cls-4" d="M204.99,142.39s-.03,0-.06,0c-.01-.03,0-.11.05-.09.01.03.03.06,0,.09Z"/>
              <path class="cls-4" d="M199.51,158.22l-.07-.03c0-.15.14-.22.26-.25-.05.07-.06.25-.19.28Z"/>
              <path class="cls-4" d="M203.96,143.09c-.1,0-.19-.04-.14-.16.06-.06.1-.08.18-.07.06.06.03.18-.04.23Z"/>
              <path class="cls-4" d="M211.53,141.74v-.03c-.01.19-.06.45-.27.53-.08-.04-.03-.14,0-.22.04-.16.21-.21.25-.35.03.01-.03.06.01.07Z"/>
              <path class="cls-4" d="M194.7,172.55s.05-.01.06-.04l.03.13c.18,0,.02.19.11.24-.07.18-.14.24-.32.32-.17-.03-.15-.07-.31-.11.04-.12-.29-.14-.12-.31-.04-.14.12-.15.12-.28-.02.08.1,0,.15-.02l.05-.06c.03.1.13.07.21.03-.05.04.01.07.02.11Z"/>
              <path class="cls-4" d="M210.64,142.88s-.08.1-.13.11c-.07-.07.02-.2.06-.28l.13-.09c0,.07-.02.17-.06.26Z"/>
              <path class="cls-4" d="M210.79,143.62s-.05.02-.06.05h-.03c0-.18.13-.25.2-.37,0,.08-.02.24-.11.32Z"/>
              <path class="cls-5" d="M210.78,143.53s-.01-.08.04-.08l-.04.08Z"/>
              <path class="cls-4" d="M211.03,143.82v-.02s0,.02,0,.02l.04-.05s0,.05-.04.05Z"/>
              <path class="cls-4" d="M210.17,147.82s-.03,0-.05,0l.05-.03s0,.03,0,.03Z"/>
              <path class="cls-4" d="M205.22,149.96s-.07.02-.11,0c-.01-.06,0-.08.05-.11.03.04.11.04.06.11Z"/>
              <path class="cls-4" d="M206.96,152.14s-.03.07-.07.08c-.02-.05-.08-.06-.06-.12.03-.08.12-.02.13.04Z"/>
              <path class="cls-4" d="M208.17,152.86c-.06.05-.14.15-.22.08-.1-.04-.13-.11-.08-.22,0-.12.12-.06.16-.11.11.04.11.14.15.24Z"/>
              <path class="cls-4" d="M207.19,152.39s-.01.05-.04.06c-.04-.02-.07-.04-.08-.08.02-.06.13-.05.12.02Z"/>
              <path class="cls-4" d="M204.53,151.77s-.05.07-.1.07c-.03-.05-.11-.04-.11-.12.05-.13.21-.08.2.05Z"/>
              <polygon class="cls-4" points="207.07 145.48 207.08 145.35 207.11 145.4 207.07 145.48"/>
              <path class="cls-4" d="M206.6,146.01c-.06.06-.13.16-.2.08-.12-.17.08-.35.14-.46v-.03s.07,0,.09.05c.02-.16.15,0,.17-.15-.01.2-.08.37-.21.52Z"/>
              <path class="cls-4" d="M206.49,153.03c0,.07-.08.02-.11.04-.04-.04,0-.11.05-.11.04,0,.05.04.06.08Z"/>
              <path class="cls-4" d="M204.43,152.66s-.07-.01-.1-.03c-.02-.03.02-.07.02-.1.07-.03.14.07.08.13Z"/>
              <path class="cls-4" d="M205.25,153.15s-.11.02-.13-.03c.03-.04.02-.09.08-.08.07,0,.03.07.05.11Z"/>
              <path class="cls-4" d="M204.48,152.86c-.08.03-.07.24-.19.12.06-.06,0-.2.12-.22.02.03.06.05.07.1Z"/>
              <path class="cls-4" d="M206.29,147.41c-.03.06-.05.12,0,.18.04,0,.08-.06.12-.02-.17.24-.26.6-.58.64-.07-.02-.1-.08-.12-.14.02-.05.05-.15.02-.21.14-.06.07-.3.22-.38-.02.02.01.04.02.07.09-.07.2-.17.31-.21v.07Z"/>
              <path class="cls-4" d="M204.83,147.47c-.22-.05,0-.27.04-.37l.18-.13c0,.18-.04.4-.22.49Z"/>
              <polygon class="cls-5" points="204.89 147.33 204.83 147.25 204.95 147.22 204.85 147.25 204.89 147.33"/>
              <path class="cls-4" d="M196.14,162.42h-.1c-.08-.3.22-.58.42-.76l.16-.1c-.01.32-.21.69-.48.86Z"/>
              <polygon class="cls-4" points="204.38 147.81 204.44 147.77 204.43 147.83 204.38 147.81"/>
              <path class="cls-4" d="M203.99,148.42s-.07.04-.12.06c-.06-.02-.07-.1-.07-.14.03-.16.14-.26.25-.33l-.02-.02s0,.05.02.07c.05.03.06-.05.08-.08.01.15-.01.34-.14.44Z"/>
              <path class="cls-5" d="M203.95,148.24l.05-.03c-.05-.07,0,0,.02-.06-.08.06.04.05-.07.08Z"/>
              <path class="cls-4" d="M203.54,148.61c.04.14-.05.32-.16.42-.06.03-.15.08-.17-.02,0-.12.02-.27.11-.37.1,0,.12-.11.18-.17.04.04-.1.17.03.15Z"/>
              <polygon class="cls-5" points="203.47 148.76 203.44 148.76 203.45 148.75 203.47 148.76"/>
              <path class="cls-4" d="M199.02,148.28s-.05,0-.08,0c-.07-.11.04-.25.1-.33.09,0,.02-.11.1-.13-.03.15.02.34-.12.47Z"/>
              <path class="cls-4" d="M211.24,156.17c-.19-.03-.07-.21-.06-.33.09-.27.39-.3.52-.51l.12-.08c-.22.26-.14.83-.58.92Z"/>
              <path class="cls-4" d="M199.89,152.8s-.05.04-.09.05c-.05-.01-.12-.04-.12-.14l.1-.22s.02.02.03.03l.1-.07c.12.1.02.24-.03.35Z"/>
              <polygon class="cls-5" points="200.65 151.07 200.67 150.98 200.67 151.02 200.65 151.07"/>
              <path class="cls-4" d="M198.91,154.54l.02.05s.03-.05.05-.07c.07.12.01.23,0,.37-.08.05-.14.14-.26.11-.1-.02-.08-.12-.11-.19,0-.1.16-.13.13-.25l.02.02.2-.1s-.01.07-.06.06Z"/>
              <polygon class="cls-4" points="208.65 156.42 208.71 156.36 208.68 156.44 208.65 156.42"/>
              <path class="cls-4" d="M208.15,156.27c0,.06-.05-.08,0-.09l-.15.09.15-.14v.14Z"/>
              <path class="cls-4" d="M208.11,156.32s-.02.08-.02.11c-.05.01-.1.05-.15.01-.02-.03.02-.06.02-.09.01.04,0,.07.02.1.07,0,.11-.08.12-.11-.01-.02-.03,0-.05,0l.02-.08v.07s.04-.02.04-.02Z"/>
              <path class="cls-4" d="M208.52,156.95h.02s-.02,0-.02,0v-.1s-.01.06,0,.1Z"/>
              <path class="cls-4" d="M202.17,155.49c-.12.17-.05.49-.3.6-.12,0-.17-.14-.13-.22.06-.2.27-.25.39-.4l.04.02Z"/>
              <path class="cls-4" d="M197.66,155.62c-.05.08-.08.2-.19.19-.13-.01-.06-.11-.09-.17.01-.08.08-.12.12-.19.03.02.05.04.07,0,.06.08.08.04.1.15Z"/>
              <path class="cls-4" d="M204.51,157.43c-.04.07-.11.15-.19.15-.08-.03-.1-.1-.08-.16.04-.09.08-.2.18-.23.13.04.06.15.08.24Z"/>
              <path class="cls-4" d="M197.03,155.7c.02.07.09,0,.09.03,0,.03-.05.03-.06.04h-.03c-.03-.05.01-.14.08-.16-.01.03-.07.03-.08.09Z"/>
              <path class="cls-4" d="M208.65,159.53c-.02.1-.1.14-.19.18-.08-.03-.19-.09-.13-.17.06-.07.29-.17.32,0Z"/>
              <path class="cls-4" d="M206.63,158.91s.04,0,.07,0c.06.07-.03.09-.06.1-.06.21-.08.47-.35.55-.1-.02-.16-.1-.16-.19l.17-.32v.02c.13-.11.21-.2.37-.27-.01.04-.05.07-.04.11Z"/>
              <path class="cls-4" d="M203.06,157.63s-.07,0-.1,0h.02s-.01.04-.01.04h-.02s0-.04,0-.05c-.07.01-.11.06-.05.12.09-.14.15.06.23,0-.02.1-.07.33-.26.29-.06-.03-.08-.11-.09-.17.05-.06.05-.17.07-.25,0,.01-.02.03,0,.05h.02s.07-.1.07-.1c.01.03.07.01.08.07l.08-.07s-.04.05-.02.08Z"/>
              <path class="cls-4" d="M194.14,155.55c-.08.05-.12-.06-.13-.11-.02-.15.18-.18.15-.32.03.14.08.31-.02.43Z"/>
              <path class="cls-5" d="M202.98,157.73s-.02-.05,0-.04h.02s-.01.04-.01.04Z"/>
              <path class="cls-5" d="M203.01,157.83s-.07,0-.11.02l-.03-.04s-.03,0-.06-.01l.1-.03s.02.09.09.07l-.04-.05s.03.03.04.05Z"/>
              <path class="cls-4" d="M190.9,166.59l.11-.03s-.27.24-.02.27c-.2.16-.29.48-.57.49,0,.03-.05.05-.02.08l.1-.05c-.05.16-.04.37-.2.47-.04,0-.11.02-.13-.04-.14-.34.45-.48.12-.84,0-.18.11-.42.24-.52l.03-.19c-.04.14.12.09.16.15l.05-.11.03.11.15-.07c-.03.05-.1.18-.04.27Z"/>
              <path class="cls-4" d="M196.42,156.83c-.07.06-.08.21-.23.17-.14-.05-.02-.15-.06-.23.01-.06.1-.04.1-.12v.02c.06.01.26.04.19.16Z"/>
              <path class="cls-4" d="M205.36,159.7c0,.12-.04.22-.13.29-.04-.01-.1.02-.11-.03-.07-.13.07-.23.14-.31-.01.06.08.03.1.06Z"/>
              <polygon class="cls-5" points="205.25 159.8 205.29 159.71 205.31 159.72 205.25 159.8"/>
              <path class="cls-4" d="M195.02,157.36c.04-.07.06.05.09.03-.01.07-.02.2-.13.2-.11-.04-.04-.09-.07-.16l.1-.11.02.04Z"/>
              <polygon class="cls-5" points="195.03 157.4 194.99 157.48 194.96 157.41 194.97 157.43 195.04 157.37 195.06 157.42 195.03 157.4"/>
              <path class="cls-4" d="M194.55,159.04c.03.08.05.22-.04.29-.04.05-.13.11-.21.1-.16-.12-.02-.28-.03-.42v.02c.09.02.12-.07.17-.1.02.05.08.09.11.1Z"/>
              <path class="cls-4" d="M191.63,157.86s.05-.01.07-.01l.02-.04c-.06.15,0,.37-.18.47-.09,0-.15-.15-.12-.23.03-.13.13-.21.21-.3v.11Z"/>
              <path class="cls-4" d="M204.98,161.6c.05.09,0,.27-.09.36-.06.06-.14.1-.24.07-.1-.04-.12-.14-.12-.22.02-.09.1-.12.08-.21.13.15.14-.19.22-.02l.07-.04s.04.1.09.08Z"/>
              <path class="cls-4" d="M202.32,160.54v.02s0,0,0,0l-.02.04-.03-.03.08-.05s-.03,0-.03.02Z"/>
              <path class="cls-4" d="M193.45,159.07l.07.03c-.11.07-.1.38-.32.34-.16-.03-.11-.2-.12-.31.08-.02.04-.09.07-.14.02,0,.02.02.03.03.06-.1.08,0,.15-.08v.02s.08-.06.08-.06c-.04.11.12.06.04.16Z"/>
              <path class="cls-4" d="M202.16,160.92c-.07-.02-.03-.11-.04-.14l.1-.16.03.07c-.08-.08-.1.04-.12.06.03.02.03.07.07.07.13,0,.09-.12.11-.17v.02s.08-.09.08-.09c-.03.14-.04.33-.23.34Z"/>
              <path class="cls-4" d="M199.44,162.54s-.02.03-.03.03l-.05-.03.06-.04s.01.04.03.03Z"/>
              <path class="cls-4" d="M194.28,161.62s-.03,0-.05,0v-.07s.05.05.1,0c-.04,0-.03.05-.05.07Z"/>
              <path class="cls-4" d="M198.83,164.73v.02s-.06-.03-.06-.03c0-.03.06-.04.06.01Z"/>
              <path class="cls-4" d="M198.74,164.82c.02.07,0,0,0-.02h-.05s.02.12.02.12h.03s-.03,0-.03,0c0,.04.05.03.07.05.05-.03.03-.11.02-.17h.02c.02.1-.04.18-.11.28-.04.02-.08,0-.11,0-.04-.14.06-.24.16-.32v.07Z"/>
              <polygon class="cls-5" points="198.62 164.89 198.64 164.89 198.66 164.94 198.62 164.89"/>
              <path class="cls-4" d="M192.3,165.14c-.08.08-.18.03-.23-.05.02-.06-.02-.13,0-.2.02,0,.13.07.13-.03-.07.05-.07-.08-.05-.14v.07c.08-.01.07-.08.14-.12v.07s.1-.04.1-.04c-.02.14,0,.29-.1.43Z"/>
              <path class="cls-4" d="M196.54,165.44c-.05.15-.03.3-.22.32-.09-.03-.1-.15-.09-.23l.09-.18v.02s.12-.03.12-.03v.02s.07-.04.07-.04c-.03.06-.01.14.03.11Z"/>
              <path class="cls-5" d="M196.42,165.61s.04-.07.06-.08c.01.03,0,.06,0,.09-.06.05-.12-.04-.16-.05-.02-.07.08-.13.06-.18-.03.13.11.08.03.23Z"/>
              <path class="cls-4" d="M196.36,165.58s0-.04-.02-.04h-.02s.02-.05.02-.05h.02s-.01.03-.01.03h.07s-.06.05-.06.05Z"/>
              <path class="cls-4" d="M192.22,164.11s-.07-.02-.1-.03c-.04-.09.01-.16.06-.25,0,.06-.05.07,0,.14h.1s-.02-.1.02-.1c0,.08.01.19-.07.24Z"/>
              <path class="cls-4" d="M196.76,166.47h-.07s0-.11,0-.11c0,.02,0,.04.02.04h.03s-.04-.12-.04-.12c.05,0,.04-.05.06-.06l-.03.05h.03s-.03.03-.03.03l.06.08.09-.18c-.04.1-.03.21-.12.28Z"/>
              <path class="cls-4" d="M185.8,172.52c.1.1.1-.08.16-.1.02.06-.1.09-.04.16.05-.01.13-.07.12-.15v-.02c.03.12-.14.28-.01.4.02-.04.1-.04.11,0-.06.13.03.24,0,.37l.07-.03c-.02.11-.11.23-.16.35.17-.02-.08.2.04.23-.12.02-.21.09-.18.16-.14.09-.37.19-.53.1-.12,0-.1-.08-.2-.15h.04s-.05-.11-.11-.08c.02-.07.02-.15-.03-.2-.08-.04-.12-.15-.06-.2,0-.03-.03-.03-.04-.04.02-.04.03-.07,0-.11.02-.18.11-.36.05-.58v.07s.08,0,.08,0l-.06-.19c.06.05.07.18.16.17.07-.03.05-.11.07-.17v.07c.1-.02.04-.17.14-.21.06.15.16.1.26.04l.09-.18c-.04.08-.04.21.04.27Z"/>
              <path class="cls-4" d="M195.74,167.06s-.02-.04-.04-.05c-.07,0-.08.07-.12.1l.04.05c.07-.01,0-.08.08-.07.06.08-.07.13-.1.2-.13,0-.07-.14-.03-.2.01-.1.11-.1.16-.15,0,.02.05.08,0,.12Z"/>
              <path class="cls-4" d="M194.83,168.15c-.08.07-.23.1-.27.04-.05,0-.05-.06-.07-.08-.06.09-.2.15-.27.03,0-.36.36-.51.52-.61l.03.08.08-.06c.1.21.11.41,0,.6Z"/>
              <path class="cls-4" d="M187.28,181l.02-.04c-.01.06.03.12.04.18.03-.01.06-.01.08-.06v-.02s-.07.13.04.14h.03c-.11.14.03.25-.07.39.08.19-.16.26-.21.37-.06-.04-.12.02-.18.03l-.31-.16c0-.08-.05-.14-.09-.23-.09.07-.23.13-.33.11-.21-.02-.13-.22-.23-.33.08-.05.09-.17.08-.26v-.05c.09.14.16-.11.23-.17l.03-.05s-.02.1.03.13l.07-.13s-.02.06,0,.1h.07s0,.04.01.06c.02.02.05,0,.07-.01v.08c.08-.02.11-.07.17-.01l.12-.17v.07c.05,0,.08-.03.1-.07v-.02s.03.07.03.07l.08-.12c.05.05-.01.23.12.18Z"/>
              <path class="cls-4" d="M188.95,169.2l.06-.02c0,.14.15.32.03.52-.05.13-.15.16-.26.26-.22-.04-.28-.17-.35-.36.08-.07.06-.29.13-.39v-.04s.02.08.02.08l.2-.21c.03.06.13.09.17.15Z"/>
              <rect class="cls-5" x="193.03" y="167.59" width=".06" height=".02" transform="translate(-43.34 264.95) rotate(-63.34)"/>
              <path class="cls-4" d="M193.03,168.86s-.02-.03-.03-.04c.02.04.11.02.09-.04.01.03,0,.11-.06.08Z"/>
              <path class="cls-4" d="M192.63,169.48h.03s0,.11.06.1c.02.26-.39.14-.27.44-.16.05-.19.25-.38.2-.13-.06-.14-.22-.13-.34l.05-.19s.06,0,.06-.03l.04-.08c.08.11.09-.09.18-.09v.02c.11.04.11-.11.23-.11l.05-.05c.06.02.04.09.07.13Z"/>
              <path class="cls-4" d="M189.85,174.13s-.02.1.07.05c-.04.08.06.12.04.18h.02c-.12.09.14.19-.08.34.06.15-.17.11-.18.22-.2.04-.27.02-.4-.12-.08-.14-.01-.07-.09-.25l-.02-.09c.14.02-.08-.17.08-.16.02-.06,0-.13.05-.19,0,.03.03.04.04.05.06-.02.06-.08.09-.12l.05.04.09-.07s.02.04.04.05l.05-.05c.11,0,.02.17.16.11Z"/>
              <polygon class="cls-5" points="188.92 173.87 188.97 173.73 188.94 173.81 188.92 173.87"/>
              <path class="cls-4" d="M184.78,175.51l.05.03c-.05.05.03.07.04.11-.06.1-.12.27-.24.24l-.15-.12c.06-.04,0-.13.01-.2.06.04.07-.09.08-.08v.03c.07-.06.1-.06.18-.1-.03.03-.02.08.03.08Z"/>
              <rect class="cls-5" x="184.61" y="175.53" width=".08" height=".02" transform="translate(-55.75 259.89) rotate(-62.89)"/>
              <path class="cls-4" d="M180.4,173.89c-.05.1-.2.15-.27.02-.03-.08,0-.17.07-.23.09-.07.32.06.2.2Z"/>
              <path class="cls-4" d="M185.38,178.84c.06.02.03.03.1.07,0,.07-.04.19-.13.21-.08,0-.14-.02-.18-.09-.02-.1,0-.07.01-.16.07-.03.13-.11.21-.06v.02Z"/>
              <path class="cls-4" d="M185.4,179.43s-.05-.04-.06-.08c.02-.03.07-.06.1-.01l-.05.09Z"/>
              <path class="cls-4" d="M183.33,176.04c.03.05,0,.13-.03.19-.04-.01-.1.04-.11-.04-.02-.07,0-.13.03-.19.04,0,.09-.03.09.05l.03-.02Z"/>
              <path class="cls-5" d="M183.24,176.11l-.03.02c.01.05-.04-.12.05-.07.05.05,0,.05-.03.05Z"/>
              <path class="cls-4" d="M181.07,177.43l.09-.07c-.05.06-.02.12,0,.19.01,0,.04.02.06,0-.04.05-.02.1-.03.15h.09c-.13.17-.16.56-.51.55l-.27-.19h.02c-.11-.13-.06-.25-.13-.37l-.04-.02.12-.06c-.03-.07.04,0,.06-.06v-.18s.03.04.03.06c.08,0,.05-.07.06-.11.04.06.14.02.28-.01-.02-.03,0-.04.02-.07-.02.04.01.07.01.1h.02s.09-.11.09-.11c.05.05-.08.16.03.2Z"/>
              <path class="cls-4" d="M183.6,179.22c.01.07.03.08.1.08h.03s-.02.06-.06.05c0,.06.11.08.04.15.02.09.1.01.15.03-.04.1-.13.04-.15.16.14.18-.17.22-.13.36,0,.01-.05.11-.12.07-.02.03.01.05.01.07-.08.07-.26,0-.29.08-.06.04-.11,0-.16.03,0,0-.05-.05-.11,0,0-.16-.18.07-.15-.1-.04-.05-.1.02-.13.02.01-.04.08-.06.07-.13-.2.08-.07-.17-.25-.19.05-.01.04-.08,0-.11l-.04-.02c.12-.05,0-.17.03-.23,0-.06.22-.12.12-.29,0-.09.25.02.2-.16l-.03-.08c.09-.01.03.14.13.1.07-.06-.02-.09-.01-.15.02.02.09.23.21.08l.03-.15s.06.12.11.15c.11.02.04-.15.1-.09,0,.05-.02.11.05.12l.14-.09c-.05.11.13.14.11.24Z"/>
              <path class="cls-4" d="M179.68,181.55s.03,0,.03-.02c.07.05.08.2.2.21-.07.13.16.21.04.32-.02.07.11.08,0,.14,0,.03.03.04.05.05-.13.13-.12.32-.3.4-.05.08-.17,0-.19.12l-.02-.06c-.1-.01-.21.12-.28-.03h-.11c-.02-.1-.09-.17-.19-.25-.02-.07.06-.18-.05-.21.1-.08-.05-.14-.06-.21l.06-.02-.03-.08s.05.05.08.02c.04-.08.01-.16-.01-.24.02,0,.04.01.05.04.09-.01,0-.09.04-.14l.04.02.03-.07v.03c.11,0,.07-.12.1-.17.03.02.03.1.09.08l.12-.04s0-.04,0-.06l.09.11c.09-.03-.01-.14.06-.17-.04.17.13.1.16.23Z"/>
              <path class="cls-4" d="M185.24,182.91s-.09.02-.12-.01c-.06-.08.04-.14.09-.15.02.1.09.06.03.16Z"/>
              <path class="cls-4" d="M187.92,185.38s-.04.05-.08.06c-.08,0-.07-.1-.08-.15.06-.08.03.02.11-.04.05.04.06.09.05.14Z"/>
              <path class="cls-4" d="M180.67,183.05s-.05.1-.13.1c-.02-.04-.09-.07-.07-.13l.03-.05c.06-.02,0,.14.11.05l-.03-.07s.1.04.1.1Z"/>
              <path class="cls-4" d="M183.25,184.67s.08.06.13.11c.03.12-.02.23-.08.34-.17.07-.23.14-.37.05-.08.05-.05-.13-.14-.04,0-.06.05-.18-.07-.15.05.04.07-.11.07-.15h-.03s.07-.03.07-.08c-.07-.08.08-.06.07-.14,0,.03.03.03.05.05.04,0,.04-.06.06-.08v-.02s0,.05,0,.05l.13-.03.02.06.05-.04.03.08Z"/>
              <path class="cls-4" d="M182.57,184.79s-.07.15.03.18c-.03.02-.01.06,0,.09l.04.02s-.04.04-.06.06c0,.04.04.03.07.05-.04,0-.05.04-.09.05v.08s-.05.02-.08.01c.01.15-.16.11-.22.18-.07.07-.17-.08-.25.04-.07-.21-.27-.06-.36-.29,0-.02.01-.04.04-.05.01-.06-.07-.08-.11-.08.02-.04.06-.04.09-.05-.12-.12.06-.22.04-.31.07.04.05-.08.11-.08l-.02-.06.06.06s.07-.06.02-.13c.1,0,.2.12.24-.02,0,.06.05.07.09.09.18-.14.21.19.37.14Z"/>
              <path class="cls-4" d="M180.6,186.08c.04.07.12,0,.14-.02,0,.04.03.06.07.08.05,0,.04-.05.06-.06.03.05-.11.14,0,.16l.06-.02v.11s.09-.02.09-.02c-.04.04-.06.17.04.2h.11s-.02.03-.04.03c-.03.09.17.06.07.15.13.03.19.16.27.18-.05.05.03.07.04.11-.02.03-.05.03-.06.07.1.05-.06.05,0,.11-.05.05-.17.06-.15.16-.07-.12-.16,0-.24-.02-.05.13.15.05.15.16-.12,0-.19-.14-.28,0l.03.08s-.16-.03-.13.07h-.13s-.01.07-.01.07c-.03,0-.05-.04-.08-.02-.02.03,0,.05.01.07-.06-.04-.12-.05-.18-.02v.07s-.15-.07-.15-.07c-.04.12-.11-.07-.18.04-.02-.15-.17-.03-.21,0,0-.04.03-.08-.01-.1-.08-.09-.09.05-.15.06l.04-.12s-.11-.05-.16-.06v.02c-.06-.02-.04-.2-.15-.12.02-.01,0-.03,0-.05-.05-.06-.1.02-.15,0,0-.03.22-.06.08-.16l-.18-.07h.16c.04-.24-.33-.23-.23-.47.08.05.14-.04.16-.09.05-.11-.12-.15-.04-.25.13.1.26-.08.25-.17,0-.08-.1-.1-.08-.16.06.01.11.17.22.11v-.12c.02.05.1.06.15.05v-.09s.05.11.1.05v-.11c.06.01.03.08.09.08.03-.01.12-.03.08-.09,0-.05.05.1.13.02l.03-.07c.02.05.01.13.11.14l.06-.13s0,.1.06.11l.09-.1c0,.07-.05.15.02.19Z"/>
              <path class="cls-4" d="M189.58,177.87c-.06.08-.06.21-.21.19-.1-.06-.28-.19-.13-.29l-.02-.06.15-.06c.04.1.15-.02.18.09-.01.04-.04.11.03.13Z"/>
              <path class="cls-4" d="M189.13,178.22l-.02.13.02-.13Z"/>
              <polygon class="cls-4" points="189.07 178.6 189.09 178.43 189.11 178.44 189.1 178.39 189.14 178.41 189.07 178.6"/>
              <path class="cls-4" d="M189.13,178.88s.02-.02.03-.03c0,.04-.01.06,0,.1l.08-.07c-.02.08.01.14.06.21h.02c.05.16-.05.35-.15.47-.11.06-.28.09-.3.24-.08,0,0-.11-.08-.06-.08.05-.22,0-.32,0-.01-.15-.09-.15-.18-.23-.02-.05.04-.14-.07-.15l.09-.02c0-.09-.1-.08-.15-.12l.12-.05c-.06-.09.04-.22.04-.3.15-.03.07-.21.04-.31.09,0,.12.21.27.15,0-.02-.03-.05-.01-.07.13-.05.08.18.2.1l-.05-.26c.11.19.12.39.36.42Z"/>
              <path class="cls-4" d="M189.05,178.68v.1s0-.1,0-.1Z"/>
              <polygon class="cls-4" points="187.91 179.06 187.91 179.05 187.97 179.08 187.91 179.06"/>
            </g>
          </g>
        </g>
      </g>
    </g>
  </g>
</svg>