<?xml version="1.0" encoding="UTF-8"?>
<svg id="Layer_2" data-name="Layer 2" xmlns="http://www.w3.org/2000/svg" viewBox="0 0 284.3 153.23">
  <defs>
    <style>
      .cls-1 {
        stroke: #fdf0e5;
      }

      .cls-1, .cls-2 {
        fill: none;
        stroke-linecap: round;
      }

      .cls-1, .cls-2, .cls-3, .cls-4, .cls-5 {
        stroke-miterlimit: 10;
      }

      .cls-6 {
        fill: #fdf0e5;
      }

      .cls-6, .cls-7, .cls-8 {
        stroke-width: 0px;
      }

      .cls-2, .cls-4 {
        stroke: #f29100;
      }

      .cls-3, .cls-4, .cls-8 {
        fill: #f39547;
      }

      .cls-3, .cls-5 {
        stroke: #f29102;
      }

      .cls-7 {
        fill: #fdca4c;
      }

      .cls-5 {
        fill: #f29102;
        opacity: .5;
      }
    </style>
  </defs>
  <g id="Layer_17" data-name="Layer 17">
    <g id="badering">
      <g id="bedering">
        <path class="cls-3" d="M10.18,55.39C30.62,9.17,100.06,3.68,129.38,1.37c19.16-1.52,111.46-6.51,142.82,45.18,5.91,9.75,13.08,27.14,6.52,34.37-9.71,10.69-40.46-10.8-100.98-18.89-20.81-2.78-31.21-4.17-44.68-2.81-66.54,6.75-95.61,67.92-116.85,58.08C2.48,110.94-.08,78.58,10.18,55.39Z"/>
        <path class="cls-5" d="M47.22,57.14c14.75-23.98,64.86-26.82,86.01-28.03,13.83-.79,80.42-3.38,103.06,23.44,4.27,5.06,9.44,14.08,4.7,17.83-7.01,5.54-29.19-5.6-72.87-9.8-15.01-1.44-22.52-2.16-32.24-1.46-48.01,3.5-68.99,35.23-84.32,30.13-9.91-3.3-11.75-20.09-4.35-32.11Z"/>
        <circle class="cls-7" cx="72.32" cy="100.74" r="5.63"/>
        <g>
          <path class="cls-4" d="M144.92,64.91c-4.42-.1-8.44-.33-12.03-.53-15.75-.87-33.16-1.83-53.66-10.02-24.97-9.98-28.51-21.52-42.8-20.04-15.76,1.63-29.9,17.13-34.36,33.82-5.61,20.95,5.45,38.48,8.44,43.22,11.87,18.82,30.52,25.29,50.64,31.94,11.32,3.74,32.7,9.6,67.89,9.41,5.88-.03,11.77-.06,17.65-.19"/>
          <path class="cls-4" d="M139.38,64.91c4.42-.1,8.44-.33,12.03-.53,15.75-.87,33.16-1.83,53.66-10.02,24.97-9.98,28.51-21.52,42.8-20.04,15.76,1.63,29.9,17.13,34.36,33.82,5.61,20.95-5.45,38.48-8.44,43.22-11.87,18.82-30.52,25.29-50.64,31.94-11.32,3.74-32.7,9.6-67.89,9.41-5.88-.03-11.77-.06-17.65-.19"/>
        </g>
        <circle class="cls-7" cx="55.15" cy="60.36" r="5.63"/>
        <circle class="cls-7" cx="72.32" cy="100.74" r="5.63"/>
        <circle class="cls-7" cx="15.01" cy="88.63" r="5.63"/>
        <circle class="cls-7" cx="121.9" cy="88.63" r="5.63"/>
        <circle class="cls-7" cx="43.9" cy="81.99" r="5.63"/>
        <circle class="cls-7" cx="206.5" cy="77.18" r="5.63"/>
        <circle class="cls-7" cx="273.72" cy="90.74" r="5.63"/>
        <circle class="cls-7" cx="206.5" cy="128.14" r="5.63"/>
        <circle class="cls-7" cx="49.52" cy="126.03" r="5.63"/>
        <circle class="cls-7" cx="31.89" cy="53.49" r="3.87"/>
        <circle class="cls-7" cx="116.28" cy="124.28" r="3.87"/>
        <circle class="cls-7" cx="164.9" cy="75.42" r="3.87"/>
        <circle class="cls-7" cx="256.48" cy="120.41" r="3.87"/>
        <path class="cls-8" d="M43.33,33.95c-3.88.12-7.82.4-11.37,2.1s-5.82,4.68-8.11,7.53c-4.91,6.09-9.04,12.74-12.23,19.88-.55,1.23-.36,2.69.9,3.42,1.09.64,2.83.33,3.42-.9,3.95-8.22,8.43-16.17,13.42-23.8,1.62-2.48-1.89-4.85-3.93-3.03-4.88,4.35-8.19,10.08-11.18,15.81-1.63,3.12-3.2,6.11-3.59,9.66s-.33,7.4-.45,11.07c-.11,3.22,4.89,3.21,5,0s.13-6.75.37-10.11c.22-3.13,1.76-5.75,3.19-8.47,2.76-5.25,5.73-10.43,10.2-14.42l-3.93-3.03c-4.99,7.63-9.47,15.58-13.42,23.8l4.32,2.52c2.88-6.46,6.51-12.64,10.9-18.19,1.98-2.5,4.09-5.47,6.92-7.05s6.36-1.69,9.57-1.79,3.22-5.1,0-5h0Z"/>
        <circle class="cls-7" cx="253.93" cy="73.31" r="3.87"/>
        <circle class="cls-7" cx="37.42" cy="106.37" r="3.87"/>
        <circle class="cls-7" cx="173.53" cy="146.16" r="3.87"/>
        <circle class="cls-7" cx="186.27" cy="106.37" r="3.87"/>
        <circle class="cls-7" cx="148.33" cy="111.99" r="3.87"/>
        <path class="cls-8" d="M245.03,38.28c3.14.09,6.55.17,9.39,1.69s5.08,4.6,7.1,7.15c4.39,5.55,8.02,11.73,10.9,18.19l4.32-2.52c-3.95-8.22-8.43-16.17-13.42-23.8l-3.93,3.03c4.47,3.99,7.45,9.17,10.2,14.42,1.38,2.63,2.93,5.21,3.17,8.23.27,3.43.27,6.91.39,10.35.11,3.21,5.11,3.22,5,0-.13-3.67-.06-7.41-.45-11.07s-1.96-6.55-3.59-9.66c-3-5.73-6.3-11.46-11.18-15.81-2.02-1.8-5.56.53-3.93,3.03,4.99,7.63,9.47,15.58,13.42,23.8.58,1.22,2.32,1.54,3.42.9,1.27-.74,1.45-2.18.9-3.42-3.19-7.14-7.31-13.8-12.23-19.88-2.3-2.85-4.74-5.91-8.11-7.53-3.55-1.7-7.49-1.98-11.37-2.1-3.22-.1-3.22,4.9,0,5h0Z"/>
        <circle class="cls-7" cx="243.36" cy="45.75" r="3.87"/>
        <circle class="cls-7" cx="264.22" cy="53.49" r="3.87"/>
        <circle class="cls-7" cx="231.97" cy="106.37" r="5.63"/>
        <circle class="cls-7" cx="145" cy="133.77" r="5.63"/>
        <circle class="cls-7" cx="237.6" cy="62.99" r="5.63"/>
        <circle class="cls-7" cx="99.61" cy="102.5" r="3.87"/>
        <circle class="cls-7" cx="83.78" cy="131.53" r="3.87"/>
        <circle class="cls-7" cx="72.32" cy="71.55" r="3.87"/>
        <circle class="cls-7" cx="101.53" cy="68.61" r="3.87"/>
        <circle class="cls-7" cx="168.77" cy="122.52" r="3.87"/>
        <circle class="cls-7" cx="121.9" cy="146.16" r="3.87"/>
        <circle class="cls-7" cx="253.93" cy="38.06" r="3.87"/>
        <circle class="cls-7" cx="15.01" cy="64.22" r="3.87"/>
        <circle class="cls-7" cx="24.15" cy="41.88" r="3.87"/>
        <circle class="cls-7" cx="40.55" cy="28.66" r="2.28"/>
        <circle class="cls-7" cx="252.61" cy="26.38" r="2.28"/>
        <path class="cls-2" d="M224.48,10.98c10.54,3.66,17.76,9.75,17.6,15.79-.08,3.12-2.11,5.51-5.47,9.37-5.51,6.34-11.38,10.34-15.73,12.79"/>
        <path class="cls-2" d="M64.85,12.25c-9.88,2.41-16.85,8.69-17.6,15.79-.45,4.28,1.47,7.76,2.46,9.56,5.31,9.62,16.19,12.09,18.73,12.59"/>
        <path class="cls-1" d="M276.21,67.7c-.03-3.36-.68-8.76-4.21-14.54-8.17-13.37-24.87-17.42-27.67-18.07"/>
        <ellipse class="cls-6" cx="276.21" cy="73.31" rx="1.14" ry="2.28"/>
      </g>
    </g>
  </g>
</svg>