<?xml version="1.0" encoding="UTF-8"?>
<svg id="Layer_2" data-name="Layer 2" xmlns="http://www.w3.org/2000/svg" viewBox="0 0 284.83 153.08">
  <defs>
    <style>
      .cls-1 {
        opacity: .5;
        stroke: #6d9bca;
      }

      .cls-1, .cls-2, .cls-3 {
        stroke-miterlimit: 10;
      }

      .cls-1, .cls-3 {
        fill: none;
        stroke-linecap: round;
      }

      .cls-2 {
        fill: #1f3669;
        stroke: #1f3669;
      }

      .cls-3 {
        stroke: #111c2f;
        stroke-width: 3px;
      }
    </style>
  </defs>
  <g id="Layer_17" data-name="Layer 17">
    <g id="_ørebøffer" data-name="ørebøffer">
      <g id="_ørebøffer-2" data-name="ørebøffer">
        <path class="cls-2" d="M256.53,94.75c1.85-1.06,4.66-.03,10.27,2.01,6.3,2.29,11.02,3.8,14.06,7.96,3.78,5.18,3.62,10.5,3.35,19.97-.23,7.81-.48,16.41-6.38,21.39-1.33,1.12-2.85,1.71-5.8,2.97-5.97,2.55-10.09,4.32-12.72,3.17-4.26-1.87-2.43-10.47-3.21-27.83-.84-18.53-3.75-27.25.44-29.64Z"/>
        <path class="cls-1" d="M282.75,115.34c.14-1.25.3-4.32-1.42-7.55-2.5-4.7-7.08-6.15-8.01-6.42"/>
        <path class="cls-2" d="M.55,113.43c-.63,11.46,4.89,24.4,14.53,28.95,3.02,1.43,3.24.52,22.25,1.71,12.31.77,13.86,1.4,15.96-.15,4.96-3.65,1.89-10.99,2.63-29.46.75-18.6,4.42-25.07,0-28.97-1.41-1.25-3.04-1.69-20.91-.22-17.13,1.41-18.68,2.06-19.93,2.72-9.13,4.8-14,15.86-14.53,25.41Z"/>
        <path class="cls-1" d="M15.3,87.39c3.06,2.76,10.55,10.27,12.16,21.69,2.62,18.55-12.55,31.44-14.48,33.03"/>
        <path class="cls-3" d="M35.01,85.3c1.83-10.12,8.15-37.31,32.03-58.71C98.55-1.64,137.34,1.12,149.96,2.02c38.7,2.75,84.21,24.35,100.86,64.34,4.34,10.42,5.77,19.82,6.3,26.1"/>
      </g>
    </g>
  </g>
</svg>