<?xml version="1.0" encoding="UTF-8"?>
<svg id="Layer_2" data-name="Layer 2" xmlns="http://www.w3.org/2000/svg" viewBox="0 0 149.88 155.92">
  <defs>
    <style>
      .cls-1, .cls-2, .cls-3, .cls-4, .cls-5 {
        stroke-linecap: round;
        stroke-miterlimit: 10;
      }

      .cls-1, .cls-3 {
        fill: none;
      }

      .cls-1, .cls-4 {
        stroke: #d08fbd;
      }

      .cls-2 {
        fill: #392851;
        stroke: #392851;
      }

      .cls-3, .cls-5 {
        stroke: #f39547;
      }

      .cls-4 {
        fill: #d08fbd;
      }

      .cls-5 {
        fill: #f39547;
      }
    </style>
  </defs>
  <g id="Layer_17" data-name="Layer 17">
    <g id="festhat">
      <g id="festhat-2" data-name="festhat">
        <path class="cls-2" d="M49.9,136.74l52.15-102.94c3.11-6.14,11.88-5.57,13.9.91l32.98,105.92c1.98,6.37-2.74,13-9.35,13.14l-78.42,1.64c-9.55.2-15.67-9.96-11.25-18.68Z"/>
        <line class="cls-3" x1="112.14" y1="30" x2="99.45" y2="37.53"/>
        <line class="cls-3" x1="118.97" y1="40" x2="85.12" y2="64.87"/>
        <path class="cls-4" d="M108.59,26.38h0c.48.72,8.29,13.03,2.14,26.21-3.96,8.48-12.78,15.3-21.43,15.04-8.46-.26-10.32-7.11-16.72-6.14-9.64,1.46-18.23,18.94-13.71,28.97,2.57,5.7,8.21,6.37,7.78,9.98-.33,2.81-3.86,3.19-18.91,10.63-4.34,2.15-5.69,2.93-7.44,2.38-5.32-1.69-5.96-13.15-6.2-17.37-.39-6.93-.99-17.79,6.29-28.57.7-1.04,9.31-13.39,23.92-16.49,5.33-1.13,6.9-.06,19.78-1.72,8-1.03,12.05-1.58,14.37-3.27,8.54-6.25,5.72-23.31,4.8-28.09"/>
        <path class="cls-5" d="M108.06,27.48c1.76-1.85-4.47-15.22-16.03-18.56-8.05-2.33-15.46,1.13-18.44,2.52-10.9,5.09-9.78,11.6-18.09,15.02-11.11,4.57-26.24-1.68-34.81-10.03C12.36,8.33,12.31.27,8.98.51,3.73.88-4.28,21.46,4.22,35.91c5.75,9.78,17.83,14.64,27.92,14.22,11.9-.49,23.11-8.41,40.45-20.65,5.95-4.21,10.44-7.84,17.29-7.99,10.29-.24,16.68,7.57,18.18,5.99Z"/>
        <line class="cls-3" x1="145.37" y1="129.22" x2="120.85" y2="154.17"/>
        <line class="cls-3" x1="136.32" y1="100.16" x2="77" y2="155.09"/>
        <line class="cls-3" x1="128.35" y1="74.57" x2="48.45" y2="143.37"/>
        <line class="cls-3" x1="121.79" y1="53.5" x2="74.43" y2="88.31"/>
        <line class="cls-1" x1="141.56" y1="112.88" x2="100.01" y2="153.95"/>
        <line class="cls-1" x1="133.24" y1="88.24" x2="56.09" y2="154.47"/>
        <line class="cls-1" x1="124.81" y1="63.19" x2="64.19" y2="108.52"/>
        <line class="cls-1" x1="120.07" y1="47.97" x2="82.69" y2="70.9"/>
        <line class="cls-1" x1="115.94" y1="34.71" x2="96.75" y2="44.25"/>
      </g>
    </g>
  </g>
</svg>