<?xml version="1.0" encoding="UTF-8"?>
<svg id="Layer_2" data-name="Layer 2" xmlns="http://www.w3.org/2000/svg" viewBox="0 0 333.65 230.26">
  <defs>
    <style>
      .cls-1 {
        opacity: .05;
      }

      .cls-1, .cls-2, .cls-3, .cls-4 {
        fill: #fff1e6;
        stroke-width: 0px;
      }

      .cls-2 {
        opacity: .15;
      }

      .cls-3 {
        opacity: .1;
      }

      .cls-4 {
        opacity: .2;
      }
    </style>
  </defs>
  <g id="Layer_17" data-name="Layer 17">
    <g id="Gas_-_Samlet" data-name="Gas - Samlet">
      <path class="cls-2" d="M244.39,55.25c1.68-3.54,4.05-7.19,3.33-11.05-.64-3.44-3.63-5.98-6.78-7.5-8.83-4.27-20.53-5.92-24.55-16.23-1.47-3.77-1.5-8.03-3.28-11.67-2.58-5.25-8.49-8.26-14.32-8.73-5.83-.47-11.62,1.22-17.09,3.28-5.47,2.06-10.84,4.53-16.56,5.74-4.28.9-8.87,1.06-13.09-.24-3.83-1.18-6.87-3.9-11.03-4.17-3.45-.23-6.88,1.33-9.34,3.76-2.03,2-3.45,4.55-4.4,7.25-.2.57-.38,1.15-.54,1.73-.44,1.64-.75,3.34-1.59,4.81-1.84,3.21-4.19,2.39-7.13,1.72-2.25-.51-4.7.27-6.4,1.84-1.69,1.57-2.65,3.85-2.8,6.15-.13,2.02.31,4.05.04,6.06-.9,6.62-8.26,7.91-13.47,9.7-4.17,1.44-8.55,3.6-10.34,7.63-1.99,4.48.02,9.92,3.52,13.35,5.76,5.66,14.81,8.45,22.73,8.41,10.35-.05,20.02-3.83,29.21-8.24,7.26-3.48,14.51-7.21,22.36-9s16.55-1.44,23.36,2.85c8.43,5.31,12.55,15.57,20.54,21.53,8.48,6.32,20.58,6.73,30.11,2.14,1.29-.62,2.57-1.35,3.47-2.46,3.03-3.74.62-9.31.76-13.6.17-5.15,1.05-10.41,3.27-15.09ZM229.62,46.08c-.65,1.96-3.05,2.56-5.07,3.01-2.01.45-4.39,1.52-4.48,3.58-.04,1.11.64,2.1,1.24,3.04,2.09,3.29,3.4,7.08,3.78,10.96.09.89.12,1.82-.24,2.64-.85,1.9-3.37,2.3-5.45,2.1-3.11-.29-6.14-1.31-8.79-2.96-7.46-4.64-11.15-13.58-17.95-19.14-6.73-5.5-16.42-7.12-24.57-4.11-5.71,2.11-10.53,6.24-16.33,8.1-6.94,2.23-14.94,1.08-21.2,4.82-1.95,1.17-3.63,2.76-5.62,3.86-3.33,1.84-7.28,2.16-11.08,2.22-3.37.06-7.48-.53-8.74-3.65-1-2.47.52-5.39,2.78-6.81,2.25-1.42,5.03-1.69,7.69-1.81,2.45-.11,6.36.4,7.48-2.3,1-2.4-.23-6.74-.42-9.25-.06-.79-.11-1.64.26-2.34,1.18-2.26,4.83-.92,7.02-2.22,2.13-1.27,2-4.31,2.6-6.71,1.29-5.17,7.74-8.32,12.6-6.16,1.76.78,3.23,2.09,4.82,3.18,6.59,4.49,15.74,4.91,22.7,1.02,2.55-1.42,4.79-3.35,7.4-4.65,2.61-1.31,5.81-1.93,8.4-.59,3.71,1.91,4.56,6.72,6.7,10.3,2.53,4.23,7.13,6.9,11.91,8.09,4.78,1.19,9.78,1.06,14.71.8,1.83-.1,3.75-.19,5.42.56,1.67.76,2.98,2.67,2.4,4.41Z"/>
      <path class="cls-4" d="M156.99,154.99c-3.72-3.87-8.94-5.82-13.88-7.94-3.4-1.46-6.96-3.25-8.75-6.49-2.01-3.65-1.26-8.12-.82-12.26.44-4.14.27-8.93-2.88-11.65-2.66-2.29-6.68-2.31-9.99-1.14-3.31,1.17-6.17,3.32-9.19,5.11-6.37,3.76-21.89,10.47-28.41,3.72-9.57-9.91,3.47-19.35,12.1-22.08,3.32-1.05,6.77-2.03,9.55-4.13s4.76-5.69,3.9-9.07c-1.2-4.7-6.87-6.54-11.71-6.92-5.33-.41-10.91-.06-15.76-2.3-7.34-3.39-11.06-12.99-7.93-20.44,2.39-5.69,8.16-10.29,7.84-16.45-.26-4.97-5.01-9.02-9.98-9.25-4.97-.22-9.73,2.87-12.29,7.14-2.56,4.26-3.13,9.5-2.46,14.43.66,4.84,2.45,9.44,3.47,14.21,1.02,4.77,1.22,10-1.13,14.28-1.62,2.95-4.3,5.17-7.09,7.03-11.83,7.91-26.3,10.59-39.4,16.16C6.49,109.38.29,113.45,0,119.65c-.16,3.58,1.83,6.97,4.44,9.41,8.64,8.07,22.06,6.83,33.62,9.29,2.84.61,5.75,1.53,7.81,3.59,1.91,1.91,2.85,4.56,3.87,7.06,4.03,9.87,10.65,19.19,20.29,23.75,5.13,2.43,12.48,2.73,15.29-2.2,2.19-3.84.37-8.8,1.68-13.03,2.09-6.73,11.26-8.62,17.81-6.04s11.44,8.07,17.08,12.3c6.83,5.11,14.98,8.44,23.43,9.56,4.95.66,10.75.23,13.8-3.74,3.27-4.26,1.6-10.75-2.13-14.62ZM114.41,141.37c-.43,1.41-2.39,1.5-3.84,1.25-11.53-1.96-21.96-3.54-33.59-.57-2.68.68-4.62,1.65-5.63,4.35-1.71,4.54-5.64,4.52-8.75.95-3.72-4.27-5.11-10.02-6.87-15.41-1.47-4.49-3.87-10.94-8.47-13.18-5.78-2.81-12.42.17-18.36-2.03-1.94-.72-3.88-2.84-1.88-4.76,1.38-1.32,3.63-2.13,5.97-2.74,6.3-1.65,12.53-3.4,18.82-5.12,3.83-1.05,7.71-2.68,10.15-5.81,1.51-1.94,2.38-4.34,4.06-6.13,7.75-8.29,21.19,3.53,10.59,11.07-3.51,2.5-7.53,4.46-10.24,7.81-2.68,3.31-3.8,7.84-2.97,12.02.83,4.18,3.59,7.94,7.33,9.98,2.69,1.47,5.77,2.05,8.82,2.38,7.18.77,14.42.22,21.64.19,4.12-.02,8.82.15,12.05,3.06.77.69,1.47,1.7,1.17,2.68Z"/>
      <path class="cls-3" d="M333.64,107.9c-.19-7.91-7.55-13.99-15.15-16.18-7.6-2.19-15.7-1.64-23.55-2.67-7.45-.98-14.77-3.81-19.16-10.17-4.08-5.92-6.02-13.64-12.34-17.76-3.44-2.24-8.4-2.62-11.44.13-3.78,3.43-2.81,9.02-2.75,13.55.09,6.21-.35,12.56-1.97,18.57-3.57,13.21-13.45,24.06-25.5,30.22-13.77,7.04-29.65,4.66-43.67,10.72-4.87,2.1-9.66,5.79-10.53,11.02-1.72,10.38,11.16,18.23,8.08,28.64-1.74,5.9-7.26,8.2-13.09,8.97-3.4.45-6.91.39-9.84.22-9.46-.55-18.73-3.59-27.02-8.1-5.69-3.1-11.18-6.93-17.53-8.2-4.62-.92-10.14-.11-13.76,3.1-4.08,3.62-3.97,9.38-3.46,14.41.9,8.99,2.92,18.1,7.79,25.71,4.87,7.61,13,13.55,22.03,14,21.79,1.07,46.68-35.54,66.91-11.64,3.5,4.13,5.45,9.49,9.39,13.2,6.75,6.35,18.23,5.91,25.51.17,4.1-3.23,6.97-7.74,9.71-12.19,2.74-4.44,5.51-9,9.49-12.38,10.27-8.74,24.01-.58,35.16-6.7,8.6-4.72,10.32-16.25,9.98-26.06-.35-10.01-1.67-21.33,5.36-29.54,8.37-9.77,23.85-9.51,34.01-17.41,4.23-3.29,7.46-8.28,7.33-13.63ZM149.05,199.44c-.29.9-1.09,1.54-1.92,1.99-3.78,2.02-7.59.29-11.4-.57-3.41-.77-6.22-.55-9.56.53-4.13,1.33-7.8,2.11-11.47-.65-2.44-1.84-4.17-4.49-5.34-7.3-3.5-8.4,3.79-9.73,10.41-8.29,4.24.92,7.99,2.92,11.71,5,2.82,1.58,5.65,3.37,8.7,4.51,1.9.71,9.96,1.4,8.88,4.79ZM292.08,114.33c-9.37,7.57-26.88,14.86-29.37,27.94-.74,3.9-.18,8.04-1.51,11.78-1.49,4.15-5.17,7.22-9.22,8.98-8,3.47-21.28,1.57-26.63,9.81-4.13,6.37.75,14.61-2.76,21.2-6.14,11.54-25.19,7.63-30.19-2.99-2.44-5.17-1.78-10.8-1.42-16.47.29-4.56.37-9.13-1.5-13.5-1.16-2.7-2.76-5.57-1.95-8.39.94-3.29,4.66-4.82,7.96-5.75,9.86-2.79,20.17-2.98,29.95-5.81,8.32-2.41,16.31-7.29,22.17-13.67,7.36-8.02,7.71-17.01,8.89-27.37.29-2.56.97-5.62,3.41-6.44,1.39-.47,2.96.02,4.15.89,1.19.87,2.07,2.07,2.98,3.23,1.77,2.26,3.71,4.46,6.19,5.91,4.2,2.47,8.31,1.09,12.77.42,3.7-.56,9.46-.29,9.72,4.45.13,2.37-1.81,4.29-3.65,5.78Z"/>
      <path class="cls-1" d="M220,107.92c-1.4-4.98-5.84-8.66-10.71-10.42-3.92-1.42-8.31-1.85-11.67-4.32-3.52-2.58-5.23-6.88-7.13-10.8-4.45-9.21-12.73-11.9-22.41-12.96-8.28-.91-16.72-1.05-23.38,4.79-4.61,4.05-7.34,9.92-11.99,13.94-8.54,7.39-27.05,8.35-30.15,21.2-2.47,10.27,14.46,5.96,18.85,3.5,4.94-2.77,9.87-8.18,15.57-8.92,4.97-.65,10.1,2.19,11.11,7.31,1.44,7.31-6.83,13.56-6.37,20.99.35,5.55,6.57,9.91,11.9,8.35,4.25-1.25,6.98-5.23,9.69-8.73,2.92-3.78,6.31-7.38,10.63-9.41,10.02-4.69,21.74.15,32.8-.26,7.77-.29,15.75-5.34,13.25-14.24ZM208.67,116.05c-1.13,1.3-2.91,1.84-4.62,2-5.08.47-10.07-.19-14.75-2.27-4.92-2.19-10.36-6.3-16.02-4.32-4.94,1.73-7.11,7.05-10.33,10.72-1.63,1.86-7.34,5.86-9.77,3.44-.57-.56-.78-1.4-.78-2.2.02-2.14,1.43-3.98,2.43-5.88.07-.12.13-.25.19-.37,4.69-9.5-1.28-20.69-12.03-21.46-4.52-.32-8.67,1.65-12.45,3.91-1.96,1.17-3.97,2.3-5.88,3.55-1.73,1.14-3.47,2.5-5.59,2.78-.86.12-1.87-.02-2.38-.72-.5-.68-.35-1.64,0-2.41,1.66-3.7,6.76-6.14,10.3-7.55,4.33-1.71,8.9-2.64,13.33-4.01,7.63-2.36,10.97-9.64,18.07-12.65,3.07-1.3,6.54-1.28,9.85-.88,5.74.69,12.05,3.06,14.18,8.44,1.85,4.68,1.27,9.23,5.48,12.85,2.72,2.34,6.29,3.56,9.87,3.77,3.6.21,7.81-.34,10.25,2.31,2.21,2.41,2.85,8.42.63,10.96Z"/>
    </g>
  </g>
</svg>