<?xml version="1.0" encoding="UTF-8"?>
<svg id="Layer_2" data-name="Layer 2" xmlns="http://www.w3.org/2000/svg" viewBox="0 0 180.22 97.64">
  <defs>
    <style>
      .cls-1 {
        fill: #091b2f;
      }

      .cls-1, .cls-2, .cls-3 {
        stroke-width: 0px;
      }

      .cls-2 {
        fill: #6c9cca;
        opacity: .2;
      }

      .cls-3 {
        fill: #21366b;
      }
    </style>
  </defs>
  <g id="Grundstoffer">
    <g id="Ukendt">
      <polygon class="cls-3" points="31.3 9.05 54.26 0 83.6 5.68 123.78 9.05 149.96 21.32 180.22 32.22 177.48 55.77 168.19 88.74 115.56 87.54 89.23 97.64 54.26 91.32 20.29 87.36 0 57.64 4.31 35.72 16.28 27.62 31.3 9.05"/>
      <polygon class="cls-1" points="86.4 11.66 96.87 9.05 127.52 17.27 117.05 22.13 86.4 18.77 86.4 15.59 86.4 11.66"/>
      <polygon class="cls-1" points="166.02 41.75 180.22 32.22 178.41 47.73 174.43 55.77 162.28 69.6 150.32 76.52 140.98 67.73 127.52 64.74 123.78 61 132.01 50.16 151.44 54.37 156.68 47.73 166.02 41.75"/>
      <polygon class="cls-2" points="16.28 27.62 24.96 16.89 48.65 5.68 64.35 9.05 80.8 11.66 80.8 20.63 86.4 24.75 80.8 33.34 54.26 33.34 40.05 25.12 29.59 28.86 16.28 27.62"/>
      <polygon class="cls-2" points="119.11 28.86 136.12 19.51 153.31 26.99 169.38 33.34 151.82 41.75 149.57 45.77 119.11 41.75 110.33 32.22 119.11 28.86"/>
      <polygon class="cls-2" points="44.54 61 54.26 55.77 67.71 61 98.36 69.6 96.12 85.3 86.4 85.3 74.07 70.54 60.61 70.54 44.54 61"/>
      <polygon class="cls-1" points="16.28 57.64 30.96 57.64 51.34 47.73 47.12 37.83 39.9 33.34 27.52 39.21 4.31 35.72 0 57.64 16.28 57.64"/>
      <polygon class="cls-1" points="90.56 36.62 93.71 28.12 104.42 32.22 116.46 45.77 102.15 50.53 99.23 60.23 81.53 45.77 59.5 47.41 68.62 39.99 90.56 36.62"/>
      <polygon class="cls-1" points="47.81 79.4 68.79 79.4 78.42 90.8 89.23 97.64 54.26 91.32 35.08 89.09 25.67 81.52 37.49 72.92 47.81 79.4"/>
      <polygon class="cls-1" points="102.15 88.74 105.13 91.54 115.56 87.54 132.42 87.93 137.24 83.24 130.7 74.98 119.69 70.54 110.33 67.73 103.87 72.92 102.15 88.74"/>
    </g>
  </g>
</svg>