<?xml version="1.0" encoding="UTF-8"?>
<svg id="Layer_2" data-name="Layer 2" xmlns="http://www.w3.org/2000/svg" viewBox="0 0 292.8 149.81">
  <defs>
    <style>
      .cls-1 {
        fill: #151515;
      }

      .cls-1, .cls-2, .cls-3 {
        stroke-width: 0px;
      }

      .cls-2 {
        fill: #363636;
      }

      .cls-3 {
        fill: #fff1e6;
        opacity: .2;
      }
    </style>
  </defs>
  <g id="Grundstoffer">
    <g id="Jern">
      <polygon class="cls-2" points="47.1 23.83 89.09 3.97 166.83 0 226.98 15.32 288.83 44.26 292.8 68.09 271.81 114.06 223.01 149.81 170.23 135.05 107.82 143.56 28.94 138.46 19.29 105.55 0 78.31 23.27 41.99 29.51 28.94 47.1 23.83"/>
      <polygon class="cls-1" points="28.94 45.96 58.45 51.64 73.2 48.8 81.15 54.48 91.36 62.42 78.31 71.5 64.69 64.83 36.32 68.66 34.61 58.73 12.54 58.73 16.81 52.07 28.94 45.96"/>
      <polygon class="cls-1" points="97.6 58.73 127.11 52.77 174.21 52.77 186.69 71.5 162.29 74.9 165.69 67.53 176.48 64.83 162.29 58.73 137.32 82.85 120.87 74.9 99.87 71.5 97.6 58.73"/>
      <polygon class="cls-1" points="146.4 13.05 162.29 9.08 208.82 21.56 192.93 28.94 146.4 23.83 146.4 19.01 146.4 13.05"/>
      <polygon class="cls-1" points="39.15 102.71 70.36 98.17 108.38 110.65 127.68 124.84 97.6 120.87 68.09 111.5 35.18 124.84 21.9 114.46 19.29 105.55 39.15 102.71"/>
      <polygon class="cls-1" points="177.61 101.57 172.5 118.03 170.23 135.05 201.54 143.8 221.87 143.8 219.04 139.02 196.05 135.05 190.66 128.24 193.5 116.33 198.61 98.17 193.5 87.95 184.42 98.17 177.61 101.57"/>
      <polygon class="cls-1" points="267.27 58.73 288.83 44.26 292.8 68.09 280.04 80.01 261.59 101.01 243.44 111.5 229.25 98.17 208.82 93.63 203.15 87.95 215.63 71.5 245.14 77.88 253.08 67.81 267.27 58.73"/>
      <polygon class="cls-3" points="35.75 36.88 47.1 23.83 89.09 3.97 112.92 9.08 137.89 13.05 137.89 26.67 146.4 32.91 137.89 45.96 97.6 45.96 76.04 33.48 60.15 39.15 35.75 36.88"/>
      <polygon class="cls-3" points="196.05 39.15 221.87 24.97 247.97 36.32 272.38 45.96 245.71 58.73 242.3 64.83 196.05 58.73 182.72 44.26 196.05 39.15"/>
      <polygon class="cls-3" points="82.85 87.95 97.6 80.01 118.03 87.95 164.56 101.01 161.16 124.84 146.4 124.84 127.68 102.42 107.25 102.42 82.85 87.95"/>
    </g>
  </g>
</svg>