<?xml version="1.0" encoding="UTF-8"?>
<svg id="Layer_2" data-name="Layer 2" xmlns="http://www.w3.org/2000/svg" viewBox="0 0 406.51 265.61">
  <defs>
    <style>
      .cls-1 {
        fill: #151515;
      }

      .cls-1, .cls-2 {
        stroke-width: 0px;
      }

      .cls-2 {
        fill: #363636;
      }
    </style>
  </defs>
  <g id="Gryde_ske" data-name="Gryde + ske">
    <g id="Gryde">
      <path class="cls-2" d="M406.51,122.88c0-33.99-8.35-66.02-23.1-94.17v-8.71c0-2.13-3.01-4.18-8.57-6.11C351.58,5.83,283.56,0,203.26,0S54.94,5.83,31.67,13.89c-5.56,1.93-8.58,3.98-8.58,6.11v8.71s0,.02,0,.02C8.35,56.88,0,88.91,0,122.88c0,51.64,19.27,98.77,50.99,134.62l-3.25,8.11h310.69l-2.9-8.11c31.72-35.85,50.99-82.98,50.99-134.62Z"/>
      <path class="cls-1" d="M383.41,27.94c0,13.14-82.79,21.88-180.16,21.88S23.09,41.09,23.09,27.94v.79c0,14.2,78.84,22.18,180.17,22.18s180.16-7.99,180.16-22.2v-.77Z"/>
      <polygon class="cls-1" points="355.53 258.05 50.77 258.05 50.99 257.5 355.53 257.5 355.53 258.05"/>
      <ellipse class="cls-1" cx="203.26" cy="22.25" rx="167.4" ry="12.13"/>
    </g>
  </g>
</svg>