<?xml version="1.0" encoding="UTF-8"?>
<svg id="Layer_2" data-name="Layer 2" xmlns="http://www.w3.org/2000/svg" viewBox="0 0 167.02 145.97">
  <defs>
    <style>
      .cls-1 {
        fill: #fdf0e5;
        stroke: #fdf0e5;
      }

      .cls-1, .cls-2, .cls-3, .cls-4 {
        stroke-miterlimit: 10;
      }

      .cls-2 {
        stroke-linecap: round;
      }

      .cls-2, .cls-3, .cls-4 {
        stroke: #eee4da;
      }

      .cls-2, .cls-4 {
        fill: none;
      }

      .cls-3 {
        fill: #eee4da;
      }
    </style>
  </defs>
  <g id="Layer_17" data-name="Layer 17">
    <g id="Kokkehue">
      <g id="Kokkehue-2" data-name="Kokkehue">
        <path class="cls-3" d="M75.09,145.16c2.56-6.09,12.23-27.17,36.29-42.16,24.33-15.16,47.35-14.11,53.75-13.61-5.05-3.34-15.1-11.02-21.55-24.69-3.77-7.99-5.05-15.33-5.49-20.44-30.74,19.48-61.48,38.96-92.22,58.44,2.15,6.45,5.87,15.25,12.43,24.47,5.77,8.11,11.9,13.98,16.78,17.99Z"/>
        <path class="cls-3" d="M80.54,18.61c7.11-2.45,8.28-7.14,13.62-10.83,14.46-9.99,47.95-4.68,55.42,16.31,4.57,12.84-.76,31.12-10.95,36.8-6.15,3.43-10.17.1-20.78,4.38-8.18,3.3-7.67,6.03-17.18,11.62-14.84,8.72-20.53,4.68-30.9,12.99-7.78,6.24-5.49,9.24-12.86,14.74-8.22,6.14-21.15,9.91-32.69,6.07-13.66-4.54-17.73-17.21-19.53-22.78-1.28-3.96-6.46-20.08,2.13-30.17,6.45-7.57,13.36-3.19,23.63-12.52,6.93-6.3,6.27-10.55,15.13-17.65,3.24-2.59,7.27-5.82,13.16-7.61,9.81-2.97,13.58,1.46,21.81-1.37Z"/>
        <path class="cls-1" d="M72.89,143.15c2.56-6.09,12.23-27.17,36.29-42.16,24.33-15.16,47.35-14.11,53.75-13.61-5.05-3.34-15.1-11.02-21.55-24.69-3.77-7.99-5.05-15.33-5.49-20.44-30.74,19.48-61.48,38.96-92.22,58.44,2.15,6.45,5.87,15.25,12.43,24.47,5.77,8.11,11.9,13.98,16.78,17.99Z"/>
        <path class="cls-1" d="M79.07,16.21c7.11-2.45,8.28-7.14,13.62-10.83,14.46-9.99,47.95-4.68,55.42,16.31,4.57,12.84-.76,31.12-10.95,36.8-6.15,3.43-10.17.1-20.78,4.38-8.18,3.3-7.67,6.03-17.18,11.62-14.84,8.72-20.53,4.68-30.9,12.99-7.78,6.24-5.49,9.24-12.86,14.74-8.22,6.14-21.15,9.91-32.69,6.07-13.66-4.54-17.73-17.21-19.53-22.78-1.28-3.96-6.46-20.08,2.13-30.17,6.45-7.57,13.36-3.19,23.63-12.52,6.93-6.3,6.27-10.55,15.13-17.65,3.24-2.59,7.27-5.82,13.16-7.61,9.81-2.97,13.58,1.46,21.81-1.37Z"/>
        <path class="cls-4" d="M150.68,40.64c-1.47,8.71-5.87,16.81-12.06,20.26-6.15,3.43-10.17.1-20.78,4.38-8.18,3.3-7.67,6.03-17.18,11.62-14.84,8.72-20.53,4.68-30.9,12.99-7.78,6.24-5.49,9.24-12.86,14.74-8.22,6.14-21.15,9.91-32.69,6.07-2.81-.94-5.22-2.21-7.28-3.7"/>
        <path class="cls-2" d="M114.63,59.45c-.96,4.76-3.07,7.64-4.36,9.1-1.59,1.8-3.42,3.1-7.07,5.68-2.75,1.94-4.9,3.26-5.18,3.43-4.77,2.88-16.93,6.25-32.98,7.82"/>
        <path class="cls-2" d="M24.42,53.98c1.31-4.87,3.14-8.63,4.56-11.15,3.25-5.74,7.2-9.52,9.96-12.73,1.3-1.51,2.93-3.12,5.17-4.92,3.24-2.59,7.27-5.82,13.16-7.61,10.59-3.21,19.14-1.96,21.81-1.37,3.69.81,6.57,2.05,8.52,3.04"/>
        <path class="cls-2" d="M151.22,77.72c-2.22.04-4.99.23-8.3.74-10.34,1.59-19.21,5.27-23.13,7.02"/>
      </g>
    </g>
  </g>
</svg>