<?xml version="1.0" encoding="UTF-8"?>
<svg id="Layer_2" data-name="Layer 2" xmlns="http://www.w3.org/2000/svg" viewBox="0 0 101.39 143.41">
  <defs>
    <style>
      .cls-1 {
        fill: #ffcb4b;
      }

      .cls-1, .cls-2, .cls-3, .cls-4 {
        stroke-width: 0px;
      }

      .cls-2, .cls-3 {
        fill: #363636;
      }

      .cls-3 {
        opacity: .5;
      }

      .cls-4 {
        fill: #fff1e6;
        opacity: .2;
      }
    </style>
  </defs>
  <g id="Kolbe">
    <g id="Tom_m._prop" data-name="Tom m. prop">
      <path class="cls-2" d="M63.51,43.65V12.67l4.16-8.78h-33.94l4.16,8.78v30.99C16.09,49.33,0,69.14,0,92.72,0,120.71,22.7,143.41,50.7,143.41s50.7-22.7,50.7-50.7c0-23.57-16.09-43.39-37.89-49.06Z"/>
      <polygon class="cls-1" points="58.46 16.13 43.13 16.13 35.13 0 66.26 0 58.46 16.13"/>
      <path class="cls-4" d="M60.84,48.55V14.5l5.42-10.62h-31.14l5.61,10.62v34c-20.37,4.54-35.6,22.73-35.6,44.47,0,25.16,20.4,45.56,45.56,45.56s45.56-20.4,45.56-45.56c0-21.68-15.14-39.82-35.42-44.43Z"/>
      <path class="cls-3" d="M63.51,43.65V12.67l4.16-8.78h-33.94l4.16,8.78v30.99C16.09,49.33,0,69.14,0,92.72c0,28,22.7,50.7,50.7,50.7s50.7-22.7,50.7-50.7c0-23.57-16.09-43.39-37.89-49.06Z"/>
    </g>
  </g>
</svg>