<?xml version="1.0" encoding="UTF-8"?>
<svg id="Layer_2" data-name="Layer 2" xmlns="http://www.w3.org/2000/svg" viewBox="0 0 159.14 108.67">
  <defs>
    <style>
      .cls-1 {
        opacity: .9;
      }

      .cls-2 {
        fill: #fff1e6;
        stroke-width: 0px;
      }
    </style>
  </defs>
  <g id="Salt">
    <g class="cls-1">
      <path class="cls-2" d="M64.47,13.62l-4.26.19c-1.28,2.98.33,7.06,3.49,7.78s6.51-3.1,4.93-5.93c-1.69-.4-1.02-.5-2.7-.91l-1.46-1.13Z"/>
      <path class="cls-2" d="M88.79,29.34c3.59-.31,6.89,1.33,5.35,6.37-.97,3.17-5.15,4.69-8.11,3.21-8.59-4.3-2.6-9.11,2.76-9.58Z"/>
      <path class="cls-2" d="M105.97,3.7c-2.51-1.9-7.06.37-7.56,3.49-.69,4.28,3.92,8.49,8.12,7.4,4.2-1.09,6.17-7.03,3.45-10.41-1.34-.16-2.68-.32-4.01-.48"/>
      <path class="cls-2" d="M126.73,34.16c-2.55-.34-5.24,1.26-6.14,3.67-.91,2.41.05,5.39,2.2,6.81,2.16,1.44,5.65.88,6.63-1.53s-.62-10.52-2.69-8.95"/>
      <path class="cls-2" d="M70.79,79.46c-2.55-.34-5.24,1.26-6.14,3.67-.91,2.41.05,5.39,2.2,6.81,2.16,1.44,5.65.88,6.63-1.53.98-2.4-.62-10.52-2.69-8.95"/>
      <path class="cls-2" d="M92.53,78.41c-1.9-1.28-4.71.82-4.59,3.11.12,2.29,2.29,4.04,4.54,4.47s4.56-.15,6.77-.72c1.43-2.27-.65-5.43-3.25-6.1s-.97-1.74-3.47-.77"/>
      <path class="cls-2" d="M57.07,52.21c-4.03,2.83-5.56,8.72-3.42,13.16.29.6.67,1.21,1.28,1.47,1.12.49,2.37-.37,3.16-1.31,2.21-2.62,3.14-6.28,2.44-9.64l-.77-2.4-2.22-1.29h-.48Z"/>
      <path class="cls-2" d="M143.83,12.88c-.94-.1-1.28,1.42-.6,2.08s1.75.65,2.69.59c2-.11,3.99-.23,5.99-.34.42-1.46.11-3.1-.81-4.31-1.8,0-5.47,2.16-7.27,1.98Z"/>
      <path class="cls-2" d="M99.4,23.88l.91-4.16c-2.55-2-6.91-1.49-8.42,1.38s1.33,7.09,4.47,6.28c.82-1.53.75-.85,1.57-2.38l1.47-1.13Z"/>
      <path class="cls-2" d="M77.98,43.36c-.62,3.55-3.05,6.32-7.53,3.54-2.81-1.75-3.22-6.19-1.03-8.67,6.36-7.2,9.47-.17,8.55,5.12Z"/>
      <path class="cls-2" d="M98.37,66.53c2.48-1.94,1.45-6.92-1.44-8.2-3.97-1.76-9.21,1.62-9.23,5.96s5.21,7.77,9.18,6c.5-1.25.99-2.51,1.49-3.76"/>
      <path class="cls-2" d="M63.6,78.8c.99-2.38.12-5.38-1.97-6.88-2.1-1.49-5.22-1.33-7.15.38-1.94,1.72-2.3,5.24-.22,6.8s10.32,2.1,9.34-.3"/>
      <path class="cls-2" d="M29.59,34.41c1.72-1.51.41-4.76-1.83-5.24s-4.49,1.18-5.49,3.24c-.99,2.06-1.03,4.44-1.04,6.73,1.83,1.96,5.41.76,6.73-1.58s1.93-.49,1.63-3.16"/>
      <path class="cls-2" d="M64,6.84c-1.71-4.62-7-7.61-11.84-6.67-.65.13-1.34.34-1.75.86-.76.96-.25,2.39.46,3.39,1.97,2.81,5.26,4.64,8.69,4.83l2.51-.13,1.82-1.82.12-.46Z"/>
      <path class="cls-2" d="M79.79,100.78c.33-.89-1.05-1.6-1.86-1.11s-1.07,1.52-1.26,2.45c-.4,1.96-.8,3.92-1.2,5.88,1.3.78,2.97.9,4.37.32.46-1.74-.69-5.84-.05-7.53Z"/>
      <path class="cls-2" d="M42.51,81.46c-.78.53-.06,1.92.88,1.98s1.75-.63,2.44-1.28c1.45-1.37,2.91-2.75,4.36-4.12-.62-1.38-1.92-2.44-3.4-2.77-1.38,1.16-2.8,5.18-4.29,6.19Z"/>
      <path class="cls-2" d="M71.07,29.67c.91-.28.63-1.81-.26-2.15s-1.86.08-2.71.5c-1.79.88-3.59,1.76-5.38,2.64.18,1.5,1.11,2.9,2.42,3.65,1.66-.7,4.2-4.12,5.93-4.65Z"/>
      <path class="cls-2" d="M64.3,101.34l2.4,3.52c3.21-.49,5.82-4,4.77-7.07-1.05-3.07-6.07-3.9-7.64-1.06.55,1.64.11,1.13.65,2.77l-.19,1.84Z"/>
      <path class="cls-2" d="M64.83,72.39c-2.16-2.88-2.51-6.55,2.59-7.9,3.2-.85,6.71,1.9,7.01,5.2.87,9.56-6.37,7.01-9.6,2.7Z"/>
      <path class="cls-2" d="M33.98,71.32c-.29,3.14,4.04,5.8,6.95,4.58,4-1.68,5.14-7.81,2-10.8-3.14-2.99-9.23-1.54-10.66,2.56.57,1.22,1.14,2.44,1.71,3.66"/>
      <path class="cls-2" d="M48.91,37.61c1.05,2.35,3.83,3.78,6.36,3.28s4.55-2.89,4.63-5.46c.08-2.59-2.24-5.27-4.79-4.83s-8.61,6.07-6.19,7"/>
      <path class="cls-2" d="M104.54,43.32c-.09,2.29,3.18,3.57,5.06,2.26s2.23-4.08,1.41-6.21c-.82-2.14-2.53-3.79-4.18-5.37-2.68-.01-4.27,3.42-3.47,5.98.8,2.56-.97,1.74,1.18,3.35"/>
      <path class="cls-2" d="M41.98,55.48c-.09,2.29,3.18,3.57,5.06,2.26,1.88-1.31,2.23-4.08,1.41-6.21-.82-2.14-2.53-3.79-4.18-5.37-2.68-.01-4.27,3.42-3.47,5.98s-.97,1.74,1.18,3.35"/>
      <path class="cls-2" d="M100.98,87.27c4.53,1.93,10.34.13,12.98-4.04.36-.56.67-1.21.58-1.87-.17-1.21-1.57-1.82-2.78-1.99-3.39-.5-6.99.65-9.48,3.01l-1.63,1.92.08,2.57.25.41Z"/>
      <path class="cls-2" d="M33.96,26.83c.42.85,1.89.34,2.09-.59s-.37-1.82-.92-2.6c-1.15-1.64-2.3-3.27-3.45-4.91-1.46.42-2.69,1.55-3.23,2.96.95,1.53,4.72,3.51,5.52,5.13Z"/>
      <path class="cls-2" d="M65.57,54.37c-.74.51-1.36,1.29-1.46,2.19-.14,1.27.75,2.48.64,3.76-.02.27-.08.55.05.79.06.12.17.2.28.28.97.7,2.3.63,3.46.31s2.25-.86,3.44-1.01c.32-.04.66-.06.95-.19.89-.41.97-1.66.7-2.6-.29-1.01-.83-1.96-1.55-2.72-.12-.12-.24-.24-.4-.31-.19-.08-.41-.06-.61-.1-.6-.1-1.04-.6-1.48-1.02-1.19-1.11-2.84-.19-4.01.62Z"/>
      <path class="cls-2" d="M56.98,27.24l2.8-1.43c-.83-1.08-1.66-2.15-2.49-3.23-.26-.33-.53-.68-.91-.85-.8-.37-1.73.16-2.38.76-.98.92-1.75,2.06-2.22,3.33-.08.22-.15.51.02.68.08.08.2.11.31.14,1.82.46,3.32,1.69,4.86.61"/>
      <path class="cls-2" d="M100.07,71.01c1.23-.78,2.77-1.05,4.19-.74.17.04.34.09.46.21.12.12.16.29.2.46.13.6.17,1.21.14,1.83.89.38,1.89.38,2.83.63s1.9.87,2.03,1.84c.09.71-.32,1.41-.88,1.85s-1.25.68-1.93.92c-.52.18-1.04.36-1.56.53-.4.14-.81.28-1.21.41-1.21.41-2.69.78-3.66-.05-.51-.44-.74-1.12-.9-1.78-.04-.16-.08-.33-.19-.45-.22-.23-.59-.19-.91-.17-3.67.26.26-4.78,1.38-5.49Z"/>
      <path class="cls-2" d="M77.32,31.78c.3.11.6.24.91.2.52-.07.85-.61.99-1.12s.19-1.06.5-1.49c.44-.61,1.27-.75,1.96-1.04.4-.16.83-.64.54-.96-.06-.07-.15-.11-.23-.15-1.63-.77-3.26-1.55-4.89-2.32-.89,2.11-1.97,4.14-3.22,6.07,1.14.65,2.21.35,3.43.8Z"/>
      <path class="cls-2" d="M77.03,73.95c-.23-.13-.53-.1-.76-.23-.41-.24-.34-.92.04-1.22s.9-.3,1.37-.22c1.97.31,3.62,1.67,4.98,3.13.43.46.86.97,1.04,1.58.41,1.45-.7,2.83-1.26,4.23-.12.29-.21.6-.17.91.1.79.99,1.29,1.09,2.08.07.62-.41,1.19-.99,1.42s-1.23.17-1.84.07c-1.46-.25-2.88-.75-4.19-1.45-.27-.15-.56-.32-.69-.6-.72-1.56,1.84-9.47,1.39-9.7Z"/>
      <path class="cls-2" d="M68.12,50.56l-2.04-3.69c-.17-.32-.4-.67-.76-.71-.26-.03-.5.11-.73.23-.86.45-1.85.65-2.82.58-.16-.01-.34-.03-.47-.12-.15-.1-.24-.26-.34-.41-.55-.79-1.64-1.16-2.56-.87-.68.95-.99,2.16-.85,3.31.02.2.07.42.2.57.1.12.25.19.4.26.85.41,1.71.82,2.56,1.22,1.13.54,2.21,1.27,2.03,2.67,1.37-2.14,2.84-2.53,5.37-3.05Z"/>
      <path class="cls-2" d="M52.29,46.41c-1.19,1.67-2.65,2.81-1.95,4.89.42,1.23,1.21,3.03,2.77,2.93,5.35-.34-2.28-5.77-.82-7.82Z"/>
      <path class="cls-2" d="M50.4,42.47c-1.64.13-3.33-.48-4.51-1.62s-1.85-2.81-1.78-4.45c.03-.66-.04-1.58-.69-1.62-.22-.01-.42.09-.61.2-2.82,1.69-4.14,5-5.28,8.09,2.99-.06,5.99.85,8.45,2.55.56.39,1.09.82,1.72,1.08,1.44.61,1.41.1,1.85-.81.17-.34.59-3.39.86-3.41Z"/>
      <path class="cls-2" d="M82.11,44.32c-.18,1.54-.45,3.23-1.64,4.22-.1.09-.22.18-.25.31-.05.24.2.42.41.54,1.82.97,3.64,1.95,5.46,2.92.45.24.93.49,1.44.49.62,0,1.17-.36,1.65-.75,1.2-.95,2.22-2.12,3-3.44.16-.28.32-.57.34-.89.02-.4-.17-.78-.39-1.12-1.12-1.76-2.95-3.07-4.98-3.56-.43-.1-.89-.18-1.23-.47-.35-.29-.5-.75-.77-1.12-2.24-3.02-2.88,1.49-3.04,2.86Z"/>
      <path class="cls-2" d="M83.92,71.64c.1.23.18.46.34.65.7.83,2.33.26,2.94,1.16,1.02-1.51,1.17-3.56.39-5.2-.26-.55-.62-1.05-.98-1.55-.2-.27-.41-.56-.72-.69-.3-.12-.63-.07-.94-.16-.55-.16-.89-.72-1.08-1.25s-.31-1.13-.67-1.57c-.56-.7-1.58-.89-2.46-.68s-1.62.76-2.32,1.33c-.4.32-.81.69-.94,1.19-.14.59.16,1.18.23,1.78.05.41-.17.97-.28,1.34,2.67-.02,5.35,1.05,6.47,3.67Z"/>
      <path class="cls-2" d="M75.93,60.99c-.32.43-.74.77-1.03,1.21s-.43,1.06-.13,1.5c1.56-1.42,3.43-2.49,5.44-3.12.26-.08.54-.17.67-.4.1-.16.1-.36.1-.54.01-1.01.02-2.03.03-3.04,0-.17,0-.34-.08-.49-.58-1.1-3.35-.51-3.96.34-.9,1.25-.02,3.16-1.05,4.54Z"/>
      <path class="cls-2" d="M75.92,54.26c-.66.17-1.34.34-2.02.25s-1.36-.49-1.58-1.14c-.13-.39-.09-.85-.33-1.18-.11-.15-.27-.27-.35-.43-.09-.17-.07-.38-.02-.56.25-.88,1.27-1.27,2.17-1.4,1.53-.22,3.08-.07,4.61.08.19.02.4.04.55.15.15.11.24.28.32.45.36.75.72,1.5,1.09,2.25.05.11.11.24.09.36-.02.1-.08.18-.15.26-1.28,1.52-3.71,1.92-5.41.88"/>
      <path class="cls-2" d="M95.41,47.4c.04-1.1.95-1.94,1.8-2.64,2.12,2.29,4.7,4.56,7.81,4.7.21,0,.44.01.61.14.25.19.27.55.27.86,0,1.36-.01,2.71-.02,4.07,0,.68-.03,1.42-.49,1.92-.49.53-1.29.61-2.01.63-1.25.04-2.5.02-3.75-.04-.49-.02-1-.06-1.43-.3-1.02-.57-3.14-2.36-3.33-3.57-.14-.86.48-1.53.68-2.31.34-1.31-.2-2.18-.16-3.45Z"/>
      <path class="cls-2" d="M82.99,93.92c-.06.06-.13.11-.16.19-.07.14-.01.31.05.46.34.91.71,1.84,1.36,2.57,1.14,1.27,3.02,1.68,4.72,1.47s3.28-.97,4.82-1.71c.18-.09.37-.19.46-.37.07-.16.04-.34.01-.51-.2-1.08-.52-2.14-.96-3.16-.3-.7-.69-1.42-1.32-1.84-.68-.45-1.53-.51-2.35-.52-3.21-.03-4.29,1.34-6.62,3.42Z"/>
      <path class="cls-2" d="M81.13,12.1c-.09-.47.24-1.04.71-1,.13.01.26.07.38.12,1.86.87,3.91,1.96,4.44,3.94.29,1.1.04,2.25-.2,3.36-.86,3.8-4.66,4.53-6.35.66-.63-1.44-.15-2.28.91-3.27,2.08-1.95.54-1.49.11-3.81Z"/>
      <path class="cls-2" d="M45.28,15.71l-.13-.89c-.1-.7-.21-1.43-.58-2.03s-1.09-1.06-1.78-.9c-.18.04-.35.12-.46.27-.08.11-.12.25-.15.38-.26,1.02-.52,2.11-.19,3.11.2.61.62,1.21.51,1.84.61.1,1.23.2,1.84.3.21.03.45.06.61-.09.14-.13.14-.34.14-.52v-1.68"/>
      <path class="cls-2" d="M121.76,19.32c.62-.01,1.35.04,1.68.56.35.56.04,1.39.47,1.88.17.19.42.29.59.47.24.25.3.63.29.98-.05,1.66-1.75,3.06-3.39,2.81-1.61-.25-2.88-2.26-2.96-3.81-.13-2.55,1.2-2.85,3.31-2.89Z"/>
      <path class="cls-2" d="M128.79,56.75c1.01,2.08,2.61,3.88,4.55,5.13.23.15.49.31.59.56.3.73-.78,1.35-.77,2.13,0,.36.25.69.19,1.05-.03.22-.18.4-.33.56-.83.83-2.12,1.12-3.26.84s-2.13-1.04-2.8-2.01c-.23-.33-.43-.69-.71-.99-1.26-1.34-5.09-1.2-3.97-3.88.37-.87,5.97-4.5,6.5-3.4Z"/>
      <path class="cls-2" d="M148.99,42.52c.33-.89,1.93-.9,2-1.84,1.97.82,3.89,1.75,5.75,2.8.4.22.81.46,1.07.83.88,1.23-.21,3.2.72,4.39.2.26.49.46.57.78.12.47-.26.91-.64,1.22-.6.51-1.3.98-2.09,1.01-1.08.04-1.99-.73-2.78-1.46-1.14-1.05-5.2-6.12-4.61-7.72Z"/>
      <path class="cls-2" d="M37.67,95.05c-.28.05-.58.12-.75.35-.13.19-.14.43-.14.66,0,.92,0,1.84,0,2.76,0,.53,0,1.09.23,1.57.54,1.16,2.05,1.43,3.33,1.49,1.08.05,2.16.07,3.25.08.44,0,.92,0,1.28-.26,1.1-.78.1-2.91,1.2-3.69.22-.15.53-.42.33-.6-.43-.39-.85-.78-1.28-1.16-2.44-2.21-4.44-1.77-7.46-1.22Z"/>
      <path class="cls-2" d="M22.16,59.04c.2-.09.41-.21.47-.42.08-.28-.18-.54-.38-.75-.9-.91-1.24-2.23-1.41-3.5s-.19-2.57-.6-3.79c-.1-.31-.25-.62-.53-.78-.21-.12-.45-.13-.69-.13-1.14,0-2.47.49-2.71,1.6-.19.87.37,1.81.07,2.64-.45,1.25-2.39,1.28-3.07,2.42-.44.73-.22,1.65,0,2.47.56,1.98,1.51,2.59,3.69,2.27,1.71-.25,3.6-1.31,5.16-2.03Z"/>
      <path class="cls-2" d="M2.02,88c.23-.13.5-.16.77-.18.89-.07,1.77-.15,2.66-.22.17-.01.34-.03.49.04.26.12.35.43.42.71.12.48.23.98.18,1.47s-.3,1-.75,1.21c-.72.35-1.73-.11-2.31.44-.16.15-.26.36-.41.53-.74.8-2.8.14-3.05-.86-.23-.9,1.31-2.75,2-3.15Z"/>
    </g>
  </g>
</svg>