<?xml version="1.0" encoding="UTF-8"?>
<svg id="Layer_2" data-name="Layer 2" xmlns="http://www.w3.org/2000/svg" viewBox="0 0 159.85 168.62">
  <defs>
    <style>
      .cls-1 {
        fill: #111c2f;
        opacity: .3;
        stroke: #111c2f;
      }

      .cls-1, .cls-2 {
        stroke-miterlimit: 10;
      }

      .cls-2 {
        fill: #1f3669;
        stroke: #1f3669;
        stroke-linecap: round;
        stroke-width: 3px;
      }
    </style>
  </defs>
  <g id="Layer_17" data-name="Layer 17">
    <g id="tørklæde">
      <g id="tørklæde-2" data-name="tørklæde">
        <path class="cls-2" d="M156.47,135.95c5.8-6.49-3.96-30.05-21.67-41.78-7.05-4.67-9.06-5.8-26.22-8.97-3.52-.65-29.69-5.48-44.17-19.32-17.63-16.86-5.39-35.1-23.46-51.76C26.47.78,4.35-.68,1.74,3.74c-.85,1.44.71,2.92,1.81,11.56.74,5.77.18,6.19.81,7.79,2.81,7.1,16.08,3.06,24.15,8.97,13.1,9.6.91,28.44,13.11,46.93,9.68,14.67,30.69,23,44.86,25.53,18.93,3.38,20.53,3.75,26.91,8.97,19.44,15.91,12.76,53.41,17.17,53.63,3.46.17,4.08-23.14,17.76-28.7,4.21-1.71,6.25-.36,8.13-2.47Z"/>
        <rect class="cls-1" x="6.26" y="1.5" width="8.37" height="25.95" rx="1.23" ry="1.23" transform="translate(20.89 28.95) rotate(180)"/>
        <rect class="cls-1" x="22.78" y="5.68" width="8.37" height="24.55" rx="1.23" ry="1.23" transform="translate(47.9 42.68) rotate(-163.92)"/>
        <rect class="cls-1" x="36.41" y="19.94" width="8.37" height="21.92" rx="1.23" ry="1.23" transform="translate(38.81 81.89) rotate(-125.27)"/>
        <rect class="cls-1" x="40.52" y="36.54" width="8.37" height="20.86" rx="1.23" ry="1.23" transform="translate(3.45 97) rotate(-96.91)"/>
        <rect class="cls-1" x="43.88" y="50.87" width="8.37" height="25.95" rx="1.23" ry="1.23" transform="translate(16.8 137.4) rotate(-120)"/>
        <rect class="cls-1" x="56.63" y="66.11" width="8.37" height="28.43" rx="1.23" ry="1.23" transform="translate(66.21 180.92) rotate(-145.94)"/>
        <rect class="cls-1" x="72.82" y="75.37" width="8.37" height="25.95" rx="1.23" ry="1.23" transform="translate(120.63 197.12) rotate(-160.78)"/>
        <rect class="cls-1" x="92.64" y="81.78" width="8.37" height="24.83" rx="1.23" ry="1.23" transform="translate(178.96 201.43) rotate(-171.66)"/>
        <rect class="cls-1" x="108.55" y="85.48" width="8.37" height="25.95" rx="1.23" ry="1.23" transform="translate(178.63 232.85) rotate(-157.25)"/>
        <rect class="cls-1" x="122" y="91.64" width="10.06" height="29.99" rx="1.23" ry="1.23" transform="translate(149.23 271.01) rotate(-137.7)"/>
        <rect class="cls-1" x="6.26" y="1.5" width="8.37" height="25.95" rx="1.23" ry="1.23" transform="translate(20.89 28.95) rotate(180)"/>
        <rect class="cls-1" x="132.94" y="106.5" width="12.29" height="33.3" rx="1.23" ry="1.23" transform="translate(111.52 306.86) rotate(-122.99)"/>
        <path class="cls-1" d="M159.31,129.69c-.05-.22-.07-.43-.08-.65-.22-.85-.43-1.69-.65-2.54.07-.18.12-.33.17-.48-.13-.32-.25-.66-.32-1.03-.02-.08-.02-.16-.03-.25-.6-.08-1.76.39-3.51,1.45-4.08,1.08-9.4,2.92-15.15,6.19-6,3.41-10.46,7.23-13.54,10.31.04.12.1.23.13.35.03.18.05.34.08.5.01.05.02.11.04.16.15.56.18,1.12.12,1.68.01.05.03.09.04.14.06.35.1.69.11,1.02.02.08.04.16.06.24.18.66.22,1.28.14,1.84.43,1.69.82,3.39.62,5.1.84.46,2.57-.21,3.52-2.16,2.37-3.13,6.43-7.71,12.65-11.68,5.82-3.71,11.31-5.46,15.01-6.33.2-1.19.41-2.38.61-3.57-.01-.1-.03-.2-.03-.31Z"/>
        <path class="cls-1" d="M129.03,166.46c.03.1.04.18.07.27.52.3,1.01.73,1.44,1.32.01,0,.02,0,.03,0-.2-.38.03-.29.33-.08.05-.01.09-.02.14-.04.39-.1.71-.24.99-.43.08-.05.16-.1.24-.16.06-.05.11-.12.17-.17,0-.01.01-.03.02-.04.4-.71.81-1.39,1.19-2.05.25-1.46.68-2.88,1.19-4.29.04-.1.08-.2.12-.31.21-1.27.52-2.51.9-3.79.01-.03.02-.06.04-.09l-7.09,9.15c.08.22.16.45.23.7Z"/>
      </g>
    </g>
  </g>
</svg>