<?xml version="1.0" encoding="UTF-8"?>
<svg id="Layer_2" data-name="Layer 2" xmlns="http://www.w3.org/2000/svg" viewBox="0 0 97.72 97.72">
  <defs>
    <style>
      .cls-1 {
        fill: #36c5cf;
        stroke-width: 0px;
      }
    </style>
  </defs>
  <g id="Termometer_snefnug" data-name="Termometer + snefnug">
    <g id="Snefnug3">
      <path class="cls-1" d="M48.86,97.72c-.62,0-1.13-.51-1.13-1.13V1.13c0-.62.51-1.13,1.13-1.13s1.13.51,1.13,1.13v95.47c0,.62-.51,1.13-1.13,1.13Z"/>
      <path class="cls-1" d="M15.11,83.74c-.29,0-.58-.11-.8-.33-.44-.44-.44-1.16,0-1.6L81.82,14.31c.44-.44,1.16-.44,1.6,0,.44.44.44,1.16,0,1.6L15.91,83.41c-.22.22-.51.33-.8.33Z"/>
      <path class="cls-1" d="M82.61,83.74c-.29,0-.58-.11-.8-.33L14.31,15.91c-.44-.44-.44-1.16,0-1.6.44-.44,1.16-.44,1.6,0l67.5,67.5c.44.44.44,1.16,0,1.6-.22.22-.51.33-.8.33Z"/>
      <path class="cls-1" d="M96.59,49.99H1.13c-.62,0-1.13-.51-1.13-1.13s.51-1.13,1.13-1.13h95.47c.62,0,1.13.51,1.13,1.13s-.51,1.13-1.13,1.13Z"/>
      <path class="cls-1" d="M66.96,31.89c-.62,0-1.13-.51-1.13-1.13v-14.99c0-.62.51-1.13,1.13-1.13s1.13.51,1.13,1.13v14.99c0,.62-.51,1.13-1.13,1.13Z"/>
      <path class="cls-1" d="M81.95,31.89h-14.99c-.62,0-1.13-.51-1.13-1.13s.51-1.13,1.13-1.13h14.99c.62,0,1.13.51,1.13,1.13s-.51,1.13-1.13,1.13Z"/>
      <path class="cls-1" d="M81.95,68.09h-14.99c-.62,0-1.13-.51-1.13-1.13s.51-1.13,1.13-1.13h14.99c.62,0,1.13.51,1.13,1.13s-.51,1.13-1.13,1.13Z"/>
      <path class="cls-1" d="M66.96,83.08c-.62,0-1.13-.51-1.13-1.13v-14.99c0-.62.51-1.13,1.13-1.13s1.13.51,1.13,1.13v14.99c0,.62-.51,1.13-1.13,1.13Z"/>
      <path class="cls-1" d="M30.76,83.08c-.62,0-1.13-.51-1.13-1.13v-14.99c0-.62.51-1.13,1.13-1.13s1.13.51,1.13,1.13v14.99c0,.62-.51,1.13-1.13,1.13Z"/>
      <path class="cls-1" d="M30.76,68.09h-14.99c-.62,0-1.13-.51-1.13-1.13s.51-1.13,1.13-1.13h14.99c.62,0,1.13.51,1.13,1.13s-.51,1.13-1.13,1.13Z"/>
      <path class="cls-1" d="M30.76,31.89h-14.99c-.62,0-1.13-.51-1.13-1.13s.51-1.13,1.13-1.13h14.99c.62,0,1.13.51,1.13,1.13s-.51,1.13-1.13,1.13Z"/>
      <path class="cls-1" d="M30.76,31.89c-.62,0-1.13-.51-1.13-1.13v-14.99c0-.62.51-1.13,1.13-1.13s1.13.51,1.13,1.13v14.99c0,.62-.51,1.13-1.13,1.13Z"/>
      <path class="cls-1" d="M48.86,12.68c-.29,0-.58-.11-.8-.33l-6.85-6.85c-.44-.44-.44-1.16,0-1.6.44-.44,1.16-.44,1.6,0l6.85,6.85c.44.44.44,1.16,0,1.6-.22.22-.51.33-.8.33Z"/>
      <path class="cls-1" d="M48.86,12.68c-.29,0-.58-.11-.8-.33-.44-.44-.44-1.16,0-1.6l6.85-6.85c.44-.44,1.16-.44,1.6,0s.44,1.16,0,1.6l-6.85,6.85c-.22.22-.51.33-.8.33Z"/>
      <path class="cls-1" d="M85.38,49.99c-.29,0-.58-.11-.8-.33-.44-.44-.44-1.16,0-1.6l6.85-6.85c.44-.44,1.16-.44,1.6,0,.44.44.44,1.16,0,1.6l-6.85,6.85c-.22.22-.51.33-.8.33Z"/>
      <path class="cls-1" d="M92.23,56.85c-.29,0-.58-.11-.8-.33l-6.85-6.85c-.44-.44-.44-1.16,0-1.6.44-.44,1.16-.44,1.6,0l6.85,6.85c.44.44.44,1.16,0,1.6-.22.22-.51.33-.8.33Z"/>
      <path class="cls-1" d="M55.76,94.16c-.29,0-.58-.11-.8-.33l-6.85-6.85c-.44-.44-.44-1.16,0-1.6.44-.44,1.16-.44,1.6,0l6.85,6.85c.44.44.44,1.16,0,1.6-.22.22-.51.33-.8.33Z"/>
      <path class="cls-1" d="M42.05,94.16c-.29,0-.58-.11-.8-.33-.44-.44-.44-1.16,0-1.6l6.85-6.85c.44-.44,1.16-.44,1.6,0,.44.44.44,1.16,0,1.6l-6.85,6.85c-.22.22-.51.33-.8.33Z"/>
      <path class="cls-1" d="M6,56.85c-.29,0-.58-.11-.8-.33-.44-.44-.44-1.16,0-1.6l6.85-6.85c.44-.44,1.16-.44,1.6,0,.44.44.44,1.16,0,1.6l-6.85,6.85c-.22.22-.51.33-.8.33Z"/>
      <path class="cls-1" d="M12.86,49.99c-.29,0-.58-.11-.8-.33l-6.85-6.85c-.44-.44-.44-1.16,0-1.6.44-.44,1.16-.44,1.6,0l6.85,6.85c.44.44.44,1.16,0,1.6-.22.22-.51.33-.8.33Z"/>
    </g>
  </g>
</svg>