<?xml version="1.0" encoding="UTF-8"?>
<svg id="Layer_2" data-name="Layer 2" xmlns="http://www.w3.org/2000/svg" viewBox="0 0 99.42 99.42">
  <defs>
    <style>
      .cls-1 {
        fill: #36c5cf;
        stroke-width: 0px;
      }
    </style>
  </defs>
  <g id="Termometer_snefnug" data-name="Termometer + snefnug">
    <g id="Snefnug4">
      <path class="cls-1" d="M49.71,99.42c-.63,0-1.15-.51-1.15-1.15V1.15c0-.63.51-1.15,1.15-1.15s1.15.51,1.15,1.15v97.12c0,.63-.51,1.15-1.15,1.15Z"/>
      <path class="cls-1" d="M15.37,85.2c-.29,0-.59-.11-.81-.34-.45-.45-.45-1.18,0-1.62L83.24,14.56c.45-.45,1.18-.45,1.62,0,.45.45.45,1.18,0,1.62L16.18,84.86c-.22.22-.52.34-.81.34Z"/>
      <path class="cls-1" d="M84.05,85.2c-.29,0-.59-.11-.81-.34L14.56,16.18c-.45-.45-.45-1.18,0-1.62.45-.45,1.18-.45,1.62,0l68.68,68.68c.45.45.45,1.18,0,1.62-.22.22-.52.34-.81.34Z"/>
      <path class="cls-1" d="M98.27,50.86H1.15c-.63,0-1.15-.51-1.15-1.15s.51-1.15,1.15-1.15h97.12c.63,0,1.15.51,1.15,1.15s-.51,1.15-1.15,1.15Z"/>
      <path class="cls-1" d="M68.12,32.45c-.63,0-1.15-.51-1.15-1.15v-15.25c0-.63.51-1.15,1.15-1.15s1.15.51,1.15,1.15v15.25c0,.63-.51,1.15-1.15,1.15Z"/>
      <path class="cls-1" d="M83.37,32.45h-15.25c-.63,0-1.15-.51-1.15-1.15s.51-1.15,1.15-1.15h15.25c.63,0,1.15.51,1.15,1.15s-.51,1.15-1.15,1.15Z"/>
      <path class="cls-1" d="M83.37,69.27h-15.25c-.63,0-1.15-.51-1.15-1.15s.51-1.15,1.15-1.15h15.25c.63,0,1.15.51,1.15,1.15s-.51,1.15-1.15,1.15Z"/>
      <path class="cls-1" d="M68.12,84.52c-.63,0-1.15-.51-1.15-1.15v-15.25c0-.63.51-1.15,1.15-1.15s1.15.51,1.15,1.15v15.25c0,.63-.51,1.15-1.15,1.15Z"/>
      <path class="cls-1" d="M31.3,84.52c-.63,0-1.15-.51-1.15-1.15v-15.25c0-.63.51-1.15,1.15-1.15s1.15.51,1.15,1.15v15.25c0,.63-.51,1.15-1.15,1.15Z"/>
      <path class="cls-1" d="M31.3,69.27h-15.25c-.63,0-1.15-.51-1.15-1.15s.51-1.15,1.15-1.15h15.25c.63,0,1.15.51,1.15,1.15s-.51,1.15-1.15,1.15Z"/>
      <path class="cls-1" d="M31.3,32.45h-15.25c-.63,0-1.15-.51-1.15-1.15s.51-1.15,1.15-1.15h15.25c.63,0,1.15.51,1.15,1.15s-.51,1.15-1.15,1.15Z"/>
      <path class="cls-1" d="M31.3,32.45c-.63,0-1.15-.51-1.15-1.15v-15.25c0-.63.51-1.15,1.15-1.15s1.15.51,1.15,1.15v15.25c0,.63-.51,1.15-1.15,1.15Z"/>
      <path class="cls-1" d="M49.71,12.9c-.29,0-.59-.11-.81-.34l-6.97-6.97c-.45-.45-.45-1.18,0-1.62.45-.45,1.18-.45,1.62,0l6.97,6.97c.45.45.45,1.18,0,1.62-.22.22-.52.34-.81.34Z"/>
      <path class="cls-1" d="M49.71,12.9c-.29,0-.59-.11-.81-.34-.45-.45-.45-1.18,0-1.62l6.97-6.97c.45-.45,1.18-.45,1.62,0s.45,1.18,0,1.62l-6.97,6.97c-.22.22-.52.34-.81.34Z"/>
      <path class="cls-1" d="M49.71,34.64c-.29,0-.59-.11-.81-.34l-6.97-6.97c-.45-.45-.45-1.18,0-1.62.45-.45,1.18-.45,1.62,0l6.97,6.97c.45.45.45,1.18,0,1.62-.22.22-.52.34-.81.34Z"/>
      <path class="cls-1" d="M49.71,34.64c-.29,0-.59-.11-.81-.34-.45-.45-.45-1.18,0-1.62l6.97-6.97c.45-.45,1.18-.45,1.62,0,.45.45.45,1.18,0,1.62l-6.97,6.97c-.22.22-.52.34-.81.34Z"/>
      <path class="cls-1" d="M25.61,57.83c-.29,0-.59-.11-.81-.34-.45-.45-.45-1.18,0-1.62l6.97-6.97c.45-.45,1.18-.45,1.62,0,.45.45.45,1.18,0,1.62l-6.97,6.97c-.22.22-.52.34-.81.34Z"/>
      <path class="cls-1" d="M32.58,50.86c-.29,0-.59-.11-.81-.34l-6.97-6.97c-.45-.45-.45-1.18,0-1.62.45-.45,1.18-.45,1.62,0l6.97,6.97c.45.45.45,1.18,0,1.62-.22.22-.52.34-.81.34Z"/>
      <path class="cls-1" d="M56.68,74.05c-.29,0-.59-.11-.81-.34l-6.97-6.97c-.45-.45-.45-1.18,0-1.62.45-.45,1.18-.45,1.62,0l6.97,6.97c.45.45.45,1.18,0,1.62-.22.22-.52.34-.81.34Z"/>
      <path class="cls-1" d="M42.74,74.05c-.29,0-.59-.11-.81-.34-.45-.45-.45-1.18,0-1.62l6.97-6.97c.45-.45,1.18-.45,1.62,0,.45.45.45,1.18,0,1.62l-6.97,6.97c-.22.22-.52.34-.81.34Z"/>
      <path class="cls-1" d="M65.94,50.86c-.29,0-.59-.11-.81-.34-.45-.45-.45-1.18,0-1.62l6.97-6.97c.45-.45,1.18-.45,1.62,0,.45.45.45,1.18,0,1.62l-6.97,6.97c-.22.22-.52.34-.81.34Z"/>
      <path class="cls-1" d="M72.91,57.83c-.29,0-.59-.11-.81-.34l-6.97-6.97c-.45-.45-.45-1.18,0-1.62.45-.45,1.18-.45,1.62,0l6.97,6.97c.45.45.45,1.18,0,1.62-.22.22-.52.34-.81.34Z"/>
      <path class="cls-1" d="M86.86,50.86c-.29,0-.59-.11-.81-.34-.45-.45-.45-1.18,0-1.62l6.97-6.97c.45-.45,1.18-.45,1.62,0,.45.45.45,1.18,0,1.62l-6.97,6.97c-.22.22-.52.34-.81.34Z"/>
      <path class="cls-1" d="M93.83,57.83c-.29,0-.59-.11-.81-.34l-6.97-6.97c-.45-.45-.45-1.18,0-1.62.45-.45,1.18-.45,1.62,0l6.97,6.97c.45.45.45,1.18,0,1.62-.22.22-.52.34-.81.34Z"/>
      <path class="cls-1" d="M56.73,95.8c-.29,0-.59-.11-.81-.34l-6.97-6.97c-.45-.45-.45-1.18,0-1.62.45-.45,1.18-.45,1.62,0l6.97,6.97c.45.45.45,1.18,0,1.62-.22.22-.52.34-.81.34Z"/>
      <path class="cls-1" d="M42.78,95.8c-.29,0-.59-.11-.81-.34-.45-.45-.45-1.18,0-1.62l6.97-6.97c.45-.45,1.18-.45,1.62,0,.45.45.45,1.18,0,1.62l-6.97,6.97c-.22.22-.52.34-.81.34Z"/>
      <path class="cls-1" d="M6.11,57.83c-.29,0-.59-.11-.81-.34-.45-.45-.45-1.18,0-1.62l6.97-6.97c.45-.45,1.18-.45,1.62,0,.45.45.45,1.18,0,1.62l-6.97,6.97c-.22.22-.52.34-.81.34Z"/>
      <path class="cls-1" d="M13.08,50.86c-.29,0-.59-.11-.81-.34l-6.97-6.97c-.45-.45-.45-1.18,0-1.62.45-.45,1.18-.45,1.62,0l6.97,6.97c.45.45.45,1.18,0,1.62-.22.22-.52.34-.81.34Z"/>
    </g>
  </g>
</svg>