<?xml version="1.0" encoding="UTF-8"?>
<svg id="Layer_2" data-name="Layer 2" xmlns="http://www.w3.org/2000/svg" viewBox="0 0 91.1 91.1">
  <defs>
    <style>
      .cls-1 {
        fill: #36c5cf;
        stroke-width: 0px;
      }
    </style>
  </defs>
  <g id="Termometer_snefnug" data-name="Termometer + snefnug">
    <g id="Snefnug2">
      <path class="cls-1" d="M45.55,91.1c-.58,0-1.05-.47-1.05-1.05V1.05c0-.58.47-1.05,1.05-1.05s1.05.47,1.05,1.05v89c0,.58-.47,1.05-1.05,1.05Z"/>
      <path class="cls-1" d="M14.09,78.07c-.27,0-.54-.1-.74-.31-.41-.41-.41-1.08,0-1.49L76.27,13.34c.41-.41,1.08-.41,1.49,0,.41.41.41,1.08,0,1.49L14.83,77.76c-.21.21-.47.31-.74.31Z"/>
      <path class="cls-1" d="M77.02,78.07c-.27,0-.54-.1-.74-.31L13.34,14.83c-.41-.41-.41-1.08,0-1.49.41-.41,1.08-.41,1.49,0l62.93,62.93c.41.41.41,1.08,0,1.49-.21.21-.47.31-.74.31Z"/>
      <path class="cls-1" d="M90.05,46.6H1.05c-.58,0-1.05-.47-1.05-1.05s.47-1.05,1.05-1.05h89c.58,0,1.05.47,1.05,1.05s-.47,1.05-1.05,1.05Z"/>
      <path class="cls-1" d="M62.43,29.73c-.58,0-1.05-.47-1.05-1.05v-13.97c0-.58.47-1.05,1.05-1.05s1.05.47,1.05,1.05v13.97c0,.58-.47,1.05-1.05,1.05Z"/>
      <path class="cls-1" d="M76.4,29.73h-13.97c-.58,0-1.05-.47-1.05-1.05s.47-1.05,1.05-1.05h13.97c.58,0,1.05.47,1.05,1.05s-.47,1.05-1.05,1.05Z"/>
      <path class="cls-1" d="M76.4,63.48h-13.97c-.58,0-1.05-.47-1.05-1.05s.47-1.05,1.05-1.05h13.97c.58,0,1.05.47,1.05,1.05s-.47,1.05-1.05,1.05Z"/>
      <path class="cls-1" d="M62.43,77.45c-.58,0-1.05-.47-1.05-1.05v-13.97c0-.58.47-1.05,1.05-1.05s1.05.47,1.05,1.05v13.97c0,.58-.47,1.05-1.05,1.05Z"/>
      <path class="cls-1" d="M28.68,77.45c-.58,0-1.05-.47-1.05-1.05v-13.97c0-.58.47-1.05,1.05-1.05s1.05.47,1.05,1.05v13.97c0,.58-.47,1.05-1.05,1.05Z"/>
      <path class="cls-1" d="M28.68,63.48h-13.97c-.58,0-1.05-.47-1.05-1.05s.47-1.05,1.05-1.05h13.97c.58,0,1.05.47,1.05,1.05s-.47,1.05-1.05,1.05Z"/>
      <path class="cls-1" d="M28.68,29.73h-13.97c-.58,0-1.05-.47-1.05-1.05s.47-1.05,1.05-1.05h13.97c.58,0,1.05.47,1.05,1.05s-.47,1.05-1.05,1.05Z"/>
      <path class="cls-1" d="M28.68,29.73c-.58,0-1.05-.47-1.05-1.05v-13.97c0-.58.47-1.05,1.05-1.05s1.05.47,1.05,1.05v13.97c0,.58-.47,1.05-1.05,1.05Z"/>
    </g>
  </g>
</svg>