<?xml version="1.0" encoding="UTF-8"?>
<svg id="Layer_2" data-name="Layer 2" xmlns="http://www.w3.org/2000/svg" viewBox="0 0 80.03 80.03">
  <defs>
    <style>
      .cls-1 {
        fill: #36c5cf;
        stroke-width: 0px;
      }
    </style>
  </defs>
  <g id="Termometer_snefnug" data-name="Termometer + snefnug">
    <g id="Snefnug1">
      <path class="cls-1" d="M40.02,80.03c-.51,0-.92-.41-.92-.92V.92c0-.51.41-.92.92-.92s.92.41.92.92v78.18c0,.51-.41.92-.92.92Z"/>
      <path class="cls-1" d="M12.37,68.58c-.24,0-.47-.09-.65-.27-.36-.36-.36-.95,0-1.31L67,11.72c.36-.36.95-.36,1.31,0,.36.36.36.95,0,1.31L13.03,68.31c-.18.18-.42.27-.65.27Z"/>
      <path class="cls-1" d="M67.66,68.58c-.24,0-.47-.09-.65-.27L11.72,13.03c-.36-.36-.36-.95,0-1.31.36-.36.95-.36,1.31,0l55.28,55.28c.36.36.36.95,0,1.31-.18.18-.42.27-.65.27Z"/>
      <path class="cls-1" d="M79.11,40.94H.92c-.51,0-.92-.41-.92-.92s.41-.92.92-.92h78.18c.51,0,.92.41.92.92s-.41.92-.92.92Z"/>
    </g>
  </g>
</svg>