<?xml version="1.0" encoding="UTF-8"?>
<svg id="Layer_2" data-name="Layer 2" xmlns="http://www.w3.org/2000/svg" viewBox="0 0 33.21 122.05">
  <defs>
    <style>
      .cls-1 {
        opacity: .4;
      }

      .cls-1, .cls-2, .cls-3, .cls-4 {
        stroke-width: 0px;
      }

      .cls-1, .cls-4 {
        fill: #fff1e6;
      }

      .cls-2 {
        fill: #363636;
      }

      .cls-3 {
        fill: #fd9843;
      }

      .cls-4 {
        opacity: .5;
      }
    </style>
  </defs>
  <g id="Termometer_snefnug" data-name="Termometer + snefnug">
    <g id="Varm">
      <path class="cls-2" d="M16.61,122.05c.49,0,.91-.35,1-.83,5.87-30.66,8.02-38.09,7.83-38.12-.13-.03-.43,3.38-3.11,5.63-.5.42-2.6,2.08-5.73,2.09-.77,0-2.8-.14-4.88-1.45-3.33-2.09-3.86-5.62-3.97-6.26,0-.01,6.61,32.35,7.79,38.09.1.5.55.87,1.06.87h.01Z"/>
      <path class="cls-1" d="M33.21,16.61C33.21,7.43,25.78,0,16.61,0S0,7.43,0,16.61c0,5.88,3.06,11.05,7.68,14v51.27c0,4.93,4,8.93,8.93,8.93h0c4.93,0,8.93-4,8.93-8.93V30.61c4.62-2.95,7.68-8.12,7.68-14Z"/>
      <path class="cls-4" d="M29.89,16.61c0-7.34-5.95-13.28-13.28-13.28S3.32,9.27,3.32,16.61c0,4.72,2.46,8.85,6.16,11.21-.01.17-.02.34-.02.51v52.57c0,3.94,3.2,7.14,7.14,7.14h0c3.94,0,7.14-3.2,7.14-7.14V28.33c0-.17,0-.34-.02-.51,3.7-2.36,6.16-6.5,6.16-11.21Z"/>
      <rect class="cls-3" x="11.1" y="20.79" width="11.01" height="65.39" rx="5.5" ry="5.5"/>
      <circle class="cls-3" cx="16.61" cy="16.58" r="11.12"/>
    </g>
  </g>
</svg>