<?xml version="1.0" encoding="UTF-8"?>
<svg id="Layer_2" data-name="Layer 2" xmlns="http://www.w3.org/2000/svg" viewBox="0 0 33.07 121.54">
  <defs>
    <style>
      .cls-1 {
        opacity: .4;
      }

      .cls-1, .cls-2, .cls-3, .cls-4 {
        stroke-width: 0px;
      }

      .cls-1, .cls-4 {
        fill: #fff1e6;
      }

      .cls-2 {
        fill: #ffcb4b;
      }

      .cls-3 {
        fill: #363636;
      }

      .cls-4 {
        opacity: .5;
      }
    </style>
  </defs>
  <g id="Termometer_snefnug" data-name="Termometer + snefnug">
    <g id="Mellemvarm">
      <path class="cls-3" d="M16.55,121.54c.49,0,.9-.35,1-.82,5.84-30.53,7.98-37.93,7.8-37.97-.12-.02-.43,3.36-3.1,5.6-.5.42-2.59,2.08-5.71,2.08-.77,0-2.78-.14-4.86-1.44-3.32-2.08-3.85-5.6-3.95-6.24,0-.01,6.59,32.21,7.76,37.93.1.5.54.86,1.06.86h.01Z"/>
      <path class="cls-1" d="M33.07,16.54C33.07,7.4,25.67,0,16.54,0S0,7.4,0,16.54c0,5.86,3.05,11.01,7.65,13.95v51.06c0,4.91,3.98,8.89,8.89,8.89h0c4.91,0,8.89-3.98,8.89-8.89V30.48c4.6-2.94,7.65-8.09,7.65-13.95Z"/>
      <path class="cls-4" d="M29.77,16.54c0-7.31-5.92-13.23-13.23-13.23S3.31,9.23,3.31,16.54c0,4.7,2.45,8.82,6.14,11.16-.01.17-.02.34-.02.51v52.36c0,3.93,3.18,7.11,7.11,7.11h0c3.93,0,7.11-3.18,7.11-7.11V28.21c0-.17,0-.34-.02-.51,3.69-2.35,6.14-6.47,6.14-11.16Z"/>
      <rect class="cls-2" x="11.06" y="38.07" width="10.96" height="47.75" rx="5.48" ry="5.48"/>
    </g>
  </g>
</svg>