<?xml version="1.0" encoding="UTF-8"?>
<svg id="Layer_2" data-name="Layer 2" xmlns="http://www.w3.org/2000/svg" xmlns:xlink="http://www.w3.org/1999/xlink" viewBox="0 0 193.67 193.67">
  <defs>
    <style>
      .cls-1 {
        stroke-width: 8px;
      }

      .cls-1, .cls-2, .cls-3, .cls-4 {
        fill: none;
      }

      .cls-1, .cls-3 {
        stroke-linecap: round;
      }

      .cls-1, .cls-3, .cls-4 {
        stroke: #fff1e6;
        stroke-miterlimit: 10;
      }

      .cls-5 {
        fill: #fff1e6;
      }

      .cls-5, .cls-2 {
        stroke-width: 0px;
      }

      .cls-6 {
        clip-path: url(#clippath-1);
      }

      .cls-7 {
        clip-path: url(#clippath);
      }

      .cls-3, .cls-4 {
        stroke-width: 10px;
      }
    </style>
    <clipPath id="clippath">
      <rect class="cls-2" x="21.85" y="26.51" width="146.51" height="42.91"/>
    </clipPath>
    <clipPath id="clippath-1">
      <rect class="cls-2" x="21.85" y="123.57" width="146.51" height="42.91"/>
    </clipPath>
  </defs>
  <g id="Layer_17" data-name="Layer 17">
    <g id="Ur">
      <g id="Ur-2" data-name="Ur">
        <circle class="cls-4" cx="96.84" cy="96.84" r="91.84"/>
        <circle class="cls-4" cx="96.84" cy="96.84" r="81.63"/>
        <g>
          <g id="_Mirror_Repeat_" data-name="&amp;lt;Mirror Repeat&amp;gt;">
            <g class="cls-7">
              <line class="cls-1" x1="136.72" y1="30.51" x2="133.64" y2="34.77"/>
              <line class="cls-1" x1="164.36" y1="57.99" x2="159.98" y2="60.89"/>
              <line class="cls-1" x1="25.85" y1="62.62" x2="30.3" y2="65.42"/>
              <line class="cls-1" x1="51.57" y1="32.49" x2="54.74" y2="36.68"/>
            </g>
          </g>
          <g id="_Mirror_Repeat_-2" data-name="&amp;lt;Mirror Repeat&amp;gt;">
            <g class="cls-6">
              <line class="cls-1" x1="136.72" y1="162.48" x2="133.64" y2="158.22"/>
              <line class="cls-1" x1="164.36" y1="135" x2="159.98" y2="132.11"/>
              <line class="cls-1" x1="25.85" y1="130.38" x2="30.3" y2="127.57"/>
              <line class="cls-1" x1="51.57" y1="160.51" x2="54.74" y2="156.31"/>
            </g>
          </g>
        </g>
        <line class="cls-3" x1="96.84" y1="18.87" x2="96.84" y2="30.64"/>
        <line class="cls-3" x1="96.84" y1="162.68" x2="96.84" y2="174.45"/>
        <line class="cls-3" x1="174.63" y1="95.78" x2="162.86" y2="95.78"/>
        <line class="cls-3" x1="30.82" y1="95.78" x2="19.04" y2="95.78"/>
        <circle class="cls-5" cx="96.84" cy="95.78" r="4.08"/>
      </g>
      <path id="Stor_viser" class="cls-5" d="M102.17,57.6l-5.2-9.01c-.06-.1-.2-.1-.25,0l-5.2,9.01c-.06.1.01.22.13.22h3.48c.08,0,.15.07.15.15v34.81c0,.08.07.15.15.15h2.87c.08,0,.15-.07.15-.15v-34.81c0-.08.07-.15.15-.15h3.48c.11,0,.18-.12.13-.22Z"/>
      <path id="Lille_viser" class="cls-5" d="M124.89,99.51l6.31-3.64c.07-.04.07-.14,0-.18l-6.31-3.64c-.07-.04-.15,0-.15.09v2.43c0,.06-.05.1-.1.1h-24.37c-.06,0-.1.05-.1.1v2.01c0,.06.05.1.1.1h24.37c.06,0,.1.05.1.1v2.43c0,.08.09.13.15.09Z"/>
    </g>
  </g>
</svg>