<?xml version="1.0" encoding="UTF-8"?>
<svg id="Layer_2" data-name="Layer 2" xmlns="http://www.w3.org/2000/svg" viewBox="0 0 167.08 272.08">
  <defs>
    <style>
      .cls-1, .cls-2, .cls-3, .cls-4, .cls-5, .cls-6 {
        stroke-miterlimit: 10;
      }

      .cls-1, .cls-2, .cls-4 {
        stroke: #fdf0e5;
      }

      .cls-1, .cls-7, .cls-4 {
        fill: #fdf0e5;
      }

      .cls-8 {
        fill: #151515;
      }

      .cls-8, .cls-9, .cls-7, .cls-10, .cls-11, .cls-12, .cls-13 {
        stroke-width: 0px;
      }

      .cls-9 {
        fill: #f1e4da;
      }

      .cls-2, .cls-4 {
        stroke-linecap: round;
      }

      .cls-2, .cls-6 {
        fill: none;
      }

      .cls-10, .cls-11 {
        fill: #363636;
      }

      .cls-11 {
        opacity: .15;
      }

      .cls-3 {
        fill: #f39547;
        stroke: #f29100;
      }

      .cls-5, .cls-6 {
        stroke: #eee4da;
      }

      .cls-5, .cls-13 {
        fill: #eee4da;
      }

      .cls-12 {
        fill: #fdca4c;
      }
    </style>
  </defs>
  <g id="Layer_16" data-name="Layer 16">
    <g id="Badering">
      <g>
        <path class="cls-5" d="M132.12,34.1c.8-.46,2.02-.01,4.45.87,2.73.99,4.77,1.64,6.09,3.45,1.64,2.24,1.57,4.55,1.45,8.65-.1,3.38-.21,7.1-2.76,9.26-.58.49-1.23.74-2.51,1.29-2.58,1.11-4.37,1.87-5.51,1.37-1.84-.81-1.05-4.53-1.39-12.05-.36-8.02-1.62-11.8.19-12.83Z"/>
        <ellipse id="krop" class="cls-7" cx="84.61" cy="145.38" rx="41.8" ry="64.37"/>
        <path id="ben1_skygge" data-name="ben1 skygge" class="cls-13" d="M81.4,202.03c2.4,12.77,2.1,23.26,1.49,30.05-.54,5.93-2.35,25.96-12.04,33.81-1.3,1.05-4.68,3.79-9.24,3.81,0,0-3.6.01-7.22-2.28"/>
        <path id="ben_1" data-name="ben 1" class="cls-7" d="M79.83,197.45c3.29,15.03,2.79,27.33,1.96,34.94-.64,5.9-2.81,25.87-12.74,33.53-1.33,1.03-4.8,3.7-9.42,3.63,0,0-3.64-.05-7.27-2.41-6.38-4.14-22.88-37.8-17.76-89.01,1.83-18.31,7.7-51.58,30.25-88.68"/>
        <path id="ben2_skygge" data-name="ben2 skygge" class="cls-13" d="M87.22,202c-2.89,13.1-2.82,23.9-2.32,30.9.44,6.11,1.92,26.78,12.18,35.06,1.38,1.11,4.96,4,9.88,4.12,0,0,3.88.09,7.85-2.2"/>
        <path id="ben_2" data-name="ben 2" class="cls-7" d="M88.16,199.9c-3.29,15.03-2.79,27.33-1.96,34.94.64,5.9,2.81,25.87,12.74,33.53,1.33,1.03,4.8,3.7,9.42,3.63,0,0,3.64-.05,7.27-2.41,6.38-4.14,22.88-37.8,17.76-89.01-1.83-18.31-7.7-51.58-30.25-88.68"/>
        <path id="arm2_skygge" data-name="arm2 skygge" class="cls-13" d="M128.43,153.6c-2.63-2.72-5.04-6.02-7.03-9.8-5.88-11.13-6.36-22.95-1.86-29.53"/>
        <ellipse id="arm_2" data-name="arm 2" class="cls-7" cx="128.43" cy="122.43" rx="17.27" ry="41.43" transform="translate(-47.92 102.83) rotate(-37.29)"/>
        <path id="arm1_skygge" data-name="arm1 skygge" class="cls-13" d="M39.21,150.92c2.63-2.72,5.04-6.02,7.03-9.8,5.88-11.13,6.36-22.95,1.86-29.53"/>
        <ellipse id="arm1" class="cls-7" cx="38.64" cy="122.48" rx="41.43" ry="17.27" transform="translate(-82.22 79.03) rotate(-52.71)"/>
        <g id="hånd_2" data-name="hånd 2">
          <ellipse class="cls-7" cx="154.93" cy="163.19" rx="8.96" ry="17.09" transform="translate(-65.03 115.7) rotate(-34.3)"/>
          <ellipse class="cls-9" cx="157.15" cy="157.92" rx="4.56" ry="9.08" transform="translate(-61.67 116.03) rotate(-34.3)"/>
          <ellipse class="cls-7" cx="157.24" cy="157.26" rx="4.1" ry="9.56" transform="translate(-61.28 115.97) rotate(-34.3)"/>
        </g>
        <g id="hånd_1" data-name="hånd 1">
          <ellipse class="cls-7" cx="12.15" cy="163.25" rx="17.09" ry="8.96" transform="translate(-129.55 81.28) rotate(-55.7)"/>
          <ellipse class="cls-9" cx="9.93" cy="157.98" rx="9.08" ry="4.56" transform="translate(-126.16 77.15) rotate(-55.7)"/>
          <ellipse class="cls-7" cx="9.83" cy="157.32" rx="9.56" ry="4.1" transform="translate(-125.67 76.78) rotate(-55.7)"/>
        </g>
        <ellipse id="hoved_skygge" data-name="hoved skygge" class="cls-13" cx="82.01" cy="48.89" rx="52.56" ry="47.55"/>
        <ellipse id="hoved" class="cls-7" cx="81.8" cy="47.55" rx="52.56" ry="47.55"/>
        <g id="fod1">
          <path class="cls-6" d="M77.09,259.15c0-3.69-6.84-6.68-15.28-6.68s-15.28,2.99-15.28,6.68"/>
          <ellipse class="cls-7" cx="62.09" cy="262.23" rx="16.93" ry="9.76"/>
        </g>
        <g id="fod2">
          <path class="cls-6" d="M121.5,259.15c0-3.69-6.84-6.68-15.28-6.68s-15.28,2.99-15.28,6.68"/>
          <ellipse class="cls-7" cx="106.5" cy="262.23" rx="16.93" ry="9.76"/>
        </g>
        <g>
          <g id="glasrim">
            <g id="glasrim-2" data-name="glasrim">
              <g id="glasrim-3" data-name="glasrim">
                <path class="cls-5" d="M92.38,82.26c-9.85.76-31.53.25-38.47-20.28-3.51-10.38-1.56-20.87-1.28-22.28,4.04-20.53,22.49-29.75,37.16-31.06l-1.38,73.21c.85.1,2.23.28,3.98.41Z"/>
                <path class="cls-5" d="M96.35,81.86c-.85.1-2.23.28-3.98.41-1.75-.12-3.12-.31-3.98-.41l1.38-73.21c.89-.08,1.75-.14,2.59-.16.89-.02,1.75-.01,2.59.02v.14l1.39,73.21Z"/>
                <path class="cls-5" d="M130.85,61.98c-6.94,20.53-28.62,21.04-38.47,20.28,1.75-.12,3.12-.31,3.98-.41l-1.39-73.21c14.66,1.32,33.12,10.53,37.17,31.06.27,1.41,2.23,11.89-1.28,22.28Z"/>
                <path class="cls-5" d="M96.35,81.86c-.85.1-2.23.28-3.98.41-1.75-.12-3.12-.31-3.98-.41l1.38-73.21v-.14c.84-.03,1.71-.05,2.59-.02.85.02,1.71.08,2.59.16l1.39,73.21Z"/>
              </g>
              <line class="cls-5" x1="94.99" y1="9.93" x2="96.35" y2="81.86"/>
              <line class="cls-5" x1="89.71" y1="10.46" x2="88.4" y2="81.8"/>
              <ellipse class="cls-5" cx="92.38" cy="22.38" rx="19.54" ry="12.63"/>
              <ellipse class="cls-5" cx="93.1" cy="68.54" rx="19.54" ry="12.63"/>
            </g>
            <g id="glasrim-4" data-name="glasrim">
              <path class="cls-5" d="M91.45,85.83c-9.85.76-31.53.25-38.47-20.28-3.51-10.38-1.56-20.87-1.28-22.28,4.04-20.53,22.49-29.75,37.16-31.06l-1.38,73.21c.85.1,2.23.28,3.98.41Z"/>
              <path class="cls-5" d="M95.42,85.42c-.85.1-2.23.28-3.98.41-1.75-.12-3.12-.31-3.98-.41l1.38-73.21c.89-.08,1.75-.14,2.59-.16.89-.02,1.75-.01,2.59.02v.14l1.39,73.21Z"/>
              <path class="cls-5" d="M129.92,65.55c-6.94,20.53-28.62,21.04-38.47,20.28,1.75-.12,3.12-.31,3.98-.41l-1.39-73.21c14.66,1.32,33.12,10.53,37.17,31.06.27,1.41,2.23,11.89-1.28,22.28Z"/>
              <path class="cls-5" d="M95.42,85.42c-.85.1-2.23.28-3.98.41-1.75-.12-3.12-.31-3.98-.41l1.38-73.21v-.14c.84-.03,1.71-.05,2.59-.02.85.02,1.71.08,2.59.16l1.39,73.21Z"/>
            </g>
            <line class="cls-5" x1="94.06" y1="13.49" x2="95.42" y2="85.42"/>
            <line class="cls-5" x1="88.78" y1="14.02" x2="87.47" y2="85.36"/>
            <ellipse class="cls-5" cx="91.45" cy="25.95" rx="19.54" ry="12.63"/>
            <ellipse class="cls-5" cx="92.17" cy="72.1" rx="19.54" ry="12.63"/>
          </g>
          <g id="glasrim-5" data-name="glasrim">
            <g id="glasrim-6" data-name="glasrim">
              <g id="glasrim-7" data-name="glasrim">
                <path class="cls-5" d="M90.52,63.42c-9.41.58-30.12.19-36.75-15.37-3.35-7.87-1.49-15.82-1.22-16.88,3.86-15.56,21.49-22.54,35.5-23.54l-1.32,55.48c.82.08,2.13.21,3.8.31Z"/>
                <path class="cls-5" d="M94.32,63.11c-.82.08-2.13.21-3.8.31-1.67-.09-2.98-.23-3.8-.31l1.32-55.48c.85-.06,1.67-.1,2.48-.12.85-.02,1.67,0,2.47.02v.1l1.33,55.48Z"/>
                <path class="cls-5" d="M127.27,48.05c-6.63,15.56-27.34,15.94-36.75,15.37,1.67-.09,2.98-.23,3.8-.31l-1.33-55.48c14.01,1,31.64,7.98,35.5,23.54.26,1.07,2.13,9.01-1.22,16.88Z"/>
                <path class="cls-5" d="M94.32,63.11c-.82.08-2.13.21-3.8.31-1.67-.09-2.98-.23-3.8-.31l1.32-55.48v-.1c.8-.03,1.63-.03,2.48-.02.81.02,1.63.06,2.47.12l1.33,55.48Z"/>
              </g>
              <line class="cls-5" x1="93.02" y1="8.61" x2="94.32" y2="63.11"/>
              <line class="cls-5" x1="87.98" y1="9.01" x2="86.73" y2="63.06"/>
              <ellipse class="cls-5" cx="90.52" cy="18.04" rx="18.67" ry="9.57"/>
              <ellipse class="cls-5" cx="91.22" cy="53.02" rx="18.67" ry="9.57"/>
            </g>
            <g id="glasrim-8" data-name="glasrim">
              <path class="cls-5" d="M89.63,66.12c-9.41.58-30.12.19-36.75-15.37-3.35-7.87-1.49-15.82-1.22-16.88,3.86-15.56,21.49-22.54,35.5-23.54l-1.32,55.48c.82.08,2.13.21,3.8.31Z"/>
              <path class="cls-5" d="M93.43,65.81c-.82.08-2.13.21-3.8.31-1.67-.09-2.98-.23-3.8-.31l1.32-55.48c.85-.06,1.67-.1,2.48-.12.85-.02,1.67,0,2.47.02v.1l1.33,55.48Z"/>
              <path class="cls-5" d="M126.38,50.75c-6.63,15.56-27.34,15.94-36.75,15.37,1.67-.09,2.98-.23,3.8-.31l-1.33-55.48c14.01,1,31.64,7.98,35.5,23.54.26,1.07,2.13,9.01-1.22,16.88Z"/>
              <path class="cls-5" d="M93.43,65.81c-.82.08-2.13.21-3.8.31-1.67-.09-2.98-.23-3.8-.31l1.32-55.48v-.1c.8-.03,1.63-.03,2.48-.02.81.02,1.63.06,2.47.12l1.33,55.48Z"/>
            </g>
            <line class="cls-5" x1="92.13" y1="11.31" x2="93.43" y2="65.81"/>
            <line class="cls-5" x1="87.09" y1="11.71" x2="85.84" y2="65.76"/>
            <ellipse class="cls-5" cx="89.63" cy="20.74" rx="18.67" ry="9.57"/>
            <ellipse class="cls-5" cx="90.33" cy="55.72" rx="18.67" ry="9.57"/>
          </g>
        </g>
        <g id="skærm">
          <g id="glas">
            <path class="cls-8" d="M93.18,84.19c-10,.8-32.02.26-39.07-21.32-3.56-10.92-1.59-21.94-1.3-23.42,4.1-21.58,22.85-31.27,37.74-32.65l-1.4,76.96c.87.11,2.26.3,4.04.43Z"/>
            <path class="cls-8" d="M97.22,83.76c-.87.11-2.26.3-4.04.43-1.77-.13-3.17-.32-4.04-.43l1.4-76.96c.9-.08,1.77-.14,2.63-.17.9-.02,1.77-.01,2.63.02v.14l1.41,76.96Z"/>
            <path class="cls-8" d="M132.25,62.87c-7.05,21.58-29.07,22.12-39.07,21.32,1.77-.13,3.17-.32,4.04-.43l-1.41-76.96c14.89,1.38,33.64,11.07,37.75,32.65.28,1.48,2.26,12.5-1.3,23.42Z"/>
            <path class="cls-8" d="M114.18,81.79c-5.3,1.62-11.08,2.85-17.3,3.42-1.25.12-2.48.2-3.69.26-1.44.02-2.93-.02-4.46-.12-5.09-.34-9.71-1.35-13.78-2.66,2.27-24.73,4.54-49.46,6.82-74.18h0c4.66-1.44,8.58-1.82,11.41-1.88,2.63-.05,4.57.18,4.98.23,4.46.54,8.06,1.91,10.53,3.08,1.83,23.95,3.66,47.9,5.48,71.85Z"/>
          </g>
          <path class="cls-7" d="M129.32,32.06c.25-.3-2.95-7.23-8.85-12.36-5.68-4.95-11.58-6.24-11.69-5.84-.1.36,4.47,1.96,10.3,6.93,6.68,5.7,10,11.55,10.24,11.26Z"/>
          <ellipse class="cls-7" cx="130.32" cy="34.5" rx=".61" ry=".86"/>
          <path class="cls-10" d="M111.98,74.43c-.14-3.13-.54-12.96-.35-12.94.44.03.79,12.88.35,12.94-.33.05-2.26-7-.35-12.94,1.45-4.5,4.93-7.79,6.63-6.82.69.39,2,2,2,2,.72-6.28,2.77-10.41,2.77-10.41.82-1.65,1.91-3.85,3.13-3.67,2.03.3,3.04,6.73,3.26,8.13.04.25.1.63.17,1.14,1.92,14-4,21.88-4,21.88-2.12,2.89-4.35,4-6.06,4.84-2.09,1.03-5.11,2.53-6.63.6-.71-.9-.8-2.16-.91-4.75Z"/>
        </g>
        <path class="cls-2" d="M143.48,43.02c.06-.54.13-1.87-.62-3.27-1.08-2.03-3.07-2.66-3.47-2.78"/>
        <path class="cls-7" d="M152.48,143.55c.51-.17,1.25.82,1.84,1.61,2.99,4.03,4.39,9.9,3.22,10.47-.93.45-3.53-2.44-4.72-5.41-1.14-2.85-1.21-6.39-.35-6.67Z"/>
        <path class="cls-7" d="M14.63,143.72c.48.23.35,1.46.23,2.43-.6,4.98-3.63,10.21-4.87,9.81-.98-.32-.88-4.2.3-7.17,1.14-2.85,3.52-5.46,4.34-5.08Z"/>
        <g>
          <path class="cls-5" d="M84.03,162.88c-1.74-.04-3.32-.13-4.74-.21-6.2-.35-13.05-.74-21.12-4.04-9.83-4.02-11.22-8.68-16.85-8.08-6.2.66-11.77,6.91-13.53,13.64-2.21,8.45,2.15,15.52,3.32,17.43,4.67,7.59,12.01,10.2,19.93,12.88,4.46,1.51,12.87,3.87,26.72,3.8,2.31-.01,4.63-.03,6.95-.07"/>
          <path class="cls-5" d="M81.85,162.88c1.74-.04,3.32-.13,4.74-.21,6.2-.35,13.05-.74,21.12-4.04,9.83-4.02,11.22-8.68,16.85-8.08,6.2.66,11.77,6.91,13.53,13.64,2.21,8.45-2.15,15.52-3.32,17.43-4.67,7.59-12.01,10.2-19.93,12.88-4.46,1.51-12.87,3.87-26.72,3.8-2.31-.01-4.63-.03-6.95-.07"/>
        </g>
        <g>
          <path class="cls-5" d="M84.88,159.48c-1.74-.04-3.32-.13-4.74-.21-6.2-.34-13.05-.73-21.12-3.96-9.83-3.95-11.22-8.51-16.85-7.93-6.2.64-11.77,6.78-13.53,13.38-2.21,8.29,2.15,15.22,3.32,17.09,4.67,7.44,12.01,10,19.93,12.63,4.46,1.48,12.87,3.8,26.72,3.72,2.31-.01,4.63-.02,6.95-.07"/>
          <path class="cls-5" d="M82.7,159.48c1.74-.04,3.32-.13,4.74-.21,6.2-.34,13.05-.73,21.12-3.96,9.83-3.95,11.22-8.51,16.85-7.93,6.2.64,11.77,6.78,13.53,13.38,2.21,8.29-2.15,15.22-3.32,17.09-4.67,7.44-12.01,10-19.93,12.63-4.46,1.48-12.87,3.8-26.72,3.72-2.31-.01-4.63-.02-6.95-.07"/>
        </g>
        <g id="badering">
          <circle class="cls-12" cx="54.08" cy="174.39" r="2.3"/>
          <g>
            <path class="cls-3" d="M84.44,160.23c-1.78-.04-3.41-.13-4.86-.21-6.36-.35-13.39-.74-21.67-4.04-10.08-4.02-11.51-8.68-17.28-8.08-6.36.66-12.07,6.91-13.88,13.64-2.26,8.45,2.2,15.52,3.41,17.43,4.79,7.59,12.32,10.2,20.45,12.88,4.57,1.51,13.2,3.87,27.41,3.8,2.37-.01,4.75-.03,7.13-.07"/>
            <path class="cls-3" d="M82.2,160.23c1.78-.04,3.41-.13,4.86-.21,6.36-.35,13.39-.74,21.67-4.04,10.08-4.02,11.51-8.68,17.28-8.08,6.36.66,12.07,6.91,13.88,13.64,2.26,8.45-2.2,15.52-3.41,17.43-4.79,7.59-12.32,10.2-20.45,12.88-4.57,1.51-13.2,3.87-27.41,3.8-2.37-.01-4.75-.03-7.13-.07"/>
          </g>
          <circle class="cls-12" cx="47.06" cy="157.89" r="2.3"/>
          <circle class="cls-12" cx="54.08" cy="174.39" r="2.3"/>
          <circle class="cls-12" cx="30.66" cy="169.44" r="2.3"/>
          <circle class="cls-12" cx="74.35" cy="169.44" r="2.3"/>
          <circle class="cls-12" cx="42.46" cy="166.73" r="2.3"/>
          <circle class="cls-12" cx="108.92" cy="164.76" r="2.3"/>
          <circle class="cls-12" cx="136.39" cy="170.31" r="2.3"/>
          <circle class="cls-12" cx="108.92" cy="185.59" r="2.3"/>
          <circle class="cls-12" cx="44.76" cy="184.73" r="2.3"/>
          <circle class="cls-12" cx="37.56" cy="155.08" r="1.58"/>
          <circle class="cls-12" cx="72.05" cy="184.01" r="1.58"/>
          <circle class="cls-12" cx="91.92" cy="164.04" r="1.58"/>
          <circle class="cls-12" cx="129.35" cy="182.43" r="1.58"/>
          <circle class="cls-12" cx="128.31" cy="163.18" r="1.58"/>
          <circle class="cls-12" cx="39.82" cy="176.69" r="1.58"/>
          <circle class="cls-12" cx="123.99" cy="151.92" r="1.58"/>
          <circle class="cls-12" cx="132.51" cy="155.08" r="1.58"/>
          <circle class="cls-12" cx="95.45" cy="192.96" r="1.58"/>
          <circle class="cls-12" cx="100.65" cy="176.69" r="1.58"/>
          <circle class="cls-12" cx="85.15" cy="178.99" r="1.58"/>
          <circle class="cls-12" cx="119.33" cy="176.69" r="2.3"/>
          <circle class="cls-12" cx="83.79" cy="187.89" r="2.3"/>
          <circle class="cls-12" cx="121.63" cy="158.96" r="2.3"/>
          <circle class="cls-12" cx="65.24" cy="175.11" r="1.58"/>
          <circle class="cls-12" cx="58.76" cy="186.98" r="1.58"/>
          <circle class="cls-12" cx="54.08" cy="162.46" r="1.58"/>
          <circle class="cls-12" cx="66.02" cy="161.26" r="1.58"/>
          <circle class="cls-12" cx="93.5" cy="183.3" r="1.58"/>
          <circle class="cls-12" cx="74.35" cy="192.96" r="1.58"/>
        </g>
        <ellipse class="cls-5" cx="27.6" cy="42.96" rx="6.29" ry="11.77"/>
        <path class="cls-5" d="M21.31,42.19c-.27,4.96,2.12,10.56,6.29,12.53,1.31.62,1.4.22,9.63.74,5.33.33,6,.61,6.91-.06,2.15-1.58.82-4.76,1.14-12.75.32-8.05,1.91-10.85,0-12.54-.61-.54-1.32-.73-9.05-.09-7.41.61-8.08.89-8.63,1.18-3.95,2.08-6.06,6.87-6.29,11Z"/>
        <path class="cls-2" d="M27.7,30.91c1.32,1.19,4.57,4.45,5.27,9.39,1.13,8.03-5.43,13.61-6.27,14.3"/>
        <path class="cls-2" d="M44.47,30.32c-1.43-.06-3.16-.06-5.12.12-2.2.2-4.09.57-5.58.93"/>
        <circle class="cls-4" cx="31.02" cy="32.05" r=".23"/>
        <path class="cls-11" d="M121.96,155.05c4.74,5.23,8.33,3.47,11.29,7.79,1.4,2.04,1.89,4.33,4.43,5.56.57.28,1.54.75,2.28.36,1.69-.9.86-5.68.18-8.09-.4-1.44-1.99-6.8-7.27-10.52-1.54-1.09-4.14-2.92-7.67-2.82-.34,0-4.97.19-5.76,2.56-.58,1.75,1.23,3.74,2.51,5.16Z"/>
        <path class="cls-2" d="M27.66,166.29c.19-1.68.74-4.79,2.57-7.98,3.31-5.75,8.25-7.34,9.36-7.66"/>
        <ellipse class="cls-1" cx="42.54" cy="150.22" rx=".64" ry=".32"/>
      </g>
    </g>
  </g>
</svg>