<?xml version="1.0" encoding="UTF-8"?>
<svg id="Layer_2" data-name="Layer 2" xmlns="http://www.w3.org/2000/svg" viewBox="0 0 128.4 269.56">
  <defs>
    <style>
      .cls-1, .cls-2, .cls-3, .cls-4, .cls-5, .cls-6 {
        stroke-width: 0px;
      }

      .cls-1, .cls-7 {
        fill: #438066;
      }

      .cls-2 {
        fill: #151515;
      }

      .cls-7, .cls-8, .cls-9, .cls-10, .cls-11, .cls-12, .cls-13 {
        stroke-miterlimit: 10;
      }

      .cls-7, .cls-8, .cls-9, .cls-10, .cls-12 {
        stroke-linecap: round;
      }

      .cls-7, .cls-10, .cls-11, .cls-12, .cls-13 {
        stroke: #eee4da;
      }

      .cls-8 {
        fill: none;
      }

      .cls-8, .cls-9 {
        stroke: #fdf0e5;
      }

      .cls-3 {
        fill: #fdf0e5;
      }

      .cls-4 {
        fill: #363636;
      }

      .cls-9, .cls-10, .cls-11, .cls-6 {
        fill: #eee4da;
      }

      .cls-5, .cls-12, .cls-13 {
        fill: #f39547;
      }
    </style>
  </defs>
  <g id="Layer_16" data-name="Layer 16">
    <g id="Bagfra">
      <g id="Bagfra-2" data-name="Bagfra">
        <path id="ben1_skygge" data-name="ben1 skygge" class="cls-6" d="M63.98,201.48c1.49,12.16,1.66,22.41,1.49,29.97-.36,15.12-.96,33.71-9.22,36.78-1.57.58-5.05.63-12,.73-3.45.05-6.3-.03-8.25-.11"/>
        <path id="ben_1" data-name="ben 1" class="cls-3" d="M62.42,196.92c2.13,14.42,2.27,26.4,1.96,34.85-.42,11.48-1.23,33.71-10.08,36.46-1.41.44-4.95.49-12.02.6-.74.01-6.01.09-7.1-.01-8.98-.87-22.78-42.65-17.86-91.16,1.98-19.52,8.17-51.69,30.17-88.44"/>
        <ellipse id="krop" class="cls-3" cx="67.19" cy="144.99" rx="41.69" ry="64.2"/>
        <path class="cls-11" d="M63.84,199.39c-.45-.02-1,2.69-2.08,8.11-1.02,5.1-1.53,7.65-1.74,10.34-.14,1.76-.16,3.18-.77,5.24-.75,2.51-1.39,2.68-2.07,4.6-1.75,4.91,1.36,6.87-.55,11.12-.69,1.54-1.55,2.29-2.1,4.55-.42,1.75-.09,2.05-.43,3.54-.69,3.01-2.8,4.99-3.71,5.85-2.71,2.54-3.59,1.42-5.21,3.56-1.11,1.46-1.13,2.54-3.16,5.45-.55.78-.82,1.17-1.16,1.53-1.45,1.53-3.93,2.98-6.12,2.8-3.89-.32-6.08-5.74-6.48-5.48-.28.18.85,2.86,2.88,5.3,1.35,1.63,2.04,2.4,3.18,2.84,2.01.77,4.18-.04,6.28-.13.16,0,1.78-.08,1.78-.08,0,0,0,0,0,0,0,0,0,0,0,0,1.1-.06,1.94-.13,5.97-.37,5.51-.32,5.75-.26,6.51-.55.79-.3,3.3-1.42,5.97-7.97,3.62-8.9,3.07-14.11,3.07-14.11.77-11.01,1.15-16.52,1.15-19.98,0-12.82-.05-26.11-1.21-26.16Z"/>
        <g>
          <path id="ben1_skygge-2" data-name="ben1 skygge" class="cls-6" d="M66.2,201.41c-1.49,12.16-1.66,22.41-1.49,29.97.36,15.12.96,33.71,9.22,36.78,1.57.58,5.05.63,12,.73,3.45.05,6.3-.03,8.25-.11"/>
          <path id="ben_1-2" data-name="ben 1" class="cls-3" d="M63.85,196.8c-.08,5.56-.25,21.95.44,36.04.14,2.76.42,5.99.99,12.46.34,3.9.75,8.17,2.1,13.5,1.55,6.12,3,8.31,5.05,9.14.76.31,1.08.22,3.46.22,5.35,0,5.41.46,12.02.6,2.58.06,6.24.07,7.1-.01,8.98-.87,22.78-42.65,17.86-91.16-1.98-19.52-8.17-51.69-30.17-88.44"/>
        </g>
        <ellipse id="arm1" class="cls-3" cx="26.93" cy="125.77" rx="41.32" ry="17.22" transform="translate(-98.3 96.44) rotate(-64.73)"/>
        <ellipse class="cls-3" cx="9.56" cy="171.04" rx="17.05" ry="8.94" transform="translate(-159.02 140.56) rotate(-76.56)"/>
        <ellipse id="hoved_skygge" data-name="hoved skygge" class="cls-6" cx="63.36" cy="48.76" rx="53.07" ry="47.43"/>
        <ellipse id="hoved" class="cls-3" cx="64.38" cy="47.43" rx="52.42" ry="47.43"/>
        <path class="cls-11" d="M81.33,2.63c.2.09.74.38,1.04.96,0,0,0,.02.02.04.85,1.74-.42,3.79-1.02,5.23-.79,1.89-.22,5.43.95,12.42.78,4.65,1.17,6.97,1.82,9.51.73,2.81,4.73,18.33,17.77,29.45,3.93,3.35,10.36,6.46,9.95,7.29-.08.17-.45.27-.47.27-.7.18-1.35-.43-2.16-1-1.07-.75-1.55-.82-2.28-1.25-9.85-5.88-15.71-13.34-15.71-13.34-6.12-8.07-8.04-15.79-10.09-24.05-1.35-5.45-1.54-9.13-1.78-12.95-.5-8.09.34-12.7,1.21-12.8.16-.02.51.1.75.2Z"/>
        <path class="cls-2" d="M111.87,67.54c-6.42-3.85-16.51-11.32-23-24.04-4.53-8.88-5.82-17.39-6.54-22.21-1.14-7.57-1.08-14.02-.76-18.68,1.78.56,3.91,1.32,6.24,2.38,0,0,3.37,1.53,6.51,3.5,14.25,8.96,19.4,21.26,19.4,21.26,2.63,7.9,3.16,14.41,3.1,17.68-.18,9.22-3.04,16.28-4.93,20.11Z"/>
        <path class="cls-4" d="M114.11,62.92c.79-2.1,1.19-3.14,1.47-4.15.33-1.21.48-2.21.77-4.2.29-1.96.42-3.55.53-4.85.03-.4.06-.76.08-1.19.04-.96.02-1.84,0-3.23-.03-1.23-.27-2.07-.33-2.06-.2.02.97,9.53-1.39,10.32-.69.23-1.25.38-1.65.38-3.78,0-5.77-5.41-7.36-4.88-1.04.34-.61,2.78-1.46,2.99-.81.2-2.04-1.8-5.6-8.17-1.51-2.69-3.25-5.84-4.21-5.56-.52.16-.43,1.22-1.11,1.44-.33.1-.98.05-2.42-1.59-2.36-2.69-3.18-5.52-3.67-5.35-.29.1-.1.92-.46,1.07-.79.33-2.68-3.29-3.14-3.08-.45.21.56,3.99,2.51,7.82.42.83.76,1.45,1.09,1.97,6.85,10.66,11.08,16.38,11.08,16.38.45.62.82,1.1.98,1.33.6.58,1.3,1.25,2.1,1.96.4.35,1.11.98,2.02,1.72.6.49,1.55,1.25,2.76,2.14,1.32.97,1.17.78,2.28,1.59,2.02,1.48,2.37,1.99,2.89,1.84.32-.1.47-.38,1.28-2.3.57-1.36.86-2.04.97-2.32Z"/>
        <path class="cls-7" d="M22.18,169.27c1.37.6,3.66,1.58,6.01,2.45,2.92,1.07,13.32,3.94,27.8,5.71h12.43c.06-4.67.17-9.33.22-14h-13.25c-8.56,0-17.06-1.84-25.11-5.43-2.26-.81-4.51-1.62-6.77-2.43"/>
        <path class="cls-12" d="M82.96,163.41c-.36,0-.72.02-1.08.02h-13.25c.05,4.67.16,9.33.22,14h12.43c.73,0,1.46-.03,2.19-.06-.26-4.65-.43-9.3-.51-13.96Z"/>
        <rect class="cls-13" x="67.9" y="164.02" width="1.96" height="12.79"/>
        <rect class="cls-5" x="67.36" y="163.43" width="3.55" height="14"/>
        <path class="cls-9" d="M74.68,167.48c-.18-.39-.52-.98-1.12-1.52-1-.89-2.1-1.09-2.56-1.14"/>
        <rect class="cls-5" x="81.31" y="164.02" width="4.35" height="12.79"/>
        <path class="cls-7" d="M109.75,170.58c-1.33.68-2.35,1.1-2.49,1.17-12.12,5.03-23.79,5.62-23.79,5.62-.86.04-2.26.1-4.01.08h-12.43c-.06-4.67-.17-9.33-.22-14h13.25c8.56,0,17.06-1.84,25.11-5.43.95-.54,1.9-1.08,2.85-1.61"/>
        <path class="cls-7" d="M105.17,158.02l2.85-1.61c.53-.45,1.83-1.42,3.09-1.08,1.63.44,2.16,2.79,2.69,5.11.57,2.5,1,4.41.01,6.48-1.09,2.29-3.22,3.31-4.06,3.65"/>
        <path id="arm2_skygge" data-name="arm2 skygge" class="cls-6" d="M108.14,164.24c-4.35-2.42-8.67-5.64-12.66-9.61-11.76-11.71-17.09-26.31-14.12-36.23"/>
        <path class="cls-7" d="M24.68,156.03c-.94-.47-1.88-.94-2.82-1.41-.33-.16-.78-.31-1.26-.2-1.65.4-2.1,3.64-2.39,5.67-.44,3.1-.67,4.73.34,6.43,1.23,2.08,3.43,2.8,4.26,3.03"/>
        <path id="arm2_skygge-2" data-name="arm2 skygge" class="cls-6" d="M119.41,186.78c-2.97-1.07-5.69-2.81-7.93-5.24-6.59-7.14-6.97-18.01-1.7-26.77"/>
        <path class="cls-8" d="M110.39,158.1c.16.31.33.7.48,1.2.44,1.43.48,2.87.48,3.61"/>
        <circle class="cls-3" cx="111.42" cy="165.12" r=".62"/>
        <rect class="cls-1" x="66.03" y="163.93" width="2.01" height="13.02" rx=".22" ry=".22" transform="translate(2.81 -1.08) rotate(.94)"/>
        <path class="cls-3" d="M116.31,119.44c-7.27-15.44-17.45-26.87-25.76-30.02-.13.11-.25.22-.4.31-1.08.71-2.17,1.32-3.26,1.86-.04,2.4-.98,4.75-2.24,6.77-.72,1.15-1.56,2.22-2.4,3.28-.37.48-.75.94-1.13,1.41.03-.04-1.01,1.26-.57.69-.94,1.23-2.2,2.12-3.59,2.37.45,7.97,3.07,17.83,7.8,27.87,9.74,20.68,24.7,34.2,33.41,30.18,8.71-4.02,7.88-24.04-1.86-44.73Z"/>
        <ellipse class="cls-3" cx="117.94" cy="172.06" rx="8.94" ry="17.05" transform="translate(-55.87 56.71) rotate(-22)"/>
        <ellipse class="cls-10" cx="89.64" cy="51.64" rx="12.05" ry="10.27"/>
        <path class="cls-6" d="M92.33,40.84c-.74-.34-2.88-1.13-5.59-1.01-.8.04-2.03.1-3.45.68-2.1.85-3.29,2.25-3.88,2.96-2.44,2.96-2.54,6.26-2.53,7.22.02,2.28.74,3.95,1.12,4.8.37.83,1.47,3.22,3.95,5,1.06.76,1.95,1.12,2.22,1.22.55.21,1.52.52,3.09.61.65.04,4.5.22,6.58-.9,5.39-2.92,4.51-17.76-1.5-20.57Z"/>
        <path class="cls-8" d="M90.99,40.77c-2.15,1.27-7.03,4.51-7.97,9.27-1.33,6.66,6.02,11.4,7.75,12.46"/>
        <ellipse class="cls-3" cx="111.98" cy="64.2" rx="1.83" ry=".6" transform="translate(7.83 140.46) rotate(-66.04)"/>
        <path class="cls-3" d="M114.37,35.75c.07-.01,2.34,7.19,1.59,15.11-.55,5.74-2.61,10.98-2.89,10.91-.13-.03.02-1.22.09-1.69.29-2.23.91-3.69,1.29-4.83.53-1.61.66-2.81.9-5.21.5-4.8-.07-9.19-.41-10.63-.05-.22-.32-1.32-.49-2.8-.05-.46-.1-.86-.08-.86Z"/>
        <path class="cls-6" d="M26.92,122.49c.16.05-1.88,5.02-3.62,12.94-1.4,6.41-3.02,16.67-2.65,18.18.02.09.15.57-.08,1-.2.36-.64.66-1.01.58-.47-.11-.67-.83-.75-1.11-1.56-5.63,3.88-20.09,3.88-20.09,2.77-7.35,4.07-11.55,4.22-11.5Z"/>
        <path class="cls-6" d="M65.5,247.64c.12-.02.43,1.29,1.55,4.57.85,2.48,1.32,3.6,2.41,4.48.75.61.9.39,1.57,1,1.31,1.19,1.1,2.36,2.05,4.09.28.51,1.19,2.17,2.89,3.03,1.95.99,2.94-.1,5.21.82,1.95.79,3.37,2.47,3.13,2.98-.15.32-1,.06-2.93-.04-1.81-.09-2.28.08-3.66.07-2.06,0-4.27,0-6-1.09-1.7-1.08-2.34-2.83-3.62-6.33-.8-2.18-1.13-3.87-1.64-6.42-.71-3.61-1.16-7.14-.96-7.18Z"/>
      </g>
    </g>
  </g>
</svg>