<?xml version="1.0" encoding="UTF-8"?>
<svg id="Layer_2" data-name="Layer 2" xmlns="http://www.w3.org/2000/svg" viewBox="0 0 229.23 272.15">
  <defs>
    <style>
      .cls-1 {
        stroke: #e5dede;
      }

      .cls-1, .cls-2, .cls-3, .cls-4, .cls-5, .cls-6, .cls-7, .cls-8, .cls-9, .cls-10, .cls-11, .cls-12, .cls-13, .cls-14, .cls-15, .cls-16, .cls-17 {
        stroke-miterlimit: 10;
      }

      .cls-1, .cls-2, .cls-3, .cls-4, .cls-5, .cls-6, .cls-7, .cls-8, .cls-9, .cls-10, .cls-11, .cls-13, .cls-15, .cls-17 {
        stroke-linecap: round;
      }

      .cls-1, .cls-2, .cls-7, .cls-11, .cls-12, .cls-18 {
        fill: #eee4da;
      }

      .cls-2 {
        stroke: #d5cfcf;
      }

      .cls-3, .cls-19 {
        fill: #6d9bca;
      }

      .cls-3, .cls-17 {
        stroke: #3c735b;
      }

      .cls-20 {
        fill: #151515;
      }

      .cls-20, .cls-21, .cls-22, .cls-23, .cls-19, .cls-24, .cls-18 {
        stroke-width: 0px;
      }

      .cls-4 {
        fill: #438066;
      }

      .cls-4, .cls-11, .cls-12, .cls-14, .cls-15, .cls-16 {
        stroke: #eee4da;
      }

      .cls-5, .cls-6, .cls-9, .cls-14 {
        fill: none;
      }

      .cls-5, .cls-10 {
        stroke: #d08fbd;
      }

      .cls-21 {
        fill: #f1e4da;
      }

      .cls-6, .cls-7 {
        stroke: #fdf0e5;
      }

      .cls-22 {
        fill: #fdf0e5;
      }

      .cls-23 {
        fill: #363636;
      }

      .cls-8 {
        stroke: #392851;
      }

      .cls-8, .cls-17 {
        fill: #392851;
      }

      .cls-9, .cls-13 {
        stroke: #f39547;
      }

      .cls-10 {
        fill: #d08fbd;
      }

      .cls-13, .cls-24, .cls-15, .cls-16 {
        fill: #f39547;
      }
    </style>
  </defs>
  <g id="Layer_16" data-name="Layer 16">
    <g id="Fejre">
      <g id="fejre">
        <ellipse class="cls-22" cx="118.27" cy="112.62" rx="33.06" ry="11.72"/>
        <path class="cls-12" d="M68.91,55.19c-.73-.42-1.85-.01-4.07.8-2.5.91-4.37,1.5-5.57,3.15-1.5,2.05-1.44,4.16-1.33,7.92.09,3.09.19,6.5,2.53,8.48.53.45,1.13.68,2.3,1.18,2.36,1.01,4,1.71,5.04,1.25,1.69-.74.96-4.15,1.27-11.03.33-7.34,1.49-10.8-.18-11.75Z"/>
        <path class="cls-12" d="M159.96,54.25c.73-.42,1.85-.01,4.07.8,2.5.91,4.37,1.5,5.57,3.15,1.5,2.05,1.44,4.16,1.33,7.92-.09,3.09-.19,6.5-2.53,8.48-.53.45-1.13.68-2.3,1.18-2.36,1.01-4,1.71-5.04,1.25-1.69-.74-.96-4.15-1.27-11.03-.33-7.34-1.49-10.8.18-11.75Z"/>
        <ellipse id="krop" class="cls-22" cx="116.46" cy="156.14" rx="38.27" ry="58.94"/>
        <path id="ben1_skygge" data-name="ben1 skygge" class="cls-18" d="M113.52,208c2.19,11.7,1.93,21.3,1.36,27.51-.49,5.43-2.15,23.77-11.02,30.95-1.19.96-4.29,3.47-8.46,3.48,0,0-3.3,0-6.61-2.09"/>
        <path id="ben_1" data-name="ben 1" class="cls-22" d="M112.08,203.82c3.01,13.76,2.56,25.02,1.8,31.99-.59,5.41-2.57,23.69-11.67,30.7-1.22.94-4.4,3.39-8.62,3.33,0,0-3.34-.05-6.66-2.21-5.84-3.79-20.95-34.61-16.26-81.5,1.68-16.76,7.05-47.23,27.7-81.2"/>
        <path id="ben2_skygge" data-name="ben2 skygge" class="cls-18" d="M118.85,207.98c-2.64,11.99-2.58,21.89-2.12,28.3.4,5.6,1.76,24.52,11.16,32.1,1.26,1.02,4.54,3.67,9.05,3.77,0,0,3.56.08,7.19-2.01"/>
        <path id="ben_2" data-name="ben 2" class="cls-22" d="M119.71,206.05c-3.01,13.76-2.56,25.02-1.8,31.99.59,5.41,2.57,23.69,11.67,30.7,1.22.94,4.4,3.39,8.62,3.33,0,0,3.34-.05,6.66-2.21,5.84-3.79,20.95-34.61,16.26-81.5-1.68-16.76-7.05-47.23-27.7-81.2"/>
        <path id="arm2_skygge" data-name="arm2 skygge" class="cls-18" d="M154.33,145.29c-2.37-2.52-4.54-5.57-6.32-9.05-5.26-10.26-5.56-21.08-1.36-27.06"/>
        <ellipse id="arm_2" data-name="arm 2" class="cls-22" cx="173.29" cy="94.91" rx="45.34" ry="15.81" transform="translate(-21.16 129.93) rotate(-38.92)"/>
        <g id="hånd_2" data-name="hånd 2">
          <ellipse class="cls-22" cx="215.67" cy="64.95" rx="15.65" ry="8.21" transform="translate(2.93 138.93) rotate(-35.93)"/>
          <ellipse class="cls-21" cx="210.79" cy="63.06" rx="8.31" ry="4.17" transform="translate(3.11 135.7) rotate(-35.93)"/>
          <ellipse class="cls-22" cx="210.18" cy="62.98" rx="8.76" ry="3.76" transform="translate(3.04 135.33) rotate(-35.93)"/>
        </g>
        <ellipse id="hoved_skygge" data-name="hoved skygge" class="cls-18" cx="114.08" cy="67.79" rx="48.12" ry="43.54"/>
        <ellipse id="hoved" class="cls-22" cx="113.89" cy="66.57" rx="48.12" ry="43.54"/>
        <g id="fod1">
          <path class="cls-14" d="M109.57,260.31c0-3.38-6.26-6.12-13.99-6.12s-13.99,2.74-13.99,6.12"/>
          <ellipse class="cls-22" cx="95.84" cy="263.13" rx="15.5" ry="8.94"/>
        </g>
        <g id="fod2">
          <path class="cls-14" d="M150.24,260.31c0-3.38-6.26-6.12-13.99-6.12s-13.99,2.74-13.99,6.12"/>
          <ellipse class="cls-22" cx="136.51" cy="263.13" rx="15.5" ry="8.94"/>
        </g>
        <g>
          <g id="glasrim">
            <g id="glasrim-2" data-name="glasrim">
              <g id="glasrim-3" data-name="glasrim">
                <path class="cls-12" d="M115.94,90.59c-11.24.64-35.98.21-43.9-17.11-4.01-8.76-1.78-17.61-1.46-18.79,4.61-17.32,25.67-25.1,42.4-26.21l-1.58,61.77c.98.09,2.54.24,4.54.34Z"/>
                <path class="cls-12" d="M120.47,90.25c-.98.09-2.54.24-4.54.34-1.99-.11-3.56-.26-4.54-.34l1.58-61.77c1.01-.07,1.99-.11,2.96-.13,1.01-.02,1.99,0,2.95.02v.11l1.58,61.77Z"/>
                <path class="cls-12" d="M159.84,73.48c-7.92,17.32-32.66,17.75-43.9,17.11,1.99-.11,3.56-.26,4.54-.34l-1.58-61.77c16.73,1.11,37.8,8.89,42.41,26.21.31,1.19,2.54,10.03-1.46,18.79Z"/>
                <path class="cls-12" d="M120.47,90.25c-.98.09-2.54.24-4.54.34-1.99-.11-3.56-.26-4.54-.34l1.58-61.77v-.11c.96-.03,1.95-.04,2.96-.02.97.02,1.95.07,2.95.13l1.58,61.77Z"/>
              </g>
              <line class="cls-12" x1="118.92" y1="29.57" x2="120.47" y2="90.25"/>
              <line class="cls-12" x1="112.9" y1="30.01" x2="111.4" y2="90.2"/>
              <ellipse class="cls-12" cx="115.94" cy="40.07" rx="22.3" ry="10.65"/>
              <ellipse class="cls-12" cx="116.77" cy="79.02" rx="22.3" ry="10.65"/>
            </g>
            <g id="glasrim-4" data-name="glasrim">
              <path class="cls-12" d="M114.88,93.6c-11.24.64-35.98.21-43.9-17.11-4.01-8.76-1.78-17.61-1.46-18.79,4.61-17.32,25.67-25.1,42.4-26.21l-1.58,61.77c.98.09,2.54.24,4.54.34Z"/>
              <path class="cls-12" d="M119.41,93.26c-.98.09-2.54.24-4.54.34-1.99-.11-3.56-.26-4.54-.34l1.58-61.77c1.01-.07,1.99-.11,2.96-.13,1.01-.02,1.99,0,2.95.02v.11l1.58,61.77Z"/>
              <path class="cls-12" d="M158.78,76.49c-7.92,17.32-32.66,17.75-43.9,17.11,1.99-.11,3.56-.26,4.54-.34l-1.58-61.77c16.73,1.11,37.8,8.89,42.41,26.21.31,1.19,2.54,10.03-1.46,18.79Z"/>
              <path class="cls-12" d="M119.41,93.26c-.98.09-2.54.24-4.54.34-1.99-.11-3.56-.26-4.54-.34l1.58-61.77v-.11c.96-.03,1.95-.04,2.96-.02.97.02,1.95.07,2.95.13l1.58,61.77Z"/>
            </g>
            <line class="cls-12" x1="117.86" y1="32.57" x2="119.41" y2="93.26"/>
            <line class="cls-12" x1="111.84" y1="33.02" x2="110.34" y2="93.21"/>
            <ellipse class="cls-12" cx="114.88" cy="43.08" rx="22.3" ry="10.65"/>
            <ellipse class="cls-12" cx="115.71" cy="82.02" rx="22.3" ry="10.65"/>
          </g>
          <g id="glasrim-5" data-name="glasrim">
            <g id="glasrim-6" data-name="glasrim">
              <g id="glasrim-7" data-name="glasrim">
                <path class="cls-12" d="M113.82,74.69c-10.74.49-34.37.16-41.94-12.97-3.83-6.64-1.71-13.34-1.4-14.24,4.4-13.13,24.52-19.02,40.51-19.86l-1.51,46.81c.93.07,2.43.18,4.33.26Z"/>
                <path class="cls-12" d="M118.15,74.43c-.93.07-2.43.18-4.33.26-1.9-.08-3.4-.2-4.33-.26l1.51-46.81c.96-.05,1.9-.09,2.83-.1.96-.01,1.9,0,2.82.01v.09l1.51,46.81Z"/>
                <path class="cls-12" d="M155.76,61.73c-7.57,13.13-31.2,13.45-41.94,12.97,1.9-.08,3.4-.2,4.33-.26l-1.51-46.81c15.99.84,36.11,6.73,40.51,19.86.3.9,2.43,7.6-1.4,14.24Z"/>
                <path class="cls-12" d="M118.15,74.43c-.93.07-2.43.18-4.33.26-1.9-.08-3.4-.2-4.33-.26l1.51-46.81v-.09c.91-.02,1.86-.03,2.83-.01.92.01,1.86.05,2.82.1l1.51,46.81Z"/>
              </g>
              <line class="cls-12" x1="116.67" y1="28.45" x2="118.15" y2="74.43"/>
              <line class="cls-12" x1="110.92" y1="28.79" x2="109.49" y2="74.39"/>
              <ellipse class="cls-12" cx="113.82" cy="36.41" rx="21.3" ry="8.07"/>
              <ellipse class="cls-12" cx="114.61" cy="65.92" rx="21.3" ry="8.07"/>
            </g>
            <g id="glasrim-8" data-name="glasrim">
              <path class="cls-12" d="M112.81,76.97c-10.74.49-34.37.16-41.94-12.97-3.83-6.64-1.71-13.34-1.4-14.24,4.4-13.13,24.52-19.02,40.51-19.86l-1.51,46.81c.93.07,2.43.18,4.33.26Z"/>
              <path class="cls-12" d="M117.14,76.71c-.93.07-2.43.18-4.33.26-1.9-.08-3.4-.2-4.33-.26l1.51-46.81c.96-.05,1.9-.09,2.83-.1.96-.01,1.9,0,2.82.01v.09l1.51,46.81Z"/>
              <path class="cls-12" d="M154.74,64c-7.57,13.13-31.2,13.45-41.94,12.97,1.9-.08,3.4-.2,4.33-.26l-1.51-46.81c15.99.84,36.11,6.73,40.51,19.86.3.9,2.43,7.6-1.4,14.24Z"/>
              <path class="cls-12" d="M117.14,76.71c-.93.07-2.43.18-4.33.26-1.9-.08-3.4-.2-4.33-.26l1.51-46.81v-.09c.91-.02,1.86-.03,2.83-.01.92.01,1.86.05,2.82.1l1.51,46.81Z"/>
            </g>
            <line class="cls-12" x1="115.65" y1="30.73" x2="117.14" y2="76.71"/>
            <line class="cls-12" x1="109.9" y1="31.06" x2="108.47" y2="76.67"/>
            <ellipse class="cls-12" cx="112.81" cy="38.69" rx="21.3" ry="8.07"/>
            <ellipse class="cls-12" cx="113.6" cy="68.2" rx="21.3" ry="8.07"/>
          </g>
        </g>
        <g id="glas">
          <path class="cls-20" d="M115.5,90.78c-11.69.64-37.41.21-45.65-17.06-4.17-8.73-1.86-17.55-1.52-18.73,4.79-17.27,26.69-25.02,44.09-26.12l-1.64,61.57c1.01.09,2.64.24,4.72.34Z"/>
          <path class="cls-20" d="M120.22,90.43c-1.01.09-2.64.24-4.72.34-2.07-.1-3.7-.26-4.72-.34l1.64-61.57c1.05-.07,2.07-.11,3.08-.13,1.05-.02,2.07,0,3.07.02v.11l1.65,61.57Z"/>
          <path class="cls-20" d="M161.15,73.72c-8.24,17.27-33.96,17.69-45.65,17.06,2.07-.1,3.7-.26,4.72-.34l-1.65-61.57c17.4,1.11,39.3,8.86,44.1,26.12.33,1.18,2.64,10-1.52,18.73Z"/>
          <path class="cls-20" d="M140.04,88.86c-6.19,1.29-12.95,2.28-20.21,2.74-1.46.09-2.89.16-4.31.21-1.68.01-3.42-.02-5.21-.1-5.95-.28-11.35-1.08-16.1-2.12,2.65-19.78,5.31-39.56,7.96-59.35h0c5.45-1.15,10.03-1.46,13.33-1.5,3.07-.04,5.34.14,5.82.18,5.21.43,9.42,1.53,12.31,2.47,2.14,19.16,4.27,38.32,6.41,57.48Z"/>
        </g>
        <path class="cls-22" d="M154.91,47.68c.27-.27-4.08-5.36-11.39-8.66-7.05-3.19-14-3.43-14.1-3.1-.08.3,5.37.97,12.58,4.15,8.27,3.65,12.65,7.86,12.9,7.6Z"/>
        <ellipse class="cls-22" cx="123.34" cy="35.81" rx=".72" ry=".69"/>
        <path class="cls-23" d="M140.39,82.22c.04-3.12.23-12.9.46-12.91.53-.01.07,12.8-.46,12.91-.4.08-2.25-6.78.46-12.91,2.05-4.64,6.46-8.28,8.44-7.48.8.32,2.27,1.8,2.27,1.8,1.29-6.36,4.04-10.68,4.04-10.68,1.1-1.74,2.56-4.04,4.01-3.98,2.42.1,3.19,6.42,3.36,7.8.03.24.08.62.13,1.12,1.36,13.8-6.31,22.27-6.31,22.27-2.74,3.1-5.51,4.43-7.62,5.45-2.58,1.24-6.31,3.04-8.01,1.26-.79-.83-.81-2.08-.77-4.66Z"/>
        <g id="bælte">
          <path class="cls-4" d="M75.14,178.43c1.25.55,3.36,1.46,5.51,2.25,2.68.98,12.23,3.61,25.52,5.24h11.41c.05-4.28.16-8.57.2-12.85h-12.17c-7.86,0-15.66-1.69-23.05-4.98-2.07-.74-4.14-1.49-6.21-2.23"/>
          <polygon class="cls-19" points="95 173.65 89.14 172.37 88.67 174.64 94.53 175.92 95 173.65"/>
          <path class="cls-15" d="M130.94,173.05c-.33,0-.66.02-.99.02h-12.17c.05,4.28.15,8.57.2,12.85h11.41c.67,0,1.34-.03,2.01-.05-.24-4.27-.4-8.54-.47-12.82Z"/>
          <rect class="cls-16" x="117.11" y="173.61" width="1.8" height="11.74"/>
          <rect class="cls-24" x="116.62" y="173.06" width="3.26" height="12.85"/>
          <path class="cls-3" d="M96.07,173.76l-.81,8.96c-.03.3-.37.5-.7.42l-7.04-1.74c-.25-.06-.41-.27-.37-.49l1.22-8.61c.06-.44.75-.57,1.01-.19l1.85,2.73c.15.22.47.29.73.16l3.31-1.65c.38-.19.84.05.8.42Z"/>
          <line class="cls-17" x1="88.83" y1="171.87" x2="95.91" y2="173.52"/>
          <path class="cls-1" d="M118.73,185.92h-5.6c-.36-.06-1.09-.23-1.82-.85-.7-.59-1.06-1.29-1.22-1.65-.33-.66-.87-1.98-.94-3.74-.08-1.81.38-3.2.65-3.9.21-.43.66-1.23,1.51-1.87.72-.55,1.42-.76,1.83-.85h5.59"/>
          <path class="cls-1" d="M115.5,185.92h5.6c.36-.06,1.09-.23,1.82-.85.7-.59,1.06-1.29,1.22-1.65.33-.66.87-1.98.94-3.74.08-1.81-.38-3.2-.65-3.9-.21-.43-.66-1.23-1.51-1.87-.72-.55-1.42-.76-1.83-.85h-5.59"/>
          <path class="cls-7" d="M123.34,176.78c-.17-.36-.47-.9-1.03-1.4-.92-.82-1.93-1-2.35-1.05"/>
          <rect class="cls-24" x="129.43" y="173.61" width="3.99" height="11.74"/>
          <path class="cls-4" d="M155.54,179.63c-1.22.62-2.15,1.01-2.29,1.07-11.13,4.62-21.84,5.16-21.84,5.16-.79.04-2.08.09-3.68.08h-11.41c-.05-4.28-.16-8.57-.2-12.85h12.17c7.86,0,15.66-1.69,23.05-4.98.87-.49,1.74-.99,2.61-1.48"/>
          <path class="cls-4" d="M151.33,168.1l2.61-1.48c.49-.41,1.68-1.31,2.84-.99,1.49.4,1.98,2.56,2.47,4.69.52,2.3.92,4.05,0,5.95-1,2.1-2.95,3.04-3.72,3.36"/>
          <path class="cls-4" d="M105.92,173.09c.02.14.03.28.04.43.17,4.2.89,8.23.66,12.42h9.29c.05-4.28.16-8.57.2-12.85h-10.2Z"/>
          <rect class="cls-16" x="114.99" y="173.64" width="1.8" height="11.74" transform="translate(231.77 359.01) rotate(-180)"/>
          <rect class="cls-24" x="114.02" y="173.09" width="3.26" height="12.85" transform="translate(231.3 359.03) rotate(-180)"/>
          <path class="cls-2" d="M115.18,185.94h5.6c.36-.06,1.09-.23,1.82-.85.7-.59,1.06-1.29,1.22-1.65.33-.66.87-1.98.94-3.74.08-1.81-.38-3.2-.65-3.9-.21-.43-.66-1.23-1.51-1.87-.72-.55-1.42-.76-1.83-.85h-5.59"/>
          <path class="cls-2" d="M118.4,185.94h-5.6c-.36-.06-1.09-.23-1.82-.85-.7-.59-1.06-1.29-1.22-1.65-.33-.66-.87-1.98-.94-3.74-.08-1.81.38-3.2.65-3.9.21-.43.66-1.23,1.51-1.87.72-.55,1.42-.76,1.83-.85h5.59"/>
          <path class="cls-7" d="M122.89,176.78c-.17-.36-.47-.9-1.03-1.4-.92-.82-1.93-1-2.35-1.05"/>
          <path class="cls-4" d="M77.43,166.28c-.86-.43-1.72-.87-2.59-1.3-.3-.15-.72-.29-1.16-.18-1.51.37-1.93,3.34-2.2,5.2-.4,2.85-.61,4.34.31,5.91,1.13,1.91,3.15,2.57,3.92,2.78"/>
          <path class="cls-11" d="M105.49,173.08c-.02,2.14.14,3.84.29,4.99.23,1.73.5,2.76.56,4.59.05,1.38-.05,2.5-.14,3.22"/>
          <path class="cls-11" d="M128.12,173.1c.02,2.14-.14,3.84-.29,4.99-.23,1.73-.5,2.76-.56,4.59-.05,1.38.05,2.5.14,3.22"/>
          <path class="cls-11" d="M127.68,173.12c.02,2.14-.14,3.84-.29,4.99-.23,1.73-.5,2.76-.56,4.59-.05,1.38.05,2.5.14,3.22"/>
          <path class="cls-6" d="M156.12,168.17c.14.28.3.64.44,1.11.4,1.31.44,2.63.44,3.32"/>
          <circle class="cls-22" cx="157.07" cy="174.62" r=".57"/>
        </g>
        <path class="cls-6" d="M166.52,74.45c.44-.23,1.5-.84,2.19-2.11,1.01-1.85.5-3.68.39-4.05"/>
        <path id="arm2_skygge-2" data-name="arm2 skygge" class="cls-18" d="M79.15,143.28c2.37-2.52,4.54-5.57,6.32-9.05,5.26-10.26,5.56-21.08,1.36-27.06"/>
        <g id="hånd_2-2" data-name="hånd 2">
          <ellipse class="cls-22" cx="13.56" cy="66.24" rx="8.21" ry="15.65" transform="translate(-48.03 38.35) rotate(-54.07)"/>
          <ellipse class="cls-21" cx="18.45" cy="64.35" rx="4.17" ry="8.31" transform="translate(-44.48 41.52) rotate(-54.07)"/>
          <ellipse class="cls-22" cx="19.05" cy="64.27" rx="3.76" ry="8.76" transform="translate(-44.17 41.98) rotate(-54.07)"/>
        </g>
        <ellipse id="arm_2-2" data-name="arm 2" class="cls-22" cx="55.94" cy="96.2" rx="15.81" ry="45.34" transform="translate(-54.05 79.29) rotate(-51.08)"/>
        <g>
          <path class="cls-8" d="M74.51,34.72l-1.48-29.77c-.09-1.78,1.95-2.77,3.24-1.57l20.96,19.54c1.26,1.17,1.05,3.27-.42,4.15l-17.38,10.41c-2.12,1.27-4.79-.23-4.92-2.75Z"/>
          <line class="cls-9" x1="74.81" y1="2.8" x2="72.93" y2="6.12"/>
          <line class="cls-9" x1="77.63" y1="4.17" x2="73.22" y2="14.08"/>
          <path class="cls-10" d="M73.55,2.44h0c.2.1,3.53,1.86,3.83,5.61.2,2.41-.91,5.07-2.88,6.12-1.93,1.03-3.23-.27-4.54.76-1.98,1.56-1.67,6.58.63,8.25,1.31.95,2.66.38,3.02,1.24.28.67-.46,1.21-2.88,4.8-.7,1.04-.9,1.39-1.37,1.49-1.41.3-3.02-2.19-3.61-3.1-.97-1.51-2.5-3.86-2.24-7.22.02-.32.37-4.19,3.26-6.76,1.05-.94,1.54-.9,4.22-2.92,1.66-1.26,2.5-1.9,2.8-2.57,1.12-2.5-1.7-5.96-2.52-6.92"/>
          <path class="cls-13" d="M73.58,2.76c.16-.64-2.95-2.84-5.97-2.11-2.1.51-3.32,2.23-3.82,2.93-1.79,2.54-.71,3.86-2.14,5.69-1.91,2.45-6.1,2.98-9.09,2.21-2.91-.75-3.95-2.56-4.67-2.08-1.13.76-.29,6.4,3.46,8.55,2.54,1.46,5.87,1,8.08-.38,2.61-1.63,4.11-4.85,6.43-9.81.8-1.71,1.34-3.09,2.86-4.01,2.28-1.37,4.71-.44,4.85-.98Z"/>
          <line class="cls-9" x1="94.97" y1="20.81" x2="92.66" y2="29.55"/>
          <line class="cls-9" x1="89.22" y1="15.45" x2="82.94" y2="35.37"/>
          <line class="cls-9" x1="84.16" y1="10.73" x2="75.03" y2="36.39"/>
          <line class="cls-9" x1="79.99" y1="6.84" x2="73.82" y2="20.71"/>
          <line class="cls-5" x1="92.02" y1="17.63" x2="87.96" y2="32.17"/>
          <line class="cls-5" x1="87" y1="13.17" x2="78.17" y2="37.9"/>
          <line class="cls-5" x1="81.9" y1="8.63" x2="74.11" y2="26.56"/>
          <line class="cls-5" x1="78.89" y1="5.82" x2="73.44" y2="15.75"/>
          <line class="cls-5" x1="76.27" y1="3.37" x2="73.19" y2="7.97"/>
        </g>
      </g>
    </g>
  </g>
</svg>