<?xml version="1.0" encoding="UTF-8"?>
<svg id="Layer_2" data-name="Layer 2" xmlns="http://www.w3.org/2000/svg" viewBox="0 0 253.16 263.56">
  <defs>
    <style>
      .cls-1 {
        stroke: #e5dede;
      }

      .cls-1, .cls-2, .cls-3, .cls-4, .cls-5, .cls-6, .cls-7, .cls-8, .cls-9, .cls-10, .cls-11, .cls-12 {
        stroke-miterlimit: 10;
      }

      .cls-1, .cls-2, .cls-3, .cls-4, .cls-5, .cls-6, .cls-7, .cls-8, .cls-10, .cls-12 {
        stroke-linecap: round;
      }

      .cls-1, .cls-2, .cls-7, .cls-8, .cls-9, .cls-13 {
        fill: #eee4da;
      }

      .cls-2 {
        stroke: #d5cfcf;
      }

      .cls-3, .cls-14 {
        fill: #6d9bca;
      }

      .cls-3, .cls-12 {
        stroke: #3c735b;
      }

      .cls-15 {
        fill: #151515;
      }

      .cls-15, .cls-16, .cls-17, .cls-18, .cls-14, .cls-19, .cls-13 {
        stroke-width: 0px;
      }

      .cls-4 {
        fill: #438066;
      }

      .cls-4, .cls-5, .cls-8, .cls-9, .cls-10, .cls-11 {
        stroke: #eee4da;
      }

      .cls-16 {
        fill: #f1e4da;
      }

      .cls-5, .cls-6 {
        fill: none;
      }

      .cls-6, .cls-7 {
        stroke: #fdf0e5;
      }

      .cls-17 {
        fill: #fdf0e5;
      }

      .cls-18 {
        fill: #363636;
      }

      .cls-19, .cls-10, .cls-11 {
        fill: #f39547;
      }

      .cls-12 {
        fill: #392851;
      }
    </style>
  </defs>
  <g id="Layer_16" data-name="Layer 16">
    <g id="Flyv_halv_hånd" data-name="Flyv halv hånd">
      <g id="Flyv_halv_hånd-2" data-name="Flyv halv hånd">
        <ellipse class="cls-17" cx="123.91" cy="169.01" rx="12.66" ry="35.73" transform="translate(-83.1 201.69) rotate(-62.73)"/>
        <path class="cls-9" d="M142.88,248.62c.5.77,1.77.93,4.31,1.25,2.85.36,4.94.72,6.91-.27,2.46-1.23,3.44-3.29,5.19-6.95,1.45-3.02,3.04-6.34,1.77-9.4-.29-.69-.75-1.21-1.63-2.27-1.77-2.14-2.99-3.63-4.22-3.7-1.99-.12-2.98,3.51-6.69,9.96-3.96,6.89-6.78,9.64-5.65,11.37Z"/>
        <path class="cls-9" d="M54.95,204.43c-.91.04-1.78-.9-3.52-2.78-1.95-2.11-3.45-3.61-3.79-5.79-.42-2.71.68-4.71,2.65-8.26,1.62-2.93,3.4-6.15,6.63-6.89.73-.17,1.42-.09,2.79,0,2.77.2,4.69.34,5.46,1.29,1.25,1.55-1.13,4.46-4.24,11.23-3.32,7.22-3.92,11.11-5.99,11.2Z"/>
        <ellipse id="krop" class="cls-17" cx="145.19" cy="127.07" rx="63.69" ry="43.62" transform="translate(-34.29 197.89) rotate(-62.73)"/>
        <g>
          <path class="cls-13" d="M180.25,2.93s.06-.02.06-.02c.02,0,.04-.01.06-.02.04,0,.07,0,.11-.01.36.04.73.1,1.09.18,1.25.29,2.61-.23,3.63-.92.72-.49,1.23-1.21,1.56-2.01.41.15.64.26.64.26,1.28.28,3.05.87,4.6,2.26,3.82,3.43,3.85,9.54,2.69,17.93-2.12,15.38-6.61,26.69-6.84,27.26-3.1,7.67-8.07,18.18-16.03,29.83.76-6.8,8.37-74.71,8.44-74.73Z"/>
          <path id="ben_1" data-name="ben 1" class="cls-17" d="M168.46,81.06c8.01-11.87,13.39-22.45,16.9-30.22,0,0,4.46-9.99,9.04-32.8.5-2.5,1.47-7.66-1.19-12.4-.43-.76-2.67-4.76-6.46-5.51-5.17-1.02-10.3,4.58-12.5,7.04-46.57,52.16-54.39,71.47-54.39,71.47-15.61,38.57-13.87,73.56-11.54,91.99"/>
          <path class="cls-5" d="M194.28,10.3c-1.42.08-5.05.09-8.78-2.14-2.9-1.73-4.51-4.01-5.25-5.23"/>
        </g>
        <path class="cls-13" d="M230.58,28.3s-.02-.06-.02-.06c0-.02-.01-.04-.02-.06-.02-.03-.04-.06-.05-.1-.25-.27-.51-.52-.79-.76-.98-.83-1.38-2.22-1.43-3.46-.04-.87.24-1.71.68-2.45-.36-.24-.59-.35-.59-.35-.99-.86-2.53-1.93-4.57-2.33-5.03-1.01-9.95,2.63-15.98,8.57-11.06,10.9-17.44,21.26-17.76,21.78-4.29,7.08-9.74,17.35-14.31,30.69,5-4.68,54.86-51.4,54.84-51.46Z"/>
        <path id="ben_1-2" data-name="ben 1" class="cls-17" d="M175.01,84.48c4.72-13.52,9.99-24.16,14.11-31.62,0,0,5.34-9.54,20.88-26.86,1.71-1.9,5.26-5.76,10.65-6.46.87-.11,5.42-.71,8.28,1.88,3.91,3.53,2.49,10.99,1.83,14.23-13.94,68.52-24.74,86.33-24.74,86.33-21.57,35.58-50.66,55.12-66.82,64.27"/>
        <path id="arm_2" data-name="arm 2" class="cls-17" d="M12.84,195.18c-5.02-7.24,13.71-25.4,41.83-40.55,28.12-15.15,54.98-21.56,60-14.31,5.02,7.24-13.71,25.4-41.83,40.55-28.12,15.15-54.98,21.56-60,14.31Z"/>
        <path class="cls-17" d="M24.66,189.13c-1.85-5.02-11.41-7.06-21.86-4.86l-.06.41s-.01.06-.02.09l-.03,20.29c1.72-.22,3.48-.56,5.26-1.02,11.19-2.9,18.67-9.58,16.71-14.91Z"/>
        <path class="cls-16" d="M.3,203.3c-1.38-2.54,2.09-6.53,7.75-8.91,5.66-2.38,11.36-2.26,12.74.28,1.38,2.54-2.09,6.53-7.75,8.91-5.66,2.38-11.36,2.26-12.74-.28Z"/>
        <path class="cls-17" d="M.55,203.75c-1.24-2.29,2.58-6.18,8.54-8.69,5.96-2.51,11.8-2.69,13.04-.4,1.24,2.29-2.58,6.18-8.54,8.69-5.96,2.51-11.8,2.69-13.04.4Z"/>
        <path id="arm2_skygge" data-name="arm2 skygge" class="cls-13" d="M186.58,147.75c-4.06,1.4-8.27,3.44-12.38,6.1-12.12,7.86-19.65,18.76-19.43,26.94"/>
        <g>
          <g id="hånd_2" data-name="hånd 2">
            <path class="cls-17" d="M252,122.72c-3.29-3.8-12.59-2.09-20.77,3.83-8.18,5.92-12.14,13.8-8.85,17.61,3.29,3.8,12.59,2.09,20.77-3.83,8.18-5.92,12.14-13.8,8.85-17.61Z"/>
            <path class="cls-16" d="M245.56,133.39c-1.67-1.93-6.55-.95-10.89,2.19-4.34,3.14-6.51,7.26-4.84,9.19,1.67,1.93,6.55.95,10.89-2.19,4.34-3.14,6.51-7.26,4.84-9.19Z"/>
            <path class="cls-17" d="M245.86,133.73c-1.51-1.74-6.44-.47-11.01,2.84-4.58,3.31-7.06,7.41-5.56,9.15,1.51,1.74,6.44.47,11.01-2.84,4.58-3.31,7.06-7.41,5.56-9.15Z"/>
          </g>
          <path id="arm_2-2" data-name="arm 2" class="cls-17" d="M233.08,140.47c-5.9-7.63-30.63-.82-55.24,15.22-24.61,16.03-39.77,35.22-33.87,42.85,5.9,7.63,30.63.82,55.24-15.22,24.61-16.03,39.77-35.22,33.87-42.85Z"/>
        </g>
        <path class="cls-9" d="M111.63,166.94c3.16.98,5.52,1.7,5.46,2.12-.16,1.18-19.4-3.03-37.63,3.02-3.42,1.13-7.96,3.01-11.76,7.15-4.44,4.84-5.72,10.41-5.66,10.44.07.03,1.35-7.71,7.69-13.7,4.89-4.61,12.3-7.66,17.43-8.72,1.71-.35,2.97-.46,5.15-1.21,4.34-1.5,5.11-3.06,7.69-2.95,1.76.07,1.8.81,5.43,2.11,2.51.89,3.03.76,6.19,1.73Z"/>
        <ellipse id="hoved_skygge" data-name="hoved skygge" class="cls-13" cx="105.74" cy="214.15" rx="47.05" ry="52.01" transform="translate(-133.06 210) rotate(-62.73)"/>
        <ellipse id="hoved" class="cls-17" cx="105.31" cy="215.42" rx="47.05" ry="52.01" transform="translate(-134.42 210.31) rotate(-62.73)"/>
        <g id="glas">
          <path class="cls-13" d="M64.8,187.14c8.38-8.64,19.69-9.26,26.27-9.62,9.38-.51,16.26,1.66,23.19,3.85,6.63,2.09,15.17,4.77,24,11.93,6.33,5.13,13.4,10.86,15.94,21.37,2.58,10.67-1.1,19.68-1.9,21.53-5.7,13.24-18.07,18.29-24.28,20.86-17.98,7.44-33.92,2.06-38.09.58-5.19-1.84-11.96-5.15-18.37-11.08-2.88-2.66-17.47-16.75-16.75-35.1.21-5.47,1.73-10.06,1.98-10.79.59-1.74,2.85-8.23,8-13.54Z"/>
        </g>
        <g id="glas-2" data-name="glas">
          <path class="cls-15" d="M64.37,189.48c9.01-9.44,21.38-9.87,27.84-10.09,8.95-.31,16.04,1.93,22.18,3.86,4.08,1.28,9.53,3,15.72,6.7,7.23,4.32,18.91,11.32,22.57,25.25.65,2.46,2.99,11.94-1.44,21.89-5.19,11.64-16.17,16.08-23.05,18.87-17.72,7.19-33.54,2.17-37.2.9-3.34-1.16-11.02-4.2-18.58-11.19-4.36-4.03-18.18-16.8-16.86-35.19.19-2.68,1.07-12.87,8.82-20.99Z"/>
        </g>
        <path class="cls-18" d="M128.28,203.39c.78,3.41.17,6.25,2.27,7.94,2.06,1.65,4.1.1,5.67,1.7,2.33,2.37-.55,7.46,1.7,9.07,1.14.81,2.28-.19,3.22.72,1.16,1.12.09,3.33-.2,6.94-.21,2.64.1,4.82.38,6.23.73,1.11,1.76,3.03,1.7,5.39-.13,5.36-5.76,9.26-5.27,9.78.38.41,3.7-2.09,4.2-2.47.6-.45,1.85-1.43,3.27-2.86.56-.56,1.6-1.65,2.74-3.16.93-1.22,1.67-2.38,2.25-3.37,1.37-2.84,2.22-5.33,2.76-7.21.98-3.43,1.13-5.52,1.16-6.22.05-.88.04-1.71,0-2.73-.17-3.34-.36-7.16-2-11.46-.73-1.91-2.02-4.64-4.38-7.56-1.19-1.5-2.92-3.5-5.25-5.59-2.38-2.14-4.32-3.39-7-5.21-3.96-2.68-7.89-4.66-9.81-5.58-.03-.02-.46-.22-.92-.43-11.27-5.23-22.15-6.85-22.15-6.85-3.36-.5-6.07-.66-7.64-.73-7.72-.31-13.17.74-15.51,1.45-1.45.44-3.99,1.45-4.32,1.58-.99.39-1.49.59-1.48.67.07.64,11.5-2.05,23.64-.04,7.41,1.23,17.17,2.5,24.22,9.77,3.2,3.3,5.79,5.96,6.76,10.23Z"/>
        <path class="cls-17" d="M151.22,215.45s.01,0,.02,0c.2-.03.61,2.37.78,3.36.51,2.98.76,4.47.78,5.75.04,2.05-.24,3.58-.52,5.03-.72,3.77-2.06,7.24-2.33,7.17-.29-.08.92-3.87,1.37-10.27.49-6.89-.28-10.88-.1-11.03Z"/>
        <ellipse class="cls-17" cx="149.8" cy="211.67" rx=".67" ry="2.16" transform="translate(-54.61 52.11) rotate(-16.74)"/>
        <g id="bælte">
          <path class="cls-4" d="M197.93,127.16c-.93-1.15-2.51-3.06-4.18-4.89-2.08-2.27-9.96-9.53-21.92-17.67l-10.96-5.65c-2.17,4.09-4.39,8.15-6.56,12.24l11.69,6.03c7.55,3.89,14.21,9.38,19.67,16.2,1.62,1.74,3.24,3.48,4.86,5.22"/>
          <polygon class="cls-14" points="176.48 121.92 181.48 126.04 183.05 124.1 178.05 119.97 176.48 121.92"/>
          <path class="cls-10" d="M141.66,104.7c.32.16.64.31.96.47l11.69,6.03c2.08-4.14,4.1-8.3,6.17-12.44l-10.96-5.65c-.65-.33-1.31-.64-1.96-.95-1.88,4.22-3.85,8.4-5.89,12.55Z"/>
          <rect class="cls-11" x="156.29" y="98.57" width="1.95" height="12.69" transform="translate(248.97 270.24) rotate(-152.73)"/>
          <rect class="cls-19" x="155.28" y="97.85" width="3.53" height="13.89" transform="translate(248.6 269.9) rotate(-152.73)"/>
          <path class="cls-3" d="M175.51,121.28l5.22-8.2c.17-.27.6-.3.88-.06l5.9,5.16c.21.18.26.46.12.65l-5.44,7.67c-.28.39-1,.18-1.06-.31l-.43-3.54c-.03-.28-.31-.51-.63-.51l-4-.05c-.45,0-.78-.46-.56-.8Z"/>
          <line class="cls-12" x1="181.53" y1="126.68" x2="175.54" y2="121.59"/>
          <path class="cls-1" d="M159.77,98.39l5.38,2.77c.31.23.93.76,1.33,1.72.39.91.38,1.76.35,2.19-.02.8-.14,2.33-.95,4.06-.82,1.78-1.95,2.89-2.56,3.42-.41.31-1.24.85-2.38,1.05-.97.17-1.74.03-2.18-.09l-5.37-2.77"/>
          <path class="cls-1" d="M162.87,99.98l-5.38-2.77c-.37-.12-1.16-.32-2.17-.09-.97.22-1.66.71-1.99.98-.64.48-1.81,1.47-2.76,3.12-.97,1.7-1.22,3.26-1.3,4.07-.01.52.03,1.51.52,2.55.42.89.98,1.43,1.34,1.72l5.37,2.77"/>
          <path class="cls-7" d="M150.82,104.87c-.02.43,0,1.1.3,1.85.47,1.24,1.36,1.92,1.73,2.17"/>
          <rect class="cls-19" x="142.23" y="91.93" width="4.31" height="12.69" transform="translate(227.68 251.79) rotate(-152.73)"/>
          <path class="cls-4" d="M121.3,86.19c1.48,0,2.57.09,2.73.11,12.98,1.07,23.53,5.86,23.53,5.86.78.35,2.04.94,3.58,1.75l10.96,5.65c-2.07,4.14-4.09,8.31-6.17,12.44l-11.69-6.03c-7.55-3.89-15.88-6.14-24.61-6.63-1.08.04-2.16.09-3.24.13"/>
          <path class="cls-4" d="M119.63,99.35l-3.24.13c-.67.15-2.26.42-3.22-.45-1.24-1.13-.64-3.44-.04-5.73.64-2.47,1.12-4.34,2.94-5.72,2.01-1.52,4.34-1.45,5.24-1.38"/>
          <path class="cls-4" d="M165.72,117.05c.05-.14.11-.28.18-.43,1.92-4.11,3.22-8.34,5.52-12.26l-8.93-4.6c-2.17,4.09-4.39,8.15-6.56,12.24l9.79,5.05Z"/>
          <rect class="cls-11" x="158.35" y="99.6" width="1.95" height="12.69" transform="translate(66.26 -61.23) rotate(27.27)"/>
          <rect class="cls-19" x="157.79" y="99.11" width="3.53" height="13.89" transform="translate(66.34 -61.33) rotate(27.27)"/>
          <path class="cls-2" d="M163.19,100.12l-5.38-2.77c-.37-.12-1.16-.32-2.17-.09-.97.22-1.66.71-1.99.98-.64.48-1.81,1.47-2.76,3.12-.97,1.7-1.22,3.26-1.3,4.07-.01.52.03,1.51.52,2.55.42.89.98,1.43,1.34,1.72l5.37,2.77"/>
          <path class="cls-2" d="M160.09,98.52l5.38,2.77c.31.23.93.76,1.33,1.72.39.91.38,1.76.35,2.19-.02.8-.14,2.33-.95,4.06-.82,1.78-1.95,2.89-2.56,3.42-.41.31-1.24.85-2.38,1.05-.97.17-1.74.03-2.18-.09l-5.37-2.77"/>
          <path class="cls-7" d="M151.24,105.09c-.02.43,0,1.1.3,1.85.47,1.24,1.36,1.92,1.73,2.17"/>
          <path class="cls-4" d="M189.7,137.7c.61.84,1.23,1.69,1.84,2.53.22.29.55.63,1.02.75,1.63.4,3.51-2.25,4.68-3.91,1.8-2.54,2.74-3.87,2.63-5.83-.14-2.39-1.75-4.03-2.38-4.61"/>
          <path class="cls-8" d="M166.13,117.27c1.08-2.04,1.77-3.76,2.19-4.94.64-1.78.88-2.9,1.73-4.69.64-1.34,1.29-2.38,1.73-3.03"/>
          <path class="cls-8" d="M144.4,106.04c1.04-2.06,2.04-3.62,2.75-4.65,1.08-1.55,1.85-2.4,2.81-4.13.73-1.3,1.19-2.43,1.47-3.16"/>
          <path class="cls-8" d="M144.83,106.24c1.04-2.06,2.04-3.62,2.75-4.65,1.08-1.55,1.85-2.4,2.81-4.13.73-1.3,1.19-2.43,1.47-3.16"/>
          <path class="cls-6" d="M115.07,96.91c0-.34.03-.77.12-1.28.26-1.46.88-2.75,1.22-3.4"/>
          <circle class="cls-17" cx="117.35" cy="90.24" r=".61"/>
        </g>
        <path class="cls-6" d="M58.66,181.78c-.54,0-1.85.07-3.15.94-1.89,1.27-2.3,3.29-2.38,3.7"/>
        <path class="cls-5" d="M216.28,21.46c.79,1.19,2.95,4.1,6.97,5.76,3.12,1.29,5.91,1.22,7.33,1.08"/>
        <ellipse class="cls-17" cx="73.75" cy="184.78" rx="4.2" ry=".75" transform="translate(-82.66 61.83) rotate(-30.07)"/>
        <ellipse class="cls-17" cx="67.26" cy="189.16" rx="2.18" ry=".75" transform="translate(-94.91 70.8) rotate(-34.3)"/>
        <ellipse class="cls-17" cx="63.74" cy="192.24" rx=".77" ry=".65" transform="translate(-50.07 24.71) rotate(-15.85)"/>
        <path class="cls-17" d="M157.93,229.92c-.17.19-.72,0-1.23-.44-.51-.44-.79-.95-.62-1.14.17-.19.72,0,1.23.44.51.44.79.95.62,1.14Z"/>
        <path class="cls-6" d="M158.83,230.83c.34.32.79.79,1.22,1.42,0,0,.34.49.57.96.7,1.4.62,3.17.58,3.79"/>
      </g>
    </g>
  </g>
</svg>