<?xml version="1.0" encoding="UTF-8"?>
<svg id="Layer_2" data-name="Layer 2" xmlns="http://www.w3.org/2000/svg" viewBox="0 0 286.11 280.68">
  <defs>
    <style>
      .cls-1 {
        stroke: #e5dede;
      }

      .cls-1, .cls-2, .cls-3, .cls-4, .cls-5, .cls-6, .cls-7, .cls-8, .cls-9, .cls-10, .cls-11, .cls-12 {
        stroke-miterlimit: 10;
      }

      .cls-1, .cls-2, .cls-3, .cls-4, .cls-5, .cls-6, .cls-7, .cls-8, .cls-10, .cls-12 {
        stroke-linecap: round;
      }

      .cls-1, .cls-2, .cls-7, .cls-8, .cls-9, .cls-13 {
        fill: #eee4da;
      }

      .cls-2 {
        stroke: #d5cfcf;
      }

      .cls-3, .cls-14 {
        fill: #6d9bca;
      }

      .cls-3, .cls-12 {
        stroke: #3c735b;
      }

      .cls-15 {
        fill: #151515;
      }

      .cls-15, .cls-16, .cls-17, .cls-18, .cls-14, .cls-19, .cls-13 {
        stroke-width: 0px;
      }

      .cls-4 {
        fill: #438066;
      }

      .cls-4, .cls-5, .cls-8, .cls-9, .cls-10, .cls-11 {
        stroke: #eee4da;
      }

      .cls-16 {
        fill: #f1e4da;
      }

      .cls-5, .cls-6 {
        fill: none;
      }

      .cls-6, .cls-7 {
        stroke: #fdf0e5;
      }

      .cls-17 {
        fill: #fdf0e5;
      }

      .cls-18 {
        fill: #363636;
      }

      .cls-19, .cls-10, .cls-11 {
        fill: #f39547;
      }

      .cls-12 {
        fill: #392851;
      }
    </style>
  </defs>
  <g id="Layer_16" data-name="Layer 16">
    <g id="Flyv">
      <g id="Flyv-2" data-name="Flyv">
        <ellipse class="cls-17" cx="148.46" cy="179.99" rx="13.49" ry="38.05" transform="translate(-79.55 229.46) rotate(-62.73)"/>
        <path class="cls-9" d="M168.67,264.77c.53.82,1.88.99,4.58,1.33,3.03.39,5.26.76,7.36-.29,2.61-1.31,3.67-3.5,5.53-7.4,1.54-3.21,3.23-6.75,1.88-10.01-.3-.73-.8-1.29-1.73-2.42-1.88-2.28-3.19-3.86-4.5-3.94-2.12-.13-3.17,3.74-7.12,10.61-4.21,7.34-7.22,10.27-6.02,12.11Z"/>
        <path class="cls-9" d="M75.03,217.71c-.97.04-1.9-.96-3.75-2.96-2.08-2.25-3.67-3.84-4.04-6.17-.45-2.89.73-5.02,2.82-8.8,1.73-3.12,3.62-6.55,7.06-7.34.77-.18,1.51-.1,2.97,0,2.95.21,5,.36,5.82,1.38,1.33,1.65-1.2,4.75-4.51,11.96-3.53,7.69-4.18,11.83-6.38,11.93Z"/>
        <ellipse id="krop" class="cls-17" cx="171.13" cy="135.32" rx="67.83" ry="46.45" transform="translate(-27.57 225.41) rotate(-62.73)"/>
        <g>
          <path class="cls-13" d="M208.46,3.12s.06-.02.06-.02c.02,0,.04-.01.06-.02.04,0,.08-.01.12-.01.39.04.77.1,1.16.19,1.33.31,2.77-.24,3.86-.98.77-.52,1.31-1.29,1.66-2.14.44.16.68.28.68.28,1.36.3,3.25.93,4.9,2.41,4.07,3.65,4.09,10.16,2.87,19.09-2.26,16.38-7.04,28.42-7.28,29.03-3.3,8.17-8.6,19.37-17.07,31.76.81-7.25,8.92-79.56,8.99-79.59Z"/>
          <path id="ben_1" data-name="ben 1" class="cls-17" d="M195.91,86.32c8.53-12.64,14.26-23.91,17.99-32.19,0,0,4.74-10.64,9.62-34.93.54-2.67,1.56-8.16-1.27-13.2-.46-.81-2.84-5.07-6.88-5.87-5.5-1.09-10.96,4.87-13.31,7.5-49.6,55.54-57.92,76.11-57.92,76.11-16.62,41.07-14.77,78.34-12.29,97.97"/>
          <path class="cls-5" d="M223.4,10.96c-1.52.09-5.38.1-9.35-2.28-3.09-1.85-4.8-4.27-5.59-5.57"/>
        </g>
        <path class="cls-13" d="M262.06,30.13s-.02-.06-.02-.06c0-.02-.02-.04-.02-.06-.02-.03-.04-.07-.06-.1-.27-.29-.54-.56-.84-.81-1.04-.89-1.47-2.37-1.53-3.68-.04-.93.25-1.82.72-2.61-.39-.25-.63-.38-.63-.38-1.06-.91-2.69-2.05-4.86-2.49-5.36-1.07-10.59,2.8-17.01,9.12-11.78,11.61-18.57,22.64-18.91,23.2-4.57,7.54-10.38,18.47-15.24,32.68,5.32-4.98,58.43-54.74,58.4-54.81Z"/>
        <path id="ben_1-2" data-name="ben 1" class="cls-17" d="M202.89,89.96c5.03-14.4,10.63-25.73,15.03-33.67,0,0,5.69-10.16,22.24-28.61,1.82-2.02,5.6-6.13,11.34-6.88.93-.12,5.77-.76,8.82,2,4.17,3.76,2.65,11.7,1.95,15.15-14.84,72.97-26.35,91.94-26.35,91.94-22.97,37.89-53.95,58.7-71.16,68.45"/>
        <path id="arm_2" data-name="arm 2" class="cls-17" d="M30.18,207.86c-5.34-7.71,14.6-27.05,44.55-43.18,29.94-16.13,58.55-22.96,63.89-15.24,5.34,7.71-14.6,27.05-44.55,43.18-29.94,16.13-58.55,22.96-63.89,15.24Z"/>
        <g id="hånd_2" data-name="hånd 2">
          <path class="cls-17" d="M.66,216.96c-2.89-5.32,3.97-13.51,15.32-18.28s22.88-4.34,25.77.98c2.89,5.32-3.97,13.51-15.32,18.28-11.35,4.78-22.88,4.34-25.77-.98Z"/>
          <path class="cls-16" d="M16.83,216.5c-1.47-2.7,2.23-6.95,8.25-9.49,6.03-2.54,12.1-2.4,13.57.3,1.47,2.7-2.23,6.95-8.25,9.49-6.03,2.54-12.1,2.4-13.57-.3Z"/>
          <path class="cls-17" d="M17.09,216.98c-1.32-2.44,2.75-6.58,9.1-9.25,6.35-2.67,12.56-2.86,13.89-.43,1.32,2.44-2.75,6.58-9.1,9.25-6.35,2.67-12.56,2.86-13.89.43Z"/>
        </g>
        <path id="arm2_skygge" data-name="arm2 skygge" class="cls-13" d="M215.2,157.34c-4.32,1.49-8.81,3.66-13.19,6.5-12.91,8.37-20.93,19.97-20.69,28.69"/>
        <g>
          <g id="hånd_2-2" data-name="hånd 2">
            <path class="cls-17" d="M284.87,130.68c-3.5-4.05-13.4-2.22-22.11,4.08-8.71,6.31-12.93,14.7-9.43,18.75,3.5,4.05,13.4,2.22,22.11-4.08s12.93-14.7,9.43-18.75Z"/>
            <path class="cls-16" d="M278.01,142.05c-1.78-2.06-6.97-1.01-11.6,2.33s-6.93,7.73-5.15,9.79,6.97,1.01,11.6-2.33c4.63-3.35,6.93-7.73,5.15-9.79Z"/>
            <path class="cls-17" d="M278.33,142.42c-1.6-1.86-6.86-.5-11.73,3.03-4.87,3.53-7.52,7.89-5.92,9.75,1.6,1.86,6.86.5,11.73-3.03,4.87-3.53,7.52-7.89,5.92-9.75Z"/>
          </g>
          <path id="arm_2-2" data-name="arm 2" class="cls-17" d="M264.73,149.59c-6.28-8.13-32.62-.87-58.82,16.2-26.2,17.08-42.35,37.51-36.07,45.63,6.28,8.13,32.62.87,58.82-16.2,26.2-17.08,42.35-37.51,36.07-45.63Z"/>
        </g>
        <path class="cls-9" d="M135.38,177.78c3.36,1.04,5.88,1.82,5.82,2.26-.17,1.26-20.66-3.22-40.07,3.22-3.65,1.21-8.48,3.21-12.53,7.62-4.73,5.15-6.09,11.09-6.03,11.12.08.03,1.44-8.21,8.19-14.58,5.21-4.91,13.1-8.16,18.57-9.28,1.82-.37,3.16-.49,5.48-1.29,4.62-1.6,5.44-3.26,8.19-3.15,1.88.08,1.92.87,5.79,2.25,2.67.95,3.23.81,6.59,1.85Z"/>
        <ellipse id="hoved_skygge" data-name="hoved skygge" class="cls-13" cx="129.11" cy="228.05" rx="50.11" ry="55.38" transform="translate(-132.75 238.31) rotate(-62.73)"/>
        <ellipse id="hoved" class="cls-17" cx="128.66" cy="229.41" rx="50.11" ry="55.38" transform="translate(-134.2 238.64) rotate(-62.73)"/>
        <g id="glas">
          <path class="cls-13" d="M85.52,199.3c8.93-9.21,20.96-9.86,27.97-10.24,9.99-.54,17.32,1.77,24.69,4.1,7.06,2.23,16.15,5.08,25.56,12.7,6.74,5.46,14.27,11.57,16.98,22.76,2.75,11.36-1.17,20.96-2.02,22.93-6.07,14.1-19.24,19.48-25.85,22.22-19.15,7.92-36.12,2.2-40.56.62-5.53-1.96-12.74-5.49-19.56-11.8-3.07-2.83-18.6-17.83-17.84-37.38.23-5.82,1.85-10.71,2.11-11.5.63-1.85,3.04-8.77,8.52-14.42Z"/>
        </g>
        <g id="glas-2" data-name="glas">
          <path class="cls-15" d="M85.06,201.78c9.59-10.05,22.77-10.51,29.65-10.75,9.53-.33,17.09,2.05,23.62,4.11,4.34,1.37,10.15,3.19,16.74,7.14,7.69,4.6,20.14,12.05,24.04,26.89.69,2.62,3.19,12.72-1.53,23.31-5.52,12.4-17.22,17.12-24.54,20.09-18.87,7.66-35.72,2.31-39.61.96-3.56-1.23-11.74-4.47-19.79-11.91-4.64-4.29-19.36-17.89-17.96-37.48.2-2.85,1.14-13.7,9.39-22.35Z"/>
        </g>
        <path class="cls-18" d="M153.12,216.6c.83,3.63.18,6.65,2.41,8.45,2.19,1.76,4.37.11,6.04,1.81,2.48,2.53-.58,7.94,1.81,9.66,1.21.87,2.43-.2,3.43.76,1.23,1.19.09,3.55-.21,7.4-.22,2.81.1,5.13.41,6.63.78,1.18,1.87,3.22,1.81,5.73-.13,5.71-6.13,9.86-5.61,10.42.4.43,3.94-2.23,4.47-2.63.64-.48,1.97-1.52,3.48-3.04.59-.6,1.7-1.75,2.92-3.36.99-1.3,1.78-2.53,2.39-3.59,1.46-3.02,2.37-5.67,2.94-7.68,1.04-3.65,1.2-5.88,1.24-6.63.05-.94.05-1.82,0-2.91-.18-3.56-.38-7.62-2.13-12.21-.78-2.03-2.15-4.94-4.67-8.05-1.27-1.6-3.11-3.72-5.59-5.95-2.53-2.28-4.6-3.61-7.46-5.54-4.22-2.86-8.4-4.96-10.44-5.94-.03-.02-.49-.24-.98-.46-12-5.57-23.59-7.3-23.59-7.3-3.58-.53-6.47-.71-8.13-.77-8.22-.33-14.02.79-16.51,1.55-1.54.47-4.25,1.55-4.6,1.68-1.05.42-1.58.63-1.57.71.07.68,12.25-2.18,25.17-.04,7.89,1.31,18.28,2.66,25.79,10.4,3.41,3.51,6.16,6.35,7.2,10.9Z"/>
        <path class="cls-17" d="M177.55,229.44s.01,0,.02,0c.21-.03.65,2.52.83,3.57.54,3.17.81,4.76.83,6.13.04,2.19-.26,3.81-.55,5.35-.76,4.01-2.19,7.72-2.48,7.64-.31-.08.98-4.12,1.46-10.93.52-7.34-.3-11.59-.1-11.75Z"/>
        <ellipse class="cls-17" cx="176.04" cy="225.41" rx=".72" ry="2.3" transform="translate(-57.46 60.25) rotate(-16.74)"/>
        <g id="bælte">
          <path class="cls-4" d="M227.29,135.42c-.99-1.23-2.67-3.26-4.46-5.21-2.22-2.42-10.6-10.14-23.34-18.82l-11.67-6.02c-2.31,4.35-4.68,8.68-6.99,13.04l12.45,6.42c8.04,4.15,15.13,9.99,20.95,17.25,1.73,1.85,3.45,3.7,5.18,5.56"/>
          <polygon class="cls-14" points="204.45 129.83 209.77 134.23 211.45 132.15 206.12 127.76 204.45 129.83"/>
          <path class="cls-10" d="M167.37,111.5c.34.17.68.33,1.02.5l12.45,6.42c2.21-4.41,4.36-8.84,6.57-13.25l-11.67-6.02c-.69-.35-1.39-.68-2.09-1.01-2.01,4.49-4.1,8.95-6.28,13.36Z"/>
          <rect class="cls-11" x="182.95" y="104.98" width="2.07" height="13.51" transform="translate(296.32 295.35) rotate(-152.73)"/>
          <rect class="cls-19" x="181.87" y="104.2" width="3.76" height="14.79" transform="translate(295.93 294.99) rotate(-152.73)"/>
          <path class="cls-3" d="M203.42,129.15l5.56-8.74c.18-.29.64-.32.94-.06l6.28,5.49c.22.19.27.49.13.69l-5.79,8.17c-.3.42-1.07.19-1.13-.33l-.45-3.77c-.04-.3-.33-.54-.67-.55l-4.26-.06c-.48,0-.83-.49-.6-.85Z"/>
          <line class="cls-12" x1="209.83" y1="134.91" x2="203.45" y2="129.49"/>
          <path class="cls-1" d="M186.65,104.77l5.73,2.95c.33.25.99.81,1.42,1.83.41.97.41,1.87.38,2.33-.02.85-.15,2.48-1.01,4.32-.88,1.89-2.07,3.08-2.72,3.64-.44.33-1.33.9-2.53,1.12-1.03.18-1.85.03-2.32-.1l-5.72-2.95"/>
          <path class="cls-1" d="M189.95,106.48l-5.73-2.95c-.4-.13-1.24-.34-2.31-.1-1.03.23-1.76.76-2.11,1.04-.68.51-1.93,1.56-2.94,3.33-1.03,1.81-1.3,3.47-1.39,4.33-.01.55.03,1.6.56,2.71.45.94,1.05,1.52,1.42,1.83l5.72,2.95"/>
          <path class="cls-7" d="M177.12,111.68c-.02.45.01,1.17.31,1.97.5,1.32,1.45,2.04,1.85,2.31"/>
          <rect class="cls-19" x="167.97" y="97.9" width="4.59" height="13.51" transform="translate(273.65 275.71) rotate(-152.73)"/>
          <path class="cls-4" d="M145.68,91.79c1.57,0,2.74.1,2.91.11,13.82,1.14,25.06,6.24,25.06,6.24.83.38,2.17,1,3.81,1.86l11.67,6.02c-2.21,4.41-4.36,8.85-6.57,13.25l-12.45-6.42c-8.04-4.15-16.91-6.54-26.21-7.06-1.15.05-2.3.09-3.46.14"/>
          <path class="cls-4" d="M143.91,105.8l-3.46.14c-.71.16-2.41.45-3.43-.48-1.32-1.2-.68-3.66-.05-6.1.68-2.63,1.2-4.63,3.13-6.09,2.14-1.62,4.62-1.55,5.58-1.47"/>
          <path class="cls-4" d="M192.99,124.65c.06-.15.12-.3.19-.46,2.04-4.38,3.43-8.88,5.87-13.06l-9.51-4.9c-2.31,4.35-4.68,8.68-6.99,13.04l10.43,5.38Z"/>
          <rect class="cls-11" x="185.14" y="106.07" width="2.07" height="13.51" transform="translate(72.4 -72.77) rotate(27.27)"/>
          <rect class="cls-19" x="184.55" y="105.55" width="3.76" height="14.79" transform="translate(72.48 -72.87) rotate(27.27)"/>
          <path class="cls-2" d="M190.3,106.62l-5.73-2.95c-.4-.13-1.24-.34-2.31-.1-1.03.23-1.76.76-2.11,1.04-.68.51-1.93,1.56-2.94,3.33-1.03,1.81-1.3,3.47-1.39,4.33-.01.55.03,1.6.56,2.71.45.94,1.05,1.52,1.42,1.83l5.72,2.95"/>
          <path class="cls-2" d="M187,104.92l5.73,2.95c.33.25.99.81,1.42,1.83.41.97.41,1.87.38,2.33-.02.85-.15,2.48-1.01,4.32-.88,1.89-2.07,3.08-2.72,3.64-.44.33-1.33.9-2.53,1.12-1.03.18-1.85.03-2.32-.1l-5.72-2.95"/>
          <path class="cls-7" d="M177.57,111.92c-.02.45.01,1.17.31,1.97.5,1.32,1.45,2.04,1.85,2.31"/>
          <path class="cls-4" d="M218.53,146.64c.65.9,1.31,1.79,1.96,2.69.23.31.59.67,1.09.79,1.74.42,3.74-2.4,4.99-4.16,1.92-2.7,2.92-4.12,2.8-6.2-.15-2.54-1.87-4.29-2.54-4.91"/>
          <path class="cls-8" d="M193.43,124.89c1.15-2.17,1.88-4,2.33-5.26.68-1.89.94-3.08,1.84-4.99.68-1.43,1.37-2.53,1.84-3.23"/>
          <path class="cls-8" d="M170.29,112.93c1.1-2.2,2.17-3.85,2.93-4.95,1.15-1.65,1.97-2.56,3-4.4.77-1.38,1.27-2.59,1.56-3.37"/>
          <path class="cls-8" d="M170.75,113.14c1.1-2.2,2.17-3.85,2.93-4.95,1.15-1.65,1.97-2.56,3-4.4.77-1.38,1.27-2.59,1.56-3.37"/>
          <path class="cls-6" d="M139.05,103.2c0-.36.03-.82.13-1.36.28-1.55.93-2.93,1.3-3.63"/>
          <circle class="cls-17" cx="141.47" cy="96.1" r=".65"/>
        </g>
        <path class="cls-6" d="M78.98,193.58c-.57,0-1.97.07-3.36,1-2.01,1.36-2.45,3.5-2.53,3.94"/>
        <path class="cls-5" d="M246.83,22.86c.84,1.27,3.14,4.37,7.42,6.13,3.33,1.37,6.29,1.29,7.81,1.15"/>
        <ellipse class="cls-17" cx="95.05" cy="196.78" rx="4.48" ry=".8" transform="translate(-85.81 74.11) rotate(-30.07)"/>
        <ellipse class="cls-17" cx="88.13" cy="201.45" rx="2.32" ry=".79" transform="translate(-98.2 84.7) rotate(-34.3)"/>
        <ellipse class="cls-17" cx="84.38" cy="204.72" rx=".82" ry=".69" transform="translate(-52.69 30.82) rotate(-15.85)"/>
        <path class="cls-17" d="M184.69,244.84c-.18.21-.76,0-1.31-.47-.54-.47-.84-1.01-.66-1.22.18-.21.76,0,1.31.47.54.47.84,1.01.66,1.22Z"/>
        <path class="cls-6" d="M185.65,245.82c.36.34.84.84,1.3,1.52,0,0,.36.53.61,1.03.75,1.5.66,3.37.61,4.03"/>
      </g>
    </g>
  </g>
</svg>