<?xml version="1.0" encoding="UTF-8"?>
<svg id="Layer_2" data-name="Layer 2" xmlns="http://www.w3.org/2000/svg" viewBox="0 0 165.35 269.28">
  <defs>
    <style>
      .cls-1 {
        stroke: #e5dede;
      }

      .cls-1, .cls-2, .cls-3, .cls-4, .cls-5, .cls-6, .cls-7, .cls-8, .cls-9, .cls-10, .cls-11, .cls-12 {
        stroke-miterlimit: 10;
      }

      .cls-1, .cls-2, .cls-3, .cls-4, .cls-5, .cls-6, .cls-7, .cls-10, .cls-12 {
        stroke-linecap: round;
      }

      .cls-1, .cls-2, .cls-6, .cls-7, .cls-8, .cls-13 {
        fill: #eee4da;
      }

      .cls-2 {
        stroke: #d5cfcf;
      }

      .cls-3, .cls-14 {
        fill: #6d9bca;
      }

      .cls-3, .cls-12 {
        stroke: #3c735b;
      }

      .cls-15 {
        fill: #151515;
      }

      .cls-15, .cls-16, .cls-17, .cls-18, .cls-14, .cls-19, .cls-13 {
        stroke-width: 0px;
      }

      .cls-4 {
        fill: #438066;
      }

      .cls-4, .cls-7, .cls-8, .cls-9, .cls-10, .cls-11 {
        stroke: #eee4da;
      }

      .cls-16 {
        fill: #f1e4da;
      }

      .cls-5, .cls-6 {
        stroke: #fdf0e5;
      }

      .cls-5, .cls-9 {
        fill: none;
      }

      .cls-17 {
        fill: #fdf0e5;
      }

      .cls-18 {
        fill: #363636;
      }

      .cls-19, .cls-10, .cls-11 {
        fill: #f39547;
      }

      .cls-12 {
        fill: #392851;
      }
    </style>
  </defs>
  <g id="Layer_16" data-name="Layer 16">
    <g id="Forfra">
      <g>
        <path class="cls-8" d="M32.34,34.76c-.79-.45-2-.01-4.4.86-2.7.98-4.72,1.63-6.02,3.41-1.62,2.22-1.55,4.5-1.43,8.56.1,3.35.21,7.03,2.73,9.17.57.48,1.22.73,2.49,1.27,2.56,1.09,4.32,1.85,5.45,1.36,1.82-.8,1.04-4.49,1.38-11.92.36-7.94,1.61-11.68-.19-12.7Z"/>
        <path class="cls-8" d="M130.76,33.75c.79-.45,2-.01,4.4.86,2.7.98,4.72,1.63,6.02,3.41,1.62,2.22,1.55,4.5,1.43,8.56-.1,3.35-.21,7.03-2.73,9.17-.57.48-1.22.73-2.49,1.27-2.56,1.09-4.32,1.85-5.45,1.36-1.82-.8-1.04-4.49-1.38-11.92-.36-7.94-1.61-11.68.19-12.7Z"/>
        <ellipse id="krop" class="cls-17" cx="83.74" cy="143.88" rx="41.37" ry="63.7"/>
        <path id="ben1_skygge" data-name="ben1 skygge" class="cls-13" d="M80.56,199.94c2.37,12.64,2.08,23.02,1.47,29.74-.53,5.86-2.32,25.69-11.91,33.46-1.29,1.04-4.63,3.75-9.15,3.77,0,0-3.56.01-7.15-2.26"/>
        <path id="ben_1" data-name="ben 1" class="cls-17" d="M79.01,195.42c3.25,14.87,2.76,27.05,1.94,34.58-.64,5.84-2.78,25.6-12.61,33.18-1.32,1.02-4.75,3.66-9.32,3.6,0,0-3.61-.05-7.2-2.38-6.31-4.1-22.65-37.41-17.58-88.09,1.81-18.12,7.62-51.05,29.94-87.77"/>
        <path id="ben2_skygge" data-name="ben2 skygge" class="cls-13" d="M86.32,199.92c-2.86,12.96-2.79,23.66-2.29,30.59.43,6.05,1.9,26.5,12.06,34.7,1.36,1.1,4.91,3.96,9.78,4.07,0,0,3.84.09,7.77-2.17"/>
        <path id="ben_2" data-name="ben 2" class="cls-17" d="M87.25,197.84c-3.25,14.87-2.76,27.05-1.94,34.58.64,5.84,2.78,25.6,12.61,33.18,1.32,1.02,4.75,3.66,9.32,3.6,0,0,3.61-.05,7.2-2.38,6.31-4.1,22.65-37.41,17.58-88.09-1.81-18.12-7.62-51.05-29.94-87.77"/>
        <path id="arm2_skygge" data-name="arm2 skygge" class="cls-13" d="M127.11,152.02c-2.6-2.69-4.98-5.96-6.96-9.7-5.82-11.01-6.3-22.71-1.84-29.23"/>
        <ellipse id="arm_2" data-name="arm 2" class="cls-17" cx="127.11" cy="121.16" rx="17.09" ry="41" transform="translate(-47.42 101.76) rotate(-37.29)"/>
        <path id="arm1_skygge" data-name="arm1 skygge" class="cls-13" d="M38.81,149.36c2.6-2.69,4.98-5.96,6.96-9.7,5.82-11.01,6.3-22.71,1.84-29.23"/>
        <ellipse id="arm1" class="cls-17" cx="38.25" cy="121.22" rx="41" ry="17.09" transform="translate(-81.37 78.21) rotate(-52.71)"/>
        <g id="hånd_2" data-name="hånd 2">
          <ellipse class="cls-17" cx="153.33" cy="161.51" rx="8.87" ry="16.92" transform="translate(-64.35 114.5) rotate(-34.3)"/>
          <ellipse class="cls-16" cx="155.53" cy="156.29" rx="4.51" ry="8.98" transform="translate(-61.03 114.83) rotate(-34.3)"/>
          <ellipse class="cls-17" cx="155.62" cy="155.64" rx="4.06" ry="9.46" transform="translate(-60.65 114.78) rotate(-34.3)"/>
        </g>
        <g id="hånd_1" data-name="hånd 1">
          <ellipse class="cls-17" cx="12.02" cy="161.57" rx="16.92" ry="8.87" transform="translate(-128.22 80.45) rotate(-55.7)"/>
          <ellipse class="cls-16" cx="9.83" cy="156.35" rx="8.98" ry="4.51" transform="translate(-124.86 76.35) rotate(-55.7)"/>
          <ellipse class="cls-17" cx="9.73" cy="155.7" rx="9.46" ry="4.06" transform="translate(-124.37 75.99) rotate(-55.7)"/>
        </g>
        <ellipse id="hoved_skygge" data-name="hoved skygge" class="cls-13" cx="81.16" cy="48.39" rx="52.02" ry="47.06"/>
        <ellipse id="hoved" class="cls-17" cx="80.95" cy="47.06" rx="52.02" ry="47.06"/>
        <g id="fod1">
          <path class="cls-9" d="M76.29,256.48c0-3.65-6.77-6.61-15.12-6.61s-15.12,2.96-15.12,6.61"/>
          <ellipse class="cls-17" cx="61.45" cy="259.53" rx="16.75" ry="9.66"/>
        </g>
        <g id="fod2">
          <path class="cls-9" d="M120.25,256.48c0-3.65-6.77-6.61-15.12-6.61s-15.12,2.96-15.12,6.61"/>
          <ellipse class="cls-17" cx="105.41" cy="259.53" rx="16.75" ry="9.66"/>
        </g>
        <g>
          <g id="glasrim">
            <g id="glasrim-2" data-name="glasrim">
              <g id="glasrim-3" data-name="glasrim">
                <path class="cls-8" d="M83.17,82.31c-12.15.79-38.89.26-47.45-21.01-4.33-10.76-1.93-21.62-1.58-23.08,4.98-21.27,27.74-30.82,45.83-32.18l-1.7,75.85c1.05.11,2.75.29,4.9.42Z"/>
                <path class="cls-8" d="M88.08,81.89c-1.05.11-2.75.29-4.9.42-2.16-.13-3.85-.32-4.9-.42l1.7-75.85c1.09-.08,2.16-.14,3.2-.16,1.09-.02,2.16-.01,3.19.02v.14l1.71,75.85Z"/>
                <path class="cls-8" d="M130.62,61.3c-8.56,21.27-35.3,21.8-47.45,21.01,2.16-.13,3.85-.32,4.9-.42l-1.71-75.85c18.09,1.36,40.85,10.91,45.84,32.18.34,1.46,2.75,12.32-1.58,23.08Z"/>
                <path class="cls-8" d="M88.08,81.89c-1.05.11-2.75.29-4.9.42-2.16-.13-3.85-.32-4.9-.42l1.7-75.85v-.14c1.04-.04,2.11-.05,3.2-.02,1.04.02,2.11.08,3.19.16l1.71,75.85Z"/>
              </g>
              <line class="cls-8" x1="86.39" y1="7.37" x2="88.08" y2="81.89"/>
              <line class="cls-8" x1="79.89" y1="7.92" x2="78.27" y2="81.83"/>
              <ellipse class="cls-8" cx="83.17" cy="20.27" rx="24.11" ry="13.08"/>
              <ellipse class="cls-8" cx="84.07" cy="68.1" rx="24.11" ry="13.08"/>
            </g>
            <g id="glasrim-4" data-name="glasrim">
              <path class="cls-8" d="M82.03,86c-12.15.79-38.89.26-47.45-21.01-4.33-10.76-1.93-21.62-1.58-23.08,4.98-21.27,27.74-30.82,45.83-32.18l-1.7,75.85c1.05.11,2.75.29,4.9.42Z"/>
              <path class="cls-8" d="M86.93,85.58c-1.05.11-2.75.29-4.9.42-2.16-.13-3.85-.32-4.9-.42l1.7-75.85c1.09-.08,2.16-.14,3.2-.16,1.09-.02,2.16-.01,3.19.02v.14l1.71,75.85Z"/>
              <path class="cls-8" d="M129.48,64.99c-8.56,21.27-35.3,21.8-47.45,21.01,2.16-.13,3.85-.32,4.9-.42l-1.71-75.85c18.09,1.36,40.85,10.91,45.84,32.18.34,1.46,2.75,12.32-1.58,23.08Z"/>
              <path class="cls-8" d="M86.93,85.58c-1.05.11-2.75.29-4.9.42-2.16-.13-3.85-.32-4.9-.42l1.7-75.85v-.14c1.04-.04,2.11-.05,3.2-.02,1.04.02,2.11.08,3.19.16l1.71,75.85Z"/>
            </g>
            <line class="cls-8" x1="85.25" y1="11.06" x2="86.93" y2="85.58"/>
            <line class="cls-8" x1="78.74" y1="11.61" x2="77.12" y2="85.52"/>
            <ellipse class="cls-8" cx="82.03" cy="23.96" rx="24.11" ry="13.08"/>
            <ellipse class="cls-8" cx="82.92" cy="71.79" rx="24.11" ry="13.08"/>
          </g>
          <g id="glasrim-5" data-name="glasrim">
            <g id="glasrim-6" data-name="glasrim">
              <g id="glasrim-7" data-name="glasrim">
                <path class="cls-8" d="M80.89,62.79c-11.61.6-37.15.2-45.33-15.92-4.14-8.15-1.84-16.38-1.51-17.49,4.76-16.12,26.5-23.35,43.78-24.39l-1.63,57.48c1.01.08,2.63.22,4.68.32Z"/>
                <path class="cls-8" d="M85.57,62.47c-1.01.08-2.63.22-4.68.32-2.06-.1-3.68-.24-4.68-.32l1.63-57.48c1.04-.06,2.06-.11,3.06-.12,1.04-.02,2.06,0,3.05.02v.11l1.64,57.48Z"/>
                <path class="cls-8" d="M126.21,46.86c-8.18,16.12-33.72,16.52-45.33,15.92,2.06-.1,3.68-.24,4.68-.32l-1.64-57.48c17.28,1.03,39.03,8.27,43.79,24.39.32,1.1,2.63,9.34-1.51,17.49Z"/>
                <path class="cls-8" d="M85.57,62.47c-1.01.08-2.63.22-4.68.32-2.06-.1-3.68-.24-4.68-.32l1.63-57.48v-.11c.99-.03,2.01-.04,3.06-.02,1,.02,2.01.06,3.05.12l1.64,57.48Z"/>
              </g>
              <line class="cls-8" x1="83.96" y1="6" x2="85.57" y2="62.47"/>
              <line class="cls-8" x1="77.74" y1="6.41" x2="76.2" y2="62.42"/>
              <ellipse class="cls-8" cx="80.89" cy="15.78" rx="23.03" ry="9.91"/>
              <ellipse class="cls-8" cx="81.74" cy="52.01" rx="23.03" ry="9.91"/>
            </g>
            <g id="glasrim-8" data-name="glasrim">
              <path class="cls-8" d="M79.79,65.58c-11.61.6-37.15.2-45.33-15.92-4.14-8.15-1.84-16.38-1.51-17.49,4.76-16.12,26.5-23.35,43.78-24.39l-1.63,57.48c1.01.08,2.63.22,4.68.32Z"/>
              <path class="cls-8" d="M84.47,65.26c-1.01.08-2.63.22-4.68.32-2.06-.1-3.68-.24-4.68-.32l1.63-57.48c1.04-.06,2.06-.11,3.06-.12,1.04-.02,2.06,0,3.05.02v.11l1.64,57.48Z"/>
              <path class="cls-8" d="M125.12,49.66c-8.18,16.12-33.72,16.52-45.33,15.92,2.06-.1,3.68-.24,4.68-.32l-1.64-57.48c17.28,1.03,39.03,8.27,43.79,24.39.32,1.1,2.63,9.34-1.51,17.49Z"/>
              <path class="cls-8" d="M84.47,65.26c-1.01.08-2.63.22-4.68.32-2.06-.1-3.68-.24-4.68-.32l1.63-57.48v-.11c.99-.03,2.01-.04,3.06-.02,1,.02,2.01.06,3.05.12l1.64,57.48Z"/>
            </g>
            <line class="cls-8" x1="82.87" y1="8.8" x2="84.47" y2="65.26"/>
            <line class="cls-8" x1="76.65" y1="9.21" x2="75.11" y2="65.22"/>
            <ellipse class="cls-8" cx="79.79" cy="18.57" rx="23.03" ry="9.91"/>
            <ellipse class="cls-8" cx="80.65" cy="54.81" rx="23.03" ry="9.91"/>
          </g>
        </g>
        <g id="skærm">
          <g id="glas">
            <path class="cls-15" d="M80.97,83.32c-12.63.79-40.44.26-49.34-21.1-4.5-10.8-2.01-21.71-1.64-23.18,5.18-21.36,28.85-30.95,47.66-32.32l-1.77,76.17c1.1.11,2.86.29,5.1.42Z"/>
            <path class="cls-15" d="M86.07,82.89c-1.1.11-2.86.29-5.1.42-2.24-.13-4-.32-5.1-.42l1.77-76.17c1.14-.08,2.24-.14,3.33-.17,1.14-.02,2.24-.01,3.32.02v.14l1.78,76.17Z"/>
            <path class="cls-15" d="M130.31,62.22c-8.91,21.36-36.71,21.89-49.34,21.1,2.24-.13,4-.32,5.1-.42l-1.78-76.17c18.81,1.37,42.48,10.96,47.67,32.32.35,1.46,2.86,12.37-1.64,23.18Z"/>
            <path class="cls-15" d="M107.49,80.95c-6.69,1.6-13.99,2.82-21.84,3.39-1.57.11-3.13.2-4.65.26-1.82.02-3.7-.02-5.64-.12-6.43-.34-12.26-1.34-17.4-2.63,2.87-24.47,5.74-48.95,8.61-73.42h0c5.89-1.42,10.84-1.8,14.41-1.86,3.32-.05,5.77.18,6.29.23,5.63.54,10.18,1.89,13.3,3.05,2.31,23.7,4.62,47.4,6.92,71.11Z"/>
          </g>
          <path class="cls-17" d="M126.62,31.72c.32-.3-3.72-7.15-11.17-12.24-7.18-4.9-14.62-6.18-14.76-5.78-.13.36,5.65,1.94,13,6.86,8.44,5.64,12.62,11.43,12.93,11.15Z"/>
          <ellipse class="cls-17" cx="127.88" cy="34.14" rx=".77" ry=".85"/>
          <path class="cls-18" d="M104.71,73.66c-.18-3.1-.68-12.83-.44-12.81.56.03,1,12.75.44,12.81-.42.05-2.86-6.93-.44-12.81,1.83-4.45,6.22-7.71,8.37-6.75.87.39,2.53,1.98,2.53,1.98.91-6.22,3.5-10.3,3.5-10.3,1.04-1.64,2.41-3.81,3.95-3.64,2.56.3,3.83,6.66,4.11,8.05.05.24.13.63.21,1.13,2.43,13.85-5.05,21.65-5.05,21.65-2.67,2.86-5.5,3.95-7.66,4.79-2.64,1.02-6.45,2.5-8.37.6-.9-.89-1-2.14-1.15-4.7Z"/>
        </g>
        <g id="bælte">
          <path class="cls-4" d="M39.07,167.98c1.35.6,3.63,1.57,5.96,2.43,2.89,1.06,13.22,3.91,27.58,5.66h12.33c.06-4.63.17-9.26.22-13.89h-13.15c-8.5,0-16.93-1.82-24.91-5.39-2.24-.8-4.48-1.61-6.72-2.41"/>
          <polygon class="cls-14" points="60.55 162.81 54.21 161.43 53.7 163.88 60.04 165.26 60.55 162.81"/>
          <path class="cls-10" d="M99.39,162.16c-.36,0-.71.02-1.07.02h-13.15c.05,4.63.16,9.26.22,13.89h12.33c.73,0,1.45-.03,2.18-.06-.26-4.62-.43-9.23-.51-13.86Z"/>
          <rect class="cls-11" x="84.44" y="162.77" width="1.95" height="12.69"/>
          <rect class="cls-19" x="83.91" y="162.18" width="3.53" height="13.89"/>
          <path class="cls-3" d="M61.7,162.93l-.88,9.69c-.03.32-.4.54-.76.45l-7.61-1.88c-.27-.07-.44-.29-.4-.53l1.32-9.31c.07-.48.81-.62,1.09-.21l2,2.95c.16.23.51.31.79.17l3.58-1.79c.41-.2.9.06.87.45Z"/>
          <line class="cls-12" x1="53.87" y1="160.89" x2="61.53" y2="162.66"/>
          <path class="cls-1" d="M86.19,176.07h-6.05c-.39-.06-1.18-.25-1.97-.91-.76-.63-1.15-1.39-1.32-1.78-.35-.72-.94-2.14-1.02-4.04-.08-1.96.41-3.46.71-4.21.23-.47.72-1.32,1.63-2.03.78-.6,1.53-.82,1.98-.92h6.04"/>
          <path class="cls-1" d="M82.7,176.07h6.05c.39-.06,1.18-.25,1.97-.91.76-.63,1.15-1.39,1.32-1.78.35-.72.94-2.14,1.02-4.04.08-1.96-.41-3.46-.71-4.21-.23-.47-.72-1.32-1.63-2.03-.78-.6-1.53-.82-1.98-.92h-6.04"/>
          <path class="cls-6" d="M91.17,166.2c-.18-.39-.51-.97-1.11-1.51-.99-.89-2.09-1.08-2.54-1.13"/>
          <rect class="cls-19" x="97.75" y="162.77" width="4.32" height="12.69"/>
          <path class="cls-4" d="M125.98,169.28c-1.32.67-2.33,1.1-2.48,1.16-12.03,5-23.6,5.58-23.6,5.58-.86.04-2.25.1-3.98.08h-12.33c-.06-4.63-.17-9.26-.22-13.89h13.15c8.5,0,16.93-1.82,24.91-5.39.94-.53,1.88-1.07,2.83-1.6"/>
          <path class="cls-4" d="M121.43,156.82l2.83-1.6c.53-.44,1.82-1.41,3.07-1.07,1.62.44,2.14,2.76,2.67,5.07.56,2.48.99,4.38,0,6.43-1.08,2.27-3.19,3.28-4.03,3.63"/>
          <path class="cls-4" d="M72.34,162.2c.02.15.03.3.04.46.18,4.54.96,8.89.72,13.43h10.05c.06-4.63.17-9.26.22-13.89h-11.02Z"/>
          <rect class="cls-11" x="82.14" y="162.79" width="1.95" height="12.69" transform="translate(166.24 338.28) rotate(-180)"/>
          <rect class="cls-19" x="81.1" y="162.2" width="3.53" height="13.89" transform="translate(165.72 338.3) rotate(-180)"/>
          <path class="cls-2" d="M82.35,176.09h6.05c.39-.06,1.18-.25,1.97-.91.76-.63,1.15-1.39,1.32-1.78.35-.72.94-2.14,1.02-4.04.08-1.96-.41-3.46-.71-4.21-.23-.47-.72-1.32-1.63-2.03-.78-.6-1.53-.82-1.98-.92h-6.04"/>
          <path class="cls-2" d="M85.84,176.09h-6.05c-.39-.06-1.18-.25-1.97-.91-.76-.63-1.15-1.39-1.32-1.78-.35-.72-.94-2.14-1.02-4.04-.08-1.96.41-3.46.71-4.21.23-.47.72-1.32,1.63-2.03.78-.6,1.53-.82,1.98-.92h6.04"/>
          <path class="cls-6" d="M90.69,166.2c-.18-.39-.51-.97-1.11-1.51-.99-.89-2.09-1.08-2.54-1.13"/>
          <path class="cls-4" d="M41.56,154.84c-.93-.47-1.86-.94-2.8-1.4-.32-.16-.78-.31-1.25-.19-1.63.4-2.09,3.61-2.37,5.62-.44,3.08-.66,4.69.34,6.38,1.22,2.06,3.41,2.78,4.23,3.01"/>
          <path class="cls-7" d="M71.88,162.19c-.02,2.31.15,4.15.32,5.4.25,1.87.54,2.98.61,4.96.05,1.49-.05,2.7-.15,3.48"/>
          <path class="cls-7" d="M96.34,162.21c.02,2.31-.15,4.15-.32,5.4-.25,1.87-.54,2.98-.61,4.96-.05,1.49.05,2.7.15,3.48"/>
          <path class="cls-7" d="M95.87,162.24c.02,2.31-.15,4.15-.32,5.4-.25,1.87-.54,2.98-.61,4.96-.05,1.49.05,2.7.15,3.48"/>
          <path class="cls-5" d="M126.61,156.89c.15.3.32.7.48,1.2.43,1.41.48,2.84.48,3.59"/>
          <circle class="cls-17" cx="127.63" cy="163.86" r=".61"/>
        </g>
        <path class="cls-5" d="M142,42.57c.06-.53.13-1.85-.61-3.23-1.07-2.01-3.03-2.63-3.43-2.75"/>
        <path class="cls-17" d="M150.91,142.07c.5-.17,1.24.81,1.82,1.59,2.96,3.98,4.34,9.8,3.19,10.36-.92.44-3.5-2.42-4.67-5.35-1.13-2.82-1.2-6.32-.34-6.6Z"/>
        <path class="cls-17" d="M14.48,142.24c.48.23.34,1.44.22,2.41-.6,4.93-3.6,10.1-4.82,9.71-.97-.31-.87-4.16.3-7.09,1.12-2.82,3.48-5.41,4.3-5.02Z"/>
      </g>
    </g>
  </g>
</svg>