<?xml version="1.0" encoding="UTF-8"?>
<svg id="Layer_2" data-name="Layer 2" xmlns="http://www.w3.org/2000/svg" viewBox="0 0 150.02 268.05">
  <defs>
    <style>
      .cls-1 {
        stroke: #e5dede;
      }

      .cls-1, .cls-2, .cls-3, .cls-4, .cls-5, .cls-6, .cls-7, .cls-8, .cls-9, .cls-10, .cls-11, .cls-12, .cls-13, .cls-14, .cls-15, .cls-16 {
        stroke-miterlimit: 10;
      }

      .cls-1, .cls-3, .cls-4, .cls-5, .cls-6, .cls-7, .cls-8, .cls-9, .cls-10, .cls-13, .cls-14, .cls-16 {
        stroke-linecap: round;
      }

      .cls-1, .cls-3, .cls-9, .cls-10, .cls-11, .cls-17 {
        fill: #eee4da;
      }

      .cls-2, .cls-7, .cls-8, .cls-9, .cls-13 {
        stroke: #fdf0e5;
      }

      .cls-2, .cls-18 {
        fill: #fdf0e5;
      }

      .cls-3 {
        stroke: #d5cfcf;
      }

      .cls-4, .cls-8, .cls-19 {
        fill: #6d9bca;
      }

      .cls-4, .cls-16 {
        stroke: #3c735b;
      }

      .cls-20 {
        fill: #151515;
      }

      .cls-20, .cls-21, .cls-18, .cls-22, .cls-19, .cls-23, .cls-17 {
        stroke-width: 0px;
      }

      .cls-5 {
        fill: #438066;
      }

      .cls-5, .cls-6, .cls-10, .cls-11, .cls-12, .cls-14, .cls-15 {
        stroke: #eee4da;
      }

      .cls-21 {
        fill: #f1e4da;
      }

      .cls-6, .cls-7, .cls-12, .cls-13 {
        fill: none;
      }

      .cls-22 {
        fill: #363636;
      }

      .cls-8, .cls-13 {
        opacity: .5;
      }

      .cls-23, .cls-14, .cls-15 {
        fill: #f39547;
      }

      .cls-16 {
        fill: #392851;
      }
    </style>
  </defs>
  <g id="Layer_16" data-name="Layer 16">
    <g id="Kok">
      <g id="Kok-2" data-name="Kok">
        <path class="cls-11" d="M41.75,9.84c3.67-1.26,4.27-3.68,7.02-5.58,7.45-5.15,24.71-2.41,28.56,8.41,2.35,6.62-.39,16.04-5.64,18.97-3.17,1.77-5.24.05-10.71,2.26-4.22,1.7-3.95,3.11-8.86,5.99-7.65,4.49-10.58,2.41-15.93,6.7-4.01,3.21-2.83,4.76-6.63,7.6-4.24,3.16-10.9,5.11-16.85,3.13-7.04-2.34-9.14-8.87-10.06-11.74-.66-2.04-3.33-10.35,1.1-15.55,3.32-3.9,6.88-1.64,12.18-6.45,3.57-3.24,3.23-5.44,7.8-9.09,1.67-1.34,3.75-3,6.78-3.92,5.06-1.53,7,.75,11.24-.71Z"/>
        <path class="cls-2" d="M37.81,74.02c1.32-3.14,6.3-14,18.7-21.73,12.54-7.81,24.4-7.27,27.71-7.01-2.6-1.72-7.78-5.68-11.11-12.73-1.94-4.12-2.6-7.9-2.83-10.54-15.84,10.04-31.69,20.08-47.53,30.12,1.11,3.32,3.03,7.86,6.41,12.61,2.97,4.18,6.13,7.21,8.65,9.27Z"/>
        <path class="cls-2" d="M41,8.6c3.67-1.26,4.27-3.68,7.02-5.58,7.45-5.15,24.71-2.41,28.56,8.41,2.35,6.62-.39,16.04-5.64,18.97-3.17,1.77-5.24.05-10.71,2.26-4.22,1.7-3.95,3.11-8.86,5.99-7.65,4.49-10.58,2.41-15.93,6.7-4.01,3.21-2.83,4.76-6.63,7.6-4.24,3.16-10.9,5.11-16.85,3.13-7.04-2.34-9.14-8.87-10.06-11.74-.66-2.04-3.33-10.35,1.1-15.55,3.32-3.9,6.88-1.64,12.18-6.45,3.57-3.24,3.23-5.44,7.8-9.09,1.67-1.34,3.75-3,6.78-3.92,5.06-1.53,7,.75,11.24-.71Z"/>
        <path class="cls-12" d="M77.91,21.19c-.76,4.49-3.02,8.66-6.22,10.44-3.17,1.77-5.24.05-10.71,2.26-4.22,1.7-3.95,3.11-8.86,5.99-7.65,4.49-10.58,2.41-15.93,6.7-4.01,3.21-2.83,4.76-6.63,7.6-4.24,3.16-10.9,5.11-16.85,3.13-1.45-.48-2.69-1.14-3.75-1.91"/>
        <path class="cls-6" d="M59.32,30.88c-.5,2.46-1.58,3.94-2.25,4.69-.82.93-1.76,1.6-3.64,2.93-1.41,1-2.53,1.68-2.67,1.77-2.46,1.49-8.73,3.22-17,4.03"/>
        <path class="cls-6" d="M12.83,28.06c.67-2.51,1.62-4.45,2.35-5.75,1.67-2.96,3.71-4.91,5.13-6.56.67-.78,1.51-1.61,2.67-2.54,1.67-1.34,3.75-3,6.78-3.92,5.46-1.65,9.87-1.01,11.24-.71,1.9.42,3.38,1.05,4.39,1.57"/>
        <path class="cls-6" d="M78.18,40.3c-1.14.02-2.57.12-4.28.38-5.33.82-9.9,2.72-11.92,3.62"/>
        <ellipse class="cls-10" cx="59.32" cy="45.26" rx=".15" ry=".14" transform="translate(-15.29 44.17) rotate(-36.51)"/>
        <g>
          <path class="cls-11" d="M113.1,63.69c.56-.51,1.62-.38,3.73-.11,2.37.3,4.13.46,5.52,1.67,1.72,1.51,2.09,3.37,2.73,6.69.53,2.74,1.12,5.75-.54,7.95-.37.5-.86.82-1.79,1.49-1.88,1.36-3.18,2.3-4.18,2.1-1.63-.32-1.67-3.46-3.3-9.44-1.74-6.39-3.45-9.2-2.17-10.36Z"/>
          <path class="cls-13" d="M124.47,69c-.05-.45-.24-1.53-1.09-2.52-1.24-1.44-2.95-1.58-3.29-1.61"/>
        </g>
        <ellipse id="krop" class="cls-18" cx="82.52" cy="163.57" rx="34.47" ry="53.08"/>
        <path id="ben1_skygge" data-name="ben1 skygge" class="cls-17" d="M79.87,210.28c1.98,10.53,1.73,19.18,1.23,24.78-.44,4.89-1.94,21.41-9.92,27.88-1.07.87-3.86,3.13-7.62,3.14,0,0-2.97,0-5.96-1.88"/>
        <path id="ben_1" data-name="ben 1" class="cls-18" d="M78.57,206.51c2.71,12.39,2.3,22.54,1.62,28.81-.53,4.87-2.32,21.33-10.51,27.65-1.1.85-3.96,3.05-7.77,3,0,0-3-.04-5.99-1.99-5.26-3.41-18.87-31.17-14.65-73.4,1.51-15.1,6.35-42.53,24.95-73.13"/>
        <path id="ben2_skygge" data-name="ben2 skygge" class="cls-17" d="M84.67,210.26c-2.38,10.8-2.33,19.71-1.91,25.48.36,5.04,1.58,22.08,10.05,28.91,1.14.92,4.09,3.3,8.15,3.39,0,0,3.2.07,6.47-1.81"/>
        <path id="ben_2" data-name="ben 2" class="cls-18" d="M85.44,208.52c-2.71,12.39-2.3,22.54-1.62,28.81.53,4.87,2.32,21.33,10.51,27.65,1.1.85,3.96,3.05,7.77,3,0,0,3-.04,5.99-1.99,5.26-3.41,18.87-31.17,14.65-73.4-1.51-15.1-6.35-42.53-24.95-73.13"/>
        <path id="arm1_skygge" data-name="arm1 skygge" class="cls-17" d="M45.08,168.13c2.16-2.24,4.15-4.97,5.8-8.08,4.85-9.18,5.25-18.92,1.53-24.35"/>
        <ellipse id="arm1" class="cls-18" cx="44.61" cy="144.69" rx="34.16" ry="14.24" transform="translate(-97.53 92.53) rotate(-52.71)"/>
        <g id="hånd_1" data-name="hånd 1">
          <ellipse class="cls-18" cx="22.77" cy="178.3" rx="14.1" ry="7.39" transform="translate(-137.36 96.62) rotate(-55.7)"/>
          <ellipse class="cls-21" cx="20.93" cy="173.95" rx="7.48" ry="3.76" transform="translate(-134.56 93.21) rotate(-55.7)"/>
          <ellipse class="cls-18" cx="20.85" cy="173.41" rx="7.88" ry="3.38" transform="translate(-134.15 92.91) rotate(-55.7)"/>
        </g>
        <g id="fod1">
          <path class="cls-12" d="M76.31,257.38c0-3.04-5.64-5.51-12.6-5.51s-12.6,2.47-12.6,5.51"/>
          <ellipse class="cls-18" cx="63.95" cy="259.92" rx="13.96" ry="8.05"/>
        </g>
        <g id="fod2">
          <path class="cls-12" d="M112.93,257.38c0-3.04-5.64-5.51-12.6-5.51s-12.6,2.47-12.6,5.51"/>
          <ellipse class="cls-18" cx="100.57" cy="259.92" rx="13.96" ry="8.05"/>
        </g>
        <path class="cls-18" d="M24.81,162.2c.4.19.28,1.2.19,2.01-.5,4.1-3,8.42-4.01,8.09-.81-.26-.73-3.47.25-5.91.94-2.35,2.9-4.51,3.58-4.19Z"/>
        <g>
          <path id="arm1_skygge-2" data-name="arm1 skygge" class="cls-17" d="M117.68,165.86c-2.16-2.24-4.15-4.97-5.8-8.08-4.85-9.18-5.25-18.92-1.53-24.35"/>
          <ellipse id="arm1-2" data-name="arm1" class="cls-18" cx="118.15" cy="142.41" rx="14.24" ry="34.16" transform="translate(-62.13 100.68) rotate(-37.29)"/>
          <g id="hånd_1-2" data-name="hånd 1">
            <ellipse class="cls-18" cx="140" cy="176.03" rx="7.39" ry="14.1" transform="translate(-74.86 109.52) rotate(-34.3)"/>
            <ellipse class="cls-21" cx="141.83" cy="171.68" rx="3.76" ry="7.48" transform="translate(-72.09 109.79) rotate(-34.3)"/>
            <ellipse class="cls-18" cx="141.91" cy="171.14" rx="3.38" ry="7.88" transform="translate(-71.77 109.74) rotate(-34.3)"/>
          </g>
        </g>
        <ellipse id="hoved_skygge" data-name="hoved skygge" class="cls-17" cx="75.81" cy="85.11" rx="43.34" ry="39.21" transform="translate(-19.77 23.02) rotate(-15.3)"/>
        <ellipse id="hoved" class="cls-18" cx="75.35" cy="84.1" rx="43.34" ry="39.21" transform="translate(-19.52 22.86) rotate(-15.3)"/>
        <g>
          <g id="glasrim">
            <g id="glasrim-2" data-name="glasrim">
              <g id="glasrim-3" data-name="glasrim">
                <path class="cls-11" d="M89.95,111.6c-8.64,3.29-28.34,8.78-41-5.91-6.4-7.43-7.92-16.43-8.1-17.65-2.76-17.68,11-30.15,23.8-35.21l21.59,59.52c.8-.15,2.1-.38,3.71-.75Z"/>
                <path class="cls-11" d="M93.41,110.19c-.74.32-1.92.84-3.46,1.41-1.61.37-2.91.6-3.71.75l-21.59-59.52c.77-.31,1.53-.59,2.29-.83.79-.26,1.57-.48,2.34-.69l.04.11,24.08,58.76Z"/>
                <path class="cls-11" d="M118.3,84.75c.14,18.47-19.23,24.79-28.35,26.85,1.54-.58,2.72-1.1,3.46-1.41l-24.08-58.76c13.63-2.93,33.14-.51,43.18,14.98.69,1.06,5.72,9,5.79,18.34Z"/>
                <path class="cls-11" d="M93.41,110.19c-.74.32-1.92.84-3.46,1.41-1.61.37-2.91.6-3.71.75l-21.59-59.52-.04-.11c.75-.26,1.53-.5,2.33-.72.77-.21,1.57-.4,2.38-.58l24.08,58.76Z"/>
              </g>
              <line class="cls-11" x1="69.75" y1="52.46" x2="93.41" y2="110.19"/>
              <line class="cls-11" x1="65.16" y1="54.33" x2="86.22" y2="112.31"/>
              <path class="cls-11" d="M75.21,73.43c9.73-2.94,15.85-9.89,13.68-15.52s-11.82-7.82-21.55-4.88c-9.73,2.94-15.85,9.89-13.68,15.52s11.82,7.82,21.55,4.88Z"/>
              <path class="cls-11" d="M90.26,110.52c9.73-2.94,15.85-9.89,13.68-15.52s-11.82-7.82-21.55-4.88-15.85,9.89-13.68,15.52c2.17,5.63,11.82,7.82,21.55,4.88Z"/>
            </g>
            <g id="glasrim-4" data-name="glasrim">
              <path class="cls-11" d="M90.22,114.74c-8.64,3.29-28.34,8.78-41-5.91-6.4-7.43-7.92-16.43-8.1-17.65-2.76-17.68,11-30.15,23.8-35.21l21.59,59.52c.8-.15,2.1-.38,3.71-.75Z"/>
              <path class="cls-11" d="M93.68,113.32c-.74.32-1.92.84-3.46,1.41-1.61.37-2.91.6-3.71.75l-21.59-59.52c.77-.31,1.53-.59,2.29-.83.79-.26,1.57-.48,2.34-.69l.04.11,24.08,58.76Z"/>
              <path class="cls-11" d="M118.57,87.88c.14,18.47-19.23,24.79-28.35,26.85,1.54-.58,2.72-1.1,3.46-1.41l-24.08-58.76c13.63-2.93,33.14-.51,43.18,14.98.69,1.06,5.72,9,5.79,18.34Z"/>
              <path class="cls-11" d="M93.68,113.32c-.74.32-1.92.84-3.46,1.41-1.61.37-2.91.6-3.71.75l-21.59-59.52-.04-.11c.75-.26,1.53-.5,2.33-.72.77-.21,1.57-.4,2.38-.58l24.08,58.76Z"/>
            </g>
            <line class="cls-11" x1="70.02" y1="55.59" x2="93.68" y2="113.32"/>
            <line class="cls-11" x1="65.43" y1="57.46" x2="86.5" y2="115.44"/>
            <path class="cls-11" d="M75.49,76.56c9.73-2.94,15.85-9.89,13.68-15.52-2.17-5.63-11.82-7.82-21.55-4.88s-15.85,9.89-13.68,15.52c2.17,5.63,11.82,7.82,21.55,4.88Z"/>
            <path class="cls-11" d="M90.54,113.65c9.73-2.94,15.85-9.89,13.68-15.52-2.17-5.63-11.82-7.82-21.55-4.88-9.73,2.94-15.85,9.89-13.68,15.52s11.82,7.82,21.55,4.88Z"/>
          </g>
          <g id="glasrim-5" data-name="glasrim">
            <g id="glasrim-6" data-name="glasrim">
              <g id="glasrim-7" data-name="glasrim">
                <path class="cls-11" d="M82.4,96.89c-8.3,3.03-27.08,8.35-37.91-2.41-5.48-5.44-6.28-12.37-6.37-13.3-1.38-13.62,12.34-24.06,24.65-28.68l16.11,45.17c.76-.16,1.99-.41,3.52-.78Z"/>
                <path class="cls-11" d="M85.73,95.6c-.71.28-1.85.75-3.33,1.28-1.53.38-2.76.62-3.52.78l-16.11-45.17c.74-.28,1.47-.54,2.2-.77.76-.24,1.5-.46,2.23-.66l.03.08,18.5,44.45Z"/>
                <path class="cls-11" d="M110.73,74.47c-1.13,14.37-19.67,20.32-28.33,22.42,1.47-.53,2.61-1,3.33-1.28l-18.5-44.45c12.94-3.01,31-2.17,39.34,9.35.57.79,4.73,6.7,4.16,13.97Z"/>
                <path class="cls-11" d="M85.73,95.6c-.71.28-1.85.75-3.33,1.28-1.53.38-2.76.62-3.52.78l-16.11-45.17-.03-.08c.71-.24,1.46-.47,2.23-.69.73-.21,1.49-.4,2.26-.58l18.5,44.45Z"/>
              </g>
              <line class="cls-11" x1="67.56" y1="51.93" x2="85.73" y2="95.6"/>
              <line class="cls-11" x1="63.14" y1="53.62" x2="78.87" y2="97.63"/>
              <path class="cls-11" d="M71.23,67.96c9.29-2.81,15.49-8.54,13.84-12.81s-10.52-5.45-19.81-2.65c-9.29,2.81-15.49,8.54-13.84,12.81,1.65,4.27,10.52,5.45,19.81,2.65Z"/>
              <path class="cls-11" d="M82.77,96.03c9.29-2.81,15.49-8.54,13.84-12.81-1.65-4.27-10.52-5.45-19.81-2.65-9.29,2.81-15.49,8.54-13.84,12.81,1.65,4.27,10.52,5.45,19.81,2.65Z"/>
            </g>
            <g id="glasrim-8" data-name="glasrim">
              <path class="cls-11" d="M82.44,99.31c-8.3,3.03-27.08,8.35-37.91-2.41-5.48-5.44-6.28-12.37-6.37-13.3-1.38-13.62,12.34-24.06,24.65-28.68l16.11,45.17c.76-.16,1.99-.41,3.52-.78Z"/>
              <path class="cls-11" d="M85.77,98.02c-.71.28-1.85.75-3.33,1.28-1.53.38-2.76.62-3.52.78l-16.11-45.17c.74-.28,1.47-.54,2.2-.77.76-.24,1.5-.46,2.23-.66l.03.08,18.5,44.45Z"/>
              <path class="cls-11" d="M110.77,76.89c-1.13,14.37-19.67,20.32-28.33,22.42,1.47-.53,2.61-1,3.33-1.28l-18.5-44.45c12.94-3.01,31-2.17,39.34,9.35.57.79,4.73,6.7,4.16,13.97Z"/>
              <path class="cls-11" d="M85.77,98.02c-.71.28-1.85.75-3.33,1.28-1.53.38-2.76.62-3.52.78l-16.11-45.17-.03-.08c.71-.24,1.46-.47,2.23-.69.73-.21,1.49-.4,2.26-.58l18.5,44.45Z"/>
            </g>
            <line class="cls-11" x1="67.6" y1="54.35" x2="85.77" y2="98.02"/>
            <line class="cls-11" x1="63.18" y1="56.05" x2="78.91" y2="100.05"/>
            <path class="cls-11" d="M71.28,70.38c9.29-2.81,15.49-8.54,13.84-12.81s-10.52-5.45-19.81-2.65c-9.29,2.81-15.49,8.54-13.84,12.81s10.52,5.45,19.81,2.65Z"/>
            <path class="cls-11" d="M82.81,98.45c9.29-2.81,15.49-8.54,13.84-12.81s-10.52-5.45-19.81-2.65c-9.29,2.81-15.49,8.54-13.84,12.81,1.65,4.27,10.52,5.45,19.81,2.65Z"/>
          </g>
        </g>
        <g id="glas">
          <path class="cls-20" d="M90.57,113.04c-8.46,3.32-27.82,8.85-40.89-6.09-6.61-7.56-8.42-16.7-8.65-17.93-3.35-17.95,9.88-30.57,22.41-35.67l23.46,60.45c.79-.15,2.07-.38,3.66-.75Z"/>
          <path class="cls-20" d="M93.95,111.61c-.72.32-1.88.84-3.38,1.42-1.59.38-2.87.6-3.66.75l-23.46-60.45c.76-.31,1.5-.59,2.24-.84.78-.26,1.54-.49,2.3-.69l.05.11,25.91,59.69Z"/>
          <path class="cls-20" d="M117.78,85.85c-.35,2.93-.98,13.34-9.95,19.84-5.78,4.19-12.77,6.3-17.26,7.34,1.5-.58,2.66-1.11,3.38-1.42l-25.91-59.69c20.02-4.64,38.73,1.65,46.01,14.32,4.93,8.58,3.84,18.73,3.73,19.61Z"/>
          <path class="cls-20" d="M108.1,105.5c-4.1,2.69-8.74,5.21-13.97,7.34-1.05.43-2.09.82-3.13,1.2-1.25.4-2.56.77-3.93,1.11-4.55,1.11-8.9,1.56-12.86,1.65-5.95-19.91-11.9-39.83-17.85-59.74h0c3.6-2.38,6.89-3.74,9.34-4.54,2.28-.75,4.04-1.09,4.42-1.17,4.06-.78,7.64-.68,10.17-.44,9.27,18.2,18.55,36.4,27.82,54.6Z"/>
        </g>
        <path class="cls-18" d="M105.35,62.59c.12-.3-4.89-4.84-11.67-7.26-6.54-2.33-12.09-1.75-12.06-1.4.03.31,4.53.33,11.2,2.63,7.65,2.65,12.42,6.32,12.53,6.03Z"/>
        <ellipse class="cls-18" cx="107.2" cy="64.97" rx=".53" ry=".73" transform="translate(-15.56 39.59) rotate(-19.54)"/>
        <path class="cls-22" d="M102.47,101.29c-.61-2.96-2.49-12.26-2.31-12.28.4-.06,2.7,12.13,2.31,12.28-.29.11-3.11-6.24-2.31-12.28.61-4.58,3.21-8.41,4.89-7.82.68.24,2.11,1.51,2.11,1.51-.33-6.14.87-10.48.87-10.48.48-1.74,1.12-4.06,2.24-4.13,1.86-.12,3.76,5.82,4.18,7.11.07.23.19.59.33,1.05,3.89,12.98-.2,21.67-.2,21.67-1.45,3.17-3.28,4.68-4.69,5.82-1.71,1.4-4.19,3.43-5.85,1.89-.78-.72-1.05-1.91-1.55-4.35Z"/>
        <g>
          <ellipse class="cls-11" cx="23.61" cy="97.28" rx="5.19" ry="9.7" transform="translate(-22.23 8.29) rotate(-13.61)"/>
          <path class="cls-11" d="M18.42,97.88c.74,4.03,3.74,8.05,7.47,8.83,1.17.24,1.17-.09,7.86-1.27,4.34-.77,4.93-.68,5.53-1.39,1.42-1.68-.27-3.97-1.56-10.44-1.3-6.52-.57-9.07-2.43-10.05-.6-.31-1.2-.33-7.27,1.68-5.82,1.93-6.31,2.28-6.69,2.62-2.76,2.43-3.53,6.68-2.91,10.03Z"/>
          <path class="cls-13" d="M21.35,87.61c1.29.7,4.52,2.68,6.04,6.5,2.47,6.22-1.71,11.96-2.25,12.68"/>
          <path class="cls-13" d="M34.67,83.88c-1.16.23-2.54.57-4.08,1.09-1.73.59-3.17,1.25-4.29,1.83"/>
          <circle class="cls-8" cx="24.24" cy="87.87" r=".19"/>
        </g>
        <ellipse class="cls-2" cx="47.83" cy="167.56" rx=".53" ry=".27"/>
        <g id="bælte">
          <path class="cls-5" d="M45.95,182.34c1.13.5,3.03,1.31,4.97,2.02,2.41.89,11.01,3.25,22.98,4.72h10.28c.05-3.86.14-7.72.18-11.57h-10.96c-7.08,0-14.11-1.52-20.76-4.49-1.87-.67-3.73-1.34-5.6-2.01"/>
          <polygon class="cls-19" points="63.84 178.03 58.56 176.89 58.14 178.93 63.42 180.08 63.84 178.03"/>
          <path class="cls-14" d="M96.21,177.49c-.3,0-.59.02-.89.02h-10.96c.04,3.86.14,7.72.18,11.57h10.28c.61,0,1.21-.03,1.81-.05-.22-3.85-.36-7.69-.43-11.54Z"/>
          <rect class="cls-15" x="83.75" y="178" width="1.62" height="10.57"/>
          <rect class="cls-23" x="83.31" y="177.51" width="2.94" height="11.57"/>
          <path class="cls-4" d="M64.8,178.14l-.73,8.07c-.02.27-.33.45-.63.38l-6.34-1.57c-.22-.06-.36-.24-.34-.44l1.1-7.76c.06-.4.67-.52.91-.18l1.67,2.46c.13.2.43.26.66.14l2.98-1.49c.34-.17.75.05.72.38Z"/>
          <line class="cls-16" x1="58.28" y1="176.43" x2="64.66" y2="177.91"/>
          <path class="cls-1" d="M85.21,189.08h-5.04c-.32-.05-.98-.21-1.64-.76-.63-.53-.96-1.16-1.1-1.48-.29-.6-.78-1.78-.85-3.37-.07-1.63.34-2.88.59-3.51.19-.39.6-1.1,1.36-1.69.65-.5,1.28-.68,1.65-.76h5.04"/>
          <path class="cls-1" d="M82.3,189.08h5.04c.32-.05.98-.21,1.64-.76.63-.53.96-1.16,1.1-1.48.29-.6.78-1.78.85-3.37.07-1.63-.34-2.88-.59-3.51-.19-.39-.6-1.1-1.36-1.69-.65-.5-1.28-.68-1.65-.76h-5.04"/>
          <path class="cls-9" d="M89.36,180.86c-.15-.32-.43-.81-.93-1.26-.82-.74-1.74-.9-2.11-.94"/>
          <rect class="cls-23" x="94.84" y="178" width="3.6" height="10.57"/>
          <path class="cls-5" d="M118.36,183.42c-1.1.56-1.94.91-2.06.96-10.02,4.16-19.67,4.65-19.67,4.65-.71.04-1.87.08-3.32.07h-10.28c-.05-3.86-.14-7.72-.18-11.57h10.96c7.08,0,14.11-1.52,20.76-4.49.78-.44,1.57-.89,2.35-1.33"/>
          <path class="cls-5" d="M114.57,173.04l2.35-1.33c.44-.37,1.51-1.18,2.56-.89,1.35.36,1.79,2.3,2.22,4.23.47,2.07.83,3.65,0,5.36-.9,1.89-2.66,2.74-3.35,3.02"/>
          <path class="cls-5" d="M73.67,177.53c.01.13.03.25.03.38.15,3.78.8,7.41.6,11.19h8.37c.05-3.86.14-7.72.18-11.57h-9.18Z"/>
          <rect class="cls-15" x="81.84" y="178.02" width="1.62" height="10.57" transform="translate(165.3 366.62) rotate(-180)"/>
          <rect class="cls-23" x="80.96" y="177.53" width="2.94" height="11.57" transform="translate(164.87 366.63) rotate(-180)"/>
          <path class="cls-3" d="M82.01,189.1h5.04c.32-.05.98-.21,1.64-.76.63-.53.96-1.16,1.1-1.48.29-.6.78-1.78.85-3.37.07-1.63-.34-2.88-.59-3.51-.19-.39-.6-1.1-1.36-1.69-.65-.5-1.28-.68-1.65-.76h-5.04"/>
          <path class="cls-3" d="M84.91,189.1h-5.04c-.32-.05-.98-.21-1.64-.76-.63-.53-.96-1.16-1.1-1.48-.29-.6-.78-1.78-.85-3.37-.07-1.63.34-2.88.59-3.51.19-.39.6-1.1,1.36-1.69.65-.5,1.28-.68,1.65-.76h5.04"/>
          <path class="cls-9" d="M88.96,180.86c-.15-.32-.43-.81-.93-1.26-.82-.74-1.74-.9-2.11-.94"/>
          <path class="cls-5" d="M48.02,171.4c-.78-.39-1.55-.78-2.33-1.17-.27-.13-.65-.26-1.04-.16-1.36.33-1.74,3.01-1.98,4.68-.36,2.57-.55,3.91.28,5.32,1.02,1.72,2.84,2.32,3.53,2.51"/>
          <path class="cls-10" d="M73.28,177.52c-.02,1.92.13,3.46.26,4.5.21,1.56.45,2.48.51,4.13.04,1.24-.05,2.25-.12,2.9"/>
          <path class="cls-10" d="M93.66,177.54c.02,1.92-.13,3.46-.26,4.5-.21,1.56-.45,2.48-.51,4.13-.04,1.24.05,2.25.12,2.9"/>
          <path class="cls-10" d="M93.27,177.56c.02,1.92-.13,3.46-.26,4.5-.21,1.56-.45,2.48-.51,4.13-.04,1.24.05,2.25.12,2.9"/>
          <path class="cls-7" d="M118.88,173.1c.13.25.27.58.4,1,.36,1.18.4,2.37.4,2.99"/>
          <circle class="cls-18" cx="119.74" cy="178.91" r=".51"/>
        </g>
        <path class="cls-6" d="M35.2,71.71c1.98-4.25,7.45-14.48,19.11-21.07,2.01-1.14,8.71-4.71,18.19-5.74,4.98-.54,9.19-.21,12.2.23"/>
      </g>
    </g>
  </g>
</svg>