<?xml version="1.0" encoding="UTF-8"?>
<svg id="Layer_2" data-name="Layer 2" xmlns="http://www.w3.org/2000/svg" viewBox="0 0 244.19 371.31">
  <defs>
    <style>
      .cls-1 {
        stroke: #e5dede;
      }

      .cls-1, .cls-2, .cls-3, .cls-4, .cls-5, .cls-6, .cls-7, .cls-8, .cls-9, .cls-10, .cls-11, .cls-12, .cls-13, .cls-14, .cls-15, .cls-16 {
        stroke-miterlimit: 10;
      }

      .cls-1, .cls-3, .cls-4, .cls-5, .cls-6, .cls-7, .cls-8, .cls-9, .cls-10, .cls-13, .cls-14, .cls-16 {
        stroke-linecap: round;
      }

      .cls-1, .cls-3, .cls-9, .cls-10, .cls-11, .cls-17 {
        fill: #eee4da;
      }

      .cls-2, .cls-7, .cls-8, .cls-9, .cls-13 {
        stroke: #fdf0e5;
      }

      .cls-2, .cls-18 {
        fill: #fdf0e5;
      }

      .cls-3 {
        stroke: #d5cfcf;
      }

      .cls-4, .cls-8, .cls-19 {
        fill: #6d9bca;
      }

      .cls-4, .cls-16 {
        stroke: #3c735b;
      }

      .cls-20 {
        fill: #151515;
      }

      .cls-20, .cls-21, .cls-18, .cls-22, .cls-19, .cls-23, .cls-17 {
        stroke-width: 0px;
      }

      .cls-5 {
        fill: #438066;
      }

      .cls-5, .cls-6, .cls-10, .cls-11, .cls-12, .cls-14, .cls-15 {
        stroke: #eee4da;
      }

      .cls-21 {
        fill: #f1e4da;
      }

      .cls-6, .cls-7, .cls-12, .cls-13 {
        fill: none;
      }

      .cls-22 {
        fill: #363636;
      }

      .cls-8, .cls-13 {
        opacity: .5;
      }

      .cls-23, .cls-14, .cls-15 {
        fill: #f39547;
      }

      .cls-16 {
        fill: #392851;
      }
    </style>
  </defs>
  <g id="Layer_16" data-name="Layer 16">
    <g id="Kok_peger" data-name="Kok peger">
      <g id="Kok_peger-2" data-name="Kok peger">
        <path class="cls-11" d="M57.67,13.44c5.08-1.75,5.91-5.1,9.73-7.74,10.33-7.14,34.25-3.34,39.59,11.65,3.26,9.17-.54,22.23-7.82,26.29-4.39,2.45-7.26.07-14.84,3.13-5.84,2.36-5.48,4.31-12.27,8.3-10.6,6.23-14.67,3.34-22.07,9.28-5.56,4.46-3.92,6.6-9.18,10.53-5.87,4.38-15.11,7.08-23.35,4.34-9.76-3.25-12.67-12.29-13.95-16.27-.91-2.83-4.62-14.34,1.52-21.55,4.61-5.41,9.54-2.28,16.88-8.94,4.95-4.5,4.48-7.53,10.81-12.61,2.31-1.85,5.19-4.16,9.4-5.43,7.01-2.12,9.7,1.04,15.58-.98Z"/>
        <path class="cls-2" d="M52.21,102.4c1.83-4.35,8.74-19.41,25.92-30.12,17.38-10.83,33.82-10.08,38.4-9.72-3.6-2.39-10.78-7.87-15.4-17.64-2.69-5.71-3.61-10.95-3.92-14.6-21.96,13.92-43.92,27.83-65.87,41.75,1.54,4.6,4.2,10.89,8.88,17.48,4.12,5.79,8.5,9.99,11.99,12.85Z"/>
        <path class="cls-2" d="M56.63,11.72c5.08-1.75,5.91-5.1,9.73-7.74,10.33-7.14,34.25-3.34,39.59,11.65,3.26,9.17-.54,22.23-7.82,26.29-4.39,2.45-7.26.07-14.84,3.13-5.84,2.36-5.48,4.31-12.27,8.3-10.6,6.23-14.67,3.34-22.07,9.28-5.56,4.46-3.92,6.6-9.18,10.53-5.87,4.38-15.11,7.08-23.35,4.34-9.76-3.25-12.67-12.29-13.95-16.27-.91-2.83-4.62-14.34,1.52-21.55,4.61-5.41,9.54-2.28,16.88-8.94,4.95-4.5,4.48-7.53,10.81-12.61,2.31-1.85,5.19-4.16,9.4-5.43,7.01-2.12,9.7,1.04,15.58-.98Z"/>
        <path class="cls-12" d="M107.78,29.17c-1.05,6.22-4.19,12-8.61,14.47-4.39,2.45-7.26.07-14.84,3.13-5.84,2.36-5.48,4.31-12.27,8.3-10.6,6.23-14.67,3.34-22.07,9.28-5.56,4.46-3.92,6.6-9.18,10.53-5.87,4.38-15.11,7.08-23.35,4.34-2.01-.67-3.73-1.58-5.2-2.65"/>
        <path class="cls-6" d="M82.03,42.61c-.69,3.4-2.2,5.46-3.12,6.5-1.14,1.29-2.44,2.21-5.05,4.06-1.96,1.39-3.5,2.33-3.7,2.45-3.41,2.06-12.1,4.47-23.56,5.59"/>
        <path class="cls-6" d="M17.59,38.7c.93-3.48,2.24-6.17,3.26-7.96,2.32-4.1,5.14-6.8,7.11-9.09.93-1.08,2.09-2.23,3.7-3.51,2.31-1.85,5.19-4.16,9.4-5.43,7.57-2.29,13.67-1.4,15.58-.98,2.64.58,4.69,1.46,6.09,2.17"/>
        <path class="cls-6" d="M108.17,55.66c-1.58.03-3.56.17-5.93.53-7.38,1.14-13.72,3.76-16.52,5.02"/>
        <ellipse class="cls-10" cx="82.03" cy="62.53" rx=".21" ry=".19" transform="translate(-21.11 61.07) rotate(-36.51)"/>
        <g>
          <path class="cls-11" d="M156.56,88.08c.78-.71,2.25-.52,5.18-.15,3.29.42,5.73.63,7.65,2.31,2.39,2.09,2.89,4.68,3.79,9.28.74,3.79,1.55,7.97-.75,11.02-.52.69-1.19,1.13-2.48,2.06-2.6,1.88-4.4,3.18-5.8,2.91-2.26-.44-2.31-4.79-4.58-13.08-2.42-8.85-4.77-12.75-3.01-14.35Z"/>
          <path class="cls-13" d="M172.32,95.44c-.07-.62-.33-2.12-1.51-3.49-1.72-2-4.09-2.2-4.56-2.23"/>
        </g>
        <ellipse id="krop" class="cls-18" cx="114.17" cy="226.51" rx="47.77" ry="73.56"/>
        <path id="ben1_skygge" data-name="ben1 skygge" class="cls-17" d="M110.5,291.24c2.74,14.6,2.4,26.59,1.7,34.34-.61,6.77-2.68,29.67-13.76,38.63-1.49,1.2-5.35,4.33-10.57,4.35,0,0-4.11.01-8.26-2.61"/>
        <path id="ben_1" data-name="ben 1" class="cls-18" d="M108.71,286.02c3.76,17.18,3.19,31.23,2.25,39.93-.73,6.75-3.21,29.57-14.57,38.32-1.52,1.18-5.49,4.23-10.76,4.15,0,0-4.16-.06-8.31-2.75-7.29-4.73-26.15-43.2-20.3-101.73,2.09-20.92,8.8-58.95,34.58-101.35"/>
        <path id="ben2_skygge" data-name="ben2 skygge" class="cls-17" d="M117.15,291.21c-3.3,14.97-3.22,27.32-2.65,35.32.5,6.98,2.19,30.6,13.93,40.07,1.58,1.27,5.67,4.58,11.3,4.7,0,0,4.44.1,8.97-2.51"/>
        <path id="ben_2" data-name="ben 2" class="cls-18" d="M118.22,288.81c-3.76,17.18-3.19,31.23-2.25,39.93.73,6.75,3.21,29.57,14.57,38.32,1.52,1.18,5.49,4.23,10.76,4.15,0,0,4.16-.06,8.31-2.75,7.29-4.73,26.15-43.2,20.3-101.73-2.09-20.92-8.8-58.95-34.58-101.35"/>
        <path id="arm2_skygge" data-name="arm2 skygge" class="cls-17" d="M160.35,208.97c-3-3.11-5.75-6.88-8.03-11.2-6.72-12.72-7.27-26.23-2.13-33.75"/>
        <ellipse id="arm_2" data-name="arm 2" class="cls-18" cx="173.32" cy="158.34" rx="54.59" ry="19.73" transform="translate(-57.56 115.84) rotate(-31.98)"/>
        <path id="arm1_skygge" data-name="arm1 skygge" class="cls-17" d="M62.29,232.83c3-3.11,5.75-6.88,8.03-11.2,6.72-12.72,7.27-26.23,2.13-33.75"/>
        <ellipse id="arm1" class="cls-18" cx="61.64" cy="200.34" rx="47.35" ry="19.73" transform="translate(-135.09 128.01) rotate(-52.71)"/>
        <g>
          <ellipse class="cls-18" cx="225.01" cy="129.75" rx="19.54" ry="10.24" transform="translate(-23.28 53.47) rotate(-12.89)"/>
          <ellipse class="cls-21" cx="219.97" cy="123.66" rx="10.37" ry="5.21" transform="translate(-22.04 52.2) rotate(-12.89)"/>
          <ellipse class="cls-18" cx="219.69" cy="122.41" rx="10.93" ry="4.69" transform="translate(-21.77 52.1) rotate(-12.89)"/>
        </g>
        <g id="hånd_1" data-name="hånd 1">
          <ellipse class="cls-18" cx="31.36" cy="246.93" rx="19.54" ry="10.24" transform="translate(-190.3 133.67) rotate(-55.7)"/>
          <ellipse class="cls-21" cx="28.82" cy="240.9" rx="10.37" ry="5.21" transform="translate(-186.42 128.95) rotate(-55.7)"/>
          <ellipse class="cls-18" cx="28.71" cy="240.15" rx="10.93" ry="4.69" transform="translate(-185.85 128.53) rotate(-55.7)"/>
        </g>
        <g id="fod1">
          <path class="cls-12" d="M105.57,356.53c0-4.22-7.82-7.63-17.46-7.63s-17.46,3.42-17.46,7.63"/>
          <ellipse class="cls-18" cx="88.44" cy="360.05" rx="19.34" ry="11.16"/>
        </g>
        <g id="fod2">
          <path class="cls-12" d="M156.33,356.53c0-4.22-7.82-7.63-17.46-7.63s-17.46,3.42-17.46,7.63"/>
          <ellipse class="cls-18" cx="139.19" cy="360.05" rx="19.34" ry="11.16"/>
        </g>
        <path class="cls-18" d="M34.2,224.61c.55.26.39,1.67.26,2.78-.69,5.69-4.15,11.66-5.56,11.21-1.12-.36-1.01-4.8.34-8.19,1.3-3.26,4.02-6.24,4.96-5.8Z"/>
        <ellipse id="hoved_skygge" data-name="hoved skygge" class="cls-17" cx="104.87" cy="117.77" rx="60.07" ry="54.35" transform="translate(-27.36 31.84) rotate(-15.3)"/>
        <ellipse id="hoved" class="cls-18" cx="104.24" cy="116.36" rx="60.07" ry="54.35" transform="translate(-27.01 31.63) rotate(-15.3)"/>
        <g>
          <g id="glasrim">
            <g id="glasrim-2" data-name="glasrim">
              <g id="glasrim-3" data-name="glasrim">
                <path class="cls-11" d="M124.48,154.49c-11.98,4.57-39.27,12.17-56.82-8.19-8.87-10.3-10.97-22.78-11.23-24.46-3.83-24.51,15.24-41.79,32.99-48.79l29.92,82.49c1.11-.21,2.91-.52,5.14-1.04Z"/>
                <path class="cls-11" d="M129.26,152.53c-1.02.44-2.66,1.16-4.79,1.96-2.24.52-4.03.83-5.14,1.04l-29.92-82.49c1.07-.42,2.12-.81,3.17-1.16,1.1-.36,2.18-.67,3.24-.95l.06.15,33.38,81.44Z"/>
                <path class="cls-11" d="M163.76,117.27c.2,25.6-26.66,34.35-39.29,37.22,2.13-.8,3.77-1.52,4.79-1.96l-33.38-81.44c18.89-4.06,45.92-.7,59.85,20.76.95,1.47,7.92,12.47,8.03,25.42Z"/>
                <path class="cls-11" d="M129.26,152.53c-1.02.44-2.66,1.16-4.79,1.96-2.24.52-4.03.83-5.14,1.04l-29.92-82.49-.06-.15c1.03-.35,2.12-.7,3.23-1,1.07-.29,2.17-.56,3.3-.8l33.38,81.44Z"/>
              </g>
              <line class="cls-11" x1="96.47" y1="72.52" x2="129.26" y2="152.53"/>
              <line class="cls-11" x1="90.11" y1="75.1" x2="119.31" y2="155.46"/>
              <path class="cls-11" d="M104.05,101.58c13.48-4.07,21.97-13.7,18.96-21.51-3.01-7.81-16.39-10.84-29.87-6.76s-21.97,13.7-18.96,21.51c3.01,7.81,16.39,10.84,29.87,6.76Z"/>
              <path class="cls-11" d="M124.91,152.99c13.48-4.07,21.97-13.7,18.96-21.51-3.01-7.81-16.39-10.84-29.87-6.76s-21.97,13.7-18.96,21.51c3.01,7.81,16.39,10.84,29.87,6.76Z"/>
            </g>
            <g id="glasrim-4" data-name="glasrim">
              <path class="cls-11" d="M124.85,158.83c-11.98,4.57-39.27,12.17-56.82-8.19-8.87-10.3-10.97-22.78-11.23-24.46-3.83-24.51,15.24-41.79,32.99-48.79l29.92,82.49c1.11-.21,2.91-.52,5.14-1.04Z"/>
              <path class="cls-11" d="M129.64,156.87c-1.02.44-2.66,1.16-4.79,1.96-2.24.52-4.03.83-5.14,1.04l-29.92-82.49c1.07-.42,2.12-.81,3.17-1.16,1.1-.36,2.18-.67,3.24-.95l.06.15,33.38,81.44Z"/>
              <path class="cls-11" d="M164.14,121.61c.2,25.6-26.66,34.35-39.29,37.22,2.13-.8,3.77-1.52,4.79-1.96l-33.38-81.44c18.89-4.06,45.92-.7,59.85,20.76.95,1.47,7.92,12.47,8.03,25.42Z"/>
              <path class="cls-11" d="M129.64,156.87c-1.02.44-2.66,1.16-4.79,1.96-2.24.52-4.03.83-5.14,1.04l-29.92-82.49-.06-.15c1.03-.35,2.12-.7,3.23-1,1.07-.29,2.17-.56,3.3-.8l33.38,81.44Z"/>
            </g>
            <line class="cls-11" x1="96.85" y1="76.86" x2="129.64" y2="156.87"/>
            <line class="cls-11" x1="90.49" y1="79.44" x2="119.69" y2="159.8"/>
            <path class="cls-11" d="M104.43,105.92c13.48-4.07,21.97-13.7,18.96-21.51-3.01-7.81-16.39-10.84-29.87-6.76-13.48,4.07-21.97,13.7-18.96,21.51,3.01,7.81,16.39,10.84,29.87,6.76Z"/>
            <path class="cls-11" d="M125.29,157.33c13.48-4.07,21.97-13.7,18.96-21.51-3.01-7.81-16.39-10.84-29.87-6.76-13.48,4.07-21.97,13.7-18.96,21.51,3.01,7.81,16.39,10.84,29.87,6.76Z"/>
          </g>
          <g id="glasrim-5" data-name="glasrim">
            <g id="glasrim-6" data-name="glasrim">
              <g id="glasrim-7" data-name="glasrim">
                <path class="cls-11" d="M114.01,134.09c-11.51,4.19-37.54,11.57-52.55-3.34-7.59-7.55-8.7-17.14-8.83-18.44-1.91-18.87,17.1-33.34,34.17-39.74l22.33,62.61c1.05-.22,2.75-.56,4.88-1.09Z"/>
                <path class="cls-11" d="M118.62,132.31c-.99.39-2.57,1.04-4.61,1.78-2.13.52-3.82.86-4.88,1.09l-22.33-62.61c1.03-.39,2.04-.75,3.04-1.07,1.05-.34,2.08-.64,3.09-.91l.04.12,25.63,61.61Z"/>
                <path class="cls-11" d="M153.28,103.02c-1.56,19.92-27.26,28.16-39.26,31.07,2.04-.74,3.62-1.38,4.61-1.78l-25.63-61.61c17.93-4.17,42.97-3,54.52,12.96.79,1.09,6.55,9.29,5.77,19.36Z"/>
                <path class="cls-11" d="M118.62,132.31c-.99.39-2.57,1.04-4.61,1.78-2.13.52-3.82.86-4.88,1.09l-22.33-62.61-.04-.12c.99-.33,2.02-.65,3.09-.95,1.02-.29,2.07-.55,3.14-.8l25.63,61.61Z"/>
              </g>
              <line class="cls-11" x1="93.44" y1="71.78" x2="118.62" y2="132.31"/>
              <line class="cls-11" x1="87.32" y1="74.13" x2="109.12" y2="135.12"/>
              <path class="cls-11" d="M98.54,94c12.88-3.89,21.47-11.84,19.19-17.76s-14.58-7.56-27.46-3.67c-12.88,3.89-21.47,11.84-19.19,17.76,2.28,5.92,14.58,7.56,27.46,3.67Z"/>
              <path class="cls-11" d="M114.52,132.9c12.88-3.89,21.47-11.84,19.19-17.76-2.28-5.92-14.58-7.56-27.46-3.67-12.88,3.89-21.47,11.84-19.19,17.76,2.28,5.92,14.58,7.56,27.46,3.67Z"/>
            </g>
            <g id="glasrim-8" data-name="glasrim">
              <path class="cls-11" d="M114.07,137.44c-11.51,4.19-37.54,11.57-52.55-3.34-7.59-7.55-8.7-17.14-8.83-18.44-1.91-18.87,17.1-33.34,34.17-39.74l22.33,62.61c1.05-.22,2.75-.56,4.88-1.09Z"/>
              <path class="cls-11" d="M118.68,135.67c-.99.39-2.57,1.04-4.61,1.78-2.13.52-3.82.86-4.88,1.09l-22.33-62.61c1.03-.39,2.04-.75,3.04-1.07,1.05-.34,2.08-.64,3.09-.91l.04.12,25.63,61.61Z"/>
              <path class="cls-11" d="M153.33,106.37c-1.56,19.92-27.26,28.16-39.26,31.07,2.04-.74,3.62-1.38,4.61-1.78l-25.63-61.61c17.93-4.17,42.97-3,54.52,12.96.79,1.09,6.55,9.29,5.77,19.36Z"/>
              <path class="cls-11" d="M118.68,135.67c-.99.39-2.57,1.04-4.61,1.78-2.13.52-3.82.86-4.88,1.09l-22.33-62.61-.04-.12c.99-.33,2.02-.65,3.09-.95,1.02-.29,2.07-.55,3.14-.8l25.63,61.61Z"/>
            </g>
            <line class="cls-11" x1="93.5" y1="75.14" x2="118.68" y2="135.67"/>
            <line class="cls-11" x1="87.37" y1="77.49" x2="109.17" y2="138.48"/>
            <path class="cls-11" d="M98.59,97.35c12.88-3.89,21.47-11.84,19.19-17.76s-14.58-7.56-27.46-3.67c-12.88,3.89-21.47,11.84-19.19,17.76,2.28,5.92,14.58,7.56,27.46,3.67Z"/>
            <path class="cls-11" d="M114.58,136.25c12.88-3.89,21.47-11.84,19.19-17.76-2.28-5.92-14.58-7.56-27.46-3.67-12.88,3.89-21.47,11.84-19.19,17.76,2.28,5.92,14.58,7.56,27.46,3.67Z"/>
          </g>
        </g>
        <g id="glas">
          <path class="cls-20" d="M125.34,156.47c-11.73,4.61-38.56,12.26-56.67-8.45-9.16-10.48-11.67-23.14-11.98-24.84-4.64-24.88,13.69-42.37,31.06-49.44l32.52,83.78c1.1-.21,2.87-.52,5.07-1.05Z"/>
          <path class="cls-20" d="M130.02,154.5c-1,.44-2.6,1.17-4.69,1.97-2.2.52-3.97.84-5.07,1.05l-32.52-83.78c1.05-.43,2.08-.82,3.11-1.17,1.08-.36,2.14-.68,3.18-.96l.06.15,35.92,82.72Z"/>
          <path class="cls-20" d="M163.05,118.79c-.48,4.06-1.36,18.48-13.79,27.5-8.01,5.81-17.7,8.74-23.92,10.17,2.08-.81,3.68-1.53,4.69-1.97l-35.92-82.72c27.74-6.43,53.68,2.28,63.77,19.84,6.83,11.89,5.32,25.96,5.17,27.18Z"/>
          <path class="cls-20" d="M149.63,146.02c-5.68,3.73-12.12,7.23-19.37,10.17-1.45.59-2.9,1.14-4.34,1.66-1.73.56-3.54,1.07-5.44,1.54-6.3,1.53-12.33,2.17-17.82,2.28-8.25-27.6-16.5-55.2-24.75-82.8h0c4.99-3.3,9.55-5.18,12.94-6.3,3.16-1.04,5.6-1.52,6.12-1.62,5.63-1.08,10.58-.94,14.09-.6,12.85,25.22,25.71,50.45,38.56,75.67Z"/>
        </g>
        <path class="cls-18" d="M145.81,86.56c.17-.42-6.77-6.71-16.18-10.06-9.07-3.23-16.75-2.42-16.71-1.94.04.43,6.28.45,15.52,3.65,10.6,3.67,17.21,8.76,17.37,8.36Z"/>
        <ellipse class="cls-18" cx="148.38" cy="89.86" rx=".74" ry="1.01" transform="translate(-21.51 54.8) rotate(-19.54)"/>
        <path class="cls-22" d="M141.83,140.18c-.85-4.1-3.45-16.99-3.21-17.03.55-.08,3.74,16.82,3.21,17.03-.4.16-4.32-8.64-3.21-17.03.84-6.35,4.45-11.65,6.77-10.84.94.33,2.92,2.1,2.92,2.1-.45-8.51,1.21-14.53,1.21-14.53.67-2.41,1.55-5.62,3.1-5.72,2.58-.16,5.21,8.06,5.79,9.86.1.31.26.81.45,1.46,5.39,17.98-.28,30.04-.28,30.04-2.01,4.4-4.55,6.48-6.49,8.07-2.37,1.94-5.8,4.75-8.11,2.62-1.08-.99-1.45-2.64-2.15-6.03Z"/>
        <g>
          <ellipse class="cls-11" cx="32.53" cy="134.63" rx="7.19" ry="13.45" transform="translate(-30.76 11.43) rotate(-13.61)"/>
          <path class="cls-11" d="M25.33,135.47c1.03,5.58,5.19,11.16,10.36,12.23,1.62.34,1.62-.13,10.9-1.77,6.01-1.06,6.83-.94,7.66-1.93,1.96-2.33-.37-5.51-2.17-14.47-1.81-9.03-.79-12.57-3.37-13.93-.83-.43-1.66-.46-10.08,2.33-8.07,2.67-8.74,3.17-9.27,3.63-3.83,3.37-4.89,9.26-4.03,13.91Z"/>
          <path class="cls-13" d="M29.4,121.23c1.79.97,6.27,3.71,8.37,9.01,3.42,8.62-2.38,16.58-3.12,17.57"/>
          <path class="cls-13" d="M47.86,116.06c-1.6.32-3.53.79-5.65,1.51-2.4.82-4.39,1.73-5.95,2.54"/>
          <circle class="cls-8" cx="33.4" cy="121.6" r=".26"/>
        </g>
        <ellipse class="cls-2" cx="66.09" cy="232.04" rx=".74" ry=".37"/>
        <g id="bælte">
          <path class="cls-5" d="M63.49,252.52c1.56.69,4.2,1.82,6.88,2.8,3.34,1.23,15.26,4.51,31.85,6.54h14.24c.07-5.35.2-10.69.25-16.04h-15.19c-9.81,0-19.55-2.11-28.77-6.22-2.58-.93-5.17-1.85-7.75-2.78"/>
          <polygon class="cls-19" points="88.29 246.55 80.97 244.96 80.39 247.8 87.7 249.39 88.29 246.55"/>
          <path class="cls-14" d="M133.15,245.8c-.41,0-.82.02-1.23.02h-15.19c.06,5.35.19,10.69.25,16.04h14.24c.84,0,1.68-.04,2.51-.06-.3-5.33-.5-10.66-.59-16Z"/>
          <rect class="cls-15" x="115.89" y="246.51" width="2.25" height="14.65"/>
          <rect class="cls-23" x="115.27" y="245.83" width="4.07" height="16.04"/>
          <path class="cls-4" d="M89.62,246.7l-1.02,11.18c-.03.37-.46.63-.88.52l-8.78-2.17c-.31-.08-.51-.33-.47-.61l1.53-10.75c.08-.55.93-.72,1.26-.24l2.31,3.41c.18.27.59.36.92.2l4.13-2.06c.47-.23,1.04.07,1,.52Z"/>
          <line class="cls-16" x1="80.58" y1="244.34" x2="89.42" y2="246.39"/>
          <path class="cls-1" d="M117.9,261.87h-6.99c-.45-.07-1.36-.29-2.28-1.06-.88-.73-1.32-1.6-1.52-2.06-.41-.83-1.09-2.47-1.18-4.67-.1-2.26.47-4,.82-4.86.26-.54.83-1.53,1.89-2.34.9-.69,1.77-.95,2.28-1.06h6.98"/>
          <path class="cls-1" d="M113.87,261.87h6.99c.45-.07,1.36-.29,2.28-1.06.88-.73,1.32-1.6,1.52-2.06.41-.83,1.09-2.47,1.18-4.67.1-2.26-.47-4-.82-4.86-.26-.54-.83-1.53-1.89-2.34-.9-.69-1.77-.95-2.28-1.06h-6.98"/>
          <path class="cls-9" d="M123.66,250.47c-.21-.45-.59-1.12-1.28-1.74-1.14-1.02-2.41-1.25-2.93-1.31"/>
          <rect class="cls-23" x="131.26" y="246.51" width="4.98" height="14.65"/>
          <path class="cls-5" d="M163.85,254.02c-1.52.78-2.69,1.27-2.86,1.34-13.89,5.77-27.26,6.44-27.26,6.44-.99.05-2.59.11-4.6.09h-14.24c-.07-5.35-.2-10.69-.25-16.04h15.19c9.81,0,19.55-2.11,28.77-6.22,1.09-.62,2.18-1.23,3.26-1.85"/>
          <path class="cls-5" d="M158.6,239.64l3.26-1.85c.61-.51,2.1-1.63,3.55-1.24,1.87.5,2.47,3.19,3.08,5.86.65,2.87,1.15,5.05.01,7.43-1.25,2.63-3.69,3.79-4.65,4.19"/>
          <path class="cls-5" d="M101.91,245.86c.02.17.04.35.05.53.21,5.24,1.11,10.27.83,15.51h11.6c.07-5.35.2-10.69.25-16.04h-12.73Z"/>
          <rect class="cls-15" x="113.23" y="246.54" width="2.25" height="14.65" transform="translate(228.71 507.73) rotate(-180)"/>
          <rect class="cls-23" x="112.02" y="245.86" width="4.07" height="16.04" transform="translate(228.12 507.75) rotate(-180)"/>
          <path class="cls-3" d="M113.47,261.9h6.99c.45-.07,1.36-.29,2.28-1.06.88-.73,1.32-1.6,1.52-2.06.41-.83,1.09-2.47,1.18-4.67.1-2.26-.47-4-.82-4.86-.26-.54-.83-1.53-1.89-2.34-.9-.69-1.77-.95-2.28-1.06h-6.98"/>
          <path class="cls-3" d="M117.49,261.9h-6.99c-.45-.07-1.36-.29-2.28-1.06-.88-.73-1.32-1.6-1.52-2.06-.41-.83-1.09-2.47-1.18-4.67-.1-2.26.47-4,.82-4.86.26-.54.83-1.53,1.89-2.34.9-.69,1.77-.95,2.28-1.06h6.98"/>
          <path class="cls-9" d="M123.1,250.47c-.21-.45-.59-1.12-1.28-1.74-1.14-1.02-2.41-1.25-2.93-1.31"/>
          <path class="cls-5" d="M66.36,237.36c-1.08-.54-2.15-1.08-3.23-1.62-.37-.18-.9-.36-1.45-.22-1.89.46-2.41,4.17-2.74,6.49-.5,3.56-.77,5.42.39,7.37,1.41,2.38,3.93,3.21,4.89,3.47"/>
          <path class="cls-10" d="M101.37,245.84c-.03,2.67.18,4.79.37,6.23.29,2.16.63,3.44.7,5.73.06,1.72-.06,3.12-.17,4.02"/>
          <path class="cls-10" d="M129.62,245.87c.03,2.67-.18,4.79-.37,6.23-.29,2.16-.63,3.44-.7,5.73-.06,1.72.06,3.12.17,4.02"/>
          <path class="cls-10" d="M129.08,245.9c.03,2.67-.18,4.79-.37,6.23-.29,2.16-.63,3.44-.7,5.73-.06,1.72.06,3.12.17,4.02"/>
          <path class="cls-7" d="M164.57,239.72c.18.35.37.8.55,1.38.5,1.63.55,3.28.55,4.14"/>
          <circle class="cls-18" cx="165.76" cy="247.77" r=".71"/>
        </g>
        <path class="cls-6" d="M48.59,99.19c2.74-5.9,10.33-20.07,26.49-29.21,2.79-1.58,12.07-6.53,25.21-7.95,6.9-.75,12.74-.29,16.91.32"/>
      </g>
    </g>
  </g>
</svg>