<?xml version="1.0" encoding="UTF-8"?>
<svg id="Layer_2" data-name="Layer 2" xmlns="http://www.w3.org/2000/svg" viewBox="0 0 230.95 371.59">
  <defs>
    <style>
      .cls-1 {
        stroke: #e5dede;
      }

      .cls-1, .cls-2, .cls-3, .cls-4, .cls-5, .cls-6, .cls-7, .cls-8, .cls-9, .cls-10, .cls-11, .cls-12, .cls-13, .cls-14, .cls-15 {
        stroke-miterlimit: 10;
      }

      .cls-1, .cls-3, .cls-4, .cls-5, .cls-6, .cls-7, .cls-8, .cls-9, .cls-12, .cls-13, .cls-15 {
        stroke-linecap: round;
      }

      .cls-1, .cls-3, .cls-8, .cls-9, .cls-10, .cls-16 {
        fill: #eee4da;
      }

      .cls-2, .cls-6, .cls-7, .cls-8, .cls-12 {
        stroke: #fdf0e5;
      }

      .cls-2, .cls-17 {
        fill: #fdf0e5;
      }

      .cls-3 {
        stroke: #d5cfcf;
      }

      .cls-4, .cls-7, .cls-18 {
        fill: #6d9bca;
      }

      .cls-4, .cls-15 {
        stroke: #3c735b;
      }

      .cls-19 {
        fill: #151515;
      }

      .cls-19, .cls-20, .cls-17, .cls-21, .cls-18, .cls-22, .cls-16 {
        stroke-width: 0px;
      }

      .cls-5 {
        fill: #438066;
      }

      .cls-5, .cls-9, .cls-10, .cls-11, .cls-13, .cls-14 {
        stroke: #eee4da;
      }

      .cls-20 {
        fill: #f1e4da;
      }

      .cls-6, .cls-11, .cls-12 {
        fill: none;
      }

      .cls-21 {
        fill: #363636;
      }

      .cls-7, .cls-12 {
        opacity: .5;
      }

      .cls-22, .cls-13, .cls-14 {
        fill: #f39547;
      }

      .cls-15 {
        fill: #392851;
      }
    </style>
  </defs>
  <g id="Layer_16" data-name="Layer 16">
    <g id="Mini:_Kig_op_arme_nede" data-name="Mini: Kig op, arme nede">
      <g id="kigge_op_arme_nede_mini_" data-name="kigge op, arme nede (mini)">
        <ellipse id="krop" class="cls-17" cx="115.64" cy="198.42" rx="57.13" ry="87.98"/>
        <path id="ben1_skygge" data-name="ben1 skygge" class="cls-16" d="M111.25,275.84c3.27,17.46,2.88,31.8,2.04,41.07-.73,8.1-3.21,35.48-16.45,46.2-1.78,1.44-6.4,5.18-12.64,5.2,0,0-4.92.01-9.87-3.12"/>
        <path id="ben_1" data-name="ben 1" class="cls-17" d="M109.11,269.59c4.49,20.54,3.82,37.35,2.69,47.75-.88,8.07-3.84,35.36-17.42,45.83-1.82,1.41-6.56,5.06-12.87,4.97,0,0-4.98-.07-9.94-3.29-8.72-5.66-31.28-51.67-24.28-121.66,2.5-25.02,10.52-70.5,41.35-121.21"/>
        <path id="ben2_skygge" data-name="ben2 skygge" class="cls-16" d="M119.21,275.81c-3.95,17.9-3.85,32.67-3.17,42.24.6,8.35,2.62,36.6,16.65,47.92,1.88,1.52,6.78,5.47,13.51,5.63,0,0,5.31.12,10.73-3"/>
        <path id="ben_2" data-name="ben 2" class="cls-17" d="M120.49,272.93c-4.49,20.54-3.82,37.35-2.69,47.75.88,8.07,3.84,35.36,17.42,45.83,1.82,1.41,6.56,5.06,12.87,4.97,0,0,4.98-.07,9.94-3.29,8.72-5.66,31.28-51.67,24.28-121.66-2.5-25.02-10.52-70.5-41.35-121.21"/>
        <path id="arm2_skygge" data-name="arm2 skygge" class="cls-16" d="M170.87,177.45c-3.59-3.72-6.88-8.23-9.61-13.39-8.04-15.21-8.7-31.36-2.54-40.37"/>
        <ellipse id="arm_2" data-name="arm 2" class="cls-17" cx="170.54" cy="154.57" rx="23.6" ry="65.28" transform="translate(-59.62 153.32) rotate(-41.88)"/>
        <path id="arm1_skygge" data-name="arm1 skygge" class="cls-16" d="M53.6,205.99c3.59-3.72,6.88-8.23,9.61-13.39,8.04-15.21,8.7-31.36,2.54-40.37"/>
        <ellipse id="arm1" class="cls-17" cx="52.82" cy="167.12" rx="56.63" ry="23.6" transform="translate(-112.15 107.9) rotate(-52.71)"/>
        <g>
          <ellipse class="cls-17" cx="214.94" cy="209.82" rx="12.25" ry="23.36" transform="translate(-77.61 141.72) rotate(-31.21)"/>
          <ellipse class="cls-20" cx="219.97" cy="201.81" rx="6.23" ry="12.41" transform="translate(-72.73 143.17) rotate(-31.21)"/>
          <ellipse class="cls-17" cx="221.28" cy="201.01" rx="5.61" ry="13.07" transform="translate(-72.13 143.74) rotate(-31.21)"/>
        </g>
        <g id="hånd_1" data-name="hånd 1">
          <ellipse class="cls-17" cx="16.61" cy="222.85" rx="23.36" ry="12.25" transform="translate(-176.84 110.97) rotate(-55.7)"/>
          <ellipse class="cls-20" cx="13.57" cy="215.63" rx="12.41" ry="6.23" transform="translate(-172.21 105.32) rotate(-55.7)"/>
          <ellipse class="cls-17" cx="13.44" cy="214.74" rx="13.07" ry="5.61" transform="translate(-171.53 104.82) rotate(-55.7)"/>
        </g>
        <g id="fod1">
          <path class="cls-11" d="M105.36,353.92c0-5.04-9.35-9.13-20.89-9.13s-20.89,4.09-20.89,9.13"/>
          <ellipse class="cls-17" cx="84.87" cy="358.13" rx="23.13" ry="13.35"/>
        </g>
        <g id="fod2">
          <path class="cls-11" d="M166.06,353.92c0-5.04-9.35-9.13-20.89-9.13s-20.89,4.09-20.89,9.13"/>
          <ellipse class="cls-17" cx="145.57" cy="358.13" rx="23.13" ry="13.35"/>
        </g>
        <path class="cls-17" d="M20,196.15c.66.31.47,1.99.31,3.33-.83,6.8-4.97,13.95-6.65,13.41-1.34-.43-1.2-5.74.41-9.8,1.55-3.9,4.81-7.47,5.93-6.94Z"/>
        <path class="cls-10" d="M156.84,25.57c.77-1,2.53-1.09,6.06-1.27,3.96-.2,6.88-.46,9.49,1.11,3.25,1.95,4.39,4.89,6.41,10.12,1.67,4.31,3.51,9.06,1.44,13.13-.47.92-1.16,1.58-2.48,2.95-2.67,2.76-4.51,4.68-6.21,4.65-2.75-.04-3.73-5.15-8.15-14.44-4.71-9.91-8.31-14-6.57-16.26Z"/>
        <ellipse id="hoved_skygge" data-name="hoved skygge" class="cls-16" cx="104.68" cy="67.66" rx="71.84" ry="64.99" transform="translate(-18.06 45.96) rotate(-22.85)"/>
        <ellipse id="hoved" class="cls-17" cx="103.7" cy="66.09" rx="71.84" ry="64.99" transform="translate(-17.53 45.46) rotate(-22.85)"/>
        <g>
          <g id="glasrim">
            <g id="glasrim-2" data-name="glasrim">
              <g id="glasrim-3" data-name="glasrim">
                <path class="cls-10" d="M139.2,108.64c-12,6.19-39.58,17.05-59.22-5.12-9.93-11.22-13.05-25.46-13.44-27.38-5.81-28,12.54-49.41,30.31-58.85l37.12,92.94c1.13-.33,2.96-.83,5.22-1.6Z"/>
                <path class="cls-10" d="M143.99,106.01c-1.02.58-2.66,1.54-4.79,2.62-2.27.77-4.09,1.27-5.22,1.6L96.86,17.29c1.07-.57,2.13-1.1,3.18-1.58,1.1-.5,2.19-.94,3.27-1.34l.07.17,40.61,91.47Z"/>
                <path class="cls-10" d="M176.89,62.67c2.15,29.54-24.88,41.69-37.69,45.96,2.13-1.08,3.77-2.04,4.79-2.62L103.38,14.54c19.17-6.13,47.31-4.32,63.3,19.4,1.09,1.62,9.12,13.8,10.21,28.74Z"/>
                <path class="cls-10" d="M143.99,106.01c-1.02.58-2.66,1.54-4.79,2.62-2.27.77-4.09,1.27-5.22,1.6L96.86,17.29l-.07-.17c1.04-.49,2.13-.96,3.26-1.41,1.08-.42,2.19-.81,3.34-1.17l40.61,91.47Z"/>
              </g>
              <line class="cls-10" x1="104.1" y1="16.15" x2="143.99" y2="106.01"/>
              <line class="cls-10" x1="97.73" y1="19.61" x2="133.95" y2="110.16"/>
              <ellipse class="cls-10" cx="107.42" cy="33.22" rx="26.71" ry="17.26" transform="translate(-4.47 44.32) rotate(-22.85)"/>
              <ellipse class="cls-10" cx="132.83" cy="90.97" rx="26.71" ry="17.26" transform="translate(-24.9 58.73) rotate(-22.85)"/>
            </g>
            <g id="glasrim-4" data-name="glasrim">
              <path class="cls-10" d="M139.92,113.62c-12,6.19-39.58,17.05-59.22-5.12-9.93-11.22-13.05-25.46-13.44-27.38-5.81-28,12.54-49.41,30.31-58.85l37.12,92.94c1.13-.33,2.96-.83,5.22-1.6Z"/>
              <path class="cls-10" d="M144.71,110.99c-1.02.58-2.66,1.54-4.79,2.62-2.27.77-4.09,1.27-5.22,1.6L97.58,22.27c1.07-.57,2.13-1.1,3.18-1.58,1.1-.5,2.19-.94,3.27-1.34l.07.17,40.61,91.47Z"/>
              <path class="cls-10" d="M177.61,67.65c2.15,29.54-24.88,41.69-37.69,45.96,2.13-1.08,3.77-2.04,4.79-2.62L104.1,19.52c19.17-6.13,47.31-4.32,63.3,19.4,1.09,1.62,9.12,13.8,10.21,28.74Z"/>
              <path class="cls-10" d="M144.71,110.99c-1.02.58-2.66,1.54-4.79,2.62-2.27.77-4.09,1.27-5.22,1.6L97.58,22.27l-.07-.17c1.04-.49,2.13-.96,3.26-1.41,1.08-.42,2.19-.81,3.34-1.17l40.61,91.47Z"/>
            </g>
            <line class="cls-10" x1="104.82" y1="21.13" x2="144.71" y2="110.99"/>
            <line class="cls-10" x1="98.45" y1="24.59" x2="134.67" y2="115.14"/>
            <ellipse class="cls-10" cx="108.14" cy="38.2" rx="26.71" ry="17.26" transform="translate(-6.35 44.99) rotate(-22.85)"/>
            <ellipse class="cls-10" cx="133.55" cy="95.95" rx="26.71" ry="17.26" transform="translate(-26.78 59.4) rotate(-22.85)"/>
          </g>
          <g id="glasrim-5" data-name="glasrim">
            <g id="glasrim-6" data-name="glasrim">
              <g id="glasrim-7" data-name="glasrim">
                <path class="cls-10" d="M126.86,85.88c-11.55,5.72-37.83,16.22-54.44.15-8.4-8.13-10.28-19.13-10.5-20.61-3.4-21.64,15.1-39.8,32.21-48.49l27.79,70.57c1.07-.34,2.79-.86,4.95-1.63Z"/>
                <path class="cls-10" d="M131.48,83.48c-.99.53-2.57,1.4-4.62,2.41-2.15.77-3.88,1.29-4.95,1.63l-27.79-70.57c1.03-.52,2.05-1.02,3.06-1.47,1.06-.47,2.1-.9,3.12-1.29l.05.13,31.12,69.17Z"/>
                <path class="cls-10" d="M164.99,47.02c-.1,23.12-25.97,34.59-38.13,38.86,2.05-1.01,3.63-1.87,4.62-2.41L100.36,14.31c18.17-6.18,44.09-6.74,57.21,10.8.9,1.2,7.46,10.22,7.42,21.91Z"/>
                <path class="cls-10" d="M131.48,83.48c-.99.53-2.57,1.4-4.62,2.41-2.15.77-3.88,1.29-4.95,1.63l-27.79-70.57-.05-.13c1-.46,2.04-.91,3.11-1.34,1.03-.41,2.09-.79,3.18-1.16l31.12,69.17Z"/>
              </g>
              <line class="cls-10" x1="100.91" y1="15.52" x2="131.48" y2="83.48"/>
              <line class="cls-10" x1="94.77" y1="18.7" x2="121.89" y2="87.45"/>
              <ellipse class="cls-10" cx="102.78" cy="28.73" rx="25.52" ry="13.08" transform="translate(-3.09 42.17) rotate(-22.85)"/>
              <ellipse class="cls-10" cx="122.22" cy="72.42" rx="25.52" ry="13.08" transform="translate(-18.53 53.15) rotate(-22.85)"/>
            </g>
            <g id="glasrim-8" data-name="glasrim">
              <path class="cls-10" d="M127.18,89.76c-11.55,5.72-37.83,16.22-54.44.15-8.4-8.13-10.28-19.13-10.5-20.61-3.4-21.64,15.1-39.8,32.21-48.49l27.79,70.57c1.07-.34,2.79-.86,4.95-1.63Z"/>
              <path class="cls-10" d="M131.79,87.35c-.99.53-2.57,1.4-4.62,2.41-2.15.77-3.88,1.29-4.95,1.63l-27.79-70.57c1.03-.52,2.05-1.02,3.06-1.47,1.06-.47,2.1-.9,3.12-1.29l.05.13,31.12,69.17Z"/>
              <path class="cls-10" d="M165.3,50.89c-.1,23.12-25.97,34.59-38.13,38.86,2.05-1.01,3.63-1.87,4.62-2.41l-31.12-69.17c18.17-6.18,44.09-6.74,57.21,10.8.9,1.2,7.46,10.22,7.42,21.91Z"/>
              <path class="cls-10" d="M131.79,87.35c-.99.53-2.57,1.4-4.62,2.41-2.15.77-3.88,1.29-4.95,1.63l-27.79-70.57-.05-.13c1-.46,2.04-.91,3.11-1.34,1.03-.41,2.09-.79,3.18-1.16l31.12,69.17Z"/>
            </g>
            <line class="cls-10" x1="101.22" y1="19.4" x2="131.79" y2="87.35"/>
            <line class="cls-10" x1="95.09" y1="22.58" x2="122.2" y2="91.32"/>
            <ellipse class="cls-10" cx="103.09" cy="32.6" rx="25.52" ry="13.08" transform="translate(-4.57 42.59) rotate(-22.85)"/>
            <ellipse class="cls-10" cx="122.53" cy="76.29" rx="25.52" ry="13.08" transform="translate(-20.01 53.57) rotate(-22.85)"/>
          </g>
        </g>
        <g id="glas">
          <path class="cls-19" d="M144.61,107.4c-11.6,7.32-38.58,20.66-60.83-.98-11.25-10.95-15.86-25.54-16.45-27.51-8.75-28.72,7.78-52.36,24.93-63.49l47.2,94.03c1.12-.42,2.93-1.08,5.16-2.05Z"/>
          <path class="cls-19" d="M149.22,104.32c-.98.68-2.55,1.8-4.61,3.08-2.23.97-4.04,1.62-5.16,2.05L92.25,15.42c1.03-.67,2.06-1.3,3.08-1.88,1.07-.6,2.14-1.14,3.19-1.64l.09.17,50.6,92.24Z"/>
          <path class="cls-19" d="M178.35,56.77c5.18,30.6-21.13,45.24-33.74,50.63,2.06-1.29,3.63-2.4,4.61-3.08L98.62,12.07c18.9-7.79,47.74-7.97,66.43,15.53,1.28,1.61,10.68,13.69,13.3,29.17Z"/>
          <path class="cls-19" d="M168.5,91.16c-5.39,5.32-11.6,10.49-18.76,15.13-1.44.93-2.87,1.82-4.3,2.65-1.73.94-3.55,1.84-5.48,2.69-6.38,2.82-12.61,4.53-18.36,5.54-12.96-31.37-25.92-62.74-38.88-94.11h0c4.73-4.7,9.23-7.66,12.61-9.52,3.15-1.73,5.64-2.69,6.17-2.89,5.74-2.18,10.97-2.8,14.71-2.96,17.43,27.82,34.85,55.64,52.28,83.46Z"/>
        </g>
        <ellipse class="cls-17" cx="157.99" cy="23.67" rx=".84" ry="1.18" transform="translate(7.1 76.15) rotate(-27.7)"/>
        <path class="cls-21" d="M159.39,85.49c-1.53-4.72-6.27-19.57-6.02-19.65.57-.18,6.55,19.32,6.02,19.65-.4.25-5.88-9.55-6.02-19.65-.11-7.65,2.86-14.51,5.43-13.92,1.04.24,3.39,2.02,3.39,2.02-1.8-10.01-.99-17.39-.99-17.39.33-2.96.75-6.9,2.37-7.26,2.69-.6,6.73,8.72,7.61,10.75.15.36.4.92.7,1.66,8.46,20.44,4.38,35.61,4.38,35.61-1.43,5.53-3.77,8.4-5.56,10.59-2.19,2.68-5.36,6.55-8.11,4.39-1.28-1.01-1.94-2.9-3.2-6.8Z"/>
        <path class="cls-12" d="M176.95,30.91c-.21-.71-.83-2.42-2.51-3.79-2.44-1.99-5.27-1.72-5.84-1.66"/>
        <ellipse class="cls-10" cx="33" cy="89.07" rx="8.6" ry="16.08" transform="translate(-32 19.81) rotate(-22.85)"/>
        <path class="cls-10" d="M24.67,91.44c2.29,6.39,8.27,12.18,14.57,12.45,1.98.08,1.89-.46,12.52-4.18,6.89-2.41,7.88-2.42,8.67-3.75,1.87-3.13-1.5-6.43-5.34-16.67-3.87-10.31-3.35-14.69-6.66-15.79-1.06-.35-2.05-.22-11.45,4.69-9.01,4.7-9.71,5.42-10.24,6.06-3.88,4.72-3.99,11.87-2.08,17.19Z"/>
        <path class="cls-12" d="M26.73,73.85c2.3.8,8.11,3.18,11.62,9.03,5.69,9.51.38,20.03-.31,21.34"/>
        <path class="cls-12" d="M47.54,64.19c-1.83.68-4.01,1.61-6.38,2.87-2.67,1.42-4.85,2.88-6.54,4.14"/>
        <circle class="cls-7" cx="31.53" cy="73.51" r=".31"/>
        <ellipse class="cls-2" cx="58.14" cy="205.04" rx=".88" ry=".44"/>
        <g id="bælte">
          <path class="cls-5" d="M55.03,229.54c1.87.83,5.02,2.17,8.23,3.35,4,1.47,18.25,5.39,38.1,7.82h17.03c.08-6.4.23-12.79.3-19.18h-18.16c-11.74,0-23.38-2.52-34.41-7.44-3.09-1.11-6.18-2.22-9.27-3.33"/>
          <polygon class="cls-18" points="84.69 222.39 75.94 220.49 75.24 223.88 83.99 225.78 84.69 222.39"/>
          <path class="cls-13" d="M138.34,221.5c-.49,0-.98.03-1.48.03h-18.16c.07,6.4.23,12.79.3,19.18h17.03c1,0,2.01-.04,3.01-.08-.36-6.37-.59-12.75-.7-19.13Z"/>
          <rect class="cls-14" x="117.69" y="222.34" width="2.69" height="17.53"/>
          <rect class="cls-22" x="116.96" y="221.52" width="4.87" height="19.18"/>
          <path class="cls-4" d="M86.29,222.57l-1.22,13.38c-.04.44-.55.75-1.05.63l-10.5-2.6c-.37-.09-.6-.4-.56-.73l1.82-12.86c.09-.66,1.12-.86,1.5-.29l2.76,4.07c.22.32.71.43,1.09.24l4.94-2.47c.56-.28,1.25.08,1.2.63Z"/>
          <line class="cls-15" x1="75.47" y1="219.75" x2="86.05" y2="222.2"/>
          <path class="cls-1" d="M120.1,240.71h-8.36c-.53-.09-1.63-.35-2.72-1.26-1.05-.88-1.58-1.92-1.82-2.46-.49-.99-1.3-2.95-1.41-5.58-.11-2.7.56-4.78.98-5.82.31-.64.99-1.83,2.25-2.8,1.08-.82,2.11-1.14,2.73-1.27h8.35"/>
          <path class="cls-1" d="M115.29,240.71h8.36c.53-.09,1.63-.35,2.72-1.26,1.05-.88,1.58-1.92,1.82-2.46.49-.99,1.3-2.95,1.41-5.58.11-2.7-.56-4.78-.98-5.82-.31-.64-.99-1.83-2.25-2.8-1.08-.82-2.11-1.14-2.73-1.27h-8.35"/>
          <path class="cls-8" d="M126.99,227.07c-.25-.53-.71-1.34-1.53-2.08-1.37-1.23-2.88-1.49-3.5-1.57"/>
          <rect class="cls-22" x="136.08" y="222.34" width="5.96" height="17.53"/>
          <path class="cls-5" d="M175.06,231.33c-1.82.93-3.22,1.51-3.42,1.6-16.61,6.9-32.6,7.71-32.6,7.71-1.18.06-3.1.13-5.5.11h-17.03c-.08-6.4-.23-12.79-.3-19.18h18.16c11.74,0,23.38-2.52,34.41-7.44,1.3-.74,2.6-1.47,3.9-2.21"/>
          <path class="cls-5" d="M168.78,214.12l3.9-2.21c.73-.61,2.51-1.95,4.24-1.48,2.23.6,2.96,3.82,3.68,7.01.78,3.43,1.37,6.04.01,8.89-1.5,3.14-4.41,4.53-5.56,5.01"/>
          <path class="cls-5" d="M100.99,221.56c.02.21.05.42.06.64.25,6.27,1.33,12.28.99,18.55h13.87c.08-6.4.23-12.79.3-19.18h-15.22Z"/>
          <rect class="cls-14" x="114.52" y="222.38" width="2.69" height="17.53" transform="translate(231.73 462.28) rotate(-180)"/>
          <rect class="cls-22" x="113.07" y="221.56" width="4.87" height="19.18" transform="translate(231.02 462.31) rotate(-180)"/>
          <path class="cls-3" d="M114.8,240.74h8.36c.53-.09,1.63-.35,2.72-1.26,1.05-.88,1.58-1.92,1.82-2.46.49-.99,1.3-2.95,1.41-5.58.11-2.7-.56-4.78-.98-5.82-.31-.64-.99-1.83-2.25-2.8-1.08-.82-2.11-1.14-2.73-1.27h-8.35"/>
          <path class="cls-3" d="M119.62,240.74h-8.36c-.53-.09-1.63-.35-2.72-1.26-1.05-.88-1.58-1.92-1.82-2.46-.49-.99-1.3-2.95-1.41-5.58-.11-2.7.56-4.78.98-5.82.31-.64.99-1.83,2.25-2.8,1.08-.82,2.11-1.14,2.73-1.27h8.35"/>
          <path class="cls-8" d="M126.32,227.07c-.25-.53-.71-1.34-1.53-2.08-1.37-1.23-2.88-1.49-3.5-1.57"/>
          <path class="cls-5" d="M58.47,211.39c-1.29-.65-2.57-1.29-3.86-1.94-.45-.22-1.07-.43-1.73-.27-2.26.55-2.88,4.98-3.28,7.77-.6,4.25-.92,6.48.46,8.82,1.68,2.84,4.7,3.84,5.84,4.15"/>
          <path class="cls-9" d="M100.34,221.55c-.03,3.19.21,5.73.44,7.45.34,2.58.75,4.12.84,6.85.07,2.05-.08,3.73-.2,4.81"/>
          <path class="cls-9" d="M134.12,221.58c.03,3.19-.21,5.73-.44,7.45-.34,2.58-.75,4.12-.84,6.85-.07,2.05.08,3.73.2,4.81"/>
          <path class="cls-9" d="M133.47,221.61c.03,3.19-.21,5.73-.44,7.45-.34,2.58-.75,4.12-.84,6.85-.07,2.05.08,3.73.2,4.81"/>
          <path class="cls-6" d="M175.92,214.23c.21.42.45.96.66,1.65.6,1.95.66,3.93.66,4.95"/>
          <circle class="cls-17" cx="177.34" cy="223.85" r=".85"/>
        </g>
      </g>
    </g>
  </g>
</svg>