<?xml version="1.0" encoding="UTF-8"?>
<svg id="Layer_2" data-name="Layer 2" xmlns="http://www.w3.org/2000/svg" viewBox="0 0 278.74 363.28">
  <defs>
    <style>
      .cls-1 {
        stroke: #e5dede;
      }

      .cls-1, .cls-2, .cls-3, .cls-4, .cls-5, .cls-6, .cls-7, .cls-8, .cls-9, .cls-10, .cls-11, .cls-12, .cls-13, .cls-14, .cls-15 {
        stroke-miterlimit: 10;
      }

      .cls-1, .cls-3, .cls-4, .cls-5, .cls-6, .cls-7, .cls-8, .cls-9, .cls-12, .cls-13, .cls-15 {
        stroke-linecap: round;
      }

      .cls-1, .cls-3, .cls-8, .cls-9, .cls-10, .cls-16 {
        fill: #eee4da;
      }

      .cls-2, .cls-6, .cls-7, .cls-8, .cls-12 {
        stroke: #fdf0e5;
      }

      .cls-2, .cls-17 {
        fill: #fdf0e5;
      }

      .cls-3 {
        stroke: #d5cfcf;
      }

      .cls-4, .cls-7, .cls-18 {
        fill: #6d9bca;
      }

      .cls-4, .cls-15 {
        stroke: #3c735b;
      }

      .cls-19 {
        fill: #151515;
      }

      .cls-19, .cls-20, .cls-17, .cls-21, .cls-18, .cls-22, .cls-16 {
        stroke-width: 0px;
      }

      .cls-5 {
        fill: #438066;
      }

      .cls-5, .cls-9, .cls-10, .cls-11, .cls-13, .cls-14 {
        stroke: #eee4da;
      }

      .cls-20 {
        fill: #f1e4da;
      }

      .cls-6, .cls-11, .cls-12 {
        fill: none;
      }

      .cls-21 {
        fill: #363636;
      }

      .cls-7, .cls-12 {
        opacity: .5;
      }

      .cls-22, .cls-13, .cls-14 {
        fill: #f39547;
      }

      .cls-15 {
        fill: #392851;
      }
    </style>
  </defs>
  <g id="Layer_16" data-name="Layer 16">
    <g id="Peger">
      <g id="peger">
        <ellipse id="krop" class="cls-17" cx="113.05" cy="193.98" rx="55.85" ry="86.01"/>
        <path id="ben1_skygge" data-name="ben1 skygge" class="cls-16" d="M108.76,269.67c3.2,17.07,2.81,31.08,1.99,40.15-.72,7.92-3.14,34.69-16.08,45.17-1.74,1.41-6.26,5.07-12.35,5.08,0,0-4.81.01-9.65-3.05"/>
        <path id="ben_1" data-name="ben 1" class="cls-17" d="M106.67,263.56c4.39,20.08,3.73,36.52,2.63,46.69-.86,7.89-3.76,34.57-17.03,44.8-1.78,1.37-6.42,4.95-12.58,4.85,0,0-4.87-.07-9.71-3.22-8.52-5.53-30.58-50.51-23.73-118.93,2.45-24.46,10.29-68.92,40.43-118.5"/>
        <path id="ben2_skygge" data-name="ben2 skygge" class="cls-16" d="M116.54,269.63c-3.86,17.5-3.77,31.94-3.1,41.29.59,8.17,2.56,35.78,16.28,46.85,1.84,1.49,6.63,5.35,13.21,5.5,0,0,5.19.12,10.49-2.93"/>
        <path id="ben_2" data-name="ben 2" class="cls-17" d="M117.8,266.82c-4.39,20.08-3.73,36.52-2.63,46.69.86,7.89,3.76,34.57,17.03,44.8,1.78,1.37,6.42,4.95,12.58,4.85,0,0,4.87-.07,9.71-3.22,8.52-5.53,30.58-50.51,23.73-118.93-2.45-24.46-10.29-68.92-40.43-118.5"/>
        <path id="arm2_skygge" data-name="arm2 skygge" class="cls-16" d="M167.05,173.48c-3.51-3.63-6.73-8.05-9.39-13.09-7.86-14.87-8.5-30.66-2.49-39.46"/>
        <ellipse id="arm_2" data-name="arm 2" class="cls-17" cx="190.81" cy="113.68" rx="63.82" ry="23.07" transform="translate(-28.88 81) rotate(-22.32)"/>
        <path id="arm1_skygge" data-name="arm1 skygge" class="cls-16" d="M52.4,201.38c3.51-3.63,6.73-8.05,9.39-13.09,7.86-14.87,8.5-30.66,2.49-39.46"/>
        <ellipse id="arm1" class="cls-17" cx="51.64" cy="163.38" rx="55.36" ry="23.07" transform="translate(-109.64 105.49) rotate(-52.71)"/>
        <g>
          <ellipse class="cls-17" cx="256.24" cy="90.85" rx="22.84" ry="11.97" transform="translate(-13.07 53.63) rotate(-11.65)"/>
          <ellipse class="cls-20" cx="250.5" cy="83.6" rx="12.13" ry="6.09" transform="translate(-11.72 52.33) rotate(-11.65)"/>
          <ellipse class="cls-17" cx="250.2" cy="82.13" rx="12.78" ry="5.48" transform="translate(-11.43 52.24) rotate(-11.65)"/>
        </g>
        <g id="hånd_1" data-name="hånd 1">
          <ellipse class="cls-17" cx="16.23" cy="217.86" rx="22.84" ry="11.97" transform="translate(-172.88 108.49) rotate(-55.7)"/>
          <ellipse class="cls-20" cx="13.27" cy="210.81" rx="12.13" ry="6.09" transform="translate(-168.35 102.96) rotate(-55.7)"/>
          <ellipse class="cls-17" cx="13.14" cy="209.93" rx="12.78" ry="5.48" transform="translate(-167.69 102.47) rotate(-55.7)"/>
        </g>
        <g id="fod1">
          <path class="cls-11" d="M103,346c0-4.93-9.14-8.93-20.42-8.93s-20.42,4-20.42,8.93"/>
          <ellipse class="cls-17" cx="82.97" cy="350.12" rx="22.62" ry="13.05"/>
        </g>
        <g id="fod2">
          <path class="cls-11" d="M162.34,346c0-4.93-9.14-8.93-20.42-8.93s-20.42,4-20.42,8.93"/>
          <ellipse class="cls-17" cx="142.31" cy="350.12" rx="22.62" ry="13.05"/>
        </g>
        <path class="cls-17" d="M19.55,191.76c.65.3.46,1.95.3,3.25-.81,6.65-4.86,13.64-6.5,13.11-1.31-.42-1.18-5.62.4-9.58,1.52-3.81,4.7-7.3,5.8-6.78Z"/>
        <path class="cls-10" d="M153.33,25c.75-.98,2.48-1.06,5.93-1.24,3.87-.19,6.73-.45,9.28,1.08,3.18,1.91,4.29,4.79,6.27,9.89,1.63,4.21,3.43,8.85,1.4,12.84-.46.9-1.13,1.55-2.42,2.89-2.61,2.7-4.41,4.57-6.07,4.55-2.69-.04-3.65-5.04-7.97-14.11-4.61-9.69-8.12-13.68-6.42-15.9Z"/>
        <ellipse id="hoved_skygge" data-name="hoved skygge" class="cls-16" cx="102.33" cy="66.15" rx="70.23" ry="63.54" transform="translate(-17.66 44.93) rotate(-22.85)"/>
        <ellipse id="hoved" class="cls-17" cx="101.38" cy="64.61" rx="70.23" ry="63.54" transform="translate(-17.13 44.44) rotate(-22.85)"/>
        <g>
          <g id="glasrim">
            <g id="glasrim-2" data-name="glasrim">
              <g id="glasrim-3" data-name="glasrim">
                <path class="cls-10" d="M136.09,106.21c-11.73,6.05-38.69,16.67-57.89-5.01-9.71-10.97-12.76-24.89-13.14-26.76-5.68-27.37,12.26-48.3,29.63-57.53l36.29,90.86c1.11-.32,2.89-.81,5.11-1.56Z"/>
                <path class="cls-10" d="M140.77,103.64c-1,.57-2.6,1.51-4.68,2.57-2.22.75-4,1.24-5.11,1.56L94.69,16.9c1.05-.56,2.08-1.07,3.11-1.54,1.08-.49,2.15-.92,3.2-1.31l.07.17,39.7,89.43Z"/>
                <path class="cls-10" d="M172.93,61.27c2.1,28.88-24.32,40.76-36.84,44.94,2.09-1.06,3.68-2,4.68-2.57L101.07,14.21c18.74-5.99,46.25-4.22,61.88,18.96,1.07,1.59,8.91,13.49,9.98,28.09Z"/>
                <path class="cls-10" d="M140.77,103.64c-1,.57-2.6,1.51-4.68,2.57-2.22.75-4,1.24-5.11,1.56L94.69,16.9l-.07-.17c1.02-.48,2.08-.94,3.18-1.37,1.05-.41,2.15-.79,3.27-1.15l39.7,89.43Z"/>
              </g>
              <line class="cls-10" x1="101.77" y1="15.79" x2="140.77" y2="103.64"/>
              <line class="cls-10" x1="95.54" y1="19.17" x2="130.95" y2="107.69"/>
              <ellipse class="cls-10" cx="105.01" cy="32.47" rx="26.11" ry="16.87" transform="translate(-4.37 43.33) rotate(-22.85)"/>
              <ellipse class="cls-10" cx="129.86" cy="88.93" rx="26.11" ry="16.87" transform="translate(-24.34 57.41) rotate(-22.85)"/>
            </g>
            <g id="glasrim-4" data-name="glasrim">
              <path class="cls-10" d="M136.79,111.08c-11.73,6.05-38.69,16.67-57.89-5.01-9.71-10.97-12.76-24.89-13.14-26.76-5.68-27.37,12.26-48.3,29.63-57.53l36.29,90.86c1.11-.32,2.89-.81,5.11-1.56Z"/>
              <path class="cls-10" d="M141.47,108.51c-1,.57-2.6,1.51-4.68,2.57-2.22.75-4,1.24-5.11,1.56L95.39,21.77c1.05-.56,2.08-1.07,3.11-1.54,1.08-.49,2.15-.92,3.2-1.31l.07.17,39.7,89.43Z"/>
              <path class="cls-10" d="M173.63,66.14c2.1,28.88-24.32,40.76-36.84,44.94,2.09-1.06,3.68-2,4.68-2.57L101.77,19.08c18.74-5.99,46.25-4.22,61.88,18.96,1.07,1.59,8.91,13.49,9.98,28.09Z"/>
              <path class="cls-10" d="M141.47,108.51c-1,.57-2.6,1.51-4.68,2.57-2.22.75-4,1.24-5.11,1.56L95.39,21.77l-.07-.17c1.02-.48,2.08-.94,3.18-1.37,1.05-.41,2.15-.79,3.27-1.15l39.7,89.43Z"/>
            </g>
            <line class="cls-10" x1="102.47" y1="20.65" x2="141.47" y2="108.51"/>
            <line class="cls-10" x1="96.25" y1="24.04" x2="131.65" y2="112.56"/>
            <ellipse class="cls-10" cx="105.72" cy="37.34" rx="26.11" ry="16.87" transform="translate(-6.2 43.99) rotate(-22.85)"/>
            <ellipse class="cls-10" cx="130.56" cy="93.8" rx="26.11" ry="16.87" transform="translate(-26.18 58.07) rotate(-22.85)"/>
          </g>
          <g id="glasrim-5" data-name="glasrim">
            <g id="glasrim-6" data-name="glasrim">
              <g id="glasrim-7" data-name="glasrim">
                <path class="cls-10" d="M124.02,83.96c-11.29,5.59-36.98,15.86-53.22.15-8.21-7.95-10.05-18.7-10.27-20.15-3.33-21.16,14.76-38.91,31.49-47.4l27.16,69c1.05-.33,2.73-.84,4.84-1.59Z"/>
                <path class="cls-10" d="M128.54,81.61c-.97.52-2.51,1.37-4.52,2.35-2.1.75-3.79,1.26-4.84,1.59l-27.16-69c1.01-.51,2-.99,2.99-1.43,1.03-.46,2.05-.88,3.05-1.26l.05.13,30.42,67.62Z"/>
                <path class="cls-10" d="M161.3,45.97c-.09,22.6-25.39,33.82-37.27,37.99,2.01-.98,3.55-1.83,4.52-2.35L98.12,13.99c17.77-6.04,43.1-6.59,55.93,10.56.88,1.18,7.3,9.99,7.25,21.42Z"/>
                <path class="cls-10" d="M128.54,81.61c-.97.52-2.51,1.37-4.52,2.35-2.1.75-3.79,1.26-4.84,1.59l-27.16-69-.05-.13c.97-.45,1.99-.89,3.04-1.31,1.01-.4,2.04-.77,3.1-1.13l30.42,67.62Z"/>
              </g>
              <line class="cls-10" x1="98.65" y1="15.18" x2="128.54" y2="81.61"/>
              <line class="cls-10" x1="92.65" y1="18.29" x2="119.16" y2="85.5"/>
              <ellipse class="cls-10" cx="100.48" cy="28.09" rx="24.95" ry="12.78" transform="translate(-3.02 41.22) rotate(-22.85)"/>
              <ellipse class="cls-10" cx="119.48" cy="70.8" rx="24.95" ry="12.78" transform="translate(-18.12 51.96) rotate(-22.85)"/>
            </g>
            <g id="glasrim-8" data-name="glasrim">
              <path class="cls-10" d="M124.33,87.75c-11.29,5.59-36.98,15.86-53.22.15-8.21-7.95-10.05-18.7-10.27-20.15-3.33-21.16,14.76-38.91,31.49-47.4l27.16,69c1.05-.33,2.73-.84,4.84-1.59Z"/>
              <path class="cls-10" d="M128.84,85.4c-.97.52-2.51,1.37-4.52,2.35-2.1.75-3.79,1.26-4.84,1.59l-27.16-69c1.01-.51,2-.99,2.99-1.43,1.03-.46,2.05-.88,3.05-1.26l.05.13,30.42,67.62Z"/>
              <path class="cls-10" d="M161.6,49.75c-.09,22.6-25.39,33.82-37.27,37.99,2.01-.98,3.55-1.83,4.52-2.35l-30.42-67.62c17.77-6.04,43.1-6.59,55.93,10.56.88,1.18,7.3,9.99,7.25,21.42Z"/>
              <path class="cls-10" d="M128.84,85.4c-.97.52-2.51,1.37-4.52,2.35-2.1.75-3.79,1.26-4.84,1.59l-27.16-69-.05-.13c.97-.45,1.99-.89,3.04-1.31,1.01-.4,2.04-.77,3.1-1.13l30.42,67.62Z"/>
            </g>
            <line class="cls-10" x1="98.96" y1="18.96" x2="128.84" y2="85.4"/>
            <line class="cls-10" x1="92.96" y1="22.07" x2="119.47" y2="89.28"/>
            <ellipse class="cls-10" cx="100.78" cy="31.87" rx="24.95" ry="12.78" transform="translate(-4.47 41.64) rotate(-22.85)"/>
            <ellipse class="cls-10" cx="119.79" cy="74.58" rx="24.95" ry="12.78" transform="translate(-19.56 52.37) rotate(-22.85)"/>
          </g>
        </g>
        <g id="glas">
          <path class="cls-19" d="M141.37,105c-11.34,7.16-37.72,20.2-59.47-.95-11-10.7-15.51-24.97-16.09-26.9-8.55-28.08,7.61-51.19,24.37-62.07l46.14,91.92c1.09-.41,2.86-1.05,5.04-2Z"/>
          <path class="cls-19" d="M145.88,101.98c-.96.67-2.49,1.76-4.51,3.02-2.18.95-3.95,1.59-5.04,2L90.19,15.07c1.01-.66,2.01-1.27,3.01-1.83,1.05-.59,2.09-1.12,3.12-1.6l.09.17,49.47,90.18Z"/>
          <path class="cls-19" d="M174.36,55.5c5.06,29.91-20.65,44.22-32.98,49.49,2.02-1.26,3.55-2.35,4.51-3.02L96.41,11.8c18.48-7.62,46.68-7.8,64.94,15.19,1.25,1.57,10.44,13.38,13,28.51Z"/>
          <path class="cls-19" d="M164.73,89.12c-5.27,5.2-11.34,10.25-18.34,14.79-1.4.91-2.8,1.77-4.2,2.6-1.69.91-3.48,1.79-5.36,2.63-6.24,2.76-12.33,4.43-17.95,5.42-12.67-30.67-25.34-61.33-38.01-92h0c4.62-4.6,9.02-7.49,12.33-9.31,3.08-1.69,5.51-2.63,6.04-2.83,5.61-2.13,10.72-2.74,14.38-2.89,17.04,27.2,34.07,54.4,51.11,81.6Z"/>
        </g>
        <path class="cls-17" d="M151.76,20.87c.11-.51-7.98-6.72-18.14-9.13-9.8-2.33-17.57-.19-17.45.35.11.49,6.51-.45,16.49,1.81,11.44,2.6,19,7.46,19.11,6.97Z"/>
        <ellipse class="cls-17" cx="154.46" cy="23.14" rx=".82" ry="1.15" transform="translate(6.95 74.45) rotate(-27.7)"/>
        <path class="cls-21" d="M155.82,83.58c-1.49-4.62-6.13-19.13-5.88-19.21.56-.18,6.4,18.89,5.88,19.21-.39.25-5.75-9.33-5.88-19.21-.11-7.48,2.8-14.18,5.3-13.61,1.02.23,3.32,1.97,3.32,1.97-1.76-9.78-.97-17.01-.97-17.01.32-2.9.74-6.75,2.31-7.1,2.63-.59,6.58,8.52,7.44,10.51.15.35.39.9.69,1.62,8.27,19.98,4.28,34.82,4.28,34.82-1.39,5.41-3.69,8.21-5.44,10.35-2.14,2.62-5.24,6.4-7.93,4.3-1.26-.98-1.89-2.83-3.13-6.64Z"/>
        <path class="cls-12" d="M172.99,30.22c-.21-.7-.81-2.37-2.45-3.7-2.39-1.94-5.16-1.68-5.71-1.62"/>
        <ellipse class="cls-10" cx="32.26" cy="87.08" rx="8.4" ry="15.72" transform="translate(-31.28 19.36) rotate(-22.85)"/>
        <path class="cls-10" d="M24.12,89.39c2.24,6.25,8.08,11.91,14.25,12.17,1.93.08,1.84-.45,12.24-4.09,6.73-2.35,7.7-2.37,8.48-3.66,1.83-3.06-1.46-6.28-5.22-16.29-3.78-10.08-3.28-14.36-6.51-15.44-1.03-.35-2-.21-11.19,4.58-8.81,4.6-9.49,5.29-10.01,5.93-3.79,4.61-3.9,11.6-2.04,16.81Z"/>
        <path class="cls-12" d="M26.13,72.19c2.25.78,7.93,3.11,11.36,8.83,5.56,9.3.37,19.58-.3,20.86"/>
        <path class="cls-12" d="M46.47,62.76c-1.79.67-3.92,1.57-6.24,2.81-2.61,1.39-4.74,2.82-6.39,4.05"/>
        <circle class="cls-7" cx="30.82" cy="71.87" r=".3"/>
        <ellipse class="cls-2" cx="56.84" cy="200.45" rx=".86" ry=".43"/>
        <g id="bælte">
          <path class="cls-5" d="M53.8,224.4c1.83.81,4.91,2.12,8.05,3.28,3.91,1.44,17.84,5.27,37.24,7.64h16.65c.08-6.25.23-12.5.3-18.75h-17.76c-11.47,0-22.86-2.46-33.64-7.27-3.02-1.08-6.04-2.17-9.07-3.25"/>
          <polygon class="cls-18" points="82.8 217.42 74.24 215.56 73.56 218.87 82.11 220.73 82.8 217.42"/>
          <path class="cls-13" d="M135.24,216.54c-.48,0-.96.03-1.44.03h-17.76c.07,6.25.22,12.5.3,18.75h16.65c.98,0,1.96-.04,2.94-.07-.35-6.23-.58-12.47-.69-18.71Z"/>
          <rect class="cls-14" x="115.06" y="217.36" width="2.63" height="17.13"/>
          <rect class="cls-22" x="114.34" y="216.57" width="4.76" height="18.75"/>
          <path class="cls-4" d="M84.36,217.59l-1.19,13.08c-.04.43-.54.73-1.02.61l-10.27-2.54c-.36-.09-.59-.39-.55-.71l1.78-12.57c.09-.65,1.09-.84,1.47-.28l2.7,3.98c.21.32.69.42,1.07.23l4.83-2.41c.55-.27,1.22.08,1.17.61Z"/>
          <line class="cls-15" x1="73.78" y1="214.83" x2="84.12" y2="217.23"/>
          <path class="cls-1" d="M117.42,235.32h-8.17c-.52-.09-1.59-.34-2.66-1.23-1.03-.86-1.55-1.88-1.78-2.4-.48-.97-1.27-2.88-1.38-5.46-.11-2.64.55-4.67.95-5.69.31-.63.97-1.79,2.2-2.74,1.05-.81,2.07-1.11,2.67-1.24h8.16"/>
          <path class="cls-1" d="M112.71,235.32h8.17c.52-.09,1.59-.34,2.66-1.23,1.03-.86,1.55-1.88,1.78-2.4.48-.97,1.27-2.88,1.38-5.46.11-2.64-.55-4.67-.95-5.69-.31-.63-.97-1.79-2.2-2.74-1.05-.81-2.07-1.11-2.67-1.24h-8.16"/>
          <path class="cls-8" d="M124.14,221.99c-.24-.52-.69-1.31-1.5-2.04-1.34-1.2-2.82-1.46-3.42-1.53"/>
          <rect class="cls-22" x="133.03" y="217.36" width="5.83" height="17.13"/>
          <path class="cls-5" d="M171.14,226.15c-1.78.91-3.14,1.48-3.34,1.56-16.24,6.74-31.87,7.53-31.87,7.53-1.16.06-3.03.13-5.37.11h-16.65c-.08-6.25-.23-12.5-.3-18.75h17.76c11.47,0,22.86-2.46,33.64-7.27,1.27-.72,2.54-1.44,3.82-2.16"/>
          <path class="cls-5" d="M165,209.33l3.82-2.16c.71-.6,2.45-1.91,4.15-1.45,2.18.59,2.89,3.73,3.6,6.85.76,3.35,1.34,5.91.01,8.69-1.46,3.07-4.31,4.43-5.44,4.9"/>
          <path class="cls-5" d="M98.73,216.6c.02.2.05.41.05.62.24,6.13,1.3,12.01.97,18.13h13.56c.08-6.25.23-12.5.3-18.75h-14.88Z"/>
          <rect class="cls-14" x="111.96" y="217.4" width="2.63" height="17.13" transform="translate(226.54 451.93) rotate(-180)"/>
          <rect class="cls-22" x="110.54" y="216.6" width="4.76" height="18.75" transform="translate(225.85 451.96) rotate(-180)"/>
          <path class="cls-3" d="M112.23,235.36h8.17c.52-.09,1.59-.34,2.66-1.23,1.03-.86,1.55-1.88,1.78-2.4.48-.97,1.27-2.88,1.38-5.46.11-2.64-.55-4.67-.95-5.69-.31-.63-.97-1.79-2.2-2.74-1.05-.81-2.07-1.11-2.67-1.24h-8.16"/>
          <path class="cls-3" d="M116.94,235.36h-8.17c-.52-.09-1.59-.34-2.66-1.23-1.03-.86-1.55-1.88-1.78-2.4-.48-.97-1.27-2.88-1.38-5.46-.11-2.64.55-4.67.95-5.69.31-.63.97-1.79,2.2-2.74,1.05-.81,2.07-1.11,2.67-1.24h8.16"/>
          <path class="cls-8" d="M123.5,221.99c-.24-.52-.69-1.31-1.5-2.04-1.34-1.2-2.82-1.46-3.42-1.53"/>
          <path class="cls-5" d="M57.16,206.66c-1.26-.63-2.52-1.26-3.77-1.89-.44-.21-1.05-.42-1.69-.26-2.21.54-2.82,4.87-3.2,7.59-.59,4.16-.9,6.34.45,8.62,1.65,2.78,4.6,3.76,5.71,4.06"/>
          <path class="cls-9" d="M98.09,216.59c-.03,3.12.21,5.6.43,7.29.33,2.53.73,4.02.82,6.7.07,2.01-.07,3.65-.2,4.7"/>
          <path class="cls-9" d="M131.12,216.62c.03,3.12-.21,5.6-.43,7.29-.33,2.53-.73,4.02-.82,6.7-.07,2.01.07,3.65.2,4.7"/>
          <path class="cls-9" d="M130.49,216.65c.03,3.12-.21,5.6-.43,7.29-.33,2.53-.73,4.02-.82,6.7-.07,2.01.07,3.65.2,4.7"/>
          <path class="cls-6" d="M171.99,209.43c.21.41.44.94.64,1.61.59,1.91.65,3.84.64,4.84"/>
          <circle class="cls-17" cx="173.37" cy="218.84" r=".83"/>
        </g>
      </g>
    </g>
  </g>
</svg>