<?xml version="1.0" encoding="UTF-8"?>
<svg id="Layer_2" data-name="Layer 2" xmlns="http://www.w3.org/2000/svg" viewBox="0 0 236.59 392.04">
  <defs>
    <style>
      .cls-1 {
        opacity: .5;
        stroke: #6d9bca;
      }

      .cls-1, .cls-2, .cls-3, .cls-4, .cls-5, .cls-6, .cls-7, .cls-8, .cls-9, .cls-10, .cls-11, .cls-12, .cls-13, .cls-14, .cls-15, .cls-16 {
        stroke-miterlimit: 10;
      }

      .cls-1, .cls-2, .cls-3, .cls-4, .cls-5, .cls-6, .cls-8, .cls-9, .cls-11, .cls-14, .cls-16 {
        stroke-linecap: round;
      }

      .cls-1, .cls-6, .cls-9, .cls-13 {
        fill: none;
      }

      .cls-2 {
        stroke: #e5dede;
      }

      .cls-2, .cls-3, .cls-8, .cls-11, .cls-12, .cls-17 {
        fill: #eee4da;
      }

      .cls-3 {
        stroke: #d5cfcf;
      }

      .cls-4, .cls-18 {
        fill: #6d9bca;
      }

      .cls-4, .cls-16 {
        stroke: #3c735b;
      }

      .cls-19 {
        fill: #151515;
      }

      .cls-19, .cls-20, .cls-21, .cls-22, .cls-23, .cls-18, .cls-24, .cls-17 {
        stroke-width: 0px;
      }

      .cls-5 {
        fill: #438066;
      }

      .cls-5, .cls-11, .cls-12, .cls-13, .cls-14, .cls-15 {
        stroke: #eee4da;
      }

      .cls-20 {
        fill: #f1e4da;
      }

      .cls-6, .cls-8 {
        stroke: #fdf0e5;
      }

      .cls-21 {
        fill: #fdf0e5;
      }

      .cls-22 {
        fill: #363636;
      }

      .cls-7, .cls-9 {
        stroke: #1f3669;
      }

      .cls-7, .cls-23 {
        fill: #1f3669;
      }

      .cls-9 {
        stroke-width: 3px;
      }

      .cls-10 {
        fill: #111c2f;
        opacity: .3;
        stroke: #111c2f;
      }

      .cls-24, .cls-14, .cls-15 {
        fill: #f39547;
      }

      .cls-16 {
        fill: #392851;
      }
    </style>
  </defs>
  <g id="Layer_16" data-name="Layer 16">
    <g id="Vinter1">
      <g>
        <path class="cls-21" d="M20.72,210.28c.69.32.49,2.06.32,3.45-.86,7.05-5.15,14.45-6.89,13.89-1.39-.45-1.25-5.95.43-10.15,1.61-4.04,4.98-7.74,6.15-7.19Z"/>
        <path class="cls-7" d="M46.27,56.49c-1.14-.65-2.86-.02-6.3,1.23-3.86,1.41-6.75,2.33-8.62,4.88-2.32,3.17-2.22,6.44-2.05,12.24.14,4.79.3,10.06,3.91,13.11.81.69,1.75,1.05,3.56,1.82,3.66,1.57,6.19,2.65,7.8,1.94,2.61-1.15,1.49-6.42,1.97-17.06.51-11.36,2.3-16.71-.27-18.17Z"/>
        <path class="cls-7" d="M187.1,55.04c1.14-.65,2.86-.02,6.3,1.23,3.86,1.41,6.75,2.33,8.62,4.88,2.32,3.17,2.22,6.44,2.05,12.24-.14,4.79-.3,10.06-3.91,13.11-.81.69-1.75,1.05-3.56,1.82-3.66,1.57-6.19,2.65-7.8,1.94-2.61-1.15-1.49-6.42-1.97-17.06-.51-11.36-2.3-16.71.27-18.17Z"/>
        <ellipse id="krop" class="cls-21" cx="119.81" cy="212.63" rx="59.19" ry="91.15"/>
        <path id="ben1_skygge" data-name="ben1 skygge" class="cls-17" d="M115.26,292.83c3.39,18.09,2.98,32.94,2.11,42.55-.76,8.39-3.33,36.76-17.04,47.87-1.84,1.49-6.63,5.37-13.09,5.39,0,0-5.1.01-10.23-3.23"/>
        <path id="ben_1" data-name="ben 1" class="cls-21" d="M113.05,286.36c4.65,21.28,3.95,38.7,2.78,49.48-.91,8.36-3.98,36.63-18.05,47.48-1.89,1.46-6.8,5.24-13.33,5.14,0,0-5.16-.08-10.3-3.41-9.03-5.86-32.41-53.53-25.15-126.04,2.59-25.92,10.9-73.04,42.84-125.58"/>
        <path id="ben2_skygge" data-name="ben2 skygge" class="cls-17" d="M123.5,292.8c-4.09,18.55-3.99,33.85-3.28,43.76.62,8.65,2.72,37.92,17.25,49.65,1.95,1.58,7.03,5.67,14,5.83,0,0,5.5.12,11.11-3.11"/>
        <path id="ben_2" data-name="ben 2" class="cls-21" d="M124.84,289.82c-4.65,21.28-3.95,38.7-2.78,49.48.91,8.36,3.98,36.63,18.05,47.48,1.89,1.46,6.8,5.24,13.33,5.14,0,0,5.16-.08,10.3-3.41,9.03-5.86,32.41-53.53,25.15-126.04-2.59-25.92-10.9-73.04-42.84-125.58"/>
        <path id="arm2_skygge" data-name="arm2 skygge" class="cls-17" d="M181.87,224.26c-3.72-3.85-7.13-8.53-9.95-13.87-8.33-15.76-9.01-32.5-2.64-41.82"/>
        <ellipse id="arm_2" data-name="arm 2" class="cls-21" cx="181.87" cy="180.12" rx="24.45" ry="58.67" transform="translate(-71.95 146.99) rotate(-37.29)"/>
        <path id="arm1_skygge" data-name="arm1 skygge" class="cls-17" d="M55.53,220.46c3.72-3.85,7.13-8.53,9.95-13.87,8.33-15.76,9.01-32.5,2.64-41.82"/>
        <ellipse id="arm1" class="cls-21" cx="54.72" cy="180.2" rx="58.67" ry="24.45" transform="translate(-121.8 114.57) rotate(-52.71)"/>
        <g id="hånd_2" data-name="hånd 2">
          <ellipse class="cls-21" cx="219.39" cy="237.85" rx="12.69" ry="24.21" transform="translate(-95.89 165.01) rotate(-34.3)"/>
          <ellipse class="cls-20" cx="222.53" cy="230.38" rx="6.45" ry="12.85" transform="translate(-91.13 165.48) rotate(-34.3)"/>
          <ellipse class="cls-21" cx="222.67" cy="229.45" rx="5.81" ry="13.54" transform="translate(-90.58 165.4) rotate(-34.3)"/>
        </g>
        <g id="hånd_1" data-name="hånd 1">
          <ellipse class="cls-21" cx="17.2" cy="237.93" rx="24.21" ry="12.69" transform="translate(-189.04 118.05) rotate(-55.7)"/>
          <ellipse class="cls-20" cx="14.06" cy="230.46" rx="12.85" ry="6.45" transform="translate(-184.24 112.19) rotate(-55.7)"/>
          <ellipse class="cls-21" cx="13.92" cy="229.53" rx="13.54" ry="5.81" transform="translate(-183.53 111.67) rotate(-55.7)"/>
        </g>
        <ellipse id="hoved_skygge" data-name="hoved skygge" class="cls-17" cx="116.13" cy="75.99" rx="74.43" ry="67.34"/>
        <ellipse id="hoved" class="cls-21" cx="115.83" cy="74.09" rx="74.43" ry="67.34"/>
        <g id="fod1">
          <path class="cls-13" d="M109.16,373.73c0-5.22-9.69-9.46-21.64-9.46s-21.64,4.24-21.64,9.46"/>
          <ellipse class="cls-21" cx="87.93" cy="378.09" rx="23.97" ry="13.83"/>
        </g>
        <g id="fod2">
          <path class="cls-13" d="M172.05,373.73c0-5.22-9.69-9.46-21.64-9.46s-21.64,4.24-21.64,9.46"/>
          <ellipse class="cls-21" cx="150.82" cy="378.09" rx="23.97" ry="13.83"/>
        </g>
        <g>
          <g id="glasrim">
            <g id="glasrim-2" data-name="glasrim">
              <g id="glasrim-3" data-name="glasrim">
                <path class="cls-12" d="M119.01,124.53c-17.38,1.13-55.64.37-67.89-30.06-6.19-15.39-2.76-30.94-2.26-33.02,7.12-30.43,39.7-44.1,65.58-46.05l-2.44,108.53c1.51.15,3.93.42,7.02.61Z"/>
                <path class="cls-12" d="M126.02,123.92c-1.51.15-3.93.42-7.02.61-3.08-.18-5.51-.45-7.02-.61l2.44-108.53c1.56-.12,3.08-.2,4.58-.24,1.56-.03,3.08-.02,4.56.03v.2l2.45,108.53Z"/>
                <path class="cls-12" d="M186.9,94.46c-12.25,30.43-50.51,31.19-67.89,30.06,3.08-.18,5.51-.45,7.02-.61l-2.45-108.53c25.88,1.95,58.45,15.61,65.59,46.05.48,2.08,3.93,17.63-2.26,33.02Z"/>
                <path class="cls-12" d="M126.02,123.92c-1.51.15-3.93.42-7.02.61-3.08-.18-5.51-.45-7.02-.61l2.44-108.53v-.2c1.48-.05,3.02-.07,4.58-.03,1.49.03,3.02.12,4.56.24l2.45,108.53Z"/>
              </g>
              <line class="cls-12" x1="123.61" y1="17.3" x2="126.02" y2="123.92"/>
              <line class="cls-12" x1="114.3" y1="18.08" x2="111.99" y2="123.83"/>
              <ellipse class="cls-12" cx="119.01" cy="35.76" rx="34.49" ry="18.72"/>
              <ellipse class="cls-12" cx="120.29" cy="104.19" rx="34.49" ry="18.72"/>
            </g>
            <g id="glasrim-4" data-name="glasrim">
              <path class="cls-12" d="M117.37,129.81c-17.38,1.13-55.64.37-67.89-30.06-6.19-15.39-2.76-30.94-2.26-33.02,7.12-30.43,39.7-44.1,65.58-46.05l-2.44,108.53c1.51.15,3.93.42,7.02.61Z"/>
              <path class="cls-12" d="M124.38,129.2c-1.51.15-3.93.42-7.02.61-3.08-.18-5.51-.45-7.02-.61l2.44-108.53c1.56-.12,3.08-.2,4.58-.24,1.56-.03,3.08-.02,4.56.03v.2l2.45,108.53Z"/>
              <path class="cls-12" d="M185.26,99.74c-12.25,30.43-50.51,31.19-67.89,30.06,3.08-.18,5.51-.45,7.02-.61l-2.45-108.53c25.88,1.95,58.45,15.61,65.59,46.05.48,2.08,3.93,17.63-2.26,33.02Z"/>
              <path class="cls-12" d="M124.38,129.2c-1.51.15-3.93.42-7.02.61-3.08-.18-5.51-.45-7.02-.61l2.44-108.53v-.2c1.48-.05,3.02-.07,4.58-.03,1.49.03,3.02.12,4.56.24l2.45,108.53Z"/>
            </g>
            <line class="cls-12" x1="121.97" y1="22.58" x2="124.38" y2="129.2"/>
            <line class="cls-12" x1="112.66" y1="23.37" x2="110.35" y2="129.12"/>
            <ellipse class="cls-12" cx="117.37" cy="41.04" rx="34.49" ry="18.72"/>
            <ellipse class="cls-12" cx="118.65" cy="109.47" rx="34.49" ry="18.72"/>
          </g>
          <g id="glasrim-5" data-name="glasrim">
            <g id="glasrim-6" data-name="glasrim">
              <g id="glasrim-7" data-name="glasrim">
                <path class="cls-12" d="M115.73,96.59c-16.61.85-53.15.28-64.86-22.78-5.92-11.66-2.64-23.44-2.16-25.02,6.8-23.06,37.92-33.41,62.64-34.89l-2.33,82.24c1.44.11,3.76.32,6.7.46Z"/>
                <path class="cls-12" d="M122.43,96.13c-1.44.11-3.76.32-6.7.46-2.95-.14-5.26-.34-6.7-.46l2.33-82.24c1.49-.09,2.95-.15,4.37-.18,1.49-.03,2.95-.01,4.36.03v.15l2.34,82.24Z"/>
                <path class="cls-12" d="M180.59,73.81c-11.71,23.06-48.25,23.63-64.86,22.78,2.95-.14,5.26-.34,6.7-.46l-2.34-82.24c24.72,1.48,55.84,11.83,62.66,34.89.46,1.58,3.76,13.36-2.16,25.02Z"/>
                <path class="cls-12" d="M122.43,96.13c-1.44.11-3.76.32-6.7.46-2.95-.14-5.26-.34-6.7-.46l2.33-82.24v-.15c1.42-.04,2.88-.05,4.37-.03,1.43.03,2.88.09,4.36.18l2.34,82.24Z"/>
              </g>
              <line class="cls-12" x1="120.13" y1="15.34" x2="122.43" y2="96.13"/>
              <line class="cls-12" x1="111.24" y1="15.93" x2="109.03" y2="96.06"/>
              <ellipse class="cls-12" cx="115.73" cy="29.32" rx="32.95" ry="14.18"/>
              <ellipse class="cls-12" cx="116.96" cy="81.17" rx="32.95" ry="14.18"/>
            </g>
            <g id="glasrim-8" data-name="glasrim">
              <path class="cls-12" d="M114.16,100.59c-16.61.85-53.15.28-64.86-22.78-5.92-11.66-2.64-23.44-2.16-25.02,6.8-23.06,37.92-33.41,62.64-34.89l-2.33,82.24c1.44.11,3.76.32,6.7.46Z"/>
              <path class="cls-12" d="M120.87,100.13c-1.44.11-3.76.32-6.7.46-2.95-.14-5.26-.34-6.7-.46l2.33-82.24c1.49-.09,2.95-.15,4.37-.18,1.49-.03,2.95-.01,4.36.03v.15l2.34,82.24Z"/>
              <path class="cls-12" d="M179.02,77.81c-11.71,23.06-48.25,23.63-64.86,22.78,2.95-.14,5.26-.34,6.7-.46l-2.34-82.24c24.72,1.48,55.84,11.83,62.66,34.89.46,1.58,3.76,13.36-2.16,25.02Z"/>
              <path class="cls-12" d="M120.87,100.13c-1.44.11-3.76.32-6.7.46-2.95-.14-5.26-.34-6.7-.46l2.33-82.24v-.15c1.42-.04,2.88-.05,4.37-.03,1.43.03,2.88.09,4.36.18l2.34,82.24Z"/>
            </g>
            <line class="cls-12" x1="118.57" y1="19.34" x2="120.87" y2="100.13"/>
            <line class="cls-12" x1="109.67" y1="19.93" x2="107.46" y2="100.07"/>
            <ellipse class="cls-12" cx="114.16" cy="33.33" rx="32.95" ry="14.18"/>
            <ellipse class="cls-12" cx="115.39" cy="85.18" rx="32.95" ry="14.18"/>
          </g>
        </g>
        <g id="skærm">
          <g id="glas">
            <path class="cls-19" d="M115.85,125.97c-18.08,1.13-57.86.37-70.6-30.19-6.44-15.46-2.87-31.07-2.35-33.16,7.41-30.56,41.28-44.28,68.19-46.24l-2.53,108.98c1.57.15,4.09.42,7.3.61Z"/>
            <path class="cls-19" d="M123.15,125.36c-1.57.15-4.09.42-7.3.61-3.21-.19-5.73-.46-7.3-.61l2.53-108.98c1.62-.12,3.21-.2,4.76-.24,1.62-.03,3.21-.02,4.75.03v.2l2.55,108.98Z"/>
            <path class="cls-19" d="M186.46,95.78c-12.74,30.56-52.53,31.32-70.6,30.19,3.21-.19,5.73-.46,7.3-.61l-2.55-108.98c26.91,1.96,60.79,15.68,68.21,46.24.5,2.09,4.09,17.7-2.35,33.16Z"/>
            <path class="cls-19" d="M153.8,122.57c-9.58,2.29-20.02,4.03-31.25,4.85-2.25.16-4.47.28-6.66.37-2.6.02-5.29-.03-8.06-.17-9.2-.49-17.55-1.92-24.9-3.76,4.11-35.02,8.21-70.03,12.32-105.05h0c8.42-2.04,15.51-2.58,20.61-2.66,4.75-.07,8.26.25,9,.32,8.06.77,14.56,2.71,19.03,4.37,3.3,33.91,6.6,67.83,9.91,101.74Z"/>
          </g>
          <path class="cls-21" d="M181.16,52.15c.46-.43-5.33-10.23-15.98-17.51-10.27-7.01-20.92-8.84-21.12-8.27-.18.51,8.08,2.78,18.6,9.82,12.07,8.07,18.06,16.36,18.5,15.95Z"/>
          <ellipse class="cls-21" cx="182.97" cy="55.6" rx="1.11" ry="1.22"/>
          <path class="cls-22" d="M149.82,112.15c-.25-4.43-.98-18.35-.63-18.33.79.05,1.42,18.24.63,18.33-.6.07-4.09-9.92-.63-18.33,2.62-6.37,8.9-11.03,11.98-9.66,1.25.55,3.62,2.83,3.62,2.83,1.3-8.9,5-14.74,5-14.74,1.49-2.34,3.45-5.46,5.65-5.2,3.66.42,5.49,9.52,5.88,11.51.07.35.18.9.31,1.61,3.48,19.82-7.23,30.98-7.23,30.98-3.82,4.09-7.86,5.66-10.95,6.86-3.77,1.47-9.23,3.58-11.98.85-1.28-1.27-1.44-3.06-1.65-6.72Z"/>
        </g>
        <g id="bælte">
          <path class="cls-5" d="M55.9,247.1c1.94.86,5.2,2.25,8.53,3.47,4.14,1.52,18.91,5.59,39.47,8.1h17.65c.08-6.63.24-13.25.31-19.88h-18.82c-12.16,0-24.22-2.61-35.65-7.71-3.2-1.15-6.41-2.3-9.61-3.45"/>
          <polygon class="cls-18" points="86.63 239.7 77.57 237.73 76.84 241.24 85.9 243.21 86.63 239.7"/>
          <path class="cls-14" d="M142.21,238.77c-.51,0-1.02.03-1.53.03h-18.82c.07,6.63.23,13.25.31,19.88h17.65c1.04,0,2.08-.05,3.12-.08-.37-6.6-.62-13.21-.73-19.82Z"/>
          <rect class="cls-15" x="120.82" y="239.64" width="2.79" height="18.16"/>
          <rect class="cls-24" x="120.06" y="238.8" width="5.05" height="19.88"/>
          <path class="cls-4" d="M88.28,239.88l-1.26,13.86c-.04.46-.57.77-1.08.65l-10.88-2.69c-.38-.09-.63-.41-.58-.75l1.89-13.32c.1-.68,1.16-.89,1.56-.3l2.86,4.22c.23.34.73.44,1.13.24l5.12-2.56c.58-.29,1.29.08,1.24.65Z"/>
          <line class="cls-16" x1="77.08" y1="236.96" x2="88.03" y2="239.5"/>
          <path class="cls-2" d="M123.32,258.67h-8.66c-.55-.09-1.69-.36-2.82-1.31-1.09-.91-1.64-1.99-1.88-2.55-.51-1.03-1.34-3.05-1.46-5.78-.12-2.8.58-4.95,1.01-6.03.32-.67,1.03-1.9,2.34-2.9,1.11-.85,2.19-1.18,2.83-1.31h8.65"/>
          <path class="cls-2" d="M118.33,258.67h8.66c.55-.09,1.69-.36,2.82-1.31,1.09-.91,1.64-1.99,1.88-2.55.51-1.03,1.34-3.05,1.46-5.78.12-2.8-.58-4.95-1.01-6.03-.32-.67-1.03-1.9-2.34-2.9-1.11-.85-2.19-1.18-2.83-1.31h-8.65"/>
          <path class="cls-8" d="M130.45,244.55c-.26-.55-.73-1.39-1.59-2.16-1.42-1.27-2.98-1.55-3.63-1.62"/>
          <rect class="cls-24" x="139.87" y="239.64" width="6.18" height="18.16"/>
          <path class="cls-5" d="M180.25,248.96c-1.88.96-3.33,1.57-3.54,1.65-17.21,7.15-33.77,7.98-33.77,7.98-1.22.06-3.21.14-5.7.12h-17.65c-.08-6.63-.24-13.25-.31-19.88h18.82c12.16,0,24.22-2.61,35.65-7.71,1.35-.76,2.7-1.53,4.04-2.29"/>
          <path class="cls-5" d="M173.75,231.13l4.04-2.29c.75-.63,2.6-2.02,4.39-1.53,2.31.62,3.07,3.96,3.81,7.26.81,3.55,1.42,6.26.01,9.21-1.55,3.25-4.57,4.7-5.76,5.19"/>
          <path class="cls-5" d="M103.51,238.84c.03.22.05.43.06.66.26,6.49,1.38,12.72,1.03,19.21h14.37c.08-6.63.24-13.25.31-19.88h-15.77Z"/>
          <rect class="cls-15" x="117.53" y="239.68" width="2.79" height="18.16" transform="translate(237.85 497.52) rotate(-180)"/>
          <rect class="cls-24" x="116.03" y="238.84" width="5.05" height="19.88" transform="translate(237.11 497.55) rotate(-180)"/>
          <path class="cls-3" d="M117.83,258.71h8.66c.55-.09,1.69-.36,2.82-1.31,1.09-.91,1.64-1.99,1.88-2.55.51-1.03,1.34-3.05,1.46-5.78.12-2.8-.58-4.95-1.01-6.03-.32-.67-1.03-1.9-2.34-2.9-1.11-.85-2.19-1.18-2.83-1.31h-8.65"/>
          <path class="cls-3" d="M122.82,258.71h-8.66c-.55-.09-1.69-.36-2.82-1.31-1.09-.91-1.64-1.99-1.88-2.55-.51-1.03-1.34-3.05-1.46-5.78-.12-2.8.58-4.95,1.01-6.03.32-.67,1.03-1.9,2.34-2.9,1.11-.85,2.19-1.18,2.83-1.31h8.65"/>
          <path class="cls-8" d="M129.76,244.55c-.26-.55-.73-1.39-1.59-2.16-1.42-1.27-2.98-1.55-3.63-1.62"/>
          <path class="cls-5" d="M59.46,228.3c-1.33-.67-2.67-1.34-4-2.01-.46-.23-1.11-.44-1.79-.28-2.34.57-2.99,5.16-3.4,8.05-.62,4.41-.95,6.72.48,9.13,1.74,2.95,4.87,3.98,6.05,4.3"/>
          <path class="cls-11" d="M102.84,238.82c-.03,3.31.22,5.94.45,7.72.35,2.68.78,4.26.87,7.1.07,2.13-.08,3.87-.21,4.99"/>
          <path class="cls-11" d="M137.84,238.85c.03,3.31-.22,5.94-.45,7.72-.35,2.68-.78,4.26-.87,7.1-.07,2.13.08,3.87.21,4.99"/>
          <path class="cls-11" d="M137.17,238.89c.03,3.31-.22,5.94-.45,7.72-.35,2.68-.78,4.26-.87,7.1-.07,2.13.08,3.87.21,4.99"/>
          <path class="cls-6" d="M181.15,231.24c.22.43.46,1,.68,1.71.62,2.02.69,4.07.68,5.13"/>
          <circle class="cls-21" cx="182.62" cy="241.21" r=".88"/>
        </g>
        <path class="cls-1" d="M203.17,67.67c.08-.76.18-2.65-.87-4.63-1.53-2.88-4.34-3.77-4.91-3.93"/>
        <path class="cls-7" d="M163.13,129.41c5.59-.76,13.36,8.75,11.63,11.75-2.39,4.16-23.78-2.81-23.52-5.79.05-.63,1.04-.67,6.57-3.42,4.19-2.08,4.36-2.41,5.32-2.54Z"/>
        <path class="cls-7" d="M148.01,136.88c1.11-.47,2.19-.97,3.22-1.51.58-.3,2.18-1.16,4.48-1.83"/>
        <path class="cls-23" d="M156.74,134.82c.62-.3,1.24-.3,1.86,0-.77-.5-1.74-.4-2.52,0-1.38.71-2.77,1.43-4.17,2.1-.34.16-.69.32-1.04.48-.16.07-.32.14-.48.21-.06.03-.72.31-.35.15s-.29.12-.35.14c-.16.07-.33.13-.49.19-.38.15-.77.29-1.16.43l1.93,4.57c.37-.25.74-.5,1.11-.75,1.08-.73,1.66-2.23.9-3.42-.69-1.08-2.26-1.68-3.42-.9-.37.25-.74.5-1.11.75-1.04.7-1.53,1.93-1.02,3.12.45,1.08,1.77,1.86,2.95,1.45,3.2-1.12,6.23-2.66,9.23-4.21h-2.52c.93.59,2.26.6,3.19,0,1.09-.72,1.66-2.24.9-3.42-.7-1.09-2.25-1.67-3.42-.9h0Z"/>
        <path class="cls-23" d="M168.03,139.48c-.01.1-.01.2,0,.3,0,.16.04.32.06.47s.04.32.07.48c.12.42.33.79.64,1.1.31.31.68.52,1.1.64.44.12.89.12,1.33,0,.42-.12.79-.33,1.1-.64.16-.19.32-.39.46-.6.02-.04.05-.08.07-.12.11-.23.22-.47.3-.71.01-.04.03-.09.03-.13l-4.91-.66c.02.16.04.31.06.47-.01.34.06.67.22.96.1.31.27.58.52.8.23.24.49.42.8.52.3.16.62.23.96.22l.66-.09c.42-.12.79-.33,1.1-.64l.39-.51c.23-.39.34-.81.34-1.26-.02-.16-.04-.31-.06-.47.01-.34-.06-.67-.22-.96-.1-.31-.27-.58-.52-.8l-.51-.39c-.29-.18-.6-.28-.93-.3-.22-.06-.44-.06-.66,0-.33.02-.64.11-.93.3l-.51.39c-.31.31-.52.68-.64,1.1-.01.07-.03.14-.06.2l.25-.6c-.03.08-.07.15-.13.22l.39-.51s-.02.03-.03.04l4.18,1.1s-.02-.1-.03-.14l.09.66c-.02-.14-.02-.29,0-.44.01-.34-.06-.67-.22-.96-.1-.31-.27-.58-.52-.8-.23-.24-.49-.42-.8-.52-.3-.16-.62-.23-.96-.22l-.66.09c-.42.12-.79.33-1.1.64l-.39.51c-.23.39-.34.81-.34,1.26h0Z"/>
        <path class="cls-7" d="M173.85,138.16c.46.83.94,1.94.91,3-.23,7.98-28.89,15.55-53.48,16.77,0,0-23.27,1.15-51.75-10.51-3.88-1.59-8.44-3.75-8.5-6.64-.08-3.6,6.82-7.96,13.08-7.64,4.52.23,5.7,2.74,13.48,5.37.93.31,1.79.58,2.63.81,0,0,3.35.93,7.15,1.47,17.83,2.51,31.2.53,31.2.53,5.81-.7,13.18-2.2,21.25-5.43,4.84-1.94,8.99-4.12,12.46-6.23"/>
        <path class="cls-7" d="M81.95,143.55c1.64,2.21-1.46,6.03-3.24,11.53-1.8,5.58-1.33,10.12-.7,16.15,1.42,13.64,7.44,13.26,8.48,24.65,1,10.83-4.34,12.31-2.33,23.91.89,5.17,2.67,9.05.49,11.52-1.17,1.33-4,1.6-9.62,2.09-5.45.48-8.2.69-9.55-.29-.99-.72-2.76-2.81-1.87-13.05,1.04-12.1,5.25-13.84,5.32-22.42.05-7.22-2.93-6.61-5.31-18.87-1.75-8.99-1.36-15.56-.98-21.18.49-7.29,1.07-16.09,5.14-17.38,1.28-.41,1.59.35,8.02,1.67,4.63.95,5.48.77,6.16,1.67Z"/>
        <rect class="cls-10" x="161.37" y="129.59" width="5.95" height="19.19" rx="1.23" ry="1.23" transform="translate(-49.08 110.31) rotate(-32.56)"/>
        <rect class="cls-10" x="146.86" y="136.4" width="5.95" height="17.41" rx="1.23" ry="1.23" transform="translate(-38.14 54.7) rotate(-18.4)"/>
        <rect class="cls-10" x="128.59" y="140.67" width="5.95" height="16.4" rx="1.23" ry="1.23" transform="translate(-10.95 10.45) rotate(-4.37)"/>
        <rect class="cls-10" x="108.02" y="141.97" width="5.95" height="15.81" rx="1.23" ry="1.23" transform="translate(10.38 -7.16) rotate(3.87)"/>
        <rect class="cls-10" x="91.3" y="140.61" width="5.95" height="13.96" rx="1.23" ry="1.23" transform="translate(32.96 -16.45) rotate(12.07)"/>
        <rect class="cls-10" x="77.01" y="135.9" width="5.95" height="15.81" rx="1.23" ry="1.23" transform="translate(57.45 -19.2) rotate(21.21)"/>
        <rect class="cls-10" x="67.44" y="131.61" width="2.02" height="14.66" rx=".72" ry=".72" transform="translate(118.3 -7.71) rotate(45)"/>
        <rect class="cls-10" x="68.03" y="144.75" width="5.87" height="16.26" rx="1.23" ry="1.23" transform="translate(-95.64 178.36) rotate(-73.79)"/>
        <rect class="cls-10" x="66.99" y="157.59" width="5.87" height="15.24" rx="1.23" ry="1.23" transform="translate(-99.63 223.82) rotate(-86.13)"/>
        <rect class="cls-10" x="69.18" y="173.23" width="5.87" height="15.65" rx="1.23" ry="1.23" transform="translate(-78.96 304.17) rotate(-107.46)"/>
        <rect class="cls-10" x="74.75" y="186.74" width="5.87" height="17.4" rx="1.23" ry="1.23" transform="translate(-99.76 308.33) rotate(-100.79)"/>
        <rect class="cls-10" x="72.28" y="201.22" width="5.87" height="17.81" rx="1.23" ry="1.23" transform="translate(-145.8 241.1) rotate(-78.28)"/>
        <rect class="cls-10" x="71.38" y="216.17" width="5.87" height="21.71" rx="1.23" ry="1.23" transform="translate(-144.6 322.62) rotate(-95.47)"/>
        <path class="cls-9" d="M38.43,62.62c1.1-6.93,3.81-18.27,11.39-29.4C65.09,10.81,88.78,5.92,98.99,3.81c8.79-1.81,38.57-7.96,65.96,12.14,19.47,14.29,27.3,34.2,29.98,42.18"/>
      </g>
    </g>
  </g>
</svg>