<?xml version="1.0" encoding="UTF-8"?>
<svg id="Layer_2" data-name="Layer 2" xmlns="http://www.w3.org/2000/svg" viewBox="0 0 264.51 442.18">
  <defs>
    <style>
      .cls-1, .cls-2, .cls-3, .cls-4, .cls-5, .cls-6, .cls-7, .cls-8, .cls-9, .cls-10, .cls-11, .cls-12, .cls-13, .cls-14, .cls-15, .cls-16, .cls-17, .cls-18 {
        stroke-miterlimit: 10;
      }

      .cls-1, .cls-2, .cls-4, .cls-5, .cls-6, .cls-7, .cls-9, .cls-10, .cls-12, .cls-15, .cls-16, .cls-18 {
        stroke-linecap: round;
      }

      .cls-1, .cls-7, .cls-14, .cls-16 {
        fill: none;
      }

      .cls-1, .cls-10 {
        opacity: .5;
        stroke: #6d9bca;
      }

      .cls-2 {
        stroke: #e5dede;
      }

      .cls-2, .cls-4, .cls-9, .cls-12, .cls-13, .cls-19 {
        fill: #eee4da;
      }

      .cls-3, .cls-7, .cls-9 {
        stroke: #fdf0e5;
      }

      .cls-3, .cls-20 {
        fill: #fdf0e5;
      }

      .cls-4 {
        stroke: #d5cfcf;
      }

      .cls-5, .cls-10, .cls-21 {
        fill: #6d9bca;
      }

      .cls-5, .cls-18 {
        stroke: #3c735b;
      }

      .cls-22 {
        fill: #151515;
      }

      .cls-22, .cls-23, .cls-20, .cls-24, .cls-21, .cls-25, .cls-19 {
        stroke-width: 0px;
      }

      .cls-6 {
        fill: #438066;
      }

      .cls-6, .cls-12, .cls-13, .cls-14, .cls-15, .cls-17 {
        stroke: #eee4da;
      }

      .cls-23 {
        fill: #f1e4da;
      }

      .cls-24 {
        fill: #363636;
      }

      .cls-8 {
        fill: #1f3669;
        stroke: #1f3669;
      }

      .cls-11 {
        fill: #111c2f;
        opacity: .3;
      }

      .cls-11, .cls-16 {
        stroke: #111c2f;
      }

      .cls-25, .cls-15, .cls-17 {
        fill: #f39547;
      }

      .cls-16 {
        stroke-width: 3px;
      }

      .cls-18 {
        fill: #392851;
      }
    </style>
  </defs>
  <g id="Layer_16" data-name="Layer 16">
    <g id="Vinter2">
      <g>
        <path class="cls-8" d="M209.18,65.41c1.27-.72,3.19-.02,7.04,1.38,4.32,1.57,7.55,2.6,9.63,5.45,2.59,3.55,2.48,7.2,2.29,13.69-.16,5.35-.33,11.24-4.37,14.66-.91.77-1.95,1.17-3.98,2.04-4.09,1.75-6.92,2.96-8.72,2.17-2.92-1.28-1.67-7.18-2.2-19.07-.57-12.7-2.57-18.68.3-20.31Z"/>
        <ellipse id="krop" class="cls-20" cx="133.95" cy="241.59" rx="66.18" ry="101.91"/>
        <path id="ben1_skygge" data-name="ben1 skygge" class="cls-19" d="M128.87,331.27c3.79,20.22,3.33,36.83,2.36,47.57-.85,9.38-3.72,41.1-19.05,53.52-2.06,1.67-7.41,6-14.64,6.02,0,0-5.7.02-11.44-3.62"/>
        <path id="ben_1" data-name="ben 1" class="cls-20" d="M126.39,324.03c5.2,23.79,4.42,43.27,3.11,55.32-1.02,9.35-4.45,40.96-20.18,53.08-2.11,1.63-7.6,5.86-14.91,5.75,0,0-5.77-.09-11.51-3.81-10.1-6.56-36.23-59.85-28.12-140.92,2.9-28.98,12.19-81.66,47.9-140.4"/>
        <path id="ben2_skygge" data-name="ben2 skygge" class="cls-19" d="M138.08,331.23c-4.57,20.74-4.46,37.85-3.67,48.93.69,9.68,3.04,42.39,19.29,55.51,2.18,1.76,7.86,6.34,15.65,6.52,0,0,6.15.14,12.42-3.48"/>
        <path id="ben_2" data-name="ben 2" class="cls-20" d="M139.57,327.9c-5.2,23.79-4.42,43.27-3.11,55.32,1.02,9.35,4.45,40.96,20.18,53.08,2.11,1.63,7.6,5.86,14.91,5.75,0,0,5.77-.09,11.51-3.81,10.1-6.56,36.23-59.85,28.12-140.92-2.9-28.98-12.19-81.66-47.9-140.4"/>
        <path id="arm2_skygge" data-name="arm2 skygge" class="cls-19" d="M203.33,254.6c-4.16-4.31-7.97-9.54-11.13-15.51-9.31-17.62-10.08-36.33-2.95-46.76"/>
        <ellipse id="arm_2" data-name="arm 2" class="cls-20" cx="203.33" cy="205.25" rx="27.34" ry="65.59" transform="translate(-82.78 165.13) rotate(-37.29)"/>
        <path id="arm1_skygge" data-name="arm1 skygge" class="cls-19" d="M62.08,250.35c4.16-4.31,7.97-9.54,11.13-15.51,9.31-17.62,10.08-36.33,2.95-46.76"/>
        <ellipse id="arm1" class="cls-20" cx="61.18" cy="205.34" rx="65.59" ry="27.34" transform="translate(-139.25 129.62) rotate(-52.71)"/>
        <g id="hånd_2" data-name="hånd 2">
          <ellipse class="cls-20" cx="245.28" cy="269.79" rx="14.19" ry="27.06" transform="translate(-109.38 185.16) rotate(-34.3)"/>
          <ellipse class="cls-23" cx="248.79" cy="261.44" rx="7.21" ry="14.37" transform="translate(-104.07 185.68) rotate(-34.3)"/>
          <ellipse class="cls-20" cx="248.95" cy="260.4" rx="6.5" ry="15.14" transform="translate(-103.45 185.59) rotate(-34.3)"/>
        </g>
        <g id="hånd_1" data-name="hånd 1">
          <ellipse class="cls-20" cx="19.24" cy="269.88" rx="27.06" ry="14.19" transform="translate(-214.54 133.67) rotate(-55.7)"/>
          <ellipse class="cls-23" cx="15.72" cy="261.53" rx="14.37" ry="7.21" transform="translate(-209.18 127.13) rotate(-55.7)"/>
          <ellipse class="cls-20" cx="15.56" cy="260.49" rx="15.14" ry="6.5" transform="translate(-208.39 126.54) rotate(-55.7)"/>
        </g>
        <ellipse id="hoved_skygge" data-name="hoved skygge" class="cls-19" cx="129.83" cy="88.82" rx="83.21" ry="75.29"/>
        <ellipse id="hoved" class="cls-20" cx="129.5" cy="86.71" rx="83.21" ry="75.29"/>
        <g id="fod1">
          <path class="cls-14" d="M122.04,421.71c0-5.84-10.83-10.58-24.19-10.58s-24.19,4.74-24.19,10.58"/>
          <ellipse class="cls-20" cx="98.31" cy="426.59" rx="26.8" ry="15.46"/>
        </g>
        <g id="fod2">
          <path class="cls-14" d="M192.35,421.71c0-5.84-10.83-10.58-24.19-10.58s-24.19,4.74-24.19,10.58"/>
          <ellipse class="cls-20" cx="168.62" cy="426.59" rx="26.8" ry="15.46"/>
        </g>
        <g>
          <g id="glasrim">
            <g id="glasrim-2" data-name="glasrim">
              <g id="glasrim-3" data-name="glasrim">
                <path class="cls-13" d="M146.25,141.66c-15.59,1.2-49.91.39-60.91-32.11-5.56-16.44-2.48-33.04-2.03-35.27,6.39-32.5,35.61-47.1,58.83-49.18l-2.19,115.91c1.35.16,3.53.45,6.29.65Z"/>
                <path class="cls-13" d="M152.55,141.02c-1.35.16-3.53.45-6.29.65-2.77-.2-4.94-.48-6.29-.65l2.19-115.91c1.4-.13,2.77-.22,4.11-.25,1.4-.04,2.77-.02,4.1.04v.22l2.2,115.91Z"/>
                <path class="cls-13" d="M207.16,109.55c-10.99,32.5-45.31,33.31-60.91,32.11,2.77-.2,4.94-.48,6.29-.65l-2.2-115.91c23.22,2.08,52.44,16.67,58.84,49.18.43,2.23,3.53,18.83-2.03,35.27Z"/>
                <path class="cls-13" d="M152.55,141.02c-1.35.16-3.53.45-6.29.65-2.77-.2-4.94-.48-6.29-.65l2.19-115.91v-.22c1.33-.05,2.71-.07,4.11-.04,1.34.04,2.71.13,4.1.25l2.2,115.91Z"/>
              </g>
              <line class="cls-13" x1="150.39" y1="27.14" x2="152.55" y2="141.02"/>
              <line class="cls-13" x1="142.03" y1="27.98" x2="139.96" y2="140.92"/>
              <ellipse class="cls-13" cx="146.25" cy="46.86" rx="30.94" ry="19.99"/>
              <ellipse class="cls-13" cx="147.4" cy="119.94" rx="30.94" ry="19.99"/>
            </g>
            <g id="glasrim-4" data-name="glasrim">
              <path class="cls-13" d="M144.78,147.3c-15.59,1.2-49.91.39-60.91-32.11-5.56-16.44-2.48-33.04-2.03-35.27,6.39-32.5,35.61-47.1,58.83-49.18l-2.19,115.91c1.35.16,3.53.45,6.29.65Z"/>
              <path class="cls-13" d="M151.07,146.66c-1.35.16-3.53.45-6.29.65-2.77-.2-4.94-.48-6.29-.65l2.19-115.91c1.4-.13,2.77-.22,4.11-.25,1.4-.04,2.77-.02,4.1.04v.22l2.2,115.91Z"/>
              <path class="cls-13" d="M205.69,115.19c-10.99,32.5-45.31,33.31-60.91,32.11,2.77-.2,4.94-.48,6.29-.65l-2.2-115.91c23.22,2.08,52.44,16.67,58.84,49.18.43,2.23,3.53,18.83-2.03,35.27Z"/>
              <path class="cls-13" d="M151.07,146.66c-1.35.16-3.53.45-6.29.65-2.77-.2-4.94-.48-6.29-.65l2.19-115.91v-.22c1.33-.05,2.71-.07,4.11-.04,1.34.04,2.71.13,4.1.25l2.2,115.91Z"/>
            </g>
            <line class="cls-13" x1="148.91" y1="32.78" x2="151.07" y2="146.66"/>
            <line class="cls-13" x1="140.56" y1="33.62" x2="138.49" y2="146.56"/>
            <ellipse class="cls-13" cx="144.78" cy="52.5" rx="30.94" ry="19.99"/>
            <ellipse class="cls-13" cx="145.93" cy="125.58" rx="30.94" ry="19.99"/>
          </g>
          <g id="glasrim-5" data-name="glasrim">
            <g id="glasrim-6" data-name="glasrim">
              <g id="glasrim-7" data-name="glasrim">
                <path class="cls-13" d="M143.32,111.82c-14.9.91-47.68.3-58.18-24.33-5.31-12.46-2.37-25.04-1.94-26.72,6.1-24.63,34.02-35.69,56.2-37.27l-2.09,87.83c1.29.12,3.37.34,6.01.49Z"/>
                <path class="cls-13" d="M149.33,111.33c-1.29.12-3.37.34-6.01.49-2.64-.15-4.72-.37-6.01-.49l2.09-87.83c1.34-.1,2.64-.16,3.92-.19,1.34-.03,2.64-.01,3.91.03v.16l2.1,87.83Z"/>
                <path class="cls-13" d="M201.5,87.49c-10.5,24.63-43.28,25.24-58.18,24.33,2.64-.15,4.72-.37,6.01-.49l-2.1-87.83c22.18,1.58,50.09,12.63,56.21,37.27.42,1.69,3.37,14.27-1.94,26.72Z"/>
                <path class="cls-13" d="M149.33,111.33c-1.29.12-3.37.34-6.01.49-2.64-.15-4.72-.37-6.01-.49l2.09-87.83v-.16c1.27-.04,2.58-.05,3.92-.03,1.28.03,2.58.1,3.91.19l2.1,87.83Z"/>
              </g>
              <line class="cls-13" x1="147.26" y1="25.05" x2="149.33" y2="111.33"/>
              <line class="cls-13" x1="139.28" y1="25.68" x2="137.3" y2="111.26"/>
              <ellipse class="cls-13" cx="143.32" cy="39.98" rx="29.56" ry="15.15"/>
              <ellipse class="cls-13" cx="144.41" cy="95.36" rx="29.56" ry="15.15"/>
            </g>
            <g id="glasrim-8" data-name="glasrim">
              <path class="cls-13" d="M141.91,116.1c-14.9.91-47.68.3-58.18-24.33-5.31-12.46-2.37-25.04-1.94-26.72,6.1-24.63,34.02-35.69,56.2-37.27l-2.09,87.83c1.29.12,3.37.34,6.01.49Z"/>
              <path class="cls-13" d="M147.92,115.61c-1.29.12-3.37.34-6.01.49-2.64-.15-4.72-.37-6.01-.49l2.09-87.83c1.34-.1,2.64-.16,3.92-.19,1.34-.03,2.64-.01,3.91.03v.16l2.1,87.83Z"/>
              <path class="cls-13" d="M200.09,91.77c-10.5,24.63-43.28,25.24-58.18,24.33,2.64-.15,4.72-.37,6.01-.49l-2.1-87.83c22.18,1.58,50.09,12.63,56.21,37.27.42,1.69,3.37,14.27-1.94,26.72Z"/>
              <path class="cls-13" d="M147.92,115.61c-1.29.12-3.37.34-6.01.49-2.64-.15-4.72-.37-6.01-.49l2.09-87.83v-.16c1.27-.04,2.58-.05,3.92-.03,1.28.03,2.58.1,3.91.19l2.1,87.83Z"/>
            </g>
            <line class="cls-13" x1="145.86" y1="29.32" x2="147.92" y2="115.61"/>
            <line class="cls-13" x1="137.88" y1="29.95" x2="135.9" y2="115.54"/>
            <ellipse class="cls-13" cx="141.91" cy="44.26" rx="29.56" ry="15.15"/>
            <ellipse class="cls-13" cx="143.01" cy="99.64" rx="29.56" ry="15.15"/>
          </g>
        </g>
        <g id="skærm">
          <g id="glas">
            <path class="cls-22" d="M147.52,144.71c-15.84,1.26-50.7.42-61.86-33.75-5.64-17.28-2.52-34.74-2.06-37.07,6.49-34.17,36.17-49.51,59.75-51.7l-2.22,121.85c1.37.17,3.58.47,6.39.68Z"/>
            <path class="cls-22" d="M153.91,144.03c-1.37.17-3.58.47-6.39.68-2.81-.21-5.02-.51-6.39-.68l2.22-121.85c1.42-.13,2.81-.23,4.17-.26,1.42-.04,2.81-.02,4.16.04v.23l2.23,121.85Z"/>
            <path class="cls-22" d="M209.38,110.95c-11.16,34.17-46.02,35.02-61.86,33.75,2.81-.21,5.02-.51,6.39-.68l-2.23-121.85c23.58,2.19,53.26,17.53,59.76,51.7.44,2.34,3.58,19.79-2.06,37.07Z"/>
            <path class="cls-22" d="M180.77,140.91c-8.39,2.56-17.54,4.51-27.38,5.42-1.97.18-3.92.32-5.84.41-2.28.03-4.63-.03-7.07-.2-8.06-.54-15.37-2.14-21.82-4.2,3.6-39.15,7.2-78.3,10.79-117.45h0c7.38-2.28,13.59-2.89,18.06-2.97,4.17-.08,7.23.28,7.89.36,7.06.86,12.76,3.03,16.68,4.88,2.89,37.92,5.79,75.83,8.68,113.75Z"/>
          </g>
          <path class="cls-20" d="M204.75,62.17c.4-.48-4.67-11.44-14-19.57-9-7.84-18.33-9.88-18.5-9.24-.16.57,7.08,3.11,16.3,10.98,10.58,9.03,15.82,18.29,16.21,17.83Z"/>
          <ellipse class="cls-20" cx="206.33" cy="66.04" rx=".97" ry="1.37"/>
          <path class="cls-24" d="M177.29,129.26c-.22-4.96-.86-20.52-.55-20.49.7.05,1.25,20.39.55,20.49-.53.08-3.59-11.09-.55-20.49,2.3-7.12,7.8-12.33,10.49-10.8,1.09.62,3.17,3.17,3.17,3.17,1.14-9.95,4.38-16.48,4.38-16.48,1.3-2.62,3.03-6.1,4.95-5.81,3.21.47,4.81,10.65,5.16,12.87.06.39.16,1,.27,1.8,3.05,22.16-6.34,34.64-6.34,34.64-3.35,4.57-6.89,6.33-9.6,7.67-3.31,1.64-8.09,4.01-10.5.96-1.13-1.42-1.26-3.43-1.44-7.52Z"/>
        </g>
        <path class="cls-1" d="M227.15,79.52c.09-.85.2-2.96-.97-5.17-1.71-3.22-4.85-4.21-5.49-4.4"/>
        <path class="cls-20" d="M241.41,238.7c.8-.27,1.99,1.3,2.91,2.55,4.73,6.37,6.95,15.68,5.1,16.57-1.47.71-5.59-3.87-7.47-8.56-1.8-4.51-1.91-10.11-.55-10.56Z"/>
        <path class="cls-20" d="M23.17,238.96c.77.36.55,2.31.36,3.85-.96,7.88-5.75,16.16-7.71,15.53-1.55-.5-1.4-6.65.48-11.35,1.8-4.51,5.57-8.65,6.87-8.04Z"/>
        <ellipse class="cls-13" cx="43.69" cy="79.43" rx="9.96" ry="18.63"/>
        <path class="cls-8" d="M33.74,78.21c-.43,7.85,3.35,16.72,9.96,19.84,2.07.98,2.22.35,15.25,1.17,8.44.53,9.5.96,10.94-.1,3.4-2.5,1.29-7.53,1.8-20.19.51-12.75,3.03-17.18,0-19.85-.97-.85-2.09-1.16-14.33-.15-11.74.96-12.8,1.41-13.66,1.87-6.26,3.29-9.6,10.87-9.96,17.41Z"/>
        <path class="cls-1" d="M43.85,60.36c2.1,1.89,7.23,7.04,8.34,14.87,1.8,12.72-8.6,21.55-9.92,22.64"/>
        <path class="cls-1" d="M70.4,59.42c-2.26-.1-5.01-.09-8.1.19-3.49.32-6.48.9-8.84,1.48"/>
        <circle class="cls-10" cx="49.12" cy="62.16" r=".36"/>
        <ellipse class="cls-3" cx="67.35" cy="249.26" rx="1.02" ry=".51"/>
        <g id="bælte">
          <path class="cls-6" d="M63.75,277.63c2.17.96,5.81,2.52,9.53,3.88,4.63,1.7,21.14,6.25,44.13,9.06h19.73c.09-7.41.27-14.81.35-22.22h-21.04c-13.59,0-27.08-2.92-39.86-8.62-3.58-1.28-7.16-2.57-10.74-3.85"/>
          <polygon class="cls-21" points="98.1 269.36 87.97 267.16 87.15 271.08 97.29 273.28 98.1 269.36"/>
          <path class="cls-15" d="M160.24,268.32c-.57.01-1.14.03-1.71.03h-21.04c.08,7.41.26,14.81.35,22.22h19.73c1.16,0,2.32-.05,3.48-.09-.42-7.38-.69-14.77-.82-22.16Z"/>
          <rect class="cls-17" x="136.33" y="269.3" width="3.12" height="20.3"/>
          <rect class="cls-25" x="135.48" y="268.35" width="5.64" height="22.22"/>
          <path class="cls-5" d="M99.95,269.56l-1.41,15.49c-.05.51-.64.87-1.21.72l-12.17-3.01c-.43-.11-.7-.46-.65-.84l2.11-14.89c.11-.76,1.29-.99,1.74-.34l3.2,4.72c.25.37.82.5,1.27.27l5.73-2.86c.65-.32,1.45.09,1.39.73Z"/>
          <line class="cls-18" x1="87.42" y1="266.29" x2="99.67" y2="269.13"/>
          <path class="cls-2" d="M139.12,290.57h-9.68c-.62-.1-1.88-.4-3.15-1.46-1.22-1.02-1.83-2.22-2.11-2.85-.56-1.15-1.5-3.42-1.63-6.47-.13-3.13.65-5.53,1.13-6.74.36-.74,1.15-2.12,2.61-3.24,1.25-.95,2.45-1.32,3.16-1.47h9.67"/>
          <path class="cls-2" d="M133.54,290.57h9.68c.62-.1,1.88-.4,3.15-1.46,1.22-1.02,1.83-2.22,2.11-2.85.56-1.15,1.5-3.42,1.63-6.47.13-3.13-.65-5.53-1.13-6.74-.36-.74-1.15-2.12-2.61-3.24-1.25-.95-2.45-1.32-3.16-1.47h-9.67"/>
          <path class="cls-9" d="M147.09,274.78c-.29-.62-.82-1.56-1.78-2.41-1.58-1.42-3.34-1.73-4.06-1.81"/>
          <rect class="cls-25" x="157.62" y="269.3" width="6.9" height="20.3"/>
          <path class="cls-6" d="M202.78,279.71c-2.1,1.08-3.73,1.75-3.96,1.85-19.24,7.99-37.76,8.93-37.76,8.93-1.37.07-3.59.16-6.37.13h-19.73c-.09-7.41-.27-14.81-.35-22.22h21.04c13.59,0,27.08-2.92,39.86-8.62,1.51-.85,3.01-1.71,4.52-2.56"/>
          <path class="cls-6" d="M195.5,259.77l4.52-2.56c.84-.71,2.91-2.26,4.91-1.72,2.58.7,3.43,4.42,4.26,8.12.9,3.97,1.59,7,.02,10.29-1.74,3.64-5.11,5.25-6.44,5.8"/>
          <path class="cls-6" d="M116.98,268.39c.03.24.05.48.06.74.29,7.26,1.54,14.22,1.15,21.48h16.07c.09-7.41.27-14.81.35-22.22h-17.63Z"/>
          <rect class="cls-17" x="132.65" y="269.34" width="3.12" height="20.3" transform="translate(268.42 558.98) rotate(-180)"/>
          <rect class="cls-25" x="130.98" y="268.39" width="5.64" height="22.22" transform="translate(267.6 559.01) rotate(-180)"/>
          <path class="cls-4" d="M132.98,290.61h9.68c.62-.1,1.88-.4,3.15-1.46,1.22-1.02,1.83-2.22,2.11-2.85.56-1.15,1.5-3.42,1.63-6.47.13-3.13-.65-5.53-1.13-6.74-.36-.74-1.15-2.12-2.61-3.24-1.25-.95-2.45-1.32-3.16-1.47h-9.67"/>
          <path class="cls-4" d="M138.56,290.61h-9.68c-.62-.1-1.88-.4-3.15-1.46-1.22-1.02-1.83-2.22-2.11-2.85-.56-1.15-1.5-3.42-1.63-6.47-.13-3.13.65-5.53,1.13-6.74.36-.74,1.15-2.12,2.61-3.24,1.25-.95,2.45-1.32,3.16-1.47h9.67"/>
          <path class="cls-9" d="M146.33,274.78c-.29-.62-.82-1.56-1.78-2.41-1.58-1.42-3.34-1.73-4.06-1.81"/>
          <path class="cls-6" d="M67.72,256.62c-1.49-.75-2.98-1.5-4.47-2.24-.52-.25-1.24-.5-2-.31-2.61.63-3.34,5.77-3.8,8.99-.7,4.93-1.06,7.51.54,10.21,1.95,3.3,5.45,4.45,6.77,4.81"/>
          <path class="cls-12" d="M116.23,268.37c-.04,3.7.25,6.64.51,8.63.4,2.99.87,4.77.97,7.93.08,2.38-.09,4.33-.24,5.57"/>
          <path class="cls-12" d="M155.36,268.41c.04,3.7-.25,6.64-.51,8.63-.4,2.99-.87,4.77-.97,7.93-.08,2.38.09,4.33.24,5.57"/>
          <path class="cls-12" d="M154.61,268.45c.04,3.7-.25,6.64-.51,8.63-.4,2.99-.87,4.77-.97,7.93-.08,2.38.09,4.33.24,5.57"/>
          <path class="cls-7" d="M203.78,259.9c.25.49.52,1.11.76,1.91.69,2.26.77,4.55.76,5.74"/>
          <circle class="cls-20" cx="205.42" cy="271.04" r=".98"/>
        </g>
        <g>
          <path class="cls-8" d="M195.5,158.96c.52.98,1.05,2.31,1.02,3.58-.26,9.51-32.3,18.53-59.79,19.99,0,0-26.02,1.38-57.86-12.53-4.33-1.89-9.44-4.47-9.51-7.92-.09-4.29,7.62-9.49,14.63-9.11,5.05.27,6.38,3.26,15.07,6.4,1.04.37,2,.69,2.94.96,0,0,3.74,1.11,8,1.75,19.94,2.99,34.88.64,34.88.64,6.49-.84,14.73-2.62,23.76-6.47,5.41-2.31,10.05-4.91,13.93-7.43"/>
          <path class="cls-8" d="M92.76,165.38c1.84,2.64-1.64,7.19-3.62,13.74-2.01,6.65-1.48,12.06-.78,19.25,1.59,16.26,8.31,15.8,9.48,29.37,1.11,12.91-4.85,14.67-2.61,28.49,1,6.16,2.99,10.78.55,13.73-1.31,1.59-4.48,1.91-10.76,2.5-6.09.57-9.17.83-10.68-.35-1.1-.86-3.08-3.35-2.09-15.56,1.17-14.41,5.87-16.49,5.95-26.72.06-8.61-3.27-7.88-5.93-22.49-1.95-10.71-1.52-18.55-1.1-25.25.54-8.69,1.2-19.17,5.74-20.72,1.43-.49,1.78.41,8.97,1.99,5.18,1.14,6.13.92,6.88,2Z"/>
          <path class="cls-11" d="M189.47,170.63l2.35-1.6c.9-.61,1.16-1.88.59-2.84l-9.47-15.81c-.57-.96-1.77-1.24-2.66-.63l-2.35,1.6c-.9.61-1.16,1.88-.59,2.84l9.47,15.81c.57.96,1.77,1.24,2.66.63Z"/>
          <path class="cls-11" d="M170.4,177.56l2.65-.94c1.01-.36,1.56-1.52,1.22-2.6l-4.93-15.79c-.34-1.08-1.43-1.66-2.44-1.3l-2.65.94c-1.01.36-1.56,1.52-1.22,2.6l4.93,15.79c.34,1.08,1.43,1.66,2.44,1.3Z"/>
          <path class="cls-11" d="M147.54,181.58l2.79-.23c1.06-.09,1.86-1.07,1.78-2.21l-1.1-15.39c-.08-1.13-1.01-1.98-2.07-1.89l-2.79.23c-1.06.09-1.86,1.07-1.78,2.21l1.1,15.39c.08,1.13,1.01,1.98,2.07,1.89Z"/>
          <path class="cls-11" d="M123.25,182.22l2.79.2c1.06.08,1.98-.78,2.05-1.91l.93-14.7c.07-1.13-.73-2.11-1.79-2.19l-2.79-.2c-1.06-.08-1.98.78-2.05,1.91l-.93,14.7c-.07,1.13.73,2.11,1.79,2.19Z"/>
          <path class="cls-11" d="M103.54,178.03l2.73.62c1.04.24,2.07-.47,2.29-1.58l2.46-12.25c.22-1.11-.44-2.2-1.48-2.44l-2.73-.62c-1.04-.24-2.07.47-2.29,1.58l-2.46,12.25c-.22,1.11.44,2.2,1.48,2.44Z"/>
          <path class="cls-11" d="M86.07,173.94l2.6,1.08c.99.41,2.11-.11,2.5-1.17l5-13.73c.39-1.06-.11-2.25-1.1-2.66l-2.6-1.08c-.99-.41-2.11.11-2.5,1.17l-5,13.73c-.39,1.06.11,2.25,1.1,2.66Z"/>
          <path class="cls-11" d="M71.87,166.07h0c.44.47,1.16.47,1.6,0l9.99-10.65c.44-.47.44-1.23,0-1.7h0c-.44-.47-1.16-.47-1.6,0l-9.99,10.65c-.44.47-.44,1.23,0,1.7Z"/>
          <path class="cls-11" d="M88.84,180.59l.76-2.77c.3-1.09-.29-2.23-1.31-2.55l-13.75-4.26c-1.02-.32-2.09.31-2.39,1.4l-.76,2.77c-.3,1.09.29,2.23,1.31,2.55l13.75,4.26c1.02.32,2.09-.31,2.39-1.4Z"/>
          <path class="cls-11" d="M87.73,193.26l.18-2.88c.07-1.13-.73-2.11-1.79-2.19l-13.16-.95c-1.06-.08-1.98.78-2.05,1.91l-.18,2.88c-.07,1.13.73,2.11,1.79,2.19l13.16.95c1.06.08,1.98-.78,2.05-1.91Z"/>
          <path class="cls-11" d="M90.51,208.66l-.81-2.75c-.32-1.08-1.4-1.68-2.42-1.34l-13.01,4.36c-1.02.34-1.58,1.5-1.26,2.58l.81,2.75c.32,1.08,1.4,1.68,2.42,1.34l13.01-4.36c1.02-.34,1.58-1.5,1.26-2.58Z"/>
          <path class="cls-11" d="M97.81,226.7l-.51-2.83c-.2-1.12-1.21-1.85-2.26-1.63l-15.32,3.11c-1.05.21-1.73,1.29-1.53,2.4l.51,2.83c.2,1.12,1.21,1.85,2.26,1.63l15.32-3.11c1.05-.21,1.73-1.29,1.53-2.4Z"/>
          <path class="cls-11" d="M94.71,248.29l.55-2.83c.22-1.11-.45-2.2-1.5-2.43l-15.72-3.48c-1.04-.23-2.06.48-2.28,1.6l-.55,2.83c-.22,1.11.45,2.2,1.5,2.43l15.72,3.48c1.04.23,2.06-.48,2.28-1.6Z"/>
          <path class="cls-11" d="M96.43,265.06l-.26-2.87c-.1-1.13-1.04-1.96-2.1-1.85l-20.32,2.07c-1.06.11-1.84,1.11-1.74,2.24l.26,2.87c.1,1.13,1.04,1.96,2.1,1.85l20.32-2.07c1.06-.11,1.84-1.11,1.74-2.24Z"/>
        </g>
        <path class="cls-16" d="M57.35,58.94c1.25-6.93,5.59-25.57,21.95-40.24C100.9-.65,127.49,1.24,136.14,1.85c26.52,1.89,57.72,16.69,69.12,44.1,2.97,7.14,3.96,13.58,4.32,17.89"/>
      </g>
    </g>
  </g>
</svg>